<?xml version="1.0" encoding="utf-8" standalone="no"?>
<!DOCTYPE svg PUBLIC "-//W3C//DTD SVG 1.1//EN"
  "http://www.w3.org/Graphics/SVG/1.1/DTD/svg11.dtd">
<svg xmlns:xlink="http://www.w3.org/1999/xlink" width="576pt" height="360pt" viewBox="0 0 576 360" xmlns="http://www.w3.org/2000/svg" version="1.1">
 <metadata>
  <rdf:RDF xmlns:dc="http://purl.org/dc/elements/1.1/" xmlns:cc="http://creativecommons.org/ns#" xmlns:rdf="http://www.w3.org/1999/02/22-rdf-syntax-ns#">
   <cc:Work>
    <dc:type rdf:resource="http://purl.org/dc/dcmitype/StillImage"/>
    <dc:date>2025-02-27T11:28:19.859222</dc:date>
    <dc:format>image/svg+xml</dc:format>
    <dc:creator>
     <cc:Agent>
      <dc:title>Matplotlib v3.7.2, https://matplotlib.org/</dc:title>
     </cc:Agent>
    </dc:creator>
   </cc:Work>
  </rdf:RDF>
 </metadata>
 <defs>
  <style type="text/css">*{stroke-linejoin: round; stroke-linecap: butt}</style>
 </defs>
 <g id="figure_1">
  <g id="patch_1">
   <path d="M 0 360 
L 576 360 
L 576 0 
L 0 0 
L 0 360 
z
" style="fill: none"/>
  </g>
  <g id="axes_1">
   <g id="patch_2">
    <path d="M 72 315 
L 518.4 315 
L 518.4 43.2 
L 72 43.2 
z
" style="fill: #ffffff"/>
   </g>
   <g id="PolyCollection_1">
    <defs>
     <path id="mc332f33791" d="M 295.2 -256.317958 
L 295.2 -45 
L 406.8 -45 
L 406.8 -256.317958 
L 406.8 -256.317958 
L 295.2 -256.317958 
z
" style="stroke: #00ffff; stroke-opacity: 0.2"/>
    </defs>
    <g clip-path="url(#p9d17c7ae4a)">
     <use xlink:href="#mc332f33791" x="0" y="360" style="fill: #00ffff; fill-opacity: 0.2; stroke: #00ffff; stroke-opacity: 0.2"/>
    </g>
   </g>
   <g id="PolyCollection_2">
    <defs>
     <path id="m303fa4cf7d" d="M 393.408 -256.317958 
L 393.408 -45 
L 406.8 -45 
L 406.8 -256.317958 
L 406.8 -256.317958 
L 393.408 -256.317958 
z
" style="stroke: #808080; stroke-opacity: 0.5"/>
    </defs>
    <g clip-path="url(#p9d17c7ae4a)">
     <use xlink:href="#m303fa4cf7d" x="0" y="360" style="fill: #808080; fill-opacity: 0.5; stroke: #808080; stroke-opacity: 0.5"/>
    </g>
   </g>
   <g id="matplotlib.axis_1">
    <g id="xtick_1">
     <g id="line2d_1">
      <defs>
       <path id="mc62c775585" d="M 0 0 
L 0 3.5 
" style="stroke: #000000; stroke-width: 0.8"/>
      </defs>
      <g>
       <use xlink:href="#mc62c775585" x="116.64" y="316" style="stroke: #000000; stroke-width: 0.8"/>
      </g>
     </g>
     <g id="text_1">
      <!-- −0.4 -->
      <g transform="translate(104.498594 330.598437) scale(0.1 -0.1)">
       <defs>
        <path id="DejaVuSans-2212" d="M 678 2272 
L 4684 2272 
L 4684 1741 
L 678 1741 
L 678 2272 
z
" transform="scale(0.015625)"/>
        <path id="DejaVuSans-30" d="M 2034 4250 
Q 1547 4250 1301 3770 
Q 1056 3291 1056 2328 
Q 1056 1369 1301 889 
Q 1547 409 2034 409 
Q 2525 409 2770 889 
Q 3016 1369 3016 2328 
Q 3016 3291 2770 3770 
Q 2525 4250 2034 4250 
z
M 2034 4750 
Q 2819 4750 3233 4129 
Q 3647 3509 3647 2328 
Q 3647 1150 3233 529 
Q 2819 -91 2034 -91 
Q 1250 -91 836 529 
Q 422 1150 422 2328 
Q 422 3509 836 4129 
Q 1250 4750 2034 4750 
z
" transform="scale(0.015625)"/>
        <path id="DejaVuSans-2e" d="M 684 794 
L 1344 794 
L 1344 0 
L 684 0 
L 684 794 
z
" transform="scale(0.015625)"/>
        <path id="DejaVuSans-34" d="M 2419 4116 
L 825 1625 
L 2419 1625 
L 2419 4116 
z
M 2253 4666 
L 3047 4666 
L 3047 1625 
L 3713 1625 
L 3713 1100 
L 3047 1100 
L 3047 0 
L 2419 0 
L 2419 1100 
L 313 1100 
L 313 1709 
L 2253 4666 
z
" transform="scale(0.015625)"/>
       </defs>
       <use xlink:href="#DejaVuSans-2212"/>
       <use xlink:href="#DejaVuSans-30" x="83.789062"/>
       <use xlink:href="#DejaVuSans-2e" x="147.412109"/>
       <use xlink:href="#DejaVuSans-34" x="179.199219"/>
      </g>
     </g>
    </g>
    <g id="xtick_2">
     <g id="line2d_2">
      <g>
       <use xlink:href="#mc62c775585" x="205.92" y="316" style="stroke: #000000; stroke-width: 0.8"/>
      </g>
     </g>
     <g id="text_2">
      <!-- −0.2 -->
      <g transform="translate(193.778594 330.598437) scale(0.1 -0.1)">
       <defs>
        <path id="DejaVuSans-32" d="M 1228 531 
L 3431 531 
L 3431 0 
L 469 0 
L 469 531 
Q 828 903 1448 1529 
Q 2069 2156 2228 2338 
Q 2531 2678 2651 2914 
Q 2772 3150 2772 3378 
Q 2772 3750 2511 3984 
Q 2250 4219 1831 4219 
Q 1534 4219 1204 4116 
Q 875 4013 500 3803 
L 500 4441 
Q 881 4594 1212 4672 
Q 1544 4750 1819 4750 
Q 2544 4750 2975 4387 
Q 3406 4025 3406 3419 
Q 3406 3131 3298 2873 
Q 3191 2616 2906 2266 
Q 2828 2175 2409 1742 
Q 1991 1309 1228 531 
z
" transform="scale(0.015625)"/>
       </defs>
       <use xlink:href="#DejaVuSans-2212"/>
       <use xlink:href="#DejaVuSans-30" x="83.789062"/>
       <use xlink:href="#DejaVuSans-2e" x="147.412109"/>
       <use xlink:href="#DejaVuSans-32" x="179.199219"/>
      </g>
     </g>
    </g>
    <g id="xtick_3">
     <g id="line2d_3">
      <g>
       <use xlink:href="#mc62c775585" x="295.2" y="316" style="stroke: #000000; stroke-width: 0.8"/>
      </g>
     </g>
     <g id="text_3">
      <!-- 0.0 -->
      <g transform="translate(287.248437 330.598437) scale(0.1 -0.1)">
       <use xlink:href="#DejaVuSans-30"/>
       <use xlink:href="#DejaVuSans-2e" x="63.623047"/>
       <use xlink:href="#DejaVuSans-30" x="95.410156"/>
      </g>
     </g>
    </g>
    <g id="xtick_4">
     <g id="line2d_4">
      <g>
       <use xlink:href="#mc62c775585" x="384.48" y="316" style="stroke: #000000; stroke-width: 0.8"/>
      </g>
     </g>
     <g id="text_4">
      <!-- 0.2 -->
      <g transform="translate(376.528437 330.598437) scale(0.1 -0.1)">
       <use xlink:href="#DejaVuSans-30"/>
       <use xlink:href="#DejaVuSans-2e" x="63.623047"/>
       <use xlink:href="#DejaVuSans-32" x="95.410156"/>
      </g>
     </g>
    </g>
    <g id="xtick_5">
     <g id="line2d_5">
      <g>
       <use xlink:href="#mc62c775585" x="473.76" y="316" style="stroke: #000000; stroke-width: 0.8"/>
      </g>
     </g>
     <g id="text_5">
      <!-- 0.4 -->
      <g transform="translate(465.808437 330.598437) scale(0.1 -0.1)">
       <use xlink:href="#DejaVuSans-30"/>
       <use xlink:href="#DejaVuSans-2e" x="63.623047"/>
       <use xlink:href="#DejaVuSans-34" x="95.410156"/>
      </g>
     </g>
    </g>
    <g id="text_6">
     <!-- Time [s] -->
     <g transform="translate(274.871094 344.276563) scale(0.1 -0.1)">
      <defs>
       <path id="DejaVuSans-54" d="M -19 4666 
L 3928 4666 
L 3928 4134 
L 2272 4134 
L 2272 0 
L 1638 0 
L 1638 4134 
L -19 4134 
L -19 4666 
z
" transform="scale(0.015625)"/>
       <path id="DejaVuSans-69" d="M 603 3500 
L 1178 3500 
L 1178 0 
L 603 0 
L 603 3500 
z
M 603 4863 
L 1178 4863 
L 1178 4134 
L 603 4134 
L 603 4863 
z
" transform="scale(0.015625)"/>
       <path id="DejaVuSans-6d" d="M 3328 2828 
Q 3544 3216 3844 3400 
Q 4144 3584 4550 3584 
Q 5097 3584 5394 3201 
Q 5691 2819 5691 2113 
L 5691 0 
L 5113 0 
L 5113 2094 
Q 5113 2597 4934 2840 
Q 4756 3084 4391 3084 
Q 3944 3084 3684 2787 
Q 3425 2491 3425 1978 
L 3425 0 
L 2847 0 
L 2847 2094 
Q 2847 2600 2669 2842 
Q 2491 3084 2119 3084 
Q 1678 3084 1418 2786 
Q 1159 2488 1159 1978 
L 1159 0 
L 581 0 
L 581 3500 
L 1159 3500 
L 1159 2956 
Q 1356 3278 1631 3431 
Q 1906 3584 2284 3584 
Q 2666 3584 2933 3390 
Q 3200 3197 3328 2828 
z
" transform="scale(0.015625)"/>
       <path id="DejaVuSans-65" d="M 3597 1894 
L 3597 1613 
L 953 1613 
Q 991 1019 1311 708 
Q 1631 397 2203 397 
Q 2534 397 2845 478 
Q 3156 559 3463 722 
L 3463 178 
Q 3153 47 2828 -22 
Q 2503 -91 2169 -91 
Q 1331 -91 842 396 
Q 353 884 353 1716 
Q 353 2575 817 3079 
Q 1281 3584 2069 3584 
Q 2775 3584 3186 3129 
Q 3597 2675 3597 1894 
z
M 3022 2063 
Q 3016 2534 2758 2815 
Q 2500 3097 2075 3097 
Q 1594 3097 1305 2825 
Q 1016 2553 972 2059 
L 3022 2063 
z
" transform="scale(0.015625)"/>
       <path id="DejaVuSans-20" transform="scale(0.015625)"/>
       <path id="DejaVuSans-5b" d="M 550 4863 
L 1875 4863 
L 1875 4416 
L 1125 4416 
L 1125 -397 
L 1875 -397 
L 1875 -844 
L 550 -844 
L 550 4863 
z
" transform="scale(0.015625)"/>
       <path id="DejaVuSans-73" d="M 2834 3397 
L 2834 2853 
Q 2591 2978 2328 3040 
Q 2066 3103 1784 3103 
Q 1356 3103 1142 2972 
Q 928 2841 928 2578 
Q 928 2378 1081 2264 
Q 1234 2150 1697 2047 
L 1894 2003 
Q 2506 1872 2764 1633 
Q 3022 1394 3022 966 
Q 3022 478 2636 193 
Q 2250 -91 1575 -91 
Q 1294 -91 989 -36 
Q 684 19 347 128 
L 347 722 
Q 666 556 975 473 
Q 1284 391 1588 391 
Q 1994 391 2212 530 
Q 2431 669 2431 922 
Q 2431 1156 2273 1281 
Q 2116 1406 1581 1522 
L 1381 1569 
Q 847 1681 609 1914 
Q 372 2147 372 2553 
Q 372 3047 722 3315 
Q 1072 3584 1716 3584 
Q 2034 3584 2315 3537 
Q 2597 3491 2834 3397 
z
" transform="scale(0.015625)"/>
       <path id="DejaVuSans-5d" d="M 1947 4863 
L 1947 -844 
L 622 -844 
L 622 -397 
L 1369 -397 
L 1369 4416 
L 622 4416 
L 622 4863 
L 1947 4863 
z
" transform="scale(0.015625)"/>
      </defs>
      <use xlink:href="#DejaVuSans-54"/>
      <use xlink:href="#DejaVuSans-69" x="57.958984"/>
      <use xlink:href="#DejaVuSans-6d" x="85.742188"/>
      <use xlink:href="#DejaVuSans-65" x="183.154297"/>
      <use xlink:href="#DejaVuSans-20" x="244.677734"/>
      <use xlink:href="#DejaVuSans-5b" x="276.464844"/>
      <use xlink:href="#DejaVuSans-73" x="315.478516"/>
      <use xlink:href="#DejaVuSans-5d" x="367.578125"/>
     </g>
    </g>
   </g>
   <g id="matplotlib.axis_2">
    <g id="ytick_1">
     <g id="line2d_6">
      <defs>
       <path id="mb25f6b706d" d="M 0 0 
L -3.5 0 
" style="stroke: #000000; stroke-width: 0.8"/>
      </defs>
      <g>
       <use xlink:href="#mb25f6b706d" x="71" y="315" style="stroke: #000000; stroke-width: 0.8"/>
      </g>
     </g>
     <g id="text_7">
      <!-- 0.0 -->
      <g transform="translate(48.096875 318.799219) scale(0.1 -0.1)">
       <use xlink:href="#DejaVuSans-30"/>
       <use xlink:href="#DejaVuSans-2e" x="63.623047"/>
       <use xlink:href="#DejaVuSans-30" x="95.410156"/>
      </g>
     </g>
    </g>
    <g id="ytick_2">
     <g id="line2d_7">
      <g>
       <use xlink:href="#mb25f6b706d" x="71" y="262.17051" style="stroke: #000000; stroke-width: 0.8"/>
      </g>
     </g>
     <g id="text_8">
      <!-- 0.5 -->
      <g transform="translate(48.096875 265.969729) scale(0.1 -0.1)">
       <defs>
        <path id="DejaVuSans-35" d="M 691 4666 
L 3169 4666 
L 3169 4134 
L 1269 4134 
L 1269 2991 
Q 1406 3038 1543 3061 
Q 1681 3084 1819 3084 
Q 2600 3084 3056 2656 
Q 3513 2228 3513 1497 
Q 3513 744 3044 326 
Q 2575 -91 1722 -91 
Q 1428 -91 1123 -41 
Q 819 9 494 109 
L 494 744 
Q 775 591 1075 516 
Q 1375 441 1709 441 
Q 2250 441 2565 725 
Q 2881 1009 2881 1497 
Q 2881 1984 2565 2268 
Q 2250 2553 1709 2553 
Q 1456 2553 1204 2497 
Q 953 2441 691 2322 
L 691 4666 
z
" transform="scale(0.015625)"/>
       </defs>
       <use xlink:href="#DejaVuSans-30"/>
       <use xlink:href="#DejaVuSans-2e" x="63.623047"/>
       <use xlink:href="#DejaVuSans-35" x="95.410156"/>
      </g>
     </g>
    </g>
    <g id="ytick_3">
     <g id="line2d_8">
      <g>
       <use xlink:href="#mb25f6b706d" x="71" y="209.341021" style="stroke: #000000; stroke-width: 0.8"/>
      </g>
     </g>
     <g id="text_9">
      <!-- 1.0 -->
      <g transform="translate(48.096875 213.14024) scale(0.1 -0.1)">
       <defs>
        <path id="DejaVuSans-31" d="M 794 531 
L 1825 531 
L 1825 4091 
L 703 3866 
L 703 4441 
L 1819 4666 
L 2450 4666 
L 2450 531 
L 3481 531 
L 3481 0 
L 794 0 
L 794 531 
z
" transform="scale(0.015625)"/>
       </defs>
       <use xlink:href="#DejaVuSans-31"/>
       <use xlink:href="#DejaVuSans-2e" x="63.623047"/>
       <use xlink:href="#DejaVuSans-30" x="95.410156"/>
      </g>
     </g>
    </g>
    <g id="ytick_4">
     <g id="line2d_9">
      <g>
       <use xlink:href="#mb25f6b706d" x="71" y="156.511531" style="stroke: #000000; stroke-width: 0.8"/>
      </g>
     </g>
     <g id="text_10">
      <!-- 1.5 -->
      <g transform="translate(48.096875 160.31075) scale(0.1 -0.1)">
       <use xlink:href="#DejaVuSans-31"/>
       <use xlink:href="#DejaVuSans-2e" x="63.623047"/>
       <use xlink:href="#DejaVuSans-35" x="95.410156"/>
      </g>
     </g>
    </g>
    <g id="ytick_5">
     <g id="line2d_10">
      <g>
       <use xlink:href="#mb25f6b706d" x="71" y="103.682042" style="stroke: #000000; stroke-width: 0.8"/>
      </g>
     </g>
     <g id="text_11">
      <!-- 2.0 -->
      <g transform="translate(48.096875 107.48126) scale(0.1 -0.1)">
       <use xlink:href="#DejaVuSans-32"/>
       <use xlink:href="#DejaVuSans-2e" x="63.623047"/>
       <use xlink:href="#DejaVuSans-30" x="95.410156"/>
      </g>
     </g>
    </g>
    <g id="ytick_6">
     <g id="line2d_11">
      <g>
       <use xlink:href="#mb25f6b706d" x="71" y="50.852552" style="stroke: #000000; stroke-width: 0.8"/>
      </g>
     </g>
     <g id="text_12">
      <!-- 2.5 -->
      <g transform="translate(48.096875 54.651771) scale(0.1 -0.1)">
       <use xlink:href="#DejaVuSans-32"/>
       <use xlink:href="#DejaVuSans-2e" x="63.623047"/>
       <use xlink:href="#DejaVuSans-35" x="95.410156"/>
      </g>
     </g>
    </g>
    <g id="text_13">
     <!-- Density -->
     <g transform="translate(42.017187 198.108594) rotate(-90) scale(0.1 -0.1)">
      <defs>
       <path id="DejaVuSans-44" d="M 1259 4147 
L 1259 519 
L 2022 519 
Q 2988 519 3436 956 
Q 3884 1394 3884 2338 
Q 3884 3275 3436 3711 
Q 2988 4147 2022 4147 
L 1259 4147 
z
M 628 4666 
L 1925 4666 
Q 3281 4666 3915 4102 
Q 4550 3538 4550 2338 
Q 4550 1131 3912 565 
Q 3275 0 1925 0 
L 628 0 
L 628 4666 
z
" transform="scale(0.015625)"/>
       <path id="DejaVuSans-6e" d="M 3513 2113 
L 3513 0 
L 2938 0 
L 2938 2094 
Q 2938 2591 2744 2837 
Q 2550 3084 2163 3084 
Q 1697 3084 1428 2787 
Q 1159 2491 1159 1978 
L 1159 0 
L 581 0 
L 581 3500 
L 1159 3500 
L 1159 2956 
Q 1366 3272 1645 3428 
Q 1925 3584 2291 3584 
Q 2894 3584 3203 3211 
Q 3513 2838 3513 2113 
z
" transform="scale(0.015625)"/>
       <path id="DejaVuSans-74" d="M 1172 4494 
L 1172 3500 
L 2356 3500 
L 2356 3053 
L 1172 3053 
L 1172 1153 
Q 1172 725 1289 603 
Q 1406 481 1766 481 
L 2356 481 
L 2356 0 
L 1766 0 
Q 1100 0 847 248 
Q 594 497 594 1153 
L 594 3053 
L 172 3053 
L 172 3500 
L 594 3500 
L 594 4494 
L 1172 4494 
z
" transform="scale(0.015625)"/>
       <path id="DejaVuSans-79" d="M 2059 -325 
Q 1816 -950 1584 -1140 
Q 1353 -1331 966 -1331 
L 506 -1331 
L 506 -850 
L 844 -850 
Q 1081 -850 1212 -737 
Q 1344 -625 1503 -206 
L 1606 56 
L 191 3500 
L 800 3500 
L 1894 763 
L 2988 3500 
L 3597 3500 
L 2059 -325 
z
" transform="scale(0.015625)"/>
      </defs>
      <use xlink:href="#DejaVuSans-44"/>
      <use xlink:href="#DejaVuSans-65" x="77.001953"/>
      <use xlink:href="#DejaVuSans-6e" x="138.525391"/>
      <use xlink:href="#DejaVuSans-73" x="201.904297"/>
      <use xlink:href="#DejaVuSans-69" x="254.003906"/>
      <use xlink:href="#DejaVuSans-74" x="281.787109"/>
      <use xlink:href="#DejaVuSans-79" x="320.996094"/>
     </g>
    </g>
   </g>
   <g id="line2d_12">
    <path d="M -1 314.647794 
L 3.84958 314.392707 
L 10.324861 313.80077 
L 13.562501 313.362173 
L 16.800141 312.804144 
L 20.037781 312.108927 
L 23.275422 311.260961 
L 26.513062 310.248738 
L 29.750702 309.0669 
L 32.988342 307.718387 
L 36.225982 306.216434 
L 42.701263 302.865056 
L 49.176543 299.361169 
L 52.414184 297.706955 
L 55.651824 296.211693 
L 58.889464 294.943977 
L 62.127104 293.963759 
L 65.364744 293.316336 
L 68.602385 293.027221 
L 71.840025 293.098604 
L 75.077665 293.507985 
L 78.315305 294.209244 
L 81.552946 295.136121 
L 94.503506 299.407593 
L 97.741147 300.199459 
L 100.978787 300.751588 
L 104.216427 301.030041 
L 107.454067 301.02131 
L 110.691707 300.731826 
L 113.929348 300.186397 
L 117.166988 299.425876 
L 123.642268 297.485742 
L 130.117549 295.440555 
L 133.355189 294.556186 
L 136.592829 293.849875 
L 139.830469 293.372202 
L 143.06811 293.157474 
L 146.30575 293.220525 
L 149.54339 293.554996 
L 152.78103 294.133446 
L 156.01867 294.909361 
L 172.206872 299.3549 
L 175.444512 299.866262 
L 178.682152 300.128004 
L 181.919792 300.117174 
L 185.157432 299.828438 
L 188.395073 299.273571 
L 191.632713 298.480255 
L 194.870353 297.490466 
L 201.345633 295.149719 
L 207.820914 292.797123 
L 211.058554 291.810226 
L 214.296194 291.050768 
L 217.533835 290.583827 
L 220.771475 290.458565 
L 224.009115 290.70257 
L 227.246755 291.317591 
L 230.484395 292.277523 
L 233.722036 293.529253 
L 236.959676 294.996532 
L 246.672596 299.732329 
L 249.910237 301.098595 
L 253.147877 302.224604 
L 256.385517 303.059765 
L 259.623157 303.577517 
L 262.860798 303.774675 
L 266.098438 303.668593 
L 269.336078 303.29294 
L 272.573718 302.692946 
L 275.811358 301.920916 
L 282.286639 300.08431 
L 288.761919 298.227805 
L 291.999559 297.422728 
L 295.2372 296.761472 
L 298.47484 296.282106 
L 301.71248 296.012984 
L 304.95012 295.969771 
L 308.187761 296.152768 
L 311.425401 296.545113 
L 314.663041 297.112373 
L 327.613602 299.934209 
L 330.851242 300.400932 
L 334.088882 300.610578 
L 337.326522 300.482903 
L 340.564163 299.93719 
L 343.801803 298.889185 
L 347.039443 297.247336 
L 350.277083 294.909801 
L 353.514724 291.763995 
L 356.752364 287.690561 
L 359.990004 282.573324 
L 363.227644 276.315973 
L 366.465284 268.864977 
L 369.702925 260.236534 
L 372.940565 250.543692 
L 376.178205 240.018303 
L 382.653485 218.040319 
L 385.891126 207.658285 
L 389.128766 198.514663 
L 392.366406 191.24142 
L 395.604046 186.394407 
L 398.841687 184.386076 
L 402.079327 185.431202 
L 405.316967 189.515081 
L 408.554607 196.390033 
L 411.792247 205.600997 
L 415.029888 216.535794 
L 424.742808 252.620124 
L 427.980448 263.536269 
L 431.218089 273.041536 
L 434.455729 280.823575 
L 437.693369 286.704259 
L 440.931009 290.622942 
L 444.16865 292.614812 
L 447.40629 292.790039 
L 450.64393 291.317531 
L 453.88157 288.41469 
L 457.11921 284.342197 
L 460.356851 279.401154 
L 470.069771 262.868658 
L 473.307411 258.031554 
L 476.545052 254.11898 
L 479.782692 251.408363 
L 483.020332 250.091049 
L 486.257972 250.254041 
L 489.495613 251.871799 
L 492.733253 254.809823 
L 495.970893 258.839748 
L 499.208533 263.663825 
L 508.921454 279.527876 
L 512.159094 284.233658 
L 515.396734 288.24693 
L 518.634374 291.429239 
L 521.872015 293.715909 
L 525.109655 295.111712 
L 528.347295 295.682465 
L 531.584935 295.544144 
L 534.822576 294.850706 
L 538.060216 293.781298 
L 544.535496 291.278656 
L 547.773136 290.211987 
L 551.010777 289.477428 
L 554.248417 289.188743 
L 557.486057 289.415631 
L 560.723697 290.179986 
L 563.961338 291.456706 
L 567.198978 293.179138 
L 570.436618 295.248566 
L 577 300.01284 
L 577 300.01284 
" clip-path="url(#p9d17c7ae4a)" style="fill: none; stroke: #1c4981; stroke-width: 2; stroke-linecap: square"/>
   </g>
   <g id="line2d_13">
    <path d="M -1 313.662507 
L 0.873619 313.381558 
L 4.089569 312.75818 
L 7.305519 311.97672 
L 10.521469 311.025124 
L 13.737419 309.897131 
L 16.953369 308.592269 
L 20.169319 307.115043 
L 23.385268 305.473704 
L 26.601218 303.679311 
L 33.033118 299.691409 
L 42.680968 293.115837 
L 45.896918 290.955027 
L 49.112868 288.928694 
L 52.328818 287.121974 
L 55.544768 285.618282 
L 58.760718 284.488675 
L 61.976668 283.781365 
L 65.192618 283.513471 
L 68.408568 283.66667 
L 71.624518 284.187662 
L 74.840468 284.993419 
L 87.704268 288.928114 
L 90.920218 289.595665 
L 94.136168 290.005896 
L 97.352118 290.138977 
L 100.568067 289.999633 
L 103.784017 289.61217 
L 106.999967 289.014559 
L 113.431867 287.377349 
L 123.079717 284.585836 
L 126.295667 283.774918 
L 129.511617 283.109635 
L 132.727567 282.636972 
L 135.943517 282.396529 
L 139.159467 282.416687 
L 142.375417 282.711147 
L 145.591367 283.276459 
L 148.807317 284.090933 
L 152.023267 285.115088 
L 158.455167 287.558613 
L 164.887067 290.0436 
L 168.103017 291.112771 
L 171.318967 291.980185 
L 174.534917 292.601326 
L 177.750867 292.953362 
L 180.966816 293.037023 
L 184.182766 292.875542 
L 187.398716 292.510748 
L 193.830616 291.39363 
L 203.478466 289.575292 
L 209.910366 288.680095 
L 216.342266 288.079413 
L 229.206066 287.058718 
L 235.637966 286.272444 
L 248.501766 284.48511 
L 251.717716 284.269794 
L 254.933666 284.261787 
L 258.149615 284.500196 
L 261.365565 285.000072 
L 264.581515 285.747986 
L 267.797465 286.702123 
L 280.661265 291.111074 
L 283.877215 291.975336 
L 287.093165 292.636297 
L 290.309115 293.07872 
L 293.525065 293.308801 
L 296.741015 293.347859 
L 299.956965 293.223782 
L 303.172915 292.96207 
L 306.388865 292.578395 
L 309.604815 292.074271 
L 312.820765 291.436759 
L 316.036715 290.642298 
L 319.252665 289.663843 
L 322.468615 288.479748 
L 325.684565 287.082345 
L 328.900515 285.484005 
L 335.332414 281.83677 
L 344.980264 275.951444 
L 348.196214 273.886953 
L 351.412164 271.574815 
L 354.628114 268.732404 
L 357.844064 264.948702 
L 361.060014 259.696431 
L 364.275964 252.372668 
L 367.491914 242.372099 
L 370.707864 229.191384 
L 373.923814 212.554871 
L 377.139764 192.542704 
L 380.355714 169.694536 
L 386.787614 120.162676 
L 390.003564 96.887136 
L 393.219514 77.257922 
L 396.435464 63.176839 
L 399.651414 56.142857 
L 402.867364 57.017359 
L 406.083314 65.88335 
L 409.299264 82.029401 
L 412.515213 104.06148 
L 415.731163 130.117274 
L 422.163063 186.128747 
L 425.379013 212.397469 
L 428.594963 235.672713 
L 431.810913 255.156458 
L 435.026863 270.482826 
L 438.242813 281.62207 
L 441.458763 288.760447 
L 444.674713 292.186535 
L 447.890663 292.206772 
L 451.106613 289.102208 
L 454.322563 283.127647 
L 457.538513 274.545202 
L 460.754463 263.677947 
L 463.970413 250.966009 
L 470.402313 222.568819 
L 473.618263 208.55828 
L 476.834213 195.958247 
L 480.050163 185.728448 
L 483.266113 178.693907 
L 486.482063 175.438979 
L 489.698013 176.228069 
L 492.913962 180.968961 
L 496.129912 189.226132 
L 499.345862 200.281147 
L 502.561812 213.227884 
L 508.993712 240.901005 
L 512.209662 253.85002 
L 515.425612 265.283619 
L 518.641562 274.760785 
L 521.857512 282.045631 
L 525.073462 287.086478 
L 528.289412 289.985374 
L 531.505362 290.966163 
L 534.721312 290.345712 
L 537.937262 288.509056 
L 541.153212 285.886295 
L 547.585112 280.076724 
L 550.801062 277.734487 
L 554.017012 276.229213 
L 557.232962 275.785078 
L 560.448912 276.502762 
L 563.664862 278.354397 
L 566.880812 281.195302 
L 570.096761 284.791009 
L 576.528661 293.088731 
L 577 293.694398 
L 577 293.694398 
" clip-path="url(#p9d17c7ae4a)" style="fill: none; stroke: #8a1218; stroke-width: 2; stroke-linecap: square"/>
   </g>
   <g id="line2d_14">
    <path d="M -1 314.454014 
L 4.892823 314.064641 
L 11.455076 313.387734 
L 18.01733 312.374759 
L 21.298457 311.712941 
L 24.579583 310.932773 
L 27.86071 310.025795 
L 31.141837 308.987899 
L 37.70409 306.538265 
L 44.266344 303.720155 
L 50.828597 300.841817 
L 54.109724 299.513599 
L 57.390851 298.335633 
L 60.671978 297.359168 
L 63.953104 296.624455 
L 67.234231 296.156775 
L 70.515358 295.964213 
L 73.796485 296.03739 
L 77.077611 296.351007 
L 80.358738 296.866751 
L 86.920992 298.308463 
L 96.764372 300.688011 
L 100.045499 301.338339 
L 103.326625 301.851682 
L 106.607752 302.203383 
L 109.888879 302.381306 
L 113.170006 302.387157 
L 116.451132 302.236869 
L 123.013386 301.595931 
L 132.856766 300.466279 
L 136.137893 300.228769 
L 139.41902 300.115694 
L 142.700146 300.140407 
L 145.981273 300.30166 
L 152.543527 300.965051 
L 168.94916 303.128506 
L 172.230287 303.383279 
L 175.511414 303.518606 
L 178.792541 303.519569 
L 182.073667 303.37876 
L 185.354794 303.097915 
L 191.917047 302.177788 
L 205.041554 299.944494 
L 208.322681 299.597141 
L 211.603808 299.42807 
L 214.884935 299.465012 
L 218.166061 299.71857 
L 221.447188 300.18114 
L 224.728315 300.82801 
L 231.290568 302.509621 
L 241.133949 305.231701 
L 244.415075 305.999116 
L 247.696202 306.638035 
L 250.977329 307.129643 
L 254.258456 307.466837 
L 257.539582 307.653838 
L 260.820709 307.705258 
L 267.382963 307.502786 
L 280.50747 306.829758 
L 287.069723 306.8352 
L 293.631977 307.16012 
L 306.756484 308.046122 
L 313.318737 308.117427 
L 319.880991 307.754448 
L 326.443244 306.982142 
L 333.005498 305.869173 
L 336.286624 305.1774 
L 339.567751 304.356543 
L 342.848878 303.342565 
L 346.130005 302.035227 
L 349.411131 300.293454 
L 352.692258 297.934857 
L 355.973385 294.74172 
L 359.254512 290.475645 
L 362.535638 284.902268 
L 365.816765 277.825854 
L 369.097892 269.131263 
L 372.379019 258.828176 
L 375.660145 247.090067 
L 378.941272 234.279116 
L 385.503526 207.817083 
L 388.784652 195.712354 
L 392.065779 185.490618 
L 395.346906 177.940032 
L 398.628033 173.683802 
L 401.909159 173.098761 
L 405.190286 176.263775 
L 408.471413 182.947239 
L 411.752539 192.635681 
L 415.033666 204.597827 
L 418.314793 217.972163 
L 424.877046 245.426127 
L 428.158173 257.942196 
L 431.4393 268.8536 
L 434.720427 277.781426 
L 438.001553 284.516527 
L 441.28268 288.996076 
L 444.563807 291.274001 
L 447.844934 291.493078 
L 451.12606 289.863665 
L 454.407187 286.65072 
L 457.688314 282.167523 
L 460.969441 276.772325 
L 470.812821 259.222194 
L 474.093948 254.347579 
L 477.375074 250.61461 
L 480.656201 248.31193 
L 483.937328 247.6176 
L 487.218455 248.580765 
L 490.499581 251.116881 
L 493.780708 255.017768 
L 497.061835 259.975135 
L 500.342962 265.613966 
L 506.905215 277.33115 
L 510.186342 282.66273 
L 513.467469 287.239348 
L 516.748595 290.856324 
L 520.029722 293.396622 
L 523.310849 294.829715 
L 526.591976 295.205113 
L 529.873102 294.642387 
L 533.154229 293.318879 
L 536.435356 291.455619 
L 542.997609 287.115609 
L 546.278736 285.148431 
L 549.559863 283.622406 
L 552.84099 282.714147 
L 556.122116 282.540147 
L 559.403243 283.148197 
L 562.68437 284.51603 
L 565.965497 286.557627 
L 569.246623 289.136413 
L 572.52775 292.083361 
L 577 296.35968 
L 577 296.35968 
" clip-path="url(#p9d17c7ae4a)" style="fill: none; stroke-dasharray: 2,3.3; stroke-dashoffset: 0; stroke: #1c4981; stroke-width: 2"/>
   </g>
   <g id="line2d_15">
    <path d="M -1 312.755499 
L -0.076333 312.533049 
L 3.167745 311.47744 
L 6.411823 310.091421 
L 9.655902 308.323543 
L 12.89998 306.134028 
L 16.144058 303.502598 
L 19.388136 300.436124 
L 22.632214 296.97484 
L 25.876292 293.19581 
L 35.608527 281.234567 
L 38.852605 277.582268 
L 42.096683 274.38163 
L 45.340762 271.778916 
L 48.58484 269.884227 
L 51.828918 268.76161 
L 55.072996 268.424236 
L 58.317074 268.835075 
L 61.561152 269.912586 
L 64.805231 271.540221 
L 68.049309 273.578097 
L 74.537465 278.279493 
L 77.781543 280.648064 
L 81.025621 282.851381 
L 84.2697 284.777187 
L 87.513778 286.331401 
L 90.757856 287.438035 
L 94.001934 288.03902 
L 97.246012 288.094779 
L 100.49009 287.586036 
L 103.734169 286.516793 
L 106.978247 284.917911 
L 110.222325 282.850261 
L 113.466403 280.406267 
L 119.95456 274.905876 
L 123.198638 272.163453 
L 126.442716 269.65273 
L 129.686794 267.537223 
L 132.930872 265.958772 
L 136.17495 265.025044 
L 139.419029 264.800048 
L 142.663107 265.298814 
L 145.907185 266.486766 
L 149.151263 268.283592 
L 152.395341 270.570814 
L 155.639419 273.201822 
L 165.371654 281.500875 
L 168.615732 283.858067 
L 171.85981 285.771718 
L 175.103888 287.132331 
L 178.347967 287.860567 
L 181.592045 287.912007 
L 184.836123 287.281421 
L 188.080201 286.006012 
L 191.324279 284.16668 
L 194.568358 281.886236 
L 204.300592 274.103169 
L 207.54467 271.833274 
L 210.788748 270.022351 
L 214.032827 268.799608 
L 217.276905 268.243186 
L 220.520983 268.374095 
L 223.765061 269.156893 
L 227.009139 270.506801 
L 230.253217 272.301766 
L 233.497296 274.397293 
L 243.22953 281.006154 
L 246.473608 282.884839 
L 249.717686 284.435633 
L 252.961765 285.591098 
L 256.205843 286.302995 
L 259.449921 286.540815 
L 262.693999 286.291764 
L 265.938077 285.562469 
L 269.182156 284.381929 
L 272.426234 282.804617 
L 275.670312 280.912345 
L 285.402546 274.536015 
L 288.646625 272.653513 
L 291.890703 271.133982 
L 295.134781 270.098425 
L 298.378859 269.635628 
L 301.622937 269.79396 
L 304.867015 270.577167 
L 308.111094 271.944496 
L 311.355172 273.814801 
L 314.59925 276.073766 
L 327.575563 286.064476 
L 330.819641 288.02646 
L 334.063719 289.480793 
L 337.307797 290.294607 
L 340.551875 290.339384 
L 343.795954 289.485141 
L 347.040032 287.593531 
L 350.28411 284.511689 
L 353.528188 280.069369 
L 356.772266 274.082531 
L 360.016344 266.366531 
L 363.260423 256.761272 
L 366.504501 245.168689 
L 369.748579 231.599921 
L 372.992657 216.225805 
L 376.236735 199.420893 
L 382.724892 164.159108 
L 385.96897 147.542431 
L 389.213048 133.051128 
L 392.457126 121.783689 
L 395.701204 114.693592 
L 398.945282 112.462231 
L 402.189361 115.399263 
L 405.433439 123.389744 
L 408.677517 135.89901 
L 411.921595 152.034925 
L 415.165673 170.655798 
L 421.65383 210.339749 
L 424.897908 229.058138 
L 428.141986 245.765512 
L 431.386064 259.817271 
L 434.630142 270.815006 
L 437.874221 278.574844 
L 441.118299 283.080867 
L 444.362377 284.437767 
L 447.606455 282.833885 
L 450.850533 278.520709 
L 454.094611 271.809261 
L 457.33869 263.078835 
L 460.582768 252.790205 
L 467.070924 229.82769 
L 470.315002 218.491639 
L 473.55908 208.210711 
L 476.803159 199.677676 
L 480.047237 193.490424 
L 483.291315 190.09147 
L 486.535393 189.720298 
L 489.779471 192.387015 
L 493.02355 197.872152 
L 496.267628 205.752847 
L 499.511706 215.451077 
L 502.755784 226.29612 
L 509.24394 248.678602 
L 512.488019 258.985228 
L 515.732097 268.062325 
L 518.976175 275.600567 
L 522.220253 281.433201 
L 525.464331 285.527274 
L 528.708409 287.967562 
L 531.952488 288.936665 
L 535.196566 288.693488 
L 538.440644 287.550988 
L 541.684722 285.853173 
L 544.9288 283.95109 
L 548.172878 282.178036 
L 551.416957 280.825157 
L 554.661035 280.119586 
L 557.905113 280.207841 
L 561.149191 281.147125 
L 564.393269 282.906241 
L 567.637348 285.376346 
L 570.881426 288.390072 
L 577 294.837271 
L 577 294.837271 
" clip-path="url(#p9d17c7ae4a)" style="fill: none; stroke-dasharray: 2,3.3; stroke-dashoffset: 0; stroke: #8a1218; stroke-width: 2"/>
   </g>
   <g id="patch_3">
    <path d="M 71 315 
L 71 50.852552 
" style="fill: none; stroke: #000000; stroke-width: 0.8; stroke-linejoin: miter; stroke-linecap: square"/>
   </g>
   <g id="patch_4">
    <path d="M 116.64 316 
L 473.76 316 
" style="fill: none; stroke: #000000; stroke-width: 0.8; stroke-linejoin: miter; stroke-linecap: square"/>
   </g>
   <g id="text_14">
    <!-- closed_open_loops_diff_tau IO Spikes CS+US -->
    <g transform="translate(160.685625 37.2) scale(0.12 -0.12)">
     <defs>
      <path id="DejaVuSans-63" d="M 3122 3366 
L 3122 2828 
Q 2878 2963 2633 3030 
Q 2388 3097 2138 3097 
Q 1578 3097 1268 2742 
Q 959 2388 959 1747 
Q 959 1106 1268 751 
Q 1578 397 2138 397 
Q 2388 397 2633 464 
Q 2878 531 3122 666 
L 3122 134 
Q 2881 22 2623 -34 
Q 2366 -91 2075 -91 
Q 1284 -91 818 406 
Q 353 903 353 1747 
Q 353 2603 823 3093 
Q 1294 3584 2113 3584 
Q 2378 3584 2631 3529 
Q 2884 3475 3122 3366 
z
" transform="scale(0.015625)"/>
      <path id="DejaVuSans-6c" d="M 603 4863 
L 1178 4863 
L 1178 0 
L 603 0 
L 603 4863 
z
" transform="scale(0.015625)"/>
      <path id="DejaVuSans-6f" d="M 1959 3097 
Q 1497 3097 1228 2736 
Q 959 2375 959 1747 
Q 959 1119 1226 758 
Q 1494 397 1959 397 
Q 2419 397 2687 759 
Q 2956 1122 2956 1747 
Q 2956 2369 2687 2733 
Q 2419 3097 1959 3097 
z
M 1959 3584 
Q 2709 3584 3137 3096 
Q 3566 2609 3566 1747 
Q 3566 888 3137 398 
Q 2709 -91 1959 -91 
Q 1206 -91 779 398 
Q 353 888 353 1747 
Q 353 2609 779 3096 
Q 1206 3584 1959 3584 
z
" transform="scale(0.015625)"/>
      <path id="DejaVuSans-64" d="M 2906 2969 
L 2906 4863 
L 3481 4863 
L 3481 0 
L 2906 0 
L 2906 525 
Q 2725 213 2448 61 
Q 2172 -91 1784 -91 
Q 1150 -91 751 415 
Q 353 922 353 1747 
Q 353 2572 751 3078 
Q 1150 3584 1784 3584 
Q 2172 3584 2448 3432 
Q 2725 3281 2906 2969 
z
M 947 1747 
Q 947 1113 1208 752 
Q 1469 391 1925 391 
Q 2381 391 2643 752 
Q 2906 1113 2906 1747 
Q 2906 2381 2643 2742 
Q 2381 3103 1925 3103 
Q 1469 3103 1208 2742 
Q 947 2381 947 1747 
z
" transform="scale(0.015625)"/>
      <path id="DejaVuSans-5f" d="M 3263 -1063 
L 3263 -1509 
L -63 -1509 
L -63 -1063 
L 3263 -1063 
z
" transform="scale(0.015625)"/>
      <path id="DejaVuSans-70" d="M 1159 525 
L 1159 -1331 
L 581 -1331 
L 581 3500 
L 1159 3500 
L 1159 2969 
Q 1341 3281 1617 3432 
Q 1894 3584 2278 3584 
Q 2916 3584 3314 3078 
Q 3713 2572 3713 1747 
Q 3713 922 3314 415 
Q 2916 -91 2278 -91 
Q 1894 -91 1617 61 
Q 1341 213 1159 525 
z
M 3116 1747 
Q 3116 2381 2855 2742 
Q 2594 3103 2138 3103 
Q 1681 3103 1420 2742 
Q 1159 2381 1159 1747 
Q 1159 1113 1420 752 
Q 1681 391 2138 391 
Q 2594 391 2855 752 
Q 3116 1113 3116 1747 
z
" transform="scale(0.015625)"/>
      <path id="DejaVuSans-66" d="M 2375 4863 
L 2375 4384 
L 1825 4384 
Q 1516 4384 1395 4259 
Q 1275 4134 1275 3809 
L 1275 3500 
L 2222 3500 
L 2222 3053 
L 1275 3053 
L 1275 0 
L 697 0 
L 697 3053 
L 147 3053 
L 147 3500 
L 697 3500 
L 697 3744 
Q 697 4328 969 4595 
Q 1241 4863 1831 4863 
L 2375 4863 
z
" transform="scale(0.015625)"/>
      <path id="DejaVuSans-61" d="M 2194 1759 
Q 1497 1759 1228 1600 
Q 959 1441 959 1056 
Q 959 750 1161 570 
Q 1363 391 1709 391 
Q 2188 391 2477 730 
Q 2766 1069 2766 1631 
L 2766 1759 
L 2194 1759 
z
M 3341 1997 
L 3341 0 
L 2766 0 
L 2766 531 
Q 2569 213 2275 61 
Q 1981 -91 1556 -91 
Q 1019 -91 701 211 
Q 384 513 384 1019 
Q 384 1609 779 1909 
Q 1175 2209 1959 2209 
L 2766 2209 
L 2766 2266 
Q 2766 2663 2505 2880 
Q 2244 3097 1772 3097 
Q 1472 3097 1187 3025 
Q 903 2953 641 2809 
L 641 3341 
Q 956 3463 1253 3523 
Q 1550 3584 1831 3584 
Q 2591 3584 2966 3190 
Q 3341 2797 3341 1997 
z
" transform="scale(0.015625)"/>
      <path id="DejaVuSans-75" d="M 544 1381 
L 544 3500 
L 1119 3500 
L 1119 1403 
Q 1119 906 1312 657 
Q 1506 409 1894 409 
Q 2359 409 2629 706 
Q 2900 1003 2900 1516 
L 2900 3500 
L 3475 3500 
L 3475 0 
L 2900 0 
L 2900 538 
Q 2691 219 2414 64 
Q 2138 -91 1772 -91 
Q 1169 -91 856 284 
Q 544 659 544 1381 
z
M 1991 3584 
L 1991 3584 
z
" transform="scale(0.015625)"/>
      <path id="DejaVuSans-49" d="M 628 4666 
L 1259 4666 
L 1259 0 
L 628 0 
L 628 4666 
z
" transform="scale(0.015625)"/>
      <path id="DejaVuSans-4f" d="M 2522 4238 
Q 1834 4238 1429 3725 
Q 1025 3213 1025 2328 
Q 1025 1447 1429 934 
Q 1834 422 2522 422 
Q 3209 422 3611 934 
Q 4013 1447 4013 2328 
Q 4013 3213 3611 3725 
Q 3209 4238 2522 4238 
z
M 2522 4750 
Q 3503 4750 4090 4092 
Q 4678 3434 4678 2328 
Q 4678 1225 4090 567 
Q 3503 -91 2522 -91 
Q 1538 -91 948 565 
Q 359 1222 359 2328 
Q 359 3434 948 4092 
Q 1538 4750 2522 4750 
z
" transform="scale(0.015625)"/>
      <path id="DejaVuSans-53" d="M 3425 4513 
L 3425 3897 
Q 3066 4069 2747 4153 
Q 2428 4238 2131 4238 
Q 1616 4238 1336 4038 
Q 1056 3838 1056 3469 
Q 1056 3159 1242 3001 
Q 1428 2844 1947 2747 
L 2328 2669 
Q 3034 2534 3370 2195 
Q 3706 1856 3706 1288 
Q 3706 609 3251 259 
Q 2797 -91 1919 -91 
Q 1588 -91 1214 -16 
Q 841 59 441 206 
L 441 856 
Q 825 641 1194 531 
Q 1563 422 1919 422 
Q 2459 422 2753 634 
Q 3047 847 3047 1241 
Q 3047 1584 2836 1778 
Q 2625 1972 2144 2069 
L 1759 2144 
Q 1053 2284 737 2584 
Q 422 2884 422 3419 
Q 422 4038 858 4394 
Q 1294 4750 2059 4750 
Q 2388 4750 2728 4690 
Q 3069 4631 3425 4513 
z
" transform="scale(0.015625)"/>
      <path id="DejaVuSans-6b" d="M 581 4863 
L 1159 4863 
L 1159 1991 
L 2875 3500 
L 3609 3500 
L 1753 1863 
L 3688 0 
L 2938 0 
L 1159 1709 
L 1159 0 
L 581 0 
L 581 4863 
z
" transform="scale(0.015625)"/>
      <path id="DejaVuSans-43" d="M 4122 4306 
L 4122 3641 
Q 3803 3938 3442 4084 
Q 3081 4231 2675 4231 
Q 1875 4231 1450 3742 
Q 1025 3253 1025 2328 
Q 1025 1406 1450 917 
Q 1875 428 2675 428 
Q 3081 428 3442 575 
Q 3803 722 4122 1019 
L 4122 359 
Q 3791 134 3420 21 
Q 3050 -91 2638 -91 
Q 1578 -91 968 557 
Q 359 1206 359 2328 
Q 359 3453 968 4101 
Q 1578 4750 2638 4750 
Q 3056 4750 3426 4639 
Q 3797 4528 4122 4306 
z
" transform="scale(0.015625)"/>
      <path id="DejaVuSans-2b" d="M 2944 4013 
L 2944 2272 
L 4684 2272 
L 4684 1741 
L 2944 1741 
L 2944 0 
L 2419 0 
L 2419 1741 
L 678 1741 
L 678 2272 
L 2419 2272 
L 2419 4013 
L 2944 4013 
z
" transform="scale(0.015625)"/>
      <path id="DejaVuSans-55" d="M 556 4666 
L 1191 4666 
L 1191 1831 
Q 1191 1081 1462 751 
Q 1734 422 2344 422 
Q 2950 422 3222 751 
Q 3494 1081 3494 1831 
L 3494 4666 
L 4128 4666 
L 4128 1753 
Q 4128 841 3676 375 
Q 3225 -91 2344 -91 
Q 1459 -91 1007 375 
Q 556 841 556 1753 
L 556 4666 
z
" transform="scale(0.015625)"/>
     </defs>
     <use xlink:href="#DejaVuSans-63"/>
     <use xlink:href="#DejaVuSans-6c" x="54.980469"/>
     <use xlink:href="#DejaVuSans-6f" x="82.763672"/>
     <use xlink:href="#DejaVuSans-73" x="143.945312"/>
     <use xlink:href="#DejaVuSans-65" x="196.044922"/>
     <use xlink:href="#DejaVuSans-64" x="257.568359"/>
     <use xlink:href="#DejaVuSans-5f" x="321.044922"/>
     <use xlink:href="#DejaVuSans-6f" x="371.044922"/>
     <use xlink:href="#DejaVuSans-70" x="432.226562"/>
     <use xlink:href="#DejaVuSans-65" x="495.703125"/>
     <use xlink:href="#DejaVuSans-6e" x="557.226562"/>
     <use xlink:href="#DejaVuSans-5f" x="620.605469"/>
     <use xlink:href="#DejaVuSans-6c" x="670.605469"/>
     <use xlink:href="#DejaVuSans-6f" x="698.388672"/>
     <use xlink:href="#DejaVuSans-6f" x="759.570312"/>
     <use xlink:href="#DejaVuSans-70" x="820.751953"/>
     <use xlink:href="#DejaVuSans-73" x="884.228516"/>
     <use xlink:href="#DejaVuSans-5f" x="936.328125"/>
     <use xlink:href="#DejaVuSans-64" x="986.328125"/>
     <use xlink:href="#DejaVuSans-69" x="1049.804688"/>
     <use xlink:href="#DejaVuSans-66" x="1077.587891"/>
     <use xlink:href="#DejaVuSans-66" x="1112.792969"/>
     <use xlink:href="#DejaVuSans-5f" x="1147.998047"/>
     <use xlink:href="#DejaVuSans-74" x="1197.998047"/>
     <use xlink:href="#DejaVuSans-61" x="1237.207031"/>
     <use xlink:href="#DejaVuSans-75" x="1298.486328"/>
     <use xlink:href="#DejaVuSans-20" x="1361.865234"/>
     <use xlink:href="#DejaVuSans-49" x="1393.652344"/>
     <use xlink:href="#DejaVuSans-4f" x="1423.144531"/>
     <use xlink:href="#DejaVuSans-20" x="1501.855469"/>
     <use xlink:href="#DejaVuSans-53" x="1533.642578"/>
     <use xlink:href="#DejaVuSans-70" x="1597.119141"/>
     <use xlink:href="#DejaVuSans-69" x="1660.595703"/>
     <use xlink:href="#DejaVuSans-6b" x="1688.378906"/>
     <use xlink:href="#DejaVuSans-65" x="1742.664062"/>
     <use xlink:href="#DejaVuSans-73" x="1804.1875"/>
     <use xlink:href="#DejaVuSans-20" x="1856.287109"/>
     <use xlink:href="#DejaVuSans-43" x="1888.074219"/>
     <use xlink:href="#DejaVuSans-53" x="1957.898438"/>
     <use xlink:href="#DejaVuSans-2b" x="2021.375"/>
     <use xlink:href="#DejaVuSans-55" x="2105.164062"/>
     <use xlink:href="#DejaVuSans-53" x="2178.357422"/>
    </g>
   </g>
   <g id="legend_1">
    <g id="patch_5">
     <path d="M 79 109.9125 
L 292.442187 109.9125 
Q 294.442187 109.9125 294.442187 107.9125 
L 294.442187 50.2 
Q 294.442187 48.2 292.442187 48.2 
L 79 48.2 
Q 77 48.2 77 50.2 
L 77 107.9125 
Q 77 109.9125 79 109.9125 
z
" style="fill: #ffffff; opacity: 0.8; stroke: #cccccc; stroke-linejoin: miter"/>
    </g>
    <g id="patch_6">
     <path d="M 81 59.798437 
L 101 59.798437 
L 101 52.798437 
L 81 52.798437 
z
" style="fill: #00ffff; opacity: 0.2"/>
    </g>
    <g id="text_15">
     <!-- CS -->
     <g transform="translate(109 59.798437) scale(0.1 -0.1)">
      <use xlink:href="#DejaVuSans-43"/>
      <use xlink:href="#DejaVuSans-53" x="69.824219"/>
     </g>
    </g>
    <g id="patch_7">
     <path d="M 81 74.476562 
L 101 74.476562 
L 101 67.476562 
L 81 67.476562 
z
" style="fill: #808080; opacity: 0.5"/>
    </g>
    <g id="text_16">
     <!-- US -->
     <g transform="translate(109 74.476562) scale(0.1 -0.1)">
      <use xlink:href="#DejaVuSans-55"/>
      <use xlink:href="#DejaVuSans-53" x="73.193359"/>
     </g>
    </g>
    <g id="patch_8">
     <path d="M 81 89.154687 
L 101 89.154687 
L 101 82.154687 
L 81 82.154687 
z
" style="fill: #1c4981"/>
    </g>
    <g id="text_17">
     <!-- Upbound -->
     <g transform="translate(109 89.154687) scale(0.1 -0.1)">
      <defs>
       <path id="DejaVuSans-62" d="M 3116 1747 
Q 3116 2381 2855 2742 
Q 2594 3103 2138 3103 
Q 1681 3103 1420 2742 
Q 1159 2381 1159 1747 
Q 1159 1113 1420 752 
Q 1681 391 2138 391 
Q 2594 391 2855 752 
Q 3116 1113 3116 1747 
z
M 1159 2969 
Q 1341 3281 1617 3432 
Q 1894 3584 2278 3584 
Q 2916 3584 3314 3078 
Q 3713 2572 3713 1747 
Q 3713 922 3314 415 
Q 2916 -91 2278 -91 
Q 1894 -91 1617 61 
Q 1341 213 1159 525 
L 1159 0 
L 581 0 
L 581 4863 
L 1159 4863 
L 1159 2969 
z
" transform="scale(0.015625)"/>
      </defs>
      <use xlink:href="#DejaVuSans-55"/>
      <use xlink:href="#DejaVuSans-70" x="73.193359"/>
      <use xlink:href="#DejaVuSans-62" x="136.669922"/>
      <use xlink:href="#DejaVuSans-6f" x="200.146484"/>
      <use xlink:href="#DejaVuSans-75" x="261.328125"/>
      <use xlink:href="#DejaVuSans-6e" x="324.707031"/>
      <use xlink:href="#DejaVuSans-64" x="388.085938"/>
     </g>
    </g>
    <g id="patch_9">
     <path d="M 81 103.832812 
L 101 103.832812 
L 101 96.832812 
L 81 96.832812 
z
" style="fill: #8a1218"/>
    </g>
    <g id="text_18">
     <!-- Downbound -->
     <g transform="translate(109 103.832812) scale(0.1 -0.1)">
      <defs>
       <path id="DejaVuSans-77" d="M 269 3500 
L 844 3500 
L 1563 769 
L 2278 3500 
L 2956 3500 
L 3675 769 
L 4391 3500 
L 4966 3500 
L 4050 0 
L 3372 0 
L 2619 2869 
L 1863 0 
L 1184 0 
L 269 3500 
z
" transform="scale(0.015625)"/>
      </defs>
      <use xlink:href="#DejaVuSans-44"/>
      <use xlink:href="#DejaVuSans-6f" x="77.001953"/>
      <use xlink:href="#DejaVuSans-77" x="138.183594"/>
      <use xlink:href="#DejaVuSans-6e" x="219.970703"/>
      <use xlink:href="#DejaVuSans-62" x="283.349609"/>
      <use xlink:href="#DejaVuSans-6f" x="346.826172"/>
      <use xlink:href="#DejaVuSans-75" x="408.007812"/>
      <use xlink:href="#DejaVuSans-6e" x="471.386719"/>
      <use xlink:href="#DejaVuSans-64" x="534.765625"/>
     </g>
    </g>
    <g id="line2d_16">
     <path d="M 188.825 56.298437 
L 198.825 56.298437 
L 208.825 56.298437 
" style="fill: none; stroke: #000000; stroke-linecap: square"/>
    </g>
    <g id="text_19">
     <!-- no_Plasticity -->
     <g transform="translate(216.825 59.798437) scale(0.1 -0.1)">
      <defs>
       <path id="DejaVuSans-50" d="M 1259 4147 
L 1259 2394 
L 2053 2394 
Q 2494 2394 2734 2622 
Q 2975 2850 2975 3272 
Q 2975 3691 2734 3919 
Q 2494 4147 2053 4147 
L 1259 4147 
z
M 628 4666 
L 2053 4666 
Q 2838 4666 3239 4311 
Q 3641 3956 3641 3272 
Q 3641 2581 3239 2228 
Q 2838 1875 2053 1875 
L 1259 1875 
L 1259 0 
L 628 0 
L 628 4666 
z
" transform="scale(0.015625)"/>
      </defs>
      <use xlink:href="#DejaVuSans-6e"/>
      <use xlink:href="#DejaVuSans-6f" x="63.378906"/>
      <use xlink:href="#DejaVuSans-5f" x="124.560547"/>
      <use xlink:href="#DejaVuSans-50" x="174.560547"/>
      <use xlink:href="#DejaVuSans-6c" x="234.863281"/>
      <use xlink:href="#DejaVuSans-61" x="262.646484"/>
      <use xlink:href="#DejaVuSans-73" x="323.925781"/>
      <use xlink:href="#DejaVuSans-74" x="376.025391"/>
      <use xlink:href="#DejaVuSans-69" x="415.234375"/>
      <use xlink:href="#DejaVuSans-63" x="443.017578"/>
      <use xlink:href="#DejaVuSans-69" x="497.998047"/>
      <use xlink:href="#DejaVuSans-74" x="525.78125"/>
      <use xlink:href="#DejaVuSans-79" x="564.990234"/>
     </g>
    </g>
    <g id="line2d_17">
     <path d="M 188.825 71.254687 
L 198.825 71.254687 
L 208.825 71.254687 
" style="fill: none; stroke-dasharray: 3.7,1.6; stroke-dashoffset: 0; stroke: #000000"/>
    </g>
    <g id="text_20">
     <!-- Plasticity -->
     <g transform="translate(216.825 74.754687) scale(0.1 -0.1)">
      <use xlink:href="#DejaVuSans-50"/>
      <use xlink:href="#DejaVuSans-6c" x="60.302734"/>
      <use xlink:href="#DejaVuSans-61" x="88.085938"/>
      <use xlink:href="#DejaVuSans-73" x="149.365234"/>
      <use xlink:href="#DejaVuSans-74" x="201.464844"/>
      <use xlink:href="#DejaVuSans-69" x="240.673828"/>
      <use xlink:href="#DejaVuSans-63" x="268.457031"/>
      <use xlink:href="#DejaVuSans-69" x="323.4375"/>
      <use xlink:href="#DejaVuSans-74" x="351.220703"/>
      <use xlink:href="#DejaVuSans-79" x="390.429688"/>
     </g>
    </g>
    <g id="line2d_18">
     <path d="M 188.825 85.932812 
L 198.825 85.932812 
L 208.825 85.932812 
" style="fill: none; stroke-dasharray: 1,1.65; stroke-dashoffset: 0; stroke: #000000"/>
    </g>
    <g id="text_21">
     <!-- after_Plasticity -->
     <g transform="translate(216.825 89.432812) scale(0.1 -0.1)">
      <defs>
       <path id="DejaVuSans-72" d="M 2631 2963 
Q 2534 3019 2420 3045 
Q 2306 3072 2169 3072 
Q 1681 3072 1420 2755 
Q 1159 2438 1159 1844 
L 1159 0 
L 581 0 
L 581 3500 
L 1159 3500 
L 1159 2956 
Q 1341 3275 1631 3429 
Q 1922 3584 2338 3584 
Q 2397 3584 2469 3576 
Q 2541 3569 2628 3553 
L 2631 2963 
z
" transform="scale(0.015625)"/>
      </defs>
      <use xlink:href="#DejaVuSans-61"/>
      <use xlink:href="#DejaVuSans-66" x="61.279297"/>
      <use xlink:href="#DejaVuSans-74" x="94.734375"/>
      <use xlink:href="#DejaVuSans-65" x="133.943359"/>
      <use xlink:href="#DejaVuSans-72" x="195.466797"/>
      <use xlink:href="#DejaVuSans-5f" x="236.580078"/>
      <use xlink:href="#DejaVuSans-50" x="286.580078"/>
      <use xlink:href="#DejaVuSans-6c" x="346.882812"/>
      <use xlink:href="#DejaVuSans-61" x="374.666016"/>
      <use xlink:href="#DejaVuSans-73" x="435.945312"/>
      <use xlink:href="#DejaVuSans-74" x="488.044922"/>
      <use xlink:href="#DejaVuSans-69" x="527.253906"/>
      <use xlink:href="#DejaVuSans-63" x="555.037109"/>
      <use xlink:href="#DejaVuSans-69" x="610.017578"/>
      <use xlink:href="#DejaVuSans-74" x="637.800781"/>
      <use xlink:href="#DejaVuSans-79" x="677.009766"/>
     </g>
    </g>
   </g>
  </g>
 </g>
 <defs>
  <clipPath id="p9d17c7ae4a">
   <rect x="72" y="43.2" width="446.4" height="271.8"/>
  </clipPath>
 </defs>
</svg>
