<?xml version="1.0" encoding="utf-8" standalone="no"?>
<!DOCTYPE svg PUBLIC "-//W3C//DTD SVG 1.1//EN"
  "http://www.w3.org/Graphics/SVG/1.1/DTD/svg11.dtd">
<svg xmlns:xlink="http://www.w3.org/1999/xlink" width="576pt" height="288pt" viewBox="0 0 576 288" xmlns="http://www.w3.org/2000/svg" version="1.1">
 <metadata>
  <rdf:RDF xmlns:dc="http://purl.org/dc/elements/1.1/" xmlns:cc="http://creativecommons.org/ns#" xmlns:rdf="http://www.w3.org/1999/02/22-rdf-syntax-ns#">
   <cc:Work>
    <dc:type rdf:resource="http://purl.org/dc/dcmitype/StillImage"/>
    <dc:date>2025-02-28T01:16:54.913690</dc:date>
    <dc:format>image/svg+xml</dc:format>
    <dc:creator>
     <cc:Agent>
      <dc:title>Matplotlib v3.7.2, https://matplotlib.org/</dc:title>
     </cc:Agent>
    </dc:creator>
   </cc:Work>
  </rdf:RDF>
 </metadata>
 <defs>
  <style type="text/css">*{stroke-linejoin: round; stroke-linecap: butt}</style>
 </defs>
 <g id="figure_1">
  <g id="patch_1">
   <path d="M 0 288 
L 576 288 
L 576 0 
L 0 0 
L 0 288 
z
" style="fill: none"/>
  </g>
  <g id="axes_1">
   <g id="patch_2">
    <path d="M 72 252 
L 518.4 252 
L 518.4 34.56 
L 72 34.56 
z
" style="fill: #ffffff"/>
   </g>
   <g id="PolyCollection_1">
    <path d="M 295.2 -95.904 
L 295.2 252 
L 406.8 252 
L 406.8 -95.904 
L 406.8 -95.904 
L 295.2 -95.904 
z
" clip-path="url(#pf6e297b4fc)" style="fill: #00ffff; fill-opacity: 0.2; stroke: #00ffff; stroke-opacity: 0.2"/>
   </g>
   <g id="PolyCollection_2">
    <path d="M 393.408 -95.904 
L 393.408 252 
L 406.8 252 
L 406.8 -95.904 
L 406.8 -95.904 
L 393.408 -95.904 
z
" clip-path="url(#pf6e297b4fc)" style="fill: #808080; fill-opacity: 0.5; stroke: #808080; stroke-opacity: 0.5"/>
   </g>
   <g id="matplotlib.axis_1">
    <g id="xtick_1">
     <g id="line2d_1">
      <defs>
       <path id="md2b0563013" d="M 0 0 
L 0 3.5 
" style="stroke: #000000; stroke-width: 0.8"/>
      </defs>
      <g>
       <use xlink:href="#md2b0563013" x="116.64" y="253" style="stroke: #000000; stroke-width: 0.8"/>
      </g>
     </g>
     <g id="text_1">
      <!-- −0.4 -->
      <g transform="translate(104.498594 267.598437) scale(0.1 -0.1)">
       <defs>
        <path id="DejaVuSans-2212" d="M 678 2272 
L 4684 2272 
L 4684 1741 
L 678 1741 
L 678 2272 
z
" transform="scale(0.015625)"/>
        <path id="DejaVuSans-30" d="M 2034 4250 
Q 1547 4250 1301 3770 
Q 1056 3291 1056 2328 
Q 1056 1369 1301 889 
Q 1547 409 2034 409 
Q 2525 409 2770 889 
Q 3016 1369 3016 2328 
Q 3016 3291 2770 3770 
Q 2525 4250 2034 4250 
z
M 2034 4750 
Q 2819 4750 3233 4129 
Q 3647 3509 3647 2328 
Q 3647 1150 3233 529 
Q 2819 -91 2034 -91 
Q 1250 -91 836 529 
Q 422 1150 422 2328 
Q 422 3509 836 4129 
Q 1250 4750 2034 4750 
z
" transform="scale(0.015625)"/>
        <path id="DejaVuSans-2e" d="M 684 794 
L 1344 794 
L 1344 0 
L 684 0 
L 684 794 
z
" transform="scale(0.015625)"/>
        <path id="DejaVuSans-34" d="M 2419 4116 
L 825 1625 
L 2419 1625 
L 2419 4116 
z
M 2253 4666 
L 3047 4666 
L 3047 1625 
L 3713 1625 
L 3713 1100 
L 3047 1100 
L 3047 0 
L 2419 0 
L 2419 1100 
L 313 1100 
L 313 1709 
L 2253 4666 
z
" transform="scale(0.015625)"/>
       </defs>
       <use xlink:href="#DejaVuSans-2212"/>
       <use xlink:href="#DejaVuSans-30" x="83.789062"/>
       <use xlink:href="#DejaVuSans-2e" x="147.412109"/>
       <use xlink:href="#DejaVuSans-34" x="179.199219"/>
      </g>
     </g>
    </g>
    <g id="xtick_2">
     <g id="line2d_2">
      <g>
       <use xlink:href="#md2b0563013" x="205.92" y="253" style="stroke: #000000; stroke-width: 0.8"/>
      </g>
     </g>
     <g id="text_2">
      <!-- −0.2 -->
      <g transform="translate(193.778594 267.598437) scale(0.1 -0.1)">
       <defs>
        <path id="DejaVuSans-32" d="M 1228 531 
L 3431 531 
L 3431 0 
L 469 0 
L 469 531 
Q 828 903 1448 1529 
Q 2069 2156 2228 2338 
Q 2531 2678 2651 2914 
Q 2772 3150 2772 3378 
Q 2772 3750 2511 3984 
Q 2250 4219 1831 4219 
Q 1534 4219 1204 4116 
Q 875 4013 500 3803 
L 500 4441 
Q 881 4594 1212 4672 
Q 1544 4750 1819 4750 
Q 2544 4750 2975 4387 
Q 3406 4025 3406 3419 
Q 3406 3131 3298 2873 
Q 3191 2616 2906 2266 
Q 2828 2175 2409 1742 
Q 1991 1309 1228 531 
z
" transform="scale(0.015625)"/>
       </defs>
       <use xlink:href="#DejaVuSans-2212"/>
       <use xlink:href="#DejaVuSans-30" x="83.789062"/>
       <use xlink:href="#DejaVuSans-2e" x="147.412109"/>
       <use xlink:href="#DejaVuSans-32" x="179.199219"/>
      </g>
     </g>
    </g>
    <g id="xtick_3">
     <g id="line2d_3">
      <g>
       <use xlink:href="#md2b0563013" x="295.2" y="253" style="stroke: #000000; stroke-width: 0.8"/>
      </g>
     </g>
     <g id="text_3">
      <!-- 0.0 -->
      <g transform="translate(287.248437 267.598437) scale(0.1 -0.1)">
       <use xlink:href="#DejaVuSans-30"/>
       <use xlink:href="#DejaVuSans-2e" x="63.623047"/>
       <use xlink:href="#DejaVuSans-30" x="95.410156"/>
      </g>
     </g>
    </g>
    <g id="xtick_4">
     <g id="line2d_4">
      <g>
       <use xlink:href="#md2b0563013" x="384.48" y="253" style="stroke: #000000; stroke-width: 0.8"/>
      </g>
     </g>
     <g id="text_4">
      <!-- 0.2 -->
      <g transform="translate(376.528437 267.598437) scale(0.1 -0.1)">
       <use xlink:href="#DejaVuSans-30"/>
       <use xlink:href="#DejaVuSans-2e" x="63.623047"/>
       <use xlink:href="#DejaVuSans-32" x="95.410156"/>
      </g>
     </g>
    </g>
    <g id="xtick_5">
     <g id="line2d_5">
      <g>
       <use xlink:href="#md2b0563013" x="473.76" y="253" style="stroke: #000000; stroke-width: 0.8"/>
      </g>
     </g>
     <g id="text_5">
      <!-- 0.4 -->
      <g transform="translate(465.808437 267.598437) scale(0.1 -0.1)">
       <use xlink:href="#DejaVuSans-30"/>
       <use xlink:href="#DejaVuSans-2e" x="63.623047"/>
       <use xlink:href="#DejaVuSans-34" x="95.410156"/>
      </g>
     </g>
    </g>
    <g id="text_6">
     <!-- Time [s] -->
     <g transform="translate(274.871094 281.276563) scale(0.1 -0.1)">
      <defs>
       <path id="DejaVuSans-54" d="M -19 4666 
L 3928 4666 
L 3928 4134 
L 2272 4134 
L 2272 0 
L 1638 0 
L 1638 4134 
L -19 4134 
L -19 4666 
z
" transform="scale(0.015625)"/>
       <path id="DejaVuSans-69" d="M 603 3500 
L 1178 3500 
L 1178 0 
L 603 0 
L 603 3500 
z
M 603 4863 
L 1178 4863 
L 1178 4134 
L 603 4134 
L 603 4863 
z
" transform="scale(0.015625)"/>
       <path id="DejaVuSans-6d" d="M 3328 2828 
Q 3544 3216 3844 3400 
Q 4144 3584 4550 3584 
Q 5097 3584 5394 3201 
Q 5691 2819 5691 2113 
L 5691 0 
L 5113 0 
L 5113 2094 
Q 5113 2597 4934 2840 
Q 4756 3084 4391 3084 
Q 3944 3084 3684 2787 
Q 3425 2491 3425 1978 
L 3425 0 
L 2847 0 
L 2847 2094 
Q 2847 2600 2669 2842 
Q 2491 3084 2119 3084 
Q 1678 3084 1418 2786 
Q 1159 2488 1159 1978 
L 1159 0 
L 581 0 
L 581 3500 
L 1159 3500 
L 1159 2956 
Q 1356 3278 1631 3431 
Q 1906 3584 2284 3584 
Q 2666 3584 2933 3390 
Q 3200 3197 3328 2828 
z
" transform="scale(0.015625)"/>
       <path id="DejaVuSans-65" d="M 3597 1894 
L 3597 1613 
L 953 1613 
Q 991 1019 1311 708 
Q 1631 397 2203 397 
Q 2534 397 2845 478 
Q 3156 559 3463 722 
L 3463 178 
Q 3153 47 2828 -22 
Q 2503 -91 2169 -91 
Q 1331 -91 842 396 
Q 353 884 353 1716 
Q 353 2575 817 3079 
Q 1281 3584 2069 3584 
Q 2775 3584 3186 3129 
Q 3597 2675 3597 1894 
z
M 3022 2063 
Q 3016 2534 2758 2815 
Q 2500 3097 2075 3097 
Q 1594 3097 1305 2825 
Q 1016 2553 972 2059 
L 3022 2063 
z
" transform="scale(0.015625)"/>
       <path id="DejaVuSans-20" transform="scale(0.015625)"/>
       <path id="DejaVuSans-5b" d="M 550 4863 
L 1875 4863 
L 1875 4416 
L 1125 4416 
L 1125 -397 
L 1875 -397 
L 1875 -844 
L 550 -844 
L 550 4863 
z
" transform="scale(0.015625)"/>
       <path id="DejaVuSans-73" d="M 2834 3397 
L 2834 2853 
Q 2591 2978 2328 3040 
Q 2066 3103 1784 3103 
Q 1356 3103 1142 2972 
Q 928 2841 928 2578 
Q 928 2378 1081 2264 
Q 1234 2150 1697 2047 
L 1894 2003 
Q 2506 1872 2764 1633 
Q 3022 1394 3022 966 
Q 3022 478 2636 193 
Q 2250 -91 1575 -91 
Q 1294 -91 989 -36 
Q 684 19 347 128 
L 347 722 
Q 666 556 975 473 
Q 1284 391 1588 391 
Q 1994 391 2212 530 
Q 2431 669 2431 922 
Q 2431 1156 2273 1281 
Q 2116 1406 1581 1522 
L 1381 1569 
Q 847 1681 609 1914 
Q 372 2147 372 2553 
Q 372 3047 722 3315 
Q 1072 3584 1716 3584 
Q 2034 3584 2315 3537 
Q 2597 3491 2834 3397 
z
" transform="scale(0.015625)"/>
       <path id="DejaVuSans-5d" d="M 1947 4863 
L 1947 -844 
L 622 -844 
L 622 -397 
L 1369 -397 
L 1369 4416 
L 622 4416 
L 622 4863 
L 1947 4863 
z
" transform="scale(0.015625)"/>
      </defs>
      <use xlink:href="#DejaVuSans-54"/>
      <use xlink:href="#DejaVuSans-69" x="57.958984"/>
      <use xlink:href="#DejaVuSans-6d" x="85.742188"/>
      <use xlink:href="#DejaVuSans-65" x="183.154297"/>
      <use xlink:href="#DejaVuSans-20" x="244.677734"/>
      <use xlink:href="#DejaVuSans-5b" x="276.464844"/>
      <use xlink:href="#DejaVuSans-73" x="315.478516"/>
      <use xlink:href="#DejaVuSans-5d" x="367.578125"/>
     </g>
    </g>
   </g>
   <g id="matplotlib.axis_2">
    <g id="ytick_1">
     <g id="line2d_6">
      <defs>
       <path id="mbdae7d263f" d="M 0 0 
L -3.5 0 
" style="stroke: #000000; stroke-width: 0.8"/>
      </defs>
      <g>
       <use xlink:href="#mbdae7d263f" x="71" y="252" style="stroke: #000000; stroke-width: 0.8"/>
      </g>
     </g>
     <g id="text_7">
      <!-- 0.0 -->
      <g transform="translate(48.096875 255.799219) scale(0.1 -0.1)">
       <use xlink:href="#DejaVuSans-30"/>
       <use xlink:href="#DejaVuSans-2e" x="63.623047"/>
       <use xlink:href="#DejaVuSans-30" x="95.410156"/>
      </g>
     </g>
    </g>
    <g id="ytick_2">
     <g id="line2d_7">
      <g>
       <use xlink:href="#mbdae7d263f" x="71" y="217.2096" style="stroke: #000000; stroke-width: 0.8"/>
      </g>
     </g>
     <g id="text_8">
      <!-- 0.2 -->
      <g transform="translate(48.096875 221.008819) scale(0.1 -0.1)">
       <use xlink:href="#DejaVuSans-30"/>
       <use xlink:href="#DejaVuSans-2e" x="63.623047"/>
       <use xlink:href="#DejaVuSans-32" x="95.410156"/>
      </g>
     </g>
    </g>
    <g id="ytick_3">
     <g id="line2d_8">
      <g>
       <use xlink:href="#mbdae7d263f" x="71" y="182.4192" style="stroke: #000000; stroke-width: 0.8"/>
      </g>
     </g>
     <g id="text_9">
      <!-- 0.4 -->
      <g transform="translate(48.096875 186.218419) scale(0.1 -0.1)">
       <use xlink:href="#DejaVuSans-30"/>
       <use xlink:href="#DejaVuSans-2e" x="63.623047"/>
       <use xlink:href="#DejaVuSans-34" x="95.410156"/>
      </g>
     </g>
    </g>
    <g id="ytick_4">
     <g id="line2d_9">
      <g>
       <use xlink:href="#mbdae7d263f" x="71" y="147.6288" style="stroke: #000000; stroke-width: 0.8"/>
      </g>
     </g>
     <g id="text_10">
      <!-- 0.6 -->
      <g transform="translate(48.096875 151.428019) scale(0.1 -0.1)">
       <defs>
        <path id="DejaVuSans-36" d="M 2113 2584 
Q 1688 2584 1439 2293 
Q 1191 2003 1191 1497 
Q 1191 994 1439 701 
Q 1688 409 2113 409 
Q 2538 409 2786 701 
Q 3034 994 3034 1497 
Q 3034 2003 2786 2293 
Q 2538 2584 2113 2584 
z
M 3366 4563 
L 3366 3988 
Q 3128 4100 2886 4159 
Q 2644 4219 2406 4219 
Q 1781 4219 1451 3797 
Q 1122 3375 1075 2522 
Q 1259 2794 1537 2939 
Q 1816 3084 2150 3084 
Q 2853 3084 3261 2657 
Q 3669 2231 3669 1497 
Q 3669 778 3244 343 
Q 2819 -91 2113 -91 
Q 1303 -91 875 529 
Q 447 1150 447 2328 
Q 447 3434 972 4092 
Q 1497 4750 2381 4750 
Q 2619 4750 2861 4703 
Q 3103 4656 3366 4563 
z
" transform="scale(0.015625)"/>
       </defs>
       <use xlink:href="#DejaVuSans-30"/>
       <use xlink:href="#DejaVuSans-2e" x="63.623047"/>
       <use xlink:href="#DejaVuSans-36" x="95.410156"/>
      </g>
     </g>
    </g>
    <g id="ytick_5">
     <g id="line2d_10">
      <g>
       <use xlink:href="#mbdae7d263f" x="71" y="112.8384" style="stroke: #000000; stroke-width: 0.8"/>
      </g>
     </g>
     <g id="text_11">
      <!-- 0.8 -->
      <g transform="translate(48.096875 116.637619) scale(0.1 -0.1)">
       <defs>
        <path id="DejaVuSans-38" d="M 2034 2216 
Q 1584 2216 1326 1975 
Q 1069 1734 1069 1313 
Q 1069 891 1326 650 
Q 1584 409 2034 409 
Q 2484 409 2743 651 
Q 3003 894 3003 1313 
Q 3003 1734 2745 1975 
Q 2488 2216 2034 2216 
z
M 1403 2484 
Q 997 2584 770 2862 
Q 544 3141 544 3541 
Q 544 4100 942 4425 
Q 1341 4750 2034 4750 
Q 2731 4750 3128 4425 
Q 3525 4100 3525 3541 
Q 3525 3141 3298 2862 
Q 3072 2584 2669 2484 
Q 3125 2378 3379 2068 
Q 3634 1759 3634 1313 
Q 3634 634 3220 271 
Q 2806 -91 2034 -91 
Q 1263 -91 848 271 
Q 434 634 434 1313 
Q 434 1759 690 2068 
Q 947 2378 1403 2484 
z
M 1172 3481 
Q 1172 3119 1398 2916 
Q 1625 2713 2034 2713 
Q 2441 2713 2670 2916 
Q 2900 3119 2900 3481 
Q 2900 3844 2670 4047 
Q 2441 4250 2034 4250 
Q 1625 4250 1398 4047 
Q 1172 3844 1172 3481 
z
" transform="scale(0.015625)"/>
       </defs>
       <use xlink:href="#DejaVuSans-30"/>
       <use xlink:href="#DejaVuSans-2e" x="63.623047"/>
       <use xlink:href="#DejaVuSans-38" x="95.410156"/>
      </g>
     </g>
    </g>
    <g id="ytick_6">
     <g id="line2d_11">
      <g>
       <use xlink:href="#mbdae7d263f" x="71" y="78.048" style="stroke: #000000; stroke-width: 0.8"/>
      </g>
     </g>
     <g id="text_12">
      <!-- 1.0 -->
      <g transform="translate(48.096875 81.847219) scale(0.1 -0.1)">
       <defs>
        <path id="DejaVuSans-31" d="M 794 531 
L 1825 531 
L 1825 4091 
L 703 3866 
L 703 4441 
L 1819 4666 
L 2450 4666 
L 2450 531 
L 3481 531 
L 3481 0 
L 794 0 
L 794 531 
z
" transform="scale(0.015625)"/>
       </defs>
       <use xlink:href="#DejaVuSans-31"/>
       <use xlink:href="#DejaVuSans-2e" x="63.623047"/>
       <use xlink:href="#DejaVuSans-30" x="95.410156"/>
      </g>
     </g>
    </g>
    <g id="ytick_7">
     <g id="line2d_12">
      <g>
       <use xlink:href="#mbdae7d263f" x="71" y="43.2576" style="stroke: #000000; stroke-width: 0.8"/>
      </g>
     </g>
     <g id="text_13">
      <!-- 1.2 -->
      <g transform="translate(48.096875 47.056819) scale(0.1 -0.1)">
       <use xlink:href="#DejaVuSans-31"/>
       <use xlink:href="#DejaVuSans-2e" x="63.623047"/>
       <use xlink:href="#DejaVuSans-32" x="95.410156"/>
      </g>
     </g>
    </g>
    <g id="text_14">
     <!-- Density -->
     <g transform="translate(42.017187 162.288594) rotate(-90) scale(0.1 -0.1)">
      <defs>
       <path id="DejaVuSans-44" d="M 1259 4147 
L 1259 519 
L 2022 519 
Q 2988 519 3436 956 
Q 3884 1394 3884 2338 
Q 3884 3275 3436 3711 
Q 2988 4147 2022 4147 
L 1259 4147 
z
M 628 4666 
L 1925 4666 
Q 3281 4666 3915 4102 
Q 4550 3538 4550 2338 
Q 4550 1131 3912 565 
Q 3275 0 1925 0 
L 628 0 
L 628 4666 
z
" transform="scale(0.015625)"/>
       <path id="DejaVuSans-6e" d="M 3513 2113 
L 3513 0 
L 2938 0 
L 2938 2094 
Q 2938 2591 2744 2837 
Q 2550 3084 2163 3084 
Q 1697 3084 1428 2787 
Q 1159 2491 1159 1978 
L 1159 0 
L 581 0 
L 581 3500 
L 1159 3500 
L 1159 2956 
Q 1366 3272 1645 3428 
Q 1925 3584 2291 3584 
Q 2894 3584 3203 3211 
Q 3513 2838 3513 2113 
z
" transform="scale(0.015625)"/>
       <path id="DejaVuSans-74" d="M 1172 4494 
L 1172 3500 
L 2356 3500 
L 2356 3053 
L 1172 3053 
L 1172 1153 
Q 1172 725 1289 603 
Q 1406 481 1766 481 
L 2356 481 
L 2356 0 
L 1766 0 
Q 1100 0 847 248 
Q 594 497 594 1153 
L 594 3053 
L 172 3053 
L 172 3500 
L 594 3500 
L 594 4494 
L 1172 4494 
z
" transform="scale(0.015625)"/>
       <path id="DejaVuSans-79" d="M 2059 -325 
Q 1816 -950 1584 -1140 
Q 1353 -1331 966 -1331 
L 506 -1331 
L 506 -850 
L 844 -850 
Q 1081 -850 1212 -737 
Q 1344 -625 1503 -206 
L 1606 56 
L 191 3500 
L 800 3500 
L 1894 763 
L 2988 3500 
L 3597 3500 
L 2059 -325 
z
" transform="scale(0.015625)"/>
      </defs>
      <use xlink:href="#DejaVuSans-44"/>
      <use xlink:href="#DejaVuSans-65" x="77.001953"/>
      <use xlink:href="#DejaVuSans-6e" x="138.525391"/>
      <use xlink:href="#DejaVuSans-73" x="201.904297"/>
      <use xlink:href="#DejaVuSans-69" x="254.003906"/>
      <use xlink:href="#DejaVuSans-74" x="281.787109"/>
      <use xlink:href="#DejaVuSans-79" x="320.996094"/>
     </g>
    </g>
   </g>
   <g id="line2d_13">
    <path d="M 12.887104 251.924575 
L 15.72442 251.555547 
L 18.561735 250.081865 
L 21.399051 245.865131 
L 24.236367 237.204218 
L 27.073682 224.401079 
L 29.910998 210.731784 
L 32.748313 200.16941 
L 35.585629 194.328325 
L 38.422944 192.217643 
L 41.26026 192.14067 
L 44.097575 193.079261 
L 46.934891 194.63567 
L 49.772206 196.338416 
L 52.609522 197.405636 
L 55.446837 197.23259 
L 58.284153 196.002326 
L 61.121468 194.610044 
L 63.958784 193.781829 
L 66.7961 193.366184 
L 69.633415 192.757762 
L 72.470731 191.859141 
L 75.308046 191.212376 
L 78.145362 191.313664 
L 80.982677 192.172087 
L 86.657308 194.550909 
L 89.494624 195.159104 
L 92.331939 195.140857 
L 103.681201 193.443192 
L 106.518517 192.629058 
L 112.193148 190.325247 
L 115.030464 189.796181 
L 117.867779 190.209374 
L 120.705095 191.303605 
L 123.54241 192.157941 
L 126.379726 191.919087 
L 129.217041 190.841276 
L 132.054357 190.18591 
L 134.891672 190.870241 
L 140.566303 194.236758 
L 143.403619 195.266339 
L 146.240934 195.717349 
L 149.07825 195.868143 
L 151.915566 195.832761 
L 154.752881 195.53381 
L 157.590197 194.83189 
L 160.427512 193.811171 
L 163.264828 192.917256 
L 166.102143 192.512629 
L 168.939459 192.379779 
L 171.776774 192.00088 
L 177.451405 190.437705 
L 180.288721 190.146484 
L 183.126036 190.720521 
L 185.963352 192.151216 
L 188.800667 193.981964 
L 191.637983 195.622758 
L 194.475299 196.751799 
L 197.312614 197.30486 
L 200.14993 197.229937 
L 202.987245 196.409985 
L 205.824561 194.838467 
L 208.661876 192.974491 
L 211.499192 191.809598 
L 214.336507 192.111555 
L 220.011138 194.890772 
L 222.848454 195.327107 
L 225.685769 194.895064 
L 228.523085 193.947803 
L 231.3604 192.531088 
L 237.035032 188.643634 
L 239.872347 187.460399 
L 242.709663 187.807781 
L 245.546978 189.580584 
L 248.384294 191.855887 
L 251.221609 193.694384 
L 254.058925 194.768646 
L 256.89624 195.292009 
L 259.733556 195.556621 
L 262.570871 195.605379 
L 265.408187 195.269983 
L 268.245502 194.426001 
L 271.082818 193.234207 
L 273.920133 192.165806 
L 276.757449 191.78102 
L 279.594765 192.346938 
L 282.43208 193.394923 
L 285.269396 193.390882 
L 288.106711 189.712721 
L 290.944027 179.983569 
L 293.781342 165.332333 
L 296.618658 151.784944 
L 299.455973 145.720543 
L 302.293289 148.097951 
L 305.130604 154.957323 
L 307.96792 162.183347 
L 310.805235 167.965778 
L 313.642551 172.088663 
L 316.479867 174.915476 
L 319.317182 177.048311 
L 322.154498 178.878514 
L 324.991813 180.210149 
L 327.829129 180.732672 
L 333.50376 180.690873 
L 336.341075 180.996174 
L 339.178391 181.681915 
L 342.015706 182.873439 
L 344.853022 184.37849 
L 347.690337 185.4075 
L 350.527653 185.220633 
L 353.364968 183.963521 
L 356.202284 182.556054 
L 359.0396 181.754206 
L 361.876915 181.587951 
L 367.551546 181.819215 
L 370.388862 181.521668 
L 373.226177 180.528 
L 376.063493 179.079574 
L 378.900808 177.856949 
L 381.738124 177.115627 
L 384.575439 175.678957 
L 387.412755 170.790859 
L 390.25007 160.49979 
L 393.087386 147.848576 
L 395.924701 141.095132 
L 398.762017 147.250341 
L 401.599333 166.149972 
L 404.436648 191.497542 
L 407.273964 215.614532 
L 410.111279 232.971606 
L 412.948595 241.749314 
L 415.78591 243.467498 
L 418.623226 240.951553 
L 421.460541 236.455876 
L 427.135172 226.041461 
L 429.972488 221.452612 
L 432.809803 217.729275 
L 435.647119 214.656172 
L 441.32175 209.039612 
L 444.159066 206.394644 
L 446.996381 204.097573 
L 449.833697 202.158641 
L 452.671012 200.44402 
L 455.508328 198.988817 
L 458.345643 198.036135 
L 461.182959 197.647525 
L 464.020274 197.410125 
L 466.85759 196.835979 
L 469.694905 196.031733 
L 472.532221 195.708301 
L 475.369536 196.566848 
L 478.206852 198.762354 
L 483.881483 204.719776 
L 486.718799 206.534922 
L 489.556114 206.645728 
L 492.39343 205.096203 
L 495.230745 202.334938 
L 503.742692 192.171878 
L 506.580007 189.653195 
L 509.417323 187.838111 
L 512.254638 186.681286 
L 515.091954 186.238908 
L 517.929269 186.681505 
L 520.766585 188.023092 
L 529.278532 193.705047 
L 532.115847 194.854765 
L 534.953163 195.08669 
L 537.790478 194.444516 
L 540.627794 193.665021 
L 543.465109 193.683366 
L 546.302425 194.751065 
L 551.977056 198.033092 
L 554.814371 200.537627 
L 557.651687 205.6509 
L 560.489002 214.766115 
L 563.326318 226.825246 
L 566.163633 238.353423 
L 569.000949 246.280573 
L 571.838265 250.193389 
L 574.67558 251.577372 
L 577 251.86433 
L 577 251.86433 
" clip-path="url(#pf6e297b4fc)" style="fill: none; stroke: #1c4981; stroke-width: 2; stroke-linecap: square"/>
   </g>
   <g id="line2d_14">
    <path d="M 13.692969 251.883128 
L 16.522186 251.251142 
L 19.351402 248.615731 
L 22.180618 241.060861 
L 25.009835 226.153896 
L 27.839051 205.848968 
L 30.668267 186.651899 
L 33.497484 173.99513 
L 36.3267 168.301935 
L 39.155917 166.909797 
L 41.985133 167.364618 
L 44.814349 168.546859 
L 50.472782 171.661557 
L 53.301999 172.526898 
L 56.131215 172.232207 
L 58.960431 171.202672 
L 61.789648 170.346291 
L 64.618864 169.858848 
L 67.448081 169.127439 
L 73.106513 166.461941 
L 75.93573 165.65174 
L 78.764946 165.840954 
L 81.594163 167.012224 
L 84.423379 168.583612 
L 87.252595 169.750019 
L 90.081812 170.13459 
L 92.911028 169.959234 
L 98.569461 169.328435 
L 101.398677 169.133076 
L 104.227894 168.810382 
L 107.05711 168.098097 
L 112.715543 166.155687 
L 115.544759 165.762998 
L 118.373976 166.210162 
L 121.203192 167.209891 
L 124.032408 167.817603 
L 126.861625 167.425775 
L 129.690841 166.570732 
L 132.520058 166.30634 
L 135.349274 167.113344 
L 141.007707 170.034394 
L 143.836923 170.911089 
L 146.666139 171.254746 
L 149.495356 171.212394 
L 152.324572 170.802397 
L 155.153789 169.9971 
L 160.812221 167.675638 
L 163.641438 167.012422 
L 166.470654 167.121118 
L 169.299871 167.479293 
L 172.129087 167.331591 
L 174.958303 166.562091 
L 177.78752 165.635214 
L 180.616736 165.072301 
L 183.445953 165.286959 
L 186.275169 166.44566 
L 191.933602 170.080104 
L 194.762818 171.316283 
L 197.592035 171.829723 
L 200.421251 171.747511 
L 203.250467 171.031348 
L 208.9089 168.37714 
L 211.738116 167.888236 
L 214.567333 168.484548 
L 217.396549 169.458304 
L 220.225766 169.899405 
L 223.054982 169.553093 
L 225.884198 168.679032 
L 228.713415 167.474221 
L 231.542631 165.978212 
L 237.201064 162.510205 
L 240.03028 161.55565 
L 242.859497 162.109512 
L 245.688713 164.130931 
L 248.51793 166.678185 
L 251.347146 168.684407 
L 254.176362 169.803203 
L 257.005579 170.400374 
L 259.834795 170.808513 
L 262.664012 170.888183 
L 265.493228 170.394081 
L 268.322444 169.350911 
L 273.980877 166.664763 
L 276.810093 166.10778 
L 279.63931 166.792083 
L 282.468526 168.22381 
L 285.297743 168.709413 
L 288.126959 165.548107 
L 290.956175 156.184251 
L 293.785392 141.524598 
L 296.614608 127.799372 
L 299.443825 121.76215 
L 302.273041 124.189099 
L 307.931474 137.364573 
L 310.76069 142.600362 
L 313.589907 146.36152 
L 316.419123 149.019444 
L 319.248339 151.127785 
L 322.077556 153.020627 
L 324.906772 154.589791 
L 327.735988 155.646529 
L 336.223638 157.536121 
L 339.052854 158.462974 
L 344.711287 160.755686 
L 347.540503 161.216992 
L 350.36972 160.617026 
L 353.198936 159.342158 
L 356.028152 158.269527 
L 358.857369 157.825856 
L 367.345018 157.472745 
L 370.174234 157.086818 
L 373.003451 156.232755 
L 378.661884 153.801804 
L 381.4911 153.082208 
L 384.320316 151.992024 
L 387.149533 147.83993 
L 389.978749 138.00033 
L 392.807965 124.869088 
L 395.637182 117.344788 
L 398.466398 123.872296 
L 401.295615 145.027292 
L 406.954047 203.803468 
L 409.783264 225.707293 
L 412.61248 236.160747 
L 415.441697 236.032849 
L 418.270913 229.306897 
L 421.100129 219.871063 
L 423.929346 210.045449 
L 426.758562 201.063451 
L 429.587779 193.723386 
L 432.416995 188.180173 
L 435.246211 183.878882 
L 438.075428 180.223802 
L 440.904644 177.027334 
L 443.733861 174.375741 
L 446.563077 172.356215 
L 449.392293 170.903267 
L 452.22151 169.802339 
L 455.050726 168.89566 
L 457.879942 168.355216 
L 460.709159 168.441412 
L 463.538375 168.873967 
L 466.367592 168.963532 
L 472.026024 168.118864 
L 474.855241 168.451368 
L 477.684457 169.930788 
L 480.513674 172.677562 
L 486.172106 180.040703 
L 489.001323 182.994941 
L 491.830539 184.654653 
L 494.659756 184.566257 
L 497.488972 182.452966 
L 500.318188 178.68161 
L 503.147405 174.234143 
L 505.976621 170.084704 
L 508.805837 166.704619 
L 511.635054 164.11595 
L 514.46427 162.389972 
L 517.293487 161.827225 
L 520.122703 162.493134 
L 522.951919 164.007989 
L 525.781136 165.844034 
L 528.610352 167.502367 
L 531.439569 168.558822 
L 534.268785 168.754251 
L 537.098001 168.161637 
L 539.927218 167.320823 
L 542.756434 166.940146 
L 545.585651 167.319629 
L 548.414867 168.161864 
L 551.244083 169.156174 
L 554.0733 171.117279 
L 556.902516 176.680239 
L 559.731733 188.93364 
L 562.560949 207.638607 
L 565.390165 227.332247 
L 568.219382 241.645352 
L 571.048598 248.822045 
L 573.877814 251.301876 
L 576.707031 251.89176 
L 576.707031 251.89176 
" clip-path="url(#pf6e297b4fc)" style="fill: none; stroke: #8a1218; stroke-width: 2; stroke-linecap: square"/>
   </g>
   <g id="line2d_15">
    <path d="M 12.945272 251.915387 
L 15.781947 251.4911 
L 18.618622 249.761032 
L 21.455297 244.713483 
L 24.291972 234.172093 
L 27.128647 218.412374 
L 29.965322 201.555695 
L 32.801996 188.688272 
L 35.638671 181.757852 
L 38.475346 179.336126 
L 41.312021 179.296852 
L 44.148696 180.366724 
L 46.985371 181.86561 
L 49.822045 183.230344 
L 52.65872 183.911837 
L 55.495395 183.615131 
L 58.33207 182.679949 
L 61.168745 181.875762 
L 64.00542 181.604075 
L 66.842095 181.545925 
L 69.678769 181.192003 
L 75.352119 179.841662 
L 78.188794 179.858706 
L 81.025469 180.797675 
L 83.862144 182.326034 
L 86.698819 183.595828 
L 89.535493 183.869665 
L 92.372168 183.187941 
L 95.208843 182.230001 
L 98.045518 181.589858 
L 103.718868 181.126717 
L 106.555542 180.442955 
L 112.228892 178.055228 
L 115.065567 177.466073 
L 117.902242 177.769824 
L 120.738917 178.639449 
L 123.575592 179.331223 
L 126.412266 179.303668 
L 129.248941 178.745978 
L 132.085616 178.477652 
L 134.922291 179.193517 
L 140.595641 182.224964 
L 143.432316 182.915648 
L 146.26899 182.811308 
L 151.94234 181.792976 
L 154.779015 181.182978 
L 157.61569 180.336864 
L 160.452365 179.248114 
L 163.289039 178.388029 
L 166.125714 178.244407 
L 168.962389 178.550884 
L 171.799064 178.481201 
L 174.635739 177.586121 
L 177.472414 176.23956 
L 180.309089 175.339763 
L 183.145763 175.728319 
L 185.982438 177.585317 
L 188.819113 180.209102 
L 191.655788 182.531766 
L 194.492463 183.940215 
L 197.329138 184.51798 
L 200.165813 184.52199 
L 203.002487 183.946382 
L 208.675837 181.540792 
L 211.512512 180.91812 
L 214.349187 181.23124 
L 217.185862 182.056857 
L 220.022536 182.679897 
L 222.859211 182.690392 
L 225.695886 182.062991 
L 228.532561 180.863464 
L 231.369236 179.183675 
L 234.205911 177.270167 
L 237.042586 175.564769 
L 239.87926 174.657936 
L 242.715935 175.022235 
L 245.55261 176.598776 
L 248.389285 178.761316 
L 251.22596 180.755238 
L 254.062635 182.148193 
L 256.89931 182.924057 
L 259.735984 183.232261 
L 262.572659 183.139765 
L 265.409334 182.58619 
L 268.246009 181.465616 
L 273.919359 178.322704 
L 276.756033 177.744511 
L 279.592708 178.653792 
L 282.429383 180.537598 
L 285.266058 181.803387 
L 288.102733 180.264855 
L 290.939408 174.374964 
L 293.776083 165.280228 
L 296.612757 157.234416 
L 299.449432 154.211758 
L 302.286107 156.307193 
L 305.122782 160.632816 
L 307.959457 164.657744 
L 310.796132 167.490751 
L 313.632807 169.169416 
L 316.469481 170.105716 
L 319.306156 170.904144 
L 322.142831 171.956686 
L 324.979506 173.135411 
L 327.816181 174.093997 
L 330.652856 174.751264 
L 333.48953 175.237181 
L 347.672905 176.911376 
L 350.50958 176.43216 
L 353.346254 175.505345 
L 356.182929 174.889277 
L 359.019604 174.899371 
L 361.856279 175.078119 
L 364.692954 174.934818 
L 373.202978 173.701632 
L 378.876328 172.691859 
L 381.713003 172.056543 
L 384.549678 169.935187 
L 387.386353 163.398065 
L 390.223027 150.30333 
L 393.059702 133.881542 
L 395.896377 123.237495 
L 398.733052 126.515424 
L 401.569727 144.595376 
L 407.243077 200.043322 
L 410.079751 221.352489 
L 412.916426 231.706548 
L 415.753101 232.1743 
L 418.589776 226.736869 
L 424.263126 211.067249 
L 427.099801 204.153251 
L 429.936475 198.99343 
L 432.77315 195.564153 
L 435.609825 193.151688 
L 441.283175 188.884327 
L 444.11985 187.020688 
L 446.956524 185.650257 
L 452.629874 183.589043 
L 455.466549 182.746599 
L 458.303224 182.571305 
L 463.976574 183.599245 
L 466.813248 183.354965 
L 469.649923 182.594607 
L 472.486598 182.147571 
L 475.323273 182.65993 
L 478.159948 184.273897 
L 483.833298 188.795584 
L 486.669972 189.903358 
L 489.506647 189.520197 
L 492.343322 187.860487 
L 495.179997 185.279365 
L 500.853347 179.136989 
L 503.690021 176.812205 
L 506.526696 175.214632 
L 509.363371 173.976754 
L 512.200046 172.951154 
L 515.036721 172.503517 
L 517.873396 173.130718 
L 520.710071 174.843742 
L 526.38342 179.326711 
L 529.220095 181.098078 
L 532.05677 182.209401 
L 534.893445 182.54076 
L 537.73012 182.219955 
L 540.566795 181.761436 
L 543.403469 181.80077 
L 546.240144 182.578562 
L 549.076819 183.843436 
L 551.913494 185.505876 
L 554.750169 188.486758 
L 557.586844 194.766934 
L 560.423518 205.891796 
L 566.096868 234.894034 
L 568.933543 244.790115 
L 571.770218 249.715077 
L 574.606893 251.465383 
L 577 251.839444 
L 577 251.839444 
" clip-path="url(#pf6e297b4fc)" style="fill: none; stroke-dasharray: 2,3.3; stroke-dashoffset: 0; stroke: #1c4981; stroke-width: 2"/>
   </g>
   <g id="line2d_16">
    <path d="M 12.860923 251.906923 
L 15.698502 251.451906 
L 18.53608 249.633539 
L 21.373659 244.422684 
L 24.211238 233.705998 
L 27.048816 217.875488 
L 29.886395 201.062575 
L 32.723974 188.214783 
L 35.561552 181.194716 
L 38.399131 178.638386 
L 41.23671 178.433158 
L 44.074288 179.186531 
L 46.911867 180.174793 
L 49.749446 181.003308 
L 52.587024 181.418164 
L 55.424603 181.263672 
L 61.09976 180.145578 
L 63.937339 180.102483 
L 66.774918 180.417808 
L 69.612496 180.618679 
L 72.450075 180.427195 
L 75.287654 179.99974 
L 78.125232 179.750499 
L 80.962811 179.921121 
L 83.80039 180.286694 
L 86.637968 180.400485 
L 89.475547 180.102582 
L 95.150704 179.258959 
L 97.988283 179.070405 
L 103.66344 178.918111 
L 106.501019 178.624941 
L 109.338598 177.988687 
L 112.176176 177.122928 
L 115.013755 176.430168 
L 117.851334 176.313303 
L 123.526491 177.070306 
L 126.36407 176.832277 
L 129.201648 176.149214 
L 132.039227 175.699464 
L 134.876806 176.02904 
L 137.714384 177.118053 
L 140.551963 178.471587 
L 143.389541 179.509604 
L 146.22712 179.942068 
L 149.064699 179.900421 
L 154.739856 179.440131 
L 157.577435 179.010182 
L 160.415013 178.427901 
L 163.252592 177.997037 
L 168.927749 177.716256 
L 171.765328 177.171639 
L 174.602907 176.334373 
L 177.440485 175.656633 
L 180.278064 175.517568 
L 183.115643 176.063902 
L 185.953221 177.209934 
L 188.7908 178.60338 
L 191.628379 179.743318 
L 194.465957 180.297269 
L 197.303536 180.263826 
L 200.141115 179.820956 
L 202.978693 179.125771 
L 208.653851 177.474023 
L 211.491429 177.026933 
L 214.329008 177.213187 
L 220.004165 178.727361 
L 222.841744 179.195897 
L 225.679323 179.221768 
L 228.516901 178.917429 
L 231.35448 178.427081 
L 239.867216 176.459769 
L 242.704795 176.39271 
L 245.542373 177.046949 
L 251.217531 179.256117 
L 254.055109 179.931928 
L 256.892688 180.129711 
L 259.730267 179.974622 
L 262.567845 179.562092 
L 265.405424 178.914743 
L 271.080581 177.112055 
L 273.91816 176.242691 
L 276.755739 175.769601 
L 279.593317 175.942597 
L 282.430896 176.579129 
L 285.268475 176.930183 
L 288.106053 175.923873 
L 290.943632 172.835157 
L 293.781211 168.309529 
L 296.618789 164.49584 
L 299.456368 163.340843 
L 302.293947 164.864563 
L 305.131525 167.576695 
L 307.969104 170.06681 
L 310.806683 171.759834 
L 313.644261 172.734812 
L 319.319419 174.100386 
L 324.994576 175.701798 
L 327.832155 176.133957 
L 333.507312 176.516469 
L 342.020048 177.357897 
L 344.857627 177.407991 
L 347.695205 177.162829 
L 350.532784 176.454757 
L 353.370363 175.441619 
L 356.207941 174.685577 
L 359.04552 174.601281 
L 364.720677 175.483891 
L 367.558256 175.692615 
L 370.395835 175.541528 
L 373.233413 175.047358 
L 381.746149 173.088472 
L 384.583728 171.718339 
L 387.421307 167.988508 
L 390.258885 160.890791 
L 393.096464 152.833805 
L 395.934043 149.771892 
L 398.771621 156.538777 
L 401.6092 172.527847 
L 404.446779 192.603341 
L 407.284357 210.603344 
L 410.121936 221.83132 
L 412.959515 224.696128 
L 415.797093 221.103742 
L 418.634672 214.574401 
L 421.472251 207.753986 
L 424.309829 201.624458 
L 427.147408 196.332554 
L 429.984987 192.024194 
L 432.822565 188.808543 
L 435.660144 186.457818 
L 438.497723 184.584637 
L 441.335301 182.99046 
L 444.17288 181.655199 
L 447.010459 180.574359 
L 449.848037 179.731118 
L 452.685616 179.088471 
L 455.523194 178.614702 
L 458.360773 178.365474 
L 464.03593 178.379473 
L 466.873509 178.141717 
L 469.711088 177.698281 
L 472.548666 177.561667 
L 475.386245 178.445768 
L 478.223824 180.850834 
L 481.061402 184.711638 
L 483.898981 189.281671 
L 486.73656 193.399187 
L 489.574138 196.020395 
L 492.411717 196.610902 
L 495.249296 195.18295 
L 498.086874 192.186477 
L 503.762032 184.483262 
L 506.59961 180.983485 
L 509.437189 178.082858 
L 512.274768 175.907504 
L 515.112346 174.585015 
L 517.949925 174.175037 
L 520.787504 174.528566 
L 523.625082 175.346003 
L 529.30024 177.222944 
L 532.137818 177.781672 
L 534.975397 177.898503 
L 537.812976 177.640007 
L 540.650554 177.235858 
L 543.488133 176.957053 
L 546.325712 176.94003 
L 549.16329 177.11565 
L 552.000869 177.674943 
L 554.838448 180.02364 
L 557.676026 186.795326 
L 560.513605 199.709715 
L 563.351184 216.853508 
L 566.188762 233.087688 
L 569.026341 244.131404 
L 571.86392 249.530795 
L 574.701498 251.425521 
L 577 251.811529 
L 577 251.811529 
" clip-path="url(#pf6e297b4fc)" style="fill: none; stroke-dasharray: 2,3.3; stroke-dashoffset: 0; stroke: #8a1218; stroke-width: 2"/>
   </g>
   <g id="patch_3">
    <path d="M 71 252 
L 71 43.2576 
" style="fill: none; stroke: #000000; stroke-width: 0.8; stroke-linejoin: miter; stroke-linecap: square"/>
   </g>
   <g id="patch_4">
    <path d="M 116.64 253 
L 473.76 253 
" style="fill: none; stroke: #000000; stroke-width: 0.8; stroke-linejoin: miter; stroke-linecap: square"/>
   </g>
   <g id="text_15">
    <!-- Open Loop Simple Spikes CS+US _open -->
    <g transform="translate(176.200312 28.56) scale(0.12 -0.12)">
     <defs>
      <path id="DejaVuSans-4f" d="M 2522 4238 
Q 1834 4238 1429 3725 
Q 1025 3213 1025 2328 
Q 1025 1447 1429 934 
Q 1834 422 2522 422 
Q 3209 422 3611 934 
Q 4013 1447 4013 2328 
Q 4013 3213 3611 3725 
Q 3209 4238 2522 4238 
z
M 2522 4750 
Q 3503 4750 4090 4092 
Q 4678 3434 4678 2328 
Q 4678 1225 4090 567 
Q 3503 -91 2522 -91 
Q 1538 -91 948 565 
Q 359 1222 359 2328 
Q 359 3434 948 4092 
Q 1538 4750 2522 4750 
z
" transform="scale(0.015625)"/>
      <path id="DejaVuSans-70" d="M 1159 525 
L 1159 -1331 
L 581 -1331 
L 581 3500 
L 1159 3500 
L 1159 2969 
Q 1341 3281 1617 3432 
Q 1894 3584 2278 3584 
Q 2916 3584 3314 3078 
Q 3713 2572 3713 1747 
Q 3713 922 3314 415 
Q 2916 -91 2278 -91 
Q 1894 -91 1617 61 
Q 1341 213 1159 525 
z
M 3116 1747 
Q 3116 2381 2855 2742 
Q 2594 3103 2138 3103 
Q 1681 3103 1420 2742 
Q 1159 2381 1159 1747 
Q 1159 1113 1420 752 
Q 1681 391 2138 391 
Q 2594 391 2855 752 
Q 3116 1113 3116 1747 
z
" transform="scale(0.015625)"/>
      <path id="DejaVuSans-4c" d="M 628 4666 
L 1259 4666 
L 1259 531 
L 3531 531 
L 3531 0 
L 628 0 
L 628 4666 
z
" transform="scale(0.015625)"/>
      <path id="DejaVuSans-6f" d="M 1959 3097 
Q 1497 3097 1228 2736 
Q 959 2375 959 1747 
Q 959 1119 1226 758 
Q 1494 397 1959 397 
Q 2419 397 2687 759 
Q 2956 1122 2956 1747 
Q 2956 2369 2687 2733 
Q 2419 3097 1959 3097 
z
M 1959 3584 
Q 2709 3584 3137 3096 
Q 3566 2609 3566 1747 
Q 3566 888 3137 398 
Q 2709 -91 1959 -91 
Q 1206 -91 779 398 
Q 353 888 353 1747 
Q 353 2609 779 3096 
Q 1206 3584 1959 3584 
z
" transform="scale(0.015625)"/>
      <path id="DejaVuSans-53" d="M 3425 4513 
L 3425 3897 
Q 3066 4069 2747 4153 
Q 2428 4238 2131 4238 
Q 1616 4238 1336 4038 
Q 1056 3838 1056 3469 
Q 1056 3159 1242 3001 
Q 1428 2844 1947 2747 
L 2328 2669 
Q 3034 2534 3370 2195 
Q 3706 1856 3706 1288 
Q 3706 609 3251 259 
Q 2797 -91 1919 -91 
Q 1588 -91 1214 -16 
Q 841 59 441 206 
L 441 856 
Q 825 641 1194 531 
Q 1563 422 1919 422 
Q 2459 422 2753 634 
Q 3047 847 3047 1241 
Q 3047 1584 2836 1778 
Q 2625 1972 2144 2069 
L 1759 2144 
Q 1053 2284 737 2584 
Q 422 2884 422 3419 
Q 422 4038 858 4394 
Q 1294 4750 2059 4750 
Q 2388 4750 2728 4690 
Q 3069 4631 3425 4513 
z
" transform="scale(0.015625)"/>
      <path id="DejaVuSans-6c" d="M 603 4863 
L 1178 4863 
L 1178 0 
L 603 0 
L 603 4863 
z
" transform="scale(0.015625)"/>
      <path id="DejaVuSans-6b" d="M 581 4863 
L 1159 4863 
L 1159 1991 
L 2875 3500 
L 3609 3500 
L 1753 1863 
L 3688 0 
L 2938 0 
L 1159 1709 
L 1159 0 
L 581 0 
L 581 4863 
z
" transform="scale(0.015625)"/>
      <path id="DejaVuSans-43" d="M 4122 4306 
L 4122 3641 
Q 3803 3938 3442 4084 
Q 3081 4231 2675 4231 
Q 1875 4231 1450 3742 
Q 1025 3253 1025 2328 
Q 1025 1406 1450 917 
Q 1875 428 2675 428 
Q 3081 428 3442 575 
Q 3803 722 4122 1019 
L 4122 359 
Q 3791 134 3420 21 
Q 3050 -91 2638 -91 
Q 1578 -91 968 557 
Q 359 1206 359 2328 
Q 359 3453 968 4101 
Q 1578 4750 2638 4750 
Q 3056 4750 3426 4639 
Q 3797 4528 4122 4306 
z
" transform="scale(0.015625)"/>
      <path id="DejaVuSans-2b" d="M 2944 4013 
L 2944 2272 
L 4684 2272 
L 4684 1741 
L 2944 1741 
L 2944 0 
L 2419 0 
L 2419 1741 
L 678 1741 
L 678 2272 
L 2419 2272 
L 2419 4013 
L 2944 4013 
z
" transform="scale(0.015625)"/>
      <path id="DejaVuSans-55" d="M 556 4666 
L 1191 4666 
L 1191 1831 
Q 1191 1081 1462 751 
Q 1734 422 2344 422 
Q 2950 422 3222 751 
Q 3494 1081 3494 1831 
L 3494 4666 
L 4128 4666 
L 4128 1753 
Q 4128 841 3676 375 
Q 3225 -91 2344 -91 
Q 1459 -91 1007 375 
Q 556 841 556 1753 
L 556 4666 
z
" transform="scale(0.015625)"/>
      <path id="DejaVuSans-5f" d="M 3263 -1063 
L 3263 -1509 
L -63 -1509 
L -63 -1063 
L 3263 -1063 
z
" transform="scale(0.015625)"/>
     </defs>
     <use xlink:href="#DejaVuSans-4f"/>
     <use xlink:href="#DejaVuSans-70" x="78.710938"/>
     <use xlink:href="#DejaVuSans-65" x="142.1875"/>
     <use xlink:href="#DejaVuSans-6e" x="203.710938"/>
     <use xlink:href="#DejaVuSans-20" x="267.089844"/>
     <use xlink:href="#DejaVuSans-4c" x="298.876953"/>
     <use xlink:href="#DejaVuSans-6f" x="352.839844"/>
     <use xlink:href="#DejaVuSans-6f" x="414.021484"/>
     <use xlink:href="#DejaVuSans-70" x="475.203125"/>
     <use xlink:href="#DejaVuSans-20" x="538.679688"/>
     <use xlink:href="#DejaVuSans-53" x="570.466797"/>
     <use xlink:href="#DejaVuSans-69" x="633.943359"/>
     <use xlink:href="#DejaVuSans-6d" x="661.726562"/>
     <use xlink:href="#DejaVuSans-70" x="759.138672"/>
     <use xlink:href="#DejaVuSans-6c" x="822.615234"/>
     <use xlink:href="#DejaVuSans-65" x="850.398438"/>
     <use xlink:href="#DejaVuSans-20" x="911.921875"/>
     <use xlink:href="#DejaVuSans-53" x="943.708984"/>
     <use xlink:href="#DejaVuSans-70" x="1007.185547"/>
     <use xlink:href="#DejaVuSans-69" x="1070.662109"/>
     <use xlink:href="#DejaVuSans-6b" x="1098.445312"/>
     <use xlink:href="#DejaVuSans-65" x="1152.730469"/>
     <use xlink:href="#DejaVuSans-73" x="1214.253906"/>
     <use xlink:href="#DejaVuSans-20" x="1266.353516"/>
     <use xlink:href="#DejaVuSans-43" x="1298.140625"/>
     <use xlink:href="#DejaVuSans-53" x="1367.964844"/>
     <use xlink:href="#DejaVuSans-2b" x="1431.441406"/>
     <use xlink:href="#DejaVuSans-55" x="1515.230469"/>
     <use xlink:href="#DejaVuSans-53" x="1588.423828"/>
     <use xlink:href="#DejaVuSans-20" x="1651.900391"/>
     <use xlink:href="#DejaVuSans-5f" x="1683.6875"/>
     <use xlink:href="#DejaVuSans-6f" x="1733.6875"/>
     <use xlink:href="#DejaVuSans-70" x="1794.869141"/>
     <use xlink:href="#DejaVuSans-65" x="1858.345703"/>
     <use xlink:href="#DejaVuSans-6e" x="1919.869141"/>
    </g>
   </g>
   <g id="legend_1">
    <g id="patch_5">
     <path d="M 79 101.2725 
L 292.442187 101.2725 
Q 294.442187 101.2725 294.442187 99.2725 
L 294.442187 41.56 
Q 294.442187 39.56 292.442187 39.56 
L 79 39.56 
Q 77 39.56 77 41.56 
L 77 99.2725 
Q 77 101.2725 79 101.2725 
z
" style="fill: #ffffff; opacity: 0.8; stroke: #cccccc; stroke-linejoin: miter"/>
    </g>
    <g id="patch_6">
     <path d="M 81 51.158437 
L 101 51.158437 
L 101 44.158437 
L 81 44.158437 
z
" style="fill: #00ffff; opacity: 0.2"/>
    </g>
    <g id="text_16">
     <!-- CS -->
     <g transform="translate(109 51.158437) scale(0.1 -0.1)">
      <use xlink:href="#DejaVuSans-43"/>
      <use xlink:href="#DejaVuSans-53" x="69.824219"/>
     </g>
    </g>
    <g id="patch_7">
     <path d="M 81 65.836562 
L 101 65.836562 
L 101 58.836562 
L 81 58.836562 
z
" style="fill: #808080; opacity: 0.5"/>
    </g>
    <g id="text_17">
     <!-- US -->
     <g transform="translate(109 65.836562) scale(0.1 -0.1)">
      <use xlink:href="#DejaVuSans-55"/>
      <use xlink:href="#DejaVuSans-53" x="73.193359"/>
     </g>
    </g>
    <g id="patch_8">
     <path d="M 81 80.514687 
L 101 80.514687 
L 101 73.514687 
L 81 73.514687 
z
" style="fill: #1c4981"/>
    </g>
    <g id="text_18">
     <!-- Upbound -->
     <g transform="translate(109 80.514687) scale(0.1 -0.1)">
      <defs>
       <path id="DejaVuSans-62" d="M 3116 1747 
Q 3116 2381 2855 2742 
Q 2594 3103 2138 3103 
Q 1681 3103 1420 2742 
Q 1159 2381 1159 1747 
Q 1159 1113 1420 752 
Q 1681 391 2138 391 
Q 2594 391 2855 752 
Q 3116 1113 3116 1747 
z
M 1159 2969 
Q 1341 3281 1617 3432 
Q 1894 3584 2278 3584 
Q 2916 3584 3314 3078 
Q 3713 2572 3713 1747 
Q 3713 922 3314 415 
Q 2916 -91 2278 -91 
Q 1894 -91 1617 61 
Q 1341 213 1159 525 
L 1159 0 
L 581 0 
L 581 4863 
L 1159 4863 
L 1159 2969 
z
" transform="scale(0.015625)"/>
       <path id="DejaVuSans-75" d="M 544 1381 
L 544 3500 
L 1119 3500 
L 1119 1403 
Q 1119 906 1312 657 
Q 1506 409 1894 409 
Q 2359 409 2629 706 
Q 2900 1003 2900 1516 
L 2900 3500 
L 3475 3500 
L 3475 0 
L 2900 0 
L 2900 538 
Q 2691 219 2414 64 
Q 2138 -91 1772 -91 
Q 1169 -91 856 284 
Q 544 659 544 1381 
z
M 1991 3584 
L 1991 3584 
z
" transform="scale(0.015625)"/>
       <path id="DejaVuSans-64" d="M 2906 2969 
L 2906 4863 
L 3481 4863 
L 3481 0 
L 2906 0 
L 2906 525 
Q 2725 213 2448 61 
Q 2172 -91 1784 -91 
Q 1150 -91 751 415 
Q 353 922 353 1747 
Q 353 2572 751 3078 
Q 1150 3584 1784 3584 
Q 2172 3584 2448 3432 
Q 2725 3281 2906 2969 
z
M 947 1747 
Q 947 1113 1208 752 
Q 1469 391 1925 391 
Q 2381 391 2643 752 
Q 2906 1113 2906 1747 
Q 2906 2381 2643 2742 
Q 2381 3103 1925 3103 
Q 1469 3103 1208 2742 
Q 947 2381 947 1747 
z
" transform="scale(0.015625)"/>
      </defs>
      <use xlink:href="#DejaVuSans-55"/>
      <use xlink:href="#DejaVuSans-70" x="73.193359"/>
      <use xlink:href="#DejaVuSans-62" x="136.669922"/>
      <use xlink:href="#DejaVuSans-6f" x="200.146484"/>
      <use xlink:href="#DejaVuSans-75" x="261.328125"/>
      <use xlink:href="#DejaVuSans-6e" x="324.707031"/>
      <use xlink:href="#DejaVuSans-64" x="388.085938"/>
     </g>
    </g>
    <g id="patch_9">
     <path d="M 81 95.192813 
L 101 95.192813 
L 101 88.192813 
L 81 88.192813 
z
" style="fill: #8a1218"/>
    </g>
    <g id="text_19">
     <!-- Downbound -->
     <g transform="translate(109 95.192813) scale(0.1 -0.1)">
      <defs>
       <path id="DejaVuSans-77" d="M 269 3500 
L 844 3500 
L 1563 769 
L 2278 3500 
L 2956 3500 
L 3675 769 
L 4391 3500 
L 4966 3500 
L 4050 0 
L 3372 0 
L 2619 2869 
L 1863 0 
L 1184 0 
L 269 3500 
z
" transform="scale(0.015625)"/>
      </defs>
      <use xlink:href="#DejaVuSans-44"/>
      <use xlink:href="#DejaVuSans-6f" x="77.001953"/>
      <use xlink:href="#DejaVuSans-77" x="138.183594"/>
      <use xlink:href="#DejaVuSans-6e" x="219.970703"/>
      <use xlink:href="#DejaVuSans-62" x="283.349609"/>
      <use xlink:href="#DejaVuSans-6f" x="346.826172"/>
      <use xlink:href="#DejaVuSans-75" x="408.007812"/>
      <use xlink:href="#DejaVuSans-6e" x="471.386719"/>
      <use xlink:href="#DejaVuSans-64" x="534.765625"/>
     </g>
    </g>
    <g id="line2d_17">
     <path d="M 188.825 47.658437 
L 198.825 47.658437 
L 208.825 47.658437 
" style="fill: none; stroke: #000000; stroke-linecap: square"/>
    </g>
    <g id="text_20">
     <!-- no_Plasticity -->
     <g transform="translate(216.825 51.158437) scale(0.1 -0.1)">
      <defs>
       <path id="DejaVuSans-50" d="M 1259 4147 
L 1259 2394 
L 2053 2394 
Q 2494 2394 2734 2622 
Q 2975 2850 2975 3272 
Q 2975 3691 2734 3919 
Q 2494 4147 2053 4147 
L 1259 4147 
z
M 628 4666 
L 2053 4666 
Q 2838 4666 3239 4311 
Q 3641 3956 3641 3272 
Q 3641 2581 3239 2228 
Q 2838 1875 2053 1875 
L 1259 1875 
L 1259 0 
L 628 0 
L 628 4666 
z
" transform="scale(0.015625)"/>
       <path id="DejaVuSans-61" d="M 2194 1759 
Q 1497 1759 1228 1600 
Q 959 1441 959 1056 
Q 959 750 1161 570 
Q 1363 391 1709 391 
Q 2188 391 2477 730 
Q 2766 1069 2766 1631 
L 2766 1759 
L 2194 1759 
z
M 3341 1997 
L 3341 0 
L 2766 0 
L 2766 531 
Q 2569 213 2275 61 
Q 1981 -91 1556 -91 
Q 1019 -91 701 211 
Q 384 513 384 1019 
Q 384 1609 779 1909 
Q 1175 2209 1959 2209 
L 2766 2209 
L 2766 2266 
Q 2766 2663 2505 2880 
Q 2244 3097 1772 3097 
Q 1472 3097 1187 3025 
Q 903 2953 641 2809 
L 641 3341 
Q 956 3463 1253 3523 
Q 1550 3584 1831 3584 
Q 2591 3584 2966 3190 
Q 3341 2797 3341 1997 
z
" transform="scale(0.015625)"/>
       <path id="DejaVuSans-63" d="M 3122 3366 
L 3122 2828 
Q 2878 2963 2633 3030 
Q 2388 3097 2138 3097 
Q 1578 3097 1268 2742 
Q 959 2388 959 1747 
Q 959 1106 1268 751 
Q 1578 397 2138 397 
Q 2388 397 2633 464 
Q 2878 531 3122 666 
L 3122 134 
Q 2881 22 2623 -34 
Q 2366 -91 2075 -91 
Q 1284 -91 818 406 
Q 353 903 353 1747 
Q 353 2603 823 3093 
Q 1294 3584 2113 3584 
Q 2378 3584 2631 3529 
Q 2884 3475 3122 3366 
z
" transform="scale(0.015625)"/>
      </defs>
      <use xlink:href="#DejaVuSans-6e"/>
      <use xlink:href="#DejaVuSans-6f" x="63.378906"/>
      <use xlink:href="#DejaVuSans-5f" x="124.560547"/>
      <use xlink:href="#DejaVuSans-50" x="174.560547"/>
      <use xlink:href="#DejaVuSans-6c" x="234.863281"/>
      <use xlink:href="#DejaVuSans-61" x="262.646484"/>
      <use xlink:href="#DejaVuSans-73" x="323.925781"/>
      <use xlink:href="#DejaVuSans-74" x="376.025391"/>
      <use xlink:href="#DejaVuSans-69" x="415.234375"/>
      <use xlink:href="#DejaVuSans-63" x="443.017578"/>
      <use xlink:href="#DejaVuSans-69" x="497.998047"/>
      <use xlink:href="#DejaVuSans-74" x="525.78125"/>
      <use xlink:href="#DejaVuSans-79" x="564.990234"/>
     </g>
    </g>
    <g id="line2d_18">
     <path d="M 188.825 62.614688 
L 198.825 62.614688 
L 208.825 62.614688 
" style="fill: none; stroke-dasharray: 3.7,1.6; stroke-dashoffset: 0; stroke: #000000"/>
    </g>
    <g id="text_21">
     <!-- Plasticity -->
     <g transform="translate(216.825 66.114688) scale(0.1 -0.1)">
      <use xlink:href="#DejaVuSans-50"/>
      <use xlink:href="#DejaVuSans-6c" x="60.302734"/>
      <use xlink:href="#DejaVuSans-61" x="88.085938"/>
      <use xlink:href="#DejaVuSans-73" x="149.365234"/>
      <use xlink:href="#DejaVuSans-74" x="201.464844"/>
      <use xlink:href="#DejaVuSans-69" x="240.673828"/>
      <use xlink:href="#DejaVuSans-63" x="268.457031"/>
      <use xlink:href="#DejaVuSans-69" x="323.4375"/>
      <use xlink:href="#DejaVuSans-74" x="351.220703"/>
      <use xlink:href="#DejaVuSans-79" x="390.429688"/>
     </g>
    </g>
    <g id="line2d_19">
     <path d="M 188.825 77.292812 
L 198.825 77.292812 
L 208.825 77.292812 
" style="fill: none; stroke-dasharray: 1,1.65; stroke-dashoffset: 0; stroke: #000000"/>
    </g>
    <g id="text_22">
     <!-- after_Plasticity -->
     <g transform="translate(216.825 80.792812) scale(0.1 -0.1)">
      <defs>
       <path id="DejaVuSans-66" d="M 2375 4863 
L 2375 4384 
L 1825 4384 
Q 1516 4384 1395 4259 
Q 1275 4134 1275 3809 
L 1275 3500 
L 2222 3500 
L 2222 3053 
L 1275 3053 
L 1275 0 
L 697 0 
L 697 3053 
L 147 3053 
L 147 3500 
L 697 3500 
L 697 3744 
Q 697 4328 969 4595 
Q 1241 4863 1831 4863 
L 2375 4863 
z
" transform="scale(0.015625)"/>
       <path id="DejaVuSans-72" d="M 2631 2963 
Q 2534 3019 2420 3045 
Q 2306 3072 2169 3072 
Q 1681 3072 1420 2755 
Q 1159 2438 1159 1844 
L 1159 0 
L 581 0 
L 581 3500 
L 1159 3500 
L 1159 2956 
Q 1341 3275 1631 3429 
Q 1922 3584 2338 3584 
Q 2397 3584 2469 3576 
Q 2541 3569 2628 3553 
L 2631 2963 
z
" transform="scale(0.015625)"/>
      </defs>
      <use xlink:href="#DejaVuSans-61"/>
      <use xlink:href="#DejaVuSans-66" x="61.279297"/>
      <use xlink:href="#DejaVuSans-74" x="94.734375"/>
      <use xlink:href="#DejaVuSans-65" x="133.943359"/>
      <use xlink:href="#DejaVuSans-72" x="195.466797"/>
      <use xlink:href="#DejaVuSans-5f" x="236.580078"/>
      <use xlink:href="#DejaVuSans-50" x="286.580078"/>
      <use xlink:href="#DejaVuSans-6c" x="346.882812"/>
      <use xlink:href="#DejaVuSans-61" x="374.666016"/>
      <use xlink:href="#DejaVuSans-73" x="435.945312"/>
      <use xlink:href="#DejaVuSans-74" x="488.044922"/>
      <use xlink:href="#DejaVuSans-69" x="527.253906"/>
      <use xlink:href="#DejaVuSans-63" x="555.037109"/>
      <use xlink:href="#DejaVuSans-69" x="610.017578"/>
      <use xlink:href="#DejaVuSans-74" x="637.800781"/>
      <use xlink:href="#DejaVuSans-79" x="677.009766"/>
     </g>
    </g>
   </g>
  </g>
 </g>
 <defs>
  <clipPath id="pf6e297b4fc">
   <rect x="72" y="34.56" width="446.4" height="217.44"/>
  </clipPath>
 </defs>
</svg>
