<?xml version="1.0" encoding="utf-8" standalone="no"?>
<!DOCTYPE svg PUBLIC "-//W3C//DTD SVG 1.1//EN"
  "http://www.w3.org/Graphics/SVG/1.1/DTD/svg11.dtd">
<svg xmlns:xlink="http://www.w3.org/1999/xlink" width="576pt" height="360pt" viewBox="0 0 576 360" xmlns="http://www.w3.org/2000/svg" version="1.1">
 <metadata>
  <rdf:RDF xmlns:dc="http://purl.org/dc/elements/1.1/" xmlns:cc="http://creativecommons.org/ns#" xmlns:rdf="http://www.w3.org/1999/02/22-rdf-syntax-ns#">
   <cc:Work>
    <dc:type rdf:resource="http://purl.org/dc/dcmitype/StillImage"/>
    <dc:date>2025-02-28T01:17:13.671983</dc:date>
    <dc:format>image/svg+xml</dc:format>
    <dc:creator>
     <cc:Agent>
      <dc:title>Matplotlib v3.7.2, https://matplotlib.org/</dc:title>
     </cc:Agent>
    </dc:creator>
   </cc:Work>
  </rdf:RDF>
 </metadata>
 <defs>
  <style type="text/css">*{stroke-linejoin: round; stroke-linecap: butt}</style>
 </defs>
 <g id="figure_1">
  <g id="patch_1">
   <path d="M 0 360 
L 576 360 
L 576 0 
L 0 0 
L 0 360 
z
" style="fill: none"/>
  </g>
  <g id="axes_1">
   <g id="patch_2">
    <path d="M 72 315 
L 518.4 315 
L 518.4 43.2 
L 72 43.2 
z
" style="fill: #ffffff"/>
   </g>
   <g id="PolyCollection_1">
    <defs>
     <path id="mc3aee699f6" d="M 295.2 -303.857143 
L 295.2 -45 
L 406.8 -45 
L 406.8 -303.857143 
L 406.8 -303.857143 
L 295.2 -303.857143 
z
" style="stroke: #00ffff; stroke-opacity: 0.2"/>
    </defs>
    <g clip-path="url(#pbfdbed2075)">
     <use xlink:href="#mc3aee699f6" x="0" y="360" style="fill: #00ffff; fill-opacity: 0.2; stroke: #00ffff; stroke-opacity: 0.2"/>
    </g>
   </g>
   <g id="PolyCollection_2">
    <defs>
     <path id="mbee7cb0349" d="M 393.408 -303.857143 
L 393.408 -45 
L 406.8 -45 
L 406.8 -303.857143 
L 406.8 -303.857143 
L 393.408 -303.857143 
z
" style="stroke: #808080; stroke-opacity: 0.5"/>
    </defs>
    <g clip-path="url(#pbfdbed2075)">
     <use xlink:href="#mbee7cb0349" x="0" y="360" style="fill: #808080; fill-opacity: 0.5; stroke: #808080; stroke-opacity: 0.5"/>
    </g>
   </g>
   <g id="matplotlib.axis_1">
    <g id="xtick_1">
     <g id="line2d_1">
      <defs>
       <path id="mb083830f38" d="M 0 0 
L 0 3.5 
" style="stroke: #000000; stroke-width: 0.8"/>
      </defs>
      <g>
       <use xlink:href="#mb083830f38" x="116.64" y="316" style="stroke: #000000; stroke-width: 0.8"/>
      </g>
     </g>
     <g id="text_1">
      <!-- −0.4 -->
      <g transform="translate(104.498594 330.598437) scale(0.1 -0.1)">
       <defs>
        <path id="DejaVuSans-2212" d="M 678 2272 
L 4684 2272 
L 4684 1741 
L 678 1741 
L 678 2272 
z
" transform="scale(0.015625)"/>
        <path id="DejaVuSans-30" d="M 2034 4250 
Q 1547 4250 1301 3770 
Q 1056 3291 1056 2328 
Q 1056 1369 1301 889 
Q 1547 409 2034 409 
Q 2525 409 2770 889 
Q 3016 1369 3016 2328 
Q 3016 3291 2770 3770 
Q 2525 4250 2034 4250 
z
M 2034 4750 
Q 2819 4750 3233 4129 
Q 3647 3509 3647 2328 
Q 3647 1150 3233 529 
Q 2819 -91 2034 -91 
Q 1250 -91 836 529 
Q 422 1150 422 2328 
Q 422 3509 836 4129 
Q 1250 4750 2034 4750 
z
" transform="scale(0.015625)"/>
        <path id="DejaVuSans-2e" d="M 684 794 
L 1344 794 
L 1344 0 
L 684 0 
L 684 794 
z
" transform="scale(0.015625)"/>
        <path id="DejaVuSans-34" d="M 2419 4116 
L 825 1625 
L 2419 1625 
L 2419 4116 
z
M 2253 4666 
L 3047 4666 
L 3047 1625 
L 3713 1625 
L 3713 1100 
L 3047 1100 
L 3047 0 
L 2419 0 
L 2419 1100 
L 313 1100 
L 313 1709 
L 2253 4666 
z
" transform="scale(0.015625)"/>
       </defs>
       <use xlink:href="#DejaVuSans-2212"/>
       <use xlink:href="#DejaVuSans-30" x="83.789062"/>
       <use xlink:href="#DejaVuSans-2e" x="147.412109"/>
       <use xlink:href="#DejaVuSans-34" x="179.199219"/>
      </g>
     </g>
    </g>
    <g id="xtick_2">
     <g id="line2d_2">
      <g>
       <use xlink:href="#mb083830f38" x="205.92" y="316" style="stroke: #000000; stroke-width: 0.8"/>
      </g>
     </g>
     <g id="text_2">
      <!-- −0.2 -->
      <g transform="translate(193.778594 330.598437) scale(0.1 -0.1)">
       <defs>
        <path id="DejaVuSans-32" d="M 1228 531 
L 3431 531 
L 3431 0 
L 469 0 
L 469 531 
Q 828 903 1448 1529 
Q 2069 2156 2228 2338 
Q 2531 2678 2651 2914 
Q 2772 3150 2772 3378 
Q 2772 3750 2511 3984 
Q 2250 4219 1831 4219 
Q 1534 4219 1204 4116 
Q 875 4013 500 3803 
L 500 4441 
Q 881 4594 1212 4672 
Q 1544 4750 1819 4750 
Q 2544 4750 2975 4387 
Q 3406 4025 3406 3419 
Q 3406 3131 3298 2873 
Q 3191 2616 2906 2266 
Q 2828 2175 2409 1742 
Q 1991 1309 1228 531 
z
" transform="scale(0.015625)"/>
       </defs>
       <use xlink:href="#DejaVuSans-2212"/>
       <use xlink:href="#DejaVuSans-30" x="83.789062"/>
       <use xlink:href="#DejaVuSans-2e" x="147.412109"/>
       <use xlink:href="#DejaVuSans-32" x="179.199219"/>
      </g>
     </g>
    </g>
    <g id="xtick_3">
     <g id="line2d_3">
      <g>
       <use xlink:href="#mb083830f38" x="295.2" y="316" style="stroke: #000000; stroke-width: 0.8"/>
      </g>
     </g>
     <g id="text_3">
      <!-- 0.0 -->
      <g transform="translate(287.248437 330.598437) scale(0.1 -0.1)">
       <use xlink:href="#DejaVuSans-30"/>
       <use xlink:href="#DejaVuSans-2e" x="63.623047"/>
       <use xlink:href="#DejaVuSans-30" x="95.410156"/>
      </g>
     </g>
    </g>
    <g id="xtick_4">
     <g id="line2d_4">
      <g>
       <use xlink:href="#mb083830f38" x="384.48" y="316" style="stroke: #000000; stroke-width: 0.8"/>
      </g>
     </g>
     <g id="text_4">
      <!-- 0.2 -->
      <g transform="translate(376.528437 330.598437) scale(0.1 -0.1)">
       <use xlink:href="#DejaVuSans-30"/>
       <use xlink:href="#DejaVuSans-2e" x="63.623047"/>
       <use xlink:href="#DejaVuSans-32" x="95.410156"/>
      </g>
     </g>
    </g>
    <g id="xtick_5">
     <g id="line2d_5">
      <g>
       <use xlink:href="#mb083830f38" x="473.76" y="316" style="stroke: #000000; stroke-width: 0.8"/>
      </g>
     </g>
     <g id="text_5">
      <!-- 0.4 -->
      <g transform="translate(465.808437 330.598437) scale(0.1 -0.1)">
       <use xlink:href="#DejaVuSans-30"/>
       <use xlink:href="#DejaVuSans-2e" x="63.623047"/>
       <use xlink:href="#DejaVuSans-34" x="95.410156"/>
      </g>
     </g>
    </g>
    <g id="text_6">
     <!-- Time [s] -->
     <g transform="translate(274.871094 344.276563) scale(0.1 -0.1)">
      <defs>
       <path id="DejaVuSans-54" d="M -19 4666 
L 3928 4666 
L 3928 4134 
L 2272 4134 
L 2272 0 
L 1638 0 
L 1638 4134 
L -19 4134 
L -19 4666 
z
" transform="scale(0.015625)"/>
       <path id="DejaVuSans-69" d="M 603 3500 
L 1178 3500 
L 1178 0 
L 603 0 
L 603 3500 
z
M 603 4863 
L 1178 4863 
L 1178 4134 
L 603 4134 
L 603 4863 
z
" transform="scale(0.015625)"/>
       <path id="DejaVuSans-6d" d="M 3328 2828 
Q 3544 3216 3844 3400 
Q 4144 3584 4550 3584 
Q 5097 3584 5394 3201 
Q 5691 2819 5691 2113 
L 5691 0 
L 5113 0 
L 5113 2094 
Q 5113 2597 4934 2840 
Q 4756 3084 4391 3084 
Q 3944 3084 3684 2787 
Q 3425 2491 3425 1978 
L 3425 0 
L 2847 0 
L 2847 2094 
Q 2847 2600 2669 2842 
Q 2491 3084 2119 3084 
Q 1678 3084 1418 2786 
Q 1159 2488 1159 1978 
L 1159 0 
L 581 0 
L 581 3500 
L 1159 3500 
L 1159 2956 
Q 1356 3278 1631 3431 
Q 1906 3584 2284 3584 
Q 2666 3584 2933 3390 
Q 3200 3197 3328 2828 
z
" transform="scale(0.015625)"/>
       <path id="DejaVuSans-65" d="M 3597 1894 
L 3597 1613 
L 953 1613 
Q 991 1019 1311 708 
Q 1631 397 2203 397 
Q 2534 397 2845 478 
Q 3156 559 3463 722 
L 3463 178 
Q 3153 47 2828 -22 
Q 2503 -91 2169 -91 
Q 1331 -91 842 396 
Q 353 884 353 1716 
Q 353 2575 817 3079 
Q 1281 3584 2069 3584 
Q 2775 3584 3186 3129 
Q 3597 2675 3597 1894 
z
M 3022 2063 
Q 3016 2534 2758 2815 
Q 2500 3097 2075 3097 
Q 1594 3097 1305 2825 
Q 1016 2553 972 2059 
L 3022 2063 
z
" transform="scale(0.015625)"/>
       <path id="DejaVuSans-20" transform="scale(0.015625)"/>
       <path id="DejaVuSans-5b" d="M 550 4863 
L 1875 4863 
L 1875 4416 
L 1125 4416 
L 1125 -397 
L 1875 -397 
L 1875 -844 
L 550 -844 
L 550 4863 
z
" transform="scale(0.015625)"/>
       <path id="DejaVuSans-73" d="M 2834 3397 
L 2834 2853 
Q 2591 2978 2328 3040 
Q 2066 3103 1784 3103 
Q 1356 3103 1142 2972 
Q 928 2841 928 2578 
Q 928 2378 1081 2264 
Q 1234 2150 1697 2047 
L 1894 2003 
Q 2506 1872 2764 1633 
Q 3022 1394 3022 966 
Q 3022 478 2636 193 
Q 2250 -91 1575 -91 
Q 1294 -91 989 -36 
Q 684 19 347 128 
L 347 722 
Q 666 556 975 473 
Q 1284 391 1588 391 
Q 1994 391 2212 530 
Q 2431 669 2431 922 
Q 2431 1156 2273 1281 
Q 2116 1406 1581 1522 
L 1381 1569 
Q 847 1681 609 1914 
Q 372 2147 372 2553 
Q 372 3047 722 3315 
Q 1072 3584 1716 3584 
Q 2034 3584 2315 3537 
Q 2597 3491 2834 3397 
z
" transform="scale(0.015625)"/>
       <path id="DejaVuSans-5d" d="M 1947 4863 
L 1947 -844 
L 622 -844 
L 622 -397 
L 1369 -397 
L 1369 4416 
L 622 4416 
L 622 4863 
L 1947 4863 
z
" transform="scale(0.015625)"/>
      </defs>
      <use xlink:href="#DejaVuSans-54"/>
      <use xlink:href="#DejaVuSans-69" x="57.958984"/>
      <use xlink:href="#DejaVuSans-6d" x="85.742188"/>
      <use xlink:href="#DejaVuSans-65" x="183.154297"/>
      <use xlink:href="#DejaVuSans-20" x="244.677734"/>
      <use xlink:href="#DejaVuSans-5b" x="276.464844"/>
      <use xlink:href="#DejaVuSans-73" x="315.478516"/>
      <use xlink:href="#DejaVuSans-5d" x="367.578125"/>
     </g>
    </g>
   </g>
   <g id="matplotlib.axis_2">
    <g id="ytick_1">
     <g id="line2d_6">
      <defs>
       <path id="m85e93141a2" d="M 0 0 
L -3.5 0 
" style="stroke: #000000; stroke-width: 0.8"/>
      </defs>
      <g>
       <use xlink:href="#m85e93141a2" x="71" y="315" style="stroke: #000000; stroke-width: 0.8"/>
      </g>
     </g>
     <g id="text_7">
      <!-- 0.00 -->
      <g transform="translate(41.734375 318.799219) scale(0.1 -0.1)">
       <use xlink:href="#DejaVuSans-30"/>
       <use xlink:href="#DejaVuSans-2e" x="63.623047"/>
       <use xlink:href="#DejaVuSans-30" x="95.410156"/>
       <use xlink:href="#DejaVuSans-30" x="159.033203"/>
      </g>
     </g>
    </g>
    <g id="ytick_2">
     <g id="line2d_7">
      <g>
       <use xlink:href="#m85e93141a2" x="71" y="282.642857" style="stroke: #000000; stroke-width: 0.8"/>
      </g>
     </g>
     <g id="text_8">
      <!-- 0.25 -->
      <g transform="translate(41.734375 286.442076) scale(0.1 -0.1)">
       <defs>
        <path id="DejaVuSans-35" d="M 691 4666 
L 3169 4666 
L 3169 4134 
L 1269 4134 
L 1269 2991 
Q 1406 3038 1543 3061 
Q 1681 3084 1819 3084 
Q 2600 3084 3056 2656 
Q 3513 2228 3513 1497 
Q 3513 744 3044 326 
Q 2575 -91 1722 -91 
Q 1428 -91 1123 -41 
Q 819 9 494 109 
L 494 744 
Q 775 591 1075 516 
Q 1375 441 1709 441 
Q 2250 441 2565 725 
Q 2881 1009 2881 1497 
Q 2881 1984 2565 2268 
Q 2250 2553 1709 2553 
Q 1456 2553 1204 2497 
Q 953 2441 691 2322 
L 691 4666 
z
" transform="scale(0.015625)"/>
       </defs>
       <use xlink:href="#DejaVuSans-30"/>
       <use xlink:href="#DejaVuSans-2e" x="63.623047"/>
       <use xlink:href="#DejaVuSans-32" x="95.410156"/>
       <use xlink:href="#DejaVuSans-35" x="159.033203"/>
      </g>
     </g>
    </g>
    <g id="ytick_3">
     <g id="line2d_8">
      <g>
       <use xlink:href="#m85e93141a2" x="71" y="250.285714" style="stroke: #000000; stroke-width: 0.8"/>
      </g>
     </g>
     <g id="text_9">
      <!-- 0.50 -->
      <g transform="translate(41.734375 254.084933) scale(0.1 -0.1)">
       <use xlink:href="#DejaVuSans-30"/>
       <use xlink:href="#DejaVuSans-2e" x="63.623047"/>
       <use xlink:href="#DejaVuSans-35" x="95.410156"/>
       <use xlink:href="#DejaVuSans-30" x="159.033203"/>
      </g>
     </g>
    </g>
    <g id="ytick_4">
     <g id="line2d_9">
      <g>
       <use xlink:href="#m85e93141a2" x="71" y="217.928571" style="stroke: #000000; stroke-width: 0.8"/>
      </g>
     </g>
     <g id="text_10">
      <!-- 0.75 -->
      <g transform="translate(41.734375 221.72779) scale(0.1 -0.1)">
       <defs>
        <path id="DejaVuSans-37" d="M 525 4666 
L 3525 4666 
L 3525 4397 
L 1831 0 
L 1172 0 
L 2766 4134 
L 525 4134 
L 525 4666 
z
" transform="scale(0.015625)"/>
       </defs>
       <use xlink:href="#DejaVuSans-30"/>
       <use xlink:href="#DejaVuSans-2e" x="63.623047"/>
       <use xlink:href="#DejaVuSans-37" x="95.410156"/>
       <use xlink:href="#DejaVuSans-35" x="159.033203"/>
      </g>
     </g>
    </g>
    <g id="ytick_5">
     <g id="line2d_10">
      <g>
       <use xlink:href="#m85e93141a2" x="71" y="185.571429" style="stroke: #000000; stroke-width: 0.8"/>
      </g>
     </g>
     <g id="text_11">
      <!-- 1.00 -->
      <g transform="translate(41.734375 189.370647) scale(0.1 -0.1)">
       <defs>
        <path id="DejaVuSans-31" d="M 794 531 
L 1825 531 
L 1825 4091 
L 703 3866 
L 703 4441 
L 1819 4666 
L 2450 4666 
L 2450 531 
L 3481 531 
L 3481 0 
L 794 0 
L 794 531 
z
" transform="scale(0.015625)"/>
       </defs>
       <use xlink:href="#DejaVuSans-31"/>
       <use xlink:href="#DejaVuSans-2e" x="63.623047"/>
       <use xlink:href="#DejaVuSans-30" x="95.410156"/>
       <use xlink:href="#DejaVuSans-30" x="159.033203"/>
      </g>
     </g>
    </g>
    <g id="ytick_6">
     <g id="line2d_11">
      <g>
       <use xlink:href="#m85e93141a2" x="71" y="153.214286" style="stroke: #000000; stroke-width: 0.8"/>
      </g>
     </g>
     <g id="text_12">
      <!-- 1.25 -->
      <g transform="translate(41.734375 157.013504) scale(0.1 -0.1)">
       <use xlink:href="#DejaVuSans-31"/>
       <use xlink:href="#DejaVuSans-2e" x="63.623047"/>
       <use xlink:href="#DejaVuSans-32" x="95.410156"/>
       <use xlink:href="#DejaVuSans-35" x="159.033203"/>
      </g>
     </g>
    </g>
    <g id="ytick_7">
     <g id="line2d_12">
      <g>
       <use xlink:href="#m85e93141a2" x="71" y="120.857143" style="stroke: #000000; stroke-width: 0.8"/>
      </g>
     </g>
     <g id="text_13">
      <!-- 1.50 -->
      <g transform="translate(41.734375 124.656362) scale(0.1 -0.1)">
       <use xlink:href="#DejaVuSans-31"/>
       <use xlink:href="#DejaVuSans-2e" x="63.623047"/>
       <use xlink:href="#DejaVuSans-35" x="95.410156"/>
       <use xlink:href="#DejaVuSans-30" x="159.033203"/>
      </g>
     </g>
    </g>
    <g id="ytick_8">
     <g id="line2d_13">
      <g>
       <use xlink:href="#m85e93141a2" x="71" y="88.5" style="stroke: #000000; stroke-width: 0.8"/>
      </g>
     </g>
     <g id="text_14">
      <!-- 1.75 -->
      <g transform="translate(41.734375 92.299219) scale(0.1 -0.1)">
       <use xlink:href="#DejaVuSans-31"/>
       <use xlink:href="#DejaVuSans-2e" x="63.623047"/>
       <use xlink:href="#DejaVuSans-37" x="95.410156"/>
       <use xlink:href="#DejaVuSans-35" x="159.033203"/>
      </g>
     </g>
    </g>
    <g id="ytick_9">
     <g id="line2d_14">
      <g>
       <use xlink:href="#m85e93141a2" x="71" y="56.142857" style="stroke: #000000; stroke-width: 0.8"/>
      </g>
     </g>
     <g id="text_15">
      <!-- 2.00 -->
      <g transform="translate(41.734375 59.942076) scale(0.1 -0.1)">
       <use xlink:href="#DejaVuSans-32"/>
       <use xlink:href="#DejaVuSans-2e" x="63.623047"/>
       <use xlink:href="#DejaVuSans-30" x="95.410156"/>
       <use xlink:href="#DejaVuSans-30" x="159.033203"/>
      </g>
     </g>
    </g>
    <g id="text_16">
     <!-- Density -->
     <g transform="translate(35.654687 198.108594) rotate(-90) scale(0.1 -0.1)">
      <defs>
       <path id="DejaVuSans-44" d="M 1259 4147 
L 1259 519 
L 2022 519 
Q 2988 519 3436 956 
Q 3884 1394 3884 2338 
Q 3884 3275 3436 3711 
Q 2988 4147 2022 4147 
L 1259 4147 
z
M 628 4666 
L 1925 4666 
Q 3281 4666 3915 4102 
Q 4550 3538 4550 2338 
Q 4550 1131 3912 565 
Q 3275 0 1925 0 
L 628 0 
L 628 4666 
z
" transform="scale(0.015625)"/>
       <path id="DejaVuSans-6e" d="M 3513 2113 
L 3513 0 
L 2938 0 
L 2938 2094 
Q 2938 2591 2744 2837 
Q 2550 3084 2163 3084 
Q 1697 3084 1428 2787 
Q 1159 2491 1159 1978 
L 1159 0 
L 581 0 
L 581 3500 
L 1159 3500 
L 1159 2956 
Q 1366 3272 1645 3428 
Q 1925 3584 2291 3584 
Q 2894 3584 3203 3211 
Q 3513 2838 3513 2113 
z
" transform="scale(0.015625)"/>
       <path id="DejaVuSans-74" d="M 1172 4494 
L 1172 3500 
L 2356 3500 
L 2356 3053 
L 1172 3053 
L 1172 1153 
Q 1172 725 1289 603 
Q 1406 481 1766 481 
L 2356 481 
L 2356 0 
L 1766 0 
Q 1100 0 847 248 
Q 594 497 594 1153 
L 594 3053 
L 172 3053 
L 172 3500 
L 594 3500 
L 594 4494 
L 1172 4494 
z
" transform="scale(0.015625)"/>
       <path id="DejaVuSans-79" d="M 2059 -325 
Q 1816 -950 1584 -1140 
Q 1353 -1331 966 -1331 
L 506 -1331 
L 506 -850 
L 844 -850 
Q 1081 -850 1212 -737 
Q 1344 -625 1503 -206 
L 1606 56 
L 191 3500 
L 800 3500 
L 1894 763 
L 2988 3500 
L 3597 3500 
L 2059 -325 
z
" transform="scale(0.015625)"/>
      </defs>
      <use xlink:href="#DejaVuSans-44"/>
      <use xlink:href="#DejaVuSans-65" x="77.001953"/>
      <use xlink:href="#DejaVuSans-6e" x="138.525391"/>
      <use xlink:href="#DejaVuSans-73" x="201.904297"/>
      <use xlink:href="#DejaVuSans-69" x="254.003906"/>
      <use xlink:href="#DejaVuSans-74" x="281.787109"/>
      <use xlink:href="#DejaVuSans-79" x="320.996094"/>
     </g>
    </g>
   </g>
   <g id="line2d_15">
    <path d="M -1 313.860069 
L 2.059895 313.377495 
L 5.263612 312.71389 
L 8.467329 311.873305 
L 11.671046 310.846914 
L 14.874763 309.639642 
L 21.282197 306.78636 
L 30.893348 302.213796 
L 34.097065 300.888252 
L 37.300782 299.770541 
L 40.504499 298.904271 
L 43.708216 298.311273 
L 46.911933 297.990077 
L 50.11565 297.917586 
L 53.319367 298.053418 
L 59.726801 298.738337 
L 69.337952 299.982373 
L 72.541669 300.273187 
L 75.745386 300.448106 
L 78.949103 300.485622 
L 82.15282 300.370776 
L 85.356537 300.095082 
L 88.560254 299.656826 
L 91.763971 299.061494 
L 94.967688 298.321996 
L 101.375122 296.497167 
L 117.393707 291.402545 
L 120.597424 290.572787 
L 123.801141 289.882147 
L 127.004858 289.357049 
L 130.208575 289.01864 
L 133.412292 288.881063 
L 136.616009 288.949618 
L 139.819726 289.219178 
L 143.023443 289.673237 
L 146.22716 290.283871 
L 152.634594 291.813418 
L 159.042028 293.42126 
L 162.245745 294.124718 
L 165.449462 294.700675 
L 168.653179 295.115842 
L 171.856896 295.349796 
L 175.060613 295.395938 
L 178.26433 295.260776 
L 181.468047 294.961743 
L 187.875481 293.977602 
L 197.486632 292.000246 
L 203.894066 290.711018 
L 210.3015 289.732246 
L 213.505217 289.431526 
L 216.708934 289.285855 
L 219.912651 289.305342 
L 223.116368 289.486724 
L 229.523802 290.247752 
L 242.33867 292.162046 
L 245.542387 292.452526 
L 248.746104 292.602273 
L 251.949821 292.596362 
L 255.153538 292.42756 
L 258.357255 292.093289 
L 261.560972 291.593481 
L 264.764689 290.930408 
L 267.968406 290.110933 
L 274.37584 288.079644 
L 283.986991 284.775048 
L 287.190708 283.91835 
L 290.394425 283.338622 
L 293.598142 283.113447 
L 296.801858 283.290877 
L 300.005575 283.878279 
L 303.209292 284.836639 
L 306.413009 286.081996 
L 316.02416 290.252159 
L 319.227877 291.326851 
L 322.431594 292.061662 
L 325.635311 292.404896 
L 328.839028 292.350739 
L 332.042745 291.934182 
L 335.246462 291.218371 
L 338.450179 290.275551 
L 341.653896 289.163201 
L 344.857613 287.897189 
L 348.06133 286.424182 
L 351.265047 284.596213 
L 354.468764 282.151538 
L 357.672481 278.707413 
L 360.876198 273.771682 
L 364.079915 266.780197 
L 367.283632 257.165012 
L 370.487349 244.453229 
L 373.691066 228.388353 
L 376.894783 209.056266 
L 380.0985 186.989243 
L 386.505934 139.238602 
L 389.709651 116.897591 
L 392.913368 98.171734 
L 396.117085 84.90178 
L 399.320802 78.511539 
L 402.524519 79.775961 
L 405.728236 88.688626 
L 408.931953 104.458908 
L 412.13567 125.639177 
L 415.339387 150.352236 
L 421.746821 202.369063 
L 424.950538 226.161554 
L 428.154255 246.791179 
L 431.357972 263.569568 
L 434.561689 276.221353 
L 437.765406 284.784427 
L 440.969123 289.497172 
L 444.17284 290.701595 
L 447.376557 288.780387 
L 450.580274 284.133194 
L 453.783991 277.185961 
L 456.987708 268.419272 
L 460.191425 258.398217 
L 466.598859 237.338761 
L 469.802576 227.850193 
L 473.006293 220.095554 
L 476.21001 214.741338 
L 479.413727 212.264288 
L 482.617444 212.887913 
L 485.821161 216.551645 
L 489.024878 222.919613 
L 492.228595 231.427504 
L 495.432312 241.357986 
L 501.839746 262.384746 
L 505.043463 272.056928 
L 508.24718 280.418781 
L 511.450897 287.099176 
L 514.654614 291.879706 
L 517.858331 294.676891 
L 521.062048 295.519748 
L 524.265765 294.530493 
L 527.469482 291.912414 
L 530.673199 287.944663 
L 533.876916 282.979885 
L 543.488067 266.544531 
L 546.691784 262.173086 
L 549.895501 259.09886 
L 553.099218 257.629403 
L 556.302935 257.922624 
L 559.506652 259.967357 
L 562.710369 263.587497 
L 565.914086 268.469779 
L 569.117803 274.210118 
L 577 289.204209 
L 577 289.204209 
" clip-path="url(#pbfdbed2075)" style="fill: none; stroke: #1c4981; stroke-width: 2; stroke-linecap: square"/>
   </g>
   <g id="line2d_16">
    <path d="M -1 312.162647 
L 0.89616 311.550624 
L 4.117596 310.203817 
L 7.339032 308.519985 
L 10.560468 306.489103 
L 13.781904 304.12773 
L 17.00334 301.483147 
L 23.446212 295.684372 
L 26.667648 292.758195 
L 29.889085 289.983696 
L 33.110521 287.481137 
L 36.331957 285.349383 
L 39.553393 283.65581 
L 42.774829 282.430825 
L 45.996265 281.667605 
L 49.217701 281.326592 
L 52.439137 281.343394 
L 55.660573 281.638297 
L 62.103445 282.721364 
L 68.546317 283.941159 
L 71.767753 284.442303 
L 74.989189 284.805934 
L 78.210626 284.994 
L 81.432062 284.975282 
L 84.653498 284.724816 
L 87.874934 284.224636 
L 91.09637 283.465959 
L 94.317806 282.452534 
L 97.539242 281.204438 
L 100.760678 279.761285 
L 113.646422 273.515257 
L 116.867858 272.313708 
L 120.089294 271.443971 
L 123.31073 270.970076 
L 126.532167 270.925738 
L 129.753603 271.311083 
L 132.975039 272.093844 
L 136.196475 273.214704 
L 139.417911 274.595671 
L 145.860783 277.790482 
L 152.303655 281.025286 
L 155.525091 282.494755 
L 158.746527 283.7996 
L 161.967963 284.898437 
L 165.189399 285.752445 
L 168.410835 286.324082 
L 171.632271 286.578674 
L 174.853708 286.488959 
L 178.075144 286.04174 
L 181.29658 285.245049 
L 184.518016 284.133902 
L 187.739452 282.772888 
L 197.40376 278.210187 
L 200.625196 276.931034 
L 203.846632 275.9606 
L 207.068068 275.376841 
L 210.289504 275.220998 
L 213.51094 275.493803 
L 216.732376 276.157032 
L 219.953812 277.139989 
L 223.175249 278.349756 
L 232.839557 282.330424 
L 236.060993 283.484615 
L 239.282429 284.453151 
L 242.503865 285.206301 
L 245.725301 285.729686 
L 248.946737 286.01879 
L 252.168173 286.073955 
L 255.389609 285.897301 
L 258.611045 285.492433 
L 261.832481 284.866935 
L 265.053917 284.036861 
L 268.275353 283.031734 
L 281.161098 278.443575 
L 284.382534 277.554432 
L 287.60397 276.922248 
L 290.825406 276.589265 
L 294.046842 276.562706 
L 297.268278 276.811753 
L 300.489714 277.270711 
L 310.154022 278.94413 
L 313.375458 279.276211 
L 316.596894 279.377491 
L 319.81833 279.221053 
L 323.039767 278.810582 
L 326.261203 278.174279 
L 329.482639 277.355056 
L 335.925511 275.341285 
L 342.368383 272.943587 
L 345.589819 271.513028 
L 348.811255 269.774466 
L 352.032691 267.523609 
L 355.254127 264.473884 
L 358.475563 260.256989 
L 361.696999 254.438818 
L 364.918435 246.556876 
L 368.139871 236.182672 
L 371.361308 223.007394 
L 374.582744 206.941831 
L 377.80418 188.213758 
L 381.025616 167.440087 
L 387.468488 124.238185 
L 390.689924 104.846816 
L 393.91136 89.176194 
L 397.132796 78.760625 
L 400.354232 74.74381 
L 403.575668 77.699979 
L 406.797104 87.537975 
L 410.01854 103.508929 
L 413.239976 124.315635 
L 416.461412 148.299683 
L 422.904285 198.70647 
L 426.125721 221.965508 
L 429.347157 242.354427 
L 432.568593 259.177557 
L 435.790029 272.099286 
L 439.011465 281.067786 
L 442.232901 286.222535 
L 445.454337 287.809533 
L 448.675773 286.121023 
L 451.897209 281.467315 
L 455.118645 274.179276 
L 458.340081 264.632891 
L 461.561517 253.282966 
L 464.782953 240.691766 
L 471.225826 214.612334 
L 474.447262 202.753075 
L 477.668698 192.798941 
L 480.890134 185.495733 
L 484.11157 181.414614 
L 487.333006 180.882535 
L 490.554442 183.940066 
L 493.775878 190.334865 
L 496.997314 199.552329 
L 500.21875 210.87794 
L 506.661622 236.500628 
L 509.883058 249.135535 
L 513.104494 260.701412 
L 516.325931 270.675623 
L 519.547367 278.713504 
L 522.768803 284.645349 
L 525.990239 288.459864 
L 529.211675 290.28095 
L 532.433111 290.34308 
L 535.654547 288.967891 
L 538.875983 286.541944 
L 542.097419 283.493742 
L 545.318855 280.267774 
L 548.540291 277.294456 
L 551.761727 274.957023 
L 554.983163 273.558779 
L 558.204599 273.29579 
L 561.426035 274.240372 
L 564.647472 276.339301 
L 567.868908 279.428027 
L 571.090344 283.258852 
L 577 291.233275 
L 577 291.233275 
" clip-path="url(#pbfdbed2075)" style="fill: none; stroke: #8a1218; stroke-width: 2; stroke-linecap: square"/>
   </g>
   <g id="line2d_17">
    <path d="M -1 313.633793 
L 1.226681 313.295809 
L 4.491776 312.650091 
L 7.75687 311.830141 
L 11.021965 310.815298 
L 14.28706 309.590963 
L 17.552155 308.151156 
L 20.81725 306.500712 
L 24.082344 304.656796 
L 30.612534 300.52125 
L 40.407818 293.982976 
L 43.672913 291.971487 
L 46.938008 290.15539 
L 50.203103 288.594927 
L 53.468198 287.341141 
L 56.733292 286.432978 
L 59.998387 285.894948 
L 63.263482 285.735401 
L 66.528577 285.945551 
L 69.793672 286.499317 
L 73.058766 287.354088 
L 76.323861 288.45246 
L 82.854051 291.093662 
L 89.38424 293.793167 
L 92.649335 294.968538 
L 95.91443 295.939769 
L 99.179525 296.659988 
L 102.444619 297.102113 
L 105.709714 297.260973 
L 108.974809 297.153584 
L 112.239904 296.817364 
L 118.770093 295.68604 
L 125.300283 294.396472 
L 128.565378 293.856508 
L 131.830473 293.454797 
L 135.095567 293.223794 
L 138.360662 293.17904 
L 141.625757 293.31958 
L 144.890852 293.629617 
L 151.421041 294.635166 
L 161.216326 296.435881 
L 164.481421 296.904486 
L 167.746515 297.217974 
L 171.01161 297.328587 
L 174.276705 297.1976 
L 177.5418 296.799517 
L 180.806895 296.126077 
L 184.071989 295.189454 
L 187.337084 294.023968 
L 193.867274 291.250111 
L 200.397463 288.451194 
L 203.662558 287.279697 
L 206.927653 286.377276 
L 210.192748 285.811278 
L 213.457843 285.624603 
L 216.722937 285.831624 
L 219.988032 286.416927 
L 223.253127 287.336925 
L 226.518222 288.524008 
L 233.048411 291.346473 
L 239.578601 294.115873 
L 242.843696 295.250651 
L 246.108791 296.120665 
L 249.373885 296.675699 
L 252.63898 296.887882 
L 255.904075 296.753306 
L 259.16917 296.292389 
L 262.434265 295.54883 
L 265.699359 294.586978 
L 278.759739 290.283785 
L 282.024833 289.538672 
L 285.289928 289.066256 
L 288.555023 288.899659 
L 291.820118 289.044668 
L 295.085213 289.479779 
L 298.350307 290.158929 
L 304.880497 291.973828 
L 311.410687 293.851118 
L 314.675781 294.611559 
L 317.940876 295.163127 
L 321.205971 295.455246 
L 324.471066 295.45206 
L 327.736161 295.131164 
L 331.001255 294.480507 
L 334.26635 293.49358 
L 337.531445 292.163001 
L 340.79654 290.47276 
L 344.061635 288.389676 
L 347.326729 285.855138 
L 350.591824 282.778736 
L 353.856919 279.035974 
L 357.122014 274.472481 
L 360.387109 268.916912 
L 363.652203 262.203765 
L 366.917298 254.205606 
L 370.182393 244.871909 
L 373.447488 234.269176 
L 376.712583 222.614958 
L 386.507867 186.036088 
L 389.772962 175.564587 
L 393.038057 167.239087 
L 396.303151 161.753579 
L 399.568246 159.626913 
L 402.833341 161.131397 
L 406.098436 166.250864 
L 409.363531 174.675729 
L 412.628625 185.835823 
L 415.89372 198.964901 
L 425.689005 241.36943 
L 428.954099 253.788023 
L 432.219194 264.313285 
L 435.484289 272.588036 
L 438.749384 278.435471 
L 442.014479 281.841624 
L 445.279573 282.931125 
L 448.544668 281.941871 
L 451.809763 279.201862 
L 455.074858 275.108752 
L 458.339953 270.110671 
L 464.870142 259.319048 
L 468.135237 254.473752 
L 471.400332 250.561675 
L 474.665427 247.912054 
L 477.930521 246.745084 
L 481.195616 247.153655 
L 484.460711 249.096737 
L 487.725806 252.405994 
L 490.990901 256.805013 
L 494.255995 261.938493 
L 500.786185 272.804808 
L 504.05128 277.750155 
L 507.316374 281.915703 
L 510.581469 285.046852 
L 513.846564 286.974366 
L 517.111659 287.620092 
L 520.376754 286.997421 
L 523.641848 285.207635 
L 526.906943 282.432676 
L 530.172038 278.924222 
L 539.967322 267.21069 
L 543.232417 264.055309 
L 546.497512 261.790772 
L 549.762607 260.636539 
L 553.027702 260.721628 
L 556.292796 262.073914 
L 559.557891 264.620398 
L 562.822986 268.198654 
L 566.088081 272.577832 
L 569.353176 277.486063 
L 577 289.444235 
L 577 289.444235 
" clip-path="url(#pbfdbed2075)" style="fill: none; stroke-dasharray: 2,3.3; stroke-dashoffset: 0; stroke: #1c4981; stroke-width: 2"/>
   </g>
   <g id="line2d_18">
    <path d="M -1 312.338523 
L 1.521224 311.569465 
L 4.765553 310.294759 
L 8.009882 308.697203 
L 11.254212 306.747854 
L 14.498541 304.43036 
L 17.742871 301.743926 
L 20.9872 298.705109 
L 24.23153 295.348275 
L 27.475859 291.724838 
L 33.964518 283.959007 
L 40.453177 276.092263 
L 43.697507 272.379097 
L 46.941836 268.964025 
L 50.186165 265.96329 
L 53.430495 263.488418 
L 56.674824 261.637706 
L 59.919154 260.485902 
L 63.163483 260.073501 
L 66.407813 260.397727 
L 69.652142 261.407462 
L 72.896472 263.003939 
L 76.140801 265.048001 
L 82.62946 269.803744 
L 85.87379 272.171519 
L 89.118119 274.333746 
L 92.362449 276.183819 
L 95.606778 277.656611 
L 98.851107 278.727155 
L 102.095437 279.404079 
L 105.339766 279.719965 
L 108.584096 279.721121 
L 111.828425 279.458944 
L 115.072755 278.984261 
L 118.317084 278.344984 
L 124.805743 276.753961 
L 131.294402 275.056183 
L 134.538732 274.292855 
L 137.783061 273.656219 
L 141.02739 273.194851 
L 144.27172 272.949084 
L 147.516049 272.946557 
L 150.760379 273.198577 
L 154.004708 273.697837 
L 157.249038 274.41777 
L 160.493367 275.313548 
L 173.470685 279.291781 
L 176.715015 279.990467 
L 179.959344 280.420685 
L 183.203673 280.526265 
L 186.448003 280.269814 
L 189.692332 279.636812 
L 192.936662 278.638646 
L 196.180991 277.31418 
L 199.425321 275.729438 
L 209.158309 270.410269 
L 212.402639 268.84815 
L 215.646968 267.593597 
L 218.891298 266.748465 
L 222.135627 266.388727 
L 225.379957 266.557748 
L 228.624286 267.262484 
L 231.868615 268.472946 
L 235.112945 270.124831 
L 238.357274 272.124827 
L 244.845933 276.69528 
L 248.090263 279.003831 
L 251.334592 281.153834 
L 254.578922 283.027261 
L 257.823251 284.524855 
L 261.067581 285.572279 
L 264.31191 286.124934 
L 267.55624 286.170984 
L 270.800569 285.732022 
L 274.044898 284.860955 
L 277.289228 283.636969 
L 280.533557 282.157944 
L 290.266546 277.254555 
L 293.510875 275.786463 
L 296.755205 274.524544 
L 299.999534 273.514561 
L 303.243864 272.784629 
L 306.488193 272.347658 
L 309.732523 272.203562 
L 312.976852 272.340329 
L 316.221182 272.733624 
L 319.465511 273.34519 
L 325.95417 274.98841 
L 332.442829 276.621092 
L 335.687158 277.153289 
L 338.931488 277.313385 
L 342.175817 276.942468 
L 345.420147 275.859284 
L 348.664476 273.852941 
L 351.908806 270.674796 
L 355.153135 266.033478 
L 358.397465 259.598808 
L 361.641794 251.020916 
L 364.886123 239.969659 
L 368.130453 226.195867 
L 371.374782 209.610234 
L 374.619112 190.36878 
L 377.863441 168.947489 
L 384.3521 123.275138 
L 387.59643 101.692395 
L 390.840759 83.057238 
L 394.085089 68.948728 
L 397.329418 60.697275 
L 400.573748 59.193218 
L 403.818077 64.748758 
L 407.062407 77.041565 
L 410.306736 95.151998 
L 413.551065 117.686281 
L 416.795395 142.960397 
L 423.284054 194.776822 
L 426.528383 218.274117 
L 429.772713 238.65685 
L 433.017042 255.250622 
L 436.261372 267.716915 
L 439.505701 275.986252 
L 442.750031 280.180718 
L 445.99436 280.545963 
L 449.23869 277.405878 
L 452.483019 271.144424 
L 455.727348 262.210835 
L 458.971678 251.138217 
L 462.216007 238.562416 
L 468.704666 211.973972 
L 471.948996 199.688679 
L 475.193325 189.247374 
L 478.437655 181.430322 
L 481.681984 176.84113 
L 484.926314 175.837885 
L 488.170643 178.490418 
L 491.414973 184.572165 
L 494.659302 193.588519 
L 497.903631 204.836823 
L 501.147961 217.487554 
L 507.63662 243.57149 
L 510.880949 255.471783 
L 514.125279 265.819289 
L 517.369608 274.235343 
L 520.613938 280.517589 
L 523.858267 284.625909 
L 527.102597 286.660736 
L 530.346926 286.83908 
L 533.591256 285.471257 
L 536.835585 282.938734 
L 540.079915 279.671618 
L 543.324244 276.123688 
L 546.568573 272.743601 
L 549.812903 269.942709 
L 553.057232 268.062095 
L 556.301562 267.343231 
L 559.545891 267.907333 
L 562.790221 269.747722 
L 566.03455 272.737461 
L 569.27888 276.651609 
L 572.523209 281.200601 
L 577 287.924814 
L 577 287.924814 
" clip-path="url(#pbfdbed2075)" style="fill: none; stroke-dasharray: 2,3.3; stroke-dashoffset: 0; stroke: #8a1218; stroke-width: 2"/>
   </g>
   <g id="patch_3">
    <path d="M 71 315 
L 71 56.142857 
" style="fill: none; stroke: #000000; stroke-width: 0.8; stroke-linejoin: miter; stroke-linecap: square"/>
   </g>
   <g id="patch_4">
    <path d="M 116.64 316 
L 473.76 316 
" style="fill: none; stroke: #000000; stroke-width: 0.8; stroke-linejoin: miter; stroke-linecap: square"/>
   </g>
   <g id="text_17">
    <!-- closed_open_loops_diff_tau Open IO Spikes CS+US -->
    <g transform="translate(142.752187 37.2) scale(0.12 -0.12)">
     <defs>
      <path id="DejaVuSans-63" d="M 3122 3366 
L 3122 2828 
Q 2878 2963 2633 3030 
Q 2388 3097 2138 3097 
Q 1578 3097 1268 2742 
Q 959 2388 959 1747 
Q 959 1106 1268 751 
Q 1578 397 2138 397 
Q 2388 397 2633 464 
Q 2878 531 3122 666 
L 3122 134 
Q 2881 22 2623 -34 
Q 2366 -91 2075 -91 
Q 1284 -91 818 406 
Q 353 903 353 1747 
Q 353 2603 823 3093 
Q 1294 3584 2113 3584 
Q 2378 3584 2631 3529 
Q 2884 3475 3122 3366 
z
" transform="scale(0.015625)"/>
      <path id="DejaVuSans-6c" d="M 603 4863 
L 1178 4863 
L 1178 0 
L 603 0 
L 603 4863 
z
" transform="scale(0.015625)"/>
      <path id="DejaVuSans-6f" d="M 1959 3097 
Q 1497 3097 1228 2736 
Q 959 2375 959 1747 
Q 959 1119 1226 758 
Q 1494 397 1959 397 
Q 2419 397 2687 759 
Q 2956 1122 2956 1747 
Q 2956 2369 2687 2733 
Q 2419 3097 1959 3097 
z
M 1959 3584 
Q 2709 3584 3137 3096 
Q 3566 2609 3566 1747 
Q 3566 888 3137 398 
Q 2709 -91 1959 -91 
Q 1206 -91 779 398 
Q 353 888 353 1747 
Q 353 2609 779 3096 
Q 1206 3584 1959 3584 
z
" transform="scale(0.015625)"/>
      <path id="DejaVuSans-64" d="M 2906 2969 
L 2906 4863 
L 3481 4863 
L 3481 0 
L 2906 0 
L 2906 525 
Q 2725 213 2448 61 
Q 2172 -91 1784 -91 
Q 1150 -91 751 415 
Q 353 922 353 1747 
Q 353 2572 751 3078 
Q 1150 3584 1784 3584 
Q 2172 3584 2448 3432 
Q 2725 3281 2906 2969 
z
M 947 1747 
Q 947 1113 1208 752 
Q 1469 391 1925 391 
Q 2381 391 2643 752 
Q 2906 1113 2906 1747 
Q 2906 2381 2643 2742 
Q 2381 3103 1925 3103 
Q 1469 3103 1208 2742 
Q 947 2381 947 1747 
z
" transform="scale(0.015625)"/>
      <path id="DejaVuSans-5f" d="M 3263 -1063 
L 3263 -1509 
L -63 -1509 
L -63 -1063 
L 3263 -1063 
z
" transform="scale(0.015625)"/>
      <path id="DejaVuSans-70" d="M 1159 525 
L 1159 -1331 
L 581 -1331 
L 581 3500 
L 1159 3500 
L 1159 2969 
Q 1341 3281 1617 3432 
Q 1894 3584 2278 3584 
Q 2916 3584 3314 3078 
Q 3713 2572 3713 1747 
Q 3713 922 3314 415 
Q 2916 -91 2278 -91 
Q 1894 -91 1617 61 
Q 1341 213 1159 525 
z
M 3116 1747 
Q 3116 2381 2855 2742 
Q 2594 3103 2138 3103 
Q 1681 3103 1420 2742 
Q 1159 2381 1159 1747 
Q 1159 1113 1420 752 
Q 1681 391 2138 391 
Q 2594 391 2855 752 
Q 3116 1113 3116 1747 
z
" transform="scale(0.015625)"/>
      <path id="DejaVuSans-66" d="M 2375 4863 
L 2375 4384 
L 1825 4384 
Q 1516 4384 1395 4259 
Q 1275 4134 1275 3809 
L 1275 3500 
L 2222 3500 
L 2222 3053 
L 1275 3053 
L 1275 0 
L 697 0 
L 697 3053 
L 147 3053 
L 147 3500 
L 697 3500 
L 697 3744 
Q 697 4328 969 4595 
Q 1241 4863 1831 4863 
L 2375 4863 
z
" transform="scale(0.015625)"/>
      <path id="DejaVuSans-61" d="M 2194 1759 
Q 1497 1759 1228 1600 
Q 959 1441 959 1056 
Q 959 750 1161 570 
Q 1363 391 1709 391 
Q 2188 391 2477 730 
Q 2766 1069 2766 1631 
L 2766 1759 
L 2194 1759 
z
M 3341 1997 
L 3341 0 
L 2766 0 
L 2766 531 
Q 2569 213 2275 61 
Q 1981 -91 1556 -91 
Q 1019 -91 701 211 
Q 384 513 384 1019 
Q 384 1609 779 1909 
Q 1175 2209 1959 2209 
L 2766 2209 
L 2766 2266 
Q 2766 2663 2505 2880 
Q 2244 3097 1772 3097 
Q 1472 3097 1187 3025 
Q 903 2953 641 2809 
L 641 3341 
Q 956 3463 1253 3523 
Q 1550 3584 1831 3584 
Q 2591 3584 2966 3190 
Q 3341 2797 3341 1997 
z
" transform="scale(0.015625)"/>
      <path id="DejaVuSans-75" d="M 544 1381 
L 544 3500 
L 1119 3500 
L 1119 1403 
Q 1119 906 1312 657 
Q 1506 409 1894 409 
Q 2359 409 2629 706 
Q 2900 1003 2900 1516 
L 2900 3500 
L 3475 3500 
L 3475 0 
L 2900 0 
L 2900 538 
Q 2691 219 2414 64 
Q 2138 -91 1772 -91 
Q 1169 -91 856 284 
Q 544 659 544 1381 
z
M 1991 3584 
L 1991 3584 
z
" transform="scale(0.015625)"/>
      <path id="DejaVuSans-4f" d="M 2522 4238 
Q 1834 4238 1429 3725 
Q 1025 3213 1025 2328 
Q 1025 1447 1429 934 
Q 1834 422 2522 422 
Q 3209 422 3611 934 
Q 4013 1447 4013 2328 
Q 4013 3213 3611 3725 
Q 3209 4238 2522 4238 
z
M 2522 4750 
Q 3503 4750 4090 4092 
Q 4678 3434 4678 2328 
Q 4678 1225 4090 567 
Q 3503 -91 2522 -91 
Q 1538 -91 948 565 
Q 359 1222 359 2328 
Q 359 3434 948 4092 
Q 1538 4750 2522 4750 
z
" transform="scale(0.015625)"/>
      <path id="DejaVuSans-49" d="M 628 4666 
L 1259 4666 
L 1259 0 
L 628 0 
L 628 4666 
z
" transform="scale(0.015625)"/>
      <path id="DejaVuSans-53" d="M 3425 4513 
L 3425 3897 
Q 3066 4069 2747 4153 
Q 2428 4238 2131 4238 
Q 1616 4238 1336 4038 
Q 1056 3838 1056 3469 
Q 1056 3159 1242 3001 
Q 1428 2844 1947 2747 
L 2328 2669 
Q 3034 2534 3370 2195 
Q 3706 1856 3706 1288 
Q 3706 609 3251 259 
Q 2797 -91 1919 -91 
Q 1588 -91 1214 -16 
Q 841 59 441 206 
L 441 856 
Q 825 641 1194 531 
Q 1563 422 1919 422 
Q 2459 422 2753 634 
Q 3047 847 3047 1241 
Q 3047 1584 2836 1778 
Q 2625 1972 2144 2069 
L 1759 2144 
Q 1053 2284 737 2584 
Q 422 2884 422 3419 
Q 422 4038 858 4394 
Q 1294 4750 2059 4750 
Q 2388 4750 2728 4690 
Q 3069 4631 3425 4513 
z
" transform="scale(0.015625)"/>
      <path id="DejaVuSans-6b" d="M 581 4863 
L 1159 4863 
L 1159 1991 
L 2875 3500 
L 3609 3500 
L 1753 1863 
L 3688 0 
L 2938 0 
L 1159 1709 
L 1159 0 
L 581 0 
L 581 4863 
z
" transform="scale(0.015625)"/>
      <path id="DejaVuSans-43" d="M 4122 4306 
L 4122 3641 
Q 3803 3938 3442 4084 
Q 3081 4231 2675 4231 
Q 1875 4231 1450 3742 
Q 1025 3253 1025 2328 
Q 1025 1406 1450 917 
Q 1875 428 2675 428 
Q 3081 428 3442 575 
Q 3803 722 4122 1019 
L 4122 359 
Q 3791 134 3420 21 
Q 3050 -91 2638 -91 
Q 1578 -91 968 557 
Q 359 1206 359 2328 
Q 359 3453 968 4101 
Q 1578 4750 2638 4750 
Q 3056 4750 3426 4639 
Q 3797 4528 4122 4306 
z
" transform="scale(0.015625)"/>
      <path id="DejaVuSans-2b" d="M 2944 4013 
L 2944 2272 
L 4684 2272 
L 4684 1741 
L 2944 1741 
L 2944 0 
L 2419 0 
L 2419 1741 
L 678 1741 
L 678 2272 
L 2419 2272 
L 2419 4013 
L 2944 4013 
z
" transform="scale(0.015625)"/>
      <path id="DejaVuSans-55" d="M 556 4666 
L 1191 4666 
L 1191 1831 
Q 1191 1081 1462 751 
Q 1734 422 2344 422 
Q 2950 422 3222 751 
Q 3494 1081 3494 1831 
L 3494 4666 
L 4128 4666 
L 4128 1753 
Q 4128 841 3676 375 
Q 3225 -91 2344 -91 
Q 1459 -91 1007 375 
Q 556 841 556 1753 
L 556 4666 
z
" transform="scale(0.015625)"/>
     </defs>
     <use xlink:href="#DejaVuSans-63"/>
     <use xlink:href="#DejaVuSans-6c" x="54.980469"/>
     <use xlink:href="#DejaVuSans-6f" x="82.763672"/>
     <use xlink:href="#DejaVuSans-73" x="143.945312"/>
     <use xlink:href="#DejaVuSans-65" x="196.044922"/>
     <use xlink:href="#DejaVuSans-64" x="257.568359"/>
     <use xlink:href="#DejaVuSans-5f" x="321.044922"/>
     <use xlink:href="#DejaVuSans-6f" x="371.044922"/>
     <use xlink:href="#DejaVuSans-70" x="432.226562"/>
     <use xlink:href="#DejaVuSans-65" x="495.703125"/>
     <use xlink:href="#DejaVuSans-6e" x="557.226562"/>
     <use xlink:href="#DejaVuSans-5f" x="620.605469"/>
     <use xlink:href="#DejaVuSans-6c" x="670.605469"/>
     <use xlink:href="#DejaVuSans-6f" x="698.388672"/>
     <use xlink:href="#DejaVuSans-6f" x="759.570312"/>
     <use xlink:href="#DejaVuSans-70" x="820.751953"/>
     <use xlink:href="#DejaVuSans-73" x="884.228516"/>
     <use xlink:href="#DejaVuSans-5f" x="936.328125"/>
     <use xlink:href="#DejaVuSans-64" x="986.328125"/>
     <use xlink:href="#DejaVuSans-69" x="1049.804688"/>
     <use xlink:href="#DejaVuSans-66" x="1077.587891"/>
     <use xlink:href="#DejaVuSans-66" x="1112.792969"/>
     <use xlink:href="#DejaVuSans-5f" x="1147.998047"/>
     <use xlink:href="#DejaVuSans-74" x="1197.998047"/>
     <use xlink:href="#DejaVuSans-61" x="1237.207031"/>
     <use xlink:href="#DejaVuSans-75" x="1298.486328"/>
     <use xlink:href="#DejaVuSans-20" x="1361.865234"/>
     <use xlink:href="#DejaVuSans-4f" x="1393.652344"/>
     <use xlink:href="#DejaVuSans-70" x="1472.363281"/>
     <use xlink:href="#DejaVuSans-65" x="1535.839844"/>
     <use xlink:href="#DejaVuSans-6e" x="1597.363281"/>
     <use xlink:href="#DejaVuSans-20" x="1660.742188"/>
     <use xlink:href="#DejaVuSans-49" x="1692.529297"/>
     <use xlink:href="#DejaVuSans-4f" x="1722.021484"/>
     <use xlink:href="#DejaVuSans-20" x="1800.732422"/>
     <use xlink:href="#DejaVuSans-53" x="1832.519531"/>
     <use xlink:href="#DejaVuSans-70" x="1895.996094"/>
     <use xlink:href="#DejaVuSans-69" x="1959.472656"/>
     <use xlink:href="#DejaVuSans-6b" x="1987.255859"/>
     <use xlink:href="#DejaVuSans-65" x="2041.541016"/>
     <use xlink:href="#DejaVuSans-73" x="2103.064453"/>
     <use xlink:href="#DejaVuSans-20" x="2155.164062"/>
     <use xlink:href="#DejaVuSans-43" x="2186.951172"/>
     <use xlink:href="#DejaVuSans-53" x="2256.775391"/>
     <use xlink:href="#DejaVuSans-2b" x="2320.251953"/>
     <use xlink:href="#DejaVuSans-55" x="2404.041016"/>
     <use xlink:href="#DejaVuSans-53" x="2477.234375"/>
    </g>
   </g>
   <g id="legend_1">
    <g id="patch_5">
     <path d="M 79 109.9125 
L 292.442187 109.9125 
Q 294.442187 109.9125 294.442187 107.9125 
L 294.442187 50.2 
Q 294.442187 48.2 292.442187 48.2 
L 79 48.2 
Q 77 48.2 77 50.2 
L 77 107.9125 
Q 77 109.9125 79 109.9125 
z
" style="fill: #ffffff; opacity: 0.8; stroke: #cccccc; stroke-linejoin: miter"/>
    </g>
    <g id="patch_6">
     <path d="M 81 59.798437 
L 101 59.798437 
L 101 52.798437 
L 81 52.798437 
z
" style="fill: #00ffff; opacity: 0.2"/>
    </g>
    <g id="text_18">
     <!-- CS -->
     <g transform="translate(109 59.798437) scale(0.1 -0.1)">
      <use xlink:href="#DejaVuSans-43"/>
      <use xlink:href="#DejaVuSans-53" x="69.824219"/>
     </g>
    </g>
    <g id="patch_7">
     <path d="M 81 74.476562 
L 101 74.476562 
L 101 67.476562 
L 81 67.476562 
z
" style="fill: #808080; opacity: 0.5"/>
    </g>
    <g id="text_19">
     <!-- US -->
     <g transform="translate(109 74.476562) scale(0.1 -0.1)">
      <use xlink:href="#DejaVuSans-55"/>
      <use xlink:href="#DejaVuSans-53" x="73.193359"/>
     </g>
    </g>
    <g id="patch_8">
     <path d="M 81 89.154687 
L 101 89.154687 
L 101 82.154687 
L 81 82.154687 
z
" style="fill: #1c4981"/>
    </g>
    <g id="text_20">
     <!-- Upbound -->
     <g transform="translate(109 89.154687) scale(0.1 -0.1)">
      <defs>
       <path id="DejaVuSans-62" d="M 3116 1747 
Q 3116 2381 2855 2742 
Q 2594 3103 2138 3103 
Q 1681 3103 1420 2742 
Q 1159 2381 1159 1747 
Q 1159 1113 1420 752 
Q 1681 391 2138 391 
Q 2594 391 2855 752 
Q 3116 1113 3116 1747 
z
M 1159 2969 
Q 1341 3281 1617 3432 
Q 1894 3584 2278 3584 
Q 2916 3584 3314 3078 
Q 3713 2572 3713 1747 
Q 3713 922 3314 415 
Q 2916 -91 2278 -91 
Q 1894 -91 1617 61 
Q 1341 213 1159 525 
L 1159 0 
L 581 0 
L 581 4863 
L 1159 4863 
L 1159 2969 
z
" transform="scale(0.015625)"/>
      </defs>
      <use xlink:href="#DejaVuSans-55"/>
      <use xlink:href="#DejaVuSans-70" x="73.193359"/>
      <use xlink:href="#DejaVuSans-62" x="136.669922"/>
      <use xlink:href="#DejaVuSans-6f" x="200.146484"/>
      <use xlink:href="#DejaVuSans-75" x="261.328125"/>
      <use xlink:href="#DejaVuSans-6e" x="324.707031"/>
      <use xlink:href="#DejaVuSans-64" x="388.085938"/>
     </g>
    </g>
    <g id="patch_9">
     <path d="M 81 103.832812 
L 101 103.832812 
L 101 96.832812 
L 81 96.832812 
z
" style="fill: #8a1218"/>
    </g>
    <g id="text_21">
     <!-- Downbound -->
     <g transform="translate(109 103.832812) scale(0.1 -0.1)">
      <defs>
       <path id="DejaVuSans-77" d="M 269 3500 
L 844 3500 
L 1563 769 
L 2278 3500 
L 2956 3500 
L 3675 769 
L 4391 3500 
L 4966 3500 
L 4050 0 
L 3372 0 
L 2619 2869 
L 1863 0 
L 1184 0 
L 269 3500 
z
" transform="scale(0.015625)"/>
      </defs>
      <use xlink:href="#DejaVuSans-44"/>
      <use xlink:href="#DejaVuSans-6f" x="77.001953"/>
      <use xlink:href="#DejaVuSans-77" x="138.183594"/>
      <use xlink:href="#DejaVuSans-6e" x="219.970703"/>
      <use xlink:href="#DejaVuSans-62" x="283.349609"/>
      <use xlink:href="#DejaVuSans-6f" x="346.826172"/>
      <use xlink:href="#DejaVuSans-75" x="408.007812"/>
      <use xlink:href="#DejaVuSans-6e" x="471.386719"/>
      <use xlink:href="#DejaVuSans-64" x="534.765625"/>
     </g>
    </g>
    <g id="line2d_19">
     <path d="M 188.825 56.298437 
L 198.825 56.298437 
L 208.825 56.298437 
" style="fill: none; stroke: #000000; stroke-linecap: square"/>
    </g>
    <g id="text_22">
     <!-- no_Plasticity -->
     <g transform="translate(216.825 59.798437) scale(0.1 -0.1)">
      <defs>
       <path id="DejaVuSans-50" d="M 1259 4147 
L 1259 2394 
L 2053 2394 
Q 2494 2394 2734 2622 
Q 2975 2850 2975 3272 
Q 2975 3691 2734 3919 
Q 2494 4147 2053 4147 
L 1259 4147 
z
M 628 4666 
L 2053 4666 
Q 2838 4666 3239 4311 
Q 3641 3956 3641 3272 
Q 3641 2581 3239 2228 
Q 2838 1875 2053 1875 
L 1259 1875 
L 1259 0 
L 628 0 
L 628 4666 
z
" transform="scale(0.015625)"/>
      </defs>
      <use xlink:href="#DejaVuSans-6e"/>
      <use xlink:href="#DejaVuSans-6f" x="63.378906"/>
      <use xlink:href="#DejaVuSans-5f" x="124.560547"/>
      <use xlink:href="#DejaVuSans-50" x="174.560547"/>
      <use xlink:href="#DejaVuSans-6c" x="234.863281"/>
      <use xlink:href="#DejaVuSans-61" x="262.646484"/>
      <use xlink:href="#DejaVuSans-73" x="323.925781"/>
      <use xlink:href="#DejaVuSans-74" x="376.025391"/>
      <use xlink:href="#DejaVuSans-69" x="415.234375"/>
      <use xlink:href="#DejaVuSans-63" x="443.017578"/>
      <use xlink:href="#DejaVuSans-69" x="497.998047"/>
      <use xlink:href="#DejaVuSans-74" x="525.78125"/>
      <use xlink:href="#DejaVuSans-79" x="564.990234"/>
     </g>
    </g>
    <g id="line2d_20">
     <path d="M 188.825 71.254687 
L 198.825 71.254687 
L 208.825 71.254687 
" style="fill: none; stroke-dasharray: 3.7,1.6; stroke-dashoffset: 0; stroke: #000000"/>
    </g>
    <g id="text_23">
     <!-- Plasticity -->
     <g transform="translate(216.825 74.754687) scale(0.1 -0.1)">
      <use xlink:href="#DejaVuSans-50"/>
      <use xlink:href="#DejaVuSans-6c" x="60.302734"/>
      <use xlink:href="#DejaVuSans-61" x="88.085938"/>
      <use xlink:href="#DejaVuSans-73" x="149.365234"/>
      <use xlink:href="#DejaVuSans-74" x="201.464844"/>
      <use xlink:href="#DejaVuSans-69" x="240.673828"/>
      <use xlink:href="#DejaVuSans-63" x="268.457031"/>
      <use xlink:href="#DejaVuSans-69" x="323.4375"/>
      <use xlink:href="#DejaVuSans-74" x="351.220703"/>
      <use xlink:href="#DejaVuSans-79" x="390.429688"/>
     </g>
    </g>
    <g id="line2d_21">
     <path d="M 188.825 85.932812 
L 198.825 85.932812 
L 208.825 85.932812 
" style="fill: none; stroke-dasharray: 1,1.65; stroke-dashoffset: 0; stroke: #000000"/>
    </g>
    <g id="text_24">
     <!-- after_Plasticity -->
     <g transform="translate(216.825 89.432812) scale(0.1 -0.1)">
      <defs>
       <path id="DejaVuSans-72" d="M 2631 2963 
Q 2534 3019 2420 3045 
Q 2306 3072 2169 3072 
Q 1681 3072 1420 2755 
Q 1159 2438 1159 1844 
L 1159 0 
L 581 0 
L 581 3500 
L 1159 3500 
L 1159 2956 
Q 1341 3275 1631 3429 
Q 1922 3584 2338 3584 
Q 2397 3584 2469 3576 
Q 2541 3569 2628 3553 
L 2631 2963 
z
" transform="scale(0.015625)"/>
      </defs>
      <use xlink:href="#DejaVuSans-61"/>
      <use xlink:href="#DejaVuSans-66" x="61.279297"/>
      <use xlink:href="#DejaVuSans-74" x="94.734375"/>
      <use xlink:href="#DejaVuSans-65" x="133.943359"/>
      <use xlink:href="#DejaVuSans-72" x="195.466797"/>
      <use xlink:href="#DejaVuSans-5f" x="236.580078"/>
      <use xlink:href="#DejaVuSans-50" x="286.580078"/>
      <use xlink:href="#DejaVuSans-6c" x="346.882812"/>
      <use xlink:href="#DejaVuSans-61" x="374.666016"/>
      <use xlink:href="#DejaVuSans-73" x="435.945312"/>
      <use xlink:href="#DejaVuSans-74" x="488.044922"/>
      <use xlink:href="#DejaVuSans-69" x="527.253906"/>
      <use xlink:href="#DejaVuSans-63" x="555.037109"/>
      <use xlink:href="#DejaVuSans-69" x="610.017578"/>
      <use xlink:href="#DejaVuSans-74" x="637.800781"/>
      <use xlink:href="#DejaVuSans-79" x="677.009766"/>
     </g>
    </g>
   </g>
  </g>
 </g>
 <defs>
  <clipPath id="pbfdbed2075">
   <rect x="72" y="43.2" width="446.4" height="271.8"/>
  </clipPath>
 </defs>
</svg>
