<?xml version="1.0" encoding="utf-8" standalone="no"?>
<!DOCTYPE svg PUBLIC "-//W3C//DTD SVG 1.1//EN"
  "http://www.w3.org/Graphics/SVG/1.1/DTD/svg11.dtd">
<svg xmlns:xlink="http://www.w3.org/1999/xlink" width="576pt" height="288pt" viewBox="0 0 576 288" xmlns="http://www.w3.org/2000/svg" version="1.1">
 <metadata>
  <rdf:RDF xmlns:dc="http://purl.org/dc/elements/1.1/" xmlns:cc="http://creativecommons.org/ns#" xmlns:rdf="http://www.w3.org/1999/02/22-rdf-syntax-ns#">
   <cc:Work>
    <dc:type rdf:resource="http://purl.org/dc/dcmitype/StillImage"/>
    <dc:date>2025-02-28T01:19:50.376292</dc:date>
    <dc:format>image/svg+xml</dc:format>
    <dc:creator>
     <cc:Agent>
      <dc:title>Matplotlib v3.7.2, https://matplotlib.org/</dc:title>
     </cc:Agent>
    </dc:creator>
   </cc:Work>
  </rdf:RDF>
 </metadata>
 <defs>
  <style type="text/css">*{stroke-linejoin: round; stroke-linecap: butt}</style>
 </defs>
 <g id="figure_1">
  <g id="patch_1">
   <path d="M 0 288 
L 576 288 
L 576 0 
L 0 0 
L 0 288 
z
" style="fill: none"/>
  </g>
  <g id="axes_1">
   <g id="patch_2">
    <path d="M 72 252 
L 518.4 252 
L 518.4 34.56 
L 72 34.56 
z
" style="fill: #ffffff"/>
   </g>
   <g id="PolyCollection_1">
    <path d="M 295.2 -95.904 
L 295.2 252 
L 406.8 252 
L 406.8 -95.904 
L 406.8 -95.904 
L 295.2 -95.904 
z
" clip-path="url(#p96258cdff1)" style="fill: #00ffff; fill-opacity: 0.2; stroke: #00ffff; stroke-opacity: 0.2"/>
   </g>
   <g id="PolyCollection_2">
    <path d="M 393.408 -95.904 
L 393.408 252 
L 406.8 252 
L 406.8 -95.904 
L 406.8 -95.904 
L 393.408 -95.904 
z
" clip-path="url(#p96258cdff1)" style="fill: #808080; fill-opacity: 0.5; stroke: #808080; stroke-opacity: 0.5"/>
   </g>
   <g id="matplotlib.axis_1">
    <g id="xtick_1">
     <g id="line2d_1">
      <defs>
       <path id="m5b0a9f91c4" d="M 0 0 
L 0 3.5 
" style="stroke: #000000; stroke-width: 0.8"/>
      </defs>
      <g>
       <use xlink:href="#m5b0a9f91c4" x="116.64" y="253" style="stroke: #000000; stroke-width: 0.8"/>
      </g>
     </g>
     <g id="text_1">
      <!-- −0.4 -->
      <g transform="translate(104.498594 267.598437) scale(0.1 -0.1)">
       <defs>
        <path id="DejaVuSans-2212" d="M 678 2272 
L 4684 2272 
L 4684 1741 
L 678 1741 
L 678 2272 
z
" transform="scale(0.015625)"/>
        <path id="DejaVuSans-30" d="M 2034 4250 
Q 1547 4250 1301 3770 
Q 1056 3291 1056 2328 
Q 1056 1369 1301 889 
Q 1547 409 2034 409 
Q 2525 409 2770 889 
Q 3016 1369 3016 2328 
Q 3016 3291 2770 3770 
Q 2525 4250 2034 4250 
z
M 2034 4750 
Q 2819 4750 3233 4129 
Q 3647 3509 3647 2328 
Q 3647 1150 3233 529 
Q 2819 -91 2034 -91 
Q 1250 -91 836 529 
Q 422 1150 422 2328 
Q 422 3509 836 4129 
Q 1250 4750 2034 4750 
z
" transform="scale(0.015625)"/>
        <path id="DejaVuSans-2e" d="M 684 794 
L 1344 794 
L 1344 0 
L 684 0 
L 684 794 
z
" transform="scale(0.015625)"/>
        <path id="DejaVuSans-34" d="M 2419 4116 
L 825 1625 
L 2419 1625 
L 2419 4116 
z
M 2253 4666 
L 3047 4666 
L 3047 1625 
L 3713 1625 
L 3713 1100 
L 3047 1100 
L 3047 0 
L 2419 0 
L 2419 1100 
L 313 1100 
L 313 1709 
L 2253 4666 
z
" transform="scale(0.015625)"/>
       </defs>
       <use xlink:href="#DejaVuSans-2212"/>
       <use xlink:href="#DejaVuSans-30" x="83.789062"/>
       <use xlink:href="#DejaVuSans-2e" x="147.412109"/>
       <use xlink:href="#DejaVuSans-34" x="179.199219"/>
      </g>
     </g>
    </g>
    <g id="xtick_2">
     <g id="line2d_2">
      <g>
       <use xlink:href="#m5b0a9f91c4" x="205.92" y="253" style="stroke: #000000; stroke-width: 0.8"/>
      </g>
     </g>
     <g id="text_2">
      <!-- −0.2 -->
      <g transform="translate(193.778594 267.598437) scale(0.1 -0.1)">
       <defs>
        <path id="DejaVuSans-32" d="M 1228 531 
L 3431 531 
L 3431 0 
L 469 0 
L 469 531 
Q 828 903 1448 1529 
Q 2069 2156 2228 2338 
Q 2531 2678 2651 2914 
Q 2772 3150 2772 3378 
Q 2772 3750 2511 3984 
Q 2250 4219 1831 4219 
Q 1534 4219 1204 4116 
Q 875 4013 500 3803 
L 500 4441 
Q 881 4594 1212 4672 
Q 1544 4750 1819 4750 
Q 2544 4750 2975 4387 
Q 3406 4025 3406 3419 
Q 3406 3131 3298 2873 
Q 3191 2616 2906 2266 
Q 2828 2175 2409 1742 
Q 1991 1309 1228 531 
z
" transform="scale(0.015625)"/>
       </defs>
       <use xlink:href="#DejaVuSans-2212"/>
       <use xlink:href="#DejaVuSans-30" x="83.789062"/>
       <use xlink:href="#DejaVuSans-2e" x="147.412109"/>
       <use xlink:href="#DejaVuSans-32" x="179.199219"/>
      </g>
     </g>
    </g>
    <g id="xtick_3">
     <g id="line2d_3">
      <g>
       <use xlink:href="#m5b0a9f91c4" x="295.2" y="253" style="stroke: #000000; stroke-width: 0.8"/>
      </g>
     </g>
     <g id="text_3">
      <!-- 0.0 -->
      <g transform="translate(287.248437 267.598437) scale(0.1 -0.1)">
       <use xlink:href="#DejaVuSans-30"/>
       <use xlink:href="#DejaVuSans-2e" x="63.623047"/>
       <use xlink:href="#DejaVuSans-30" x="95.410156"/>
      </g>
     </g>
    </g>
    <g id="xtick_4">
     <g id="line2d_4">
      <g>
       <use xlink:href="#m5b0a9f91c4" x="384.48" y="253" style="stroke: #000000; stroke-width: 0.8"/>
      </g>
     </g>
     <g id="text_4">
      <!-- 0.2 -->
      <g transform="translate(376.528437 267.598437) scale(0.1 -0.1)">
       <use xlink:href="#DejaVuSans-30"/>
       <use xlink:href="#DejaVuSans-2e" x="63.623047"/>
       <use xlink:href="#DejaVuSans-32" x="95.410156"/>
      </g>
     </g>
    </g>
    <g id="xtick_5">
     <g id="line2d_5">
      <g>
       <use xlink:href="#m5b0a9f91c4" x="473.76" y="253" style="stroke: #000000; stroke-width: 0.8"/>
      </g>
     </g>
     <g id="text_5">
      <!-- 0.4 -->
      <g transform="translate(465.808437 267.598437) scale(0.1 -0.1)">
       <use xlink:href="#DejaVuSans-30"/>
       <use xlink:href="#DejaVuSans-2e" x="63.623047"/>
       <use xlink:href="#DejaVuSans-34" x="95.410156"/>
      </g>
     </g>
    </g>
    <g id="text_6">
     <!-- Time [s] -->
     <g transform="translate(274.871094 281.276563) scale(0.1 -0.1)">
      <defs>
       <path id="DejaVuSans-54" d="M -19 4666 
L 3928 4666 
L 3928 4134 
L 2272 4134 
L 2272 0 
L 1638 0 
L 1638 4134 
L -19 4134 
L -19 4666 
z
" transform="scale(0.015625)"/>
       <path id="DejaVuSans-69" d="M 603 3500 
L 1178 3500 
L 1178 0 
L 603 0 
L 603 3500 
z
M 603 4863 
L 1178 4863 
L 1178 4134 
L 603 4134 
L 603 4863 
z
" transform="scale(0.015625)"/>
       <path id="DejaVuSans-6d" d="M 3328 2828 
Q 3544 3216 3844 3400 
Q 4144 3584 4550 3584 
Q 5097 3584 5394 3201 
Q 5691 2819 5691 2113 
L 5691 0 
L 5113 0 
L 5113 2094 
Q 5113 2597 4934 2840 
Q 4756 3084 4391 3084 
Q 3944 3084 3684 2787 
Q 3425 2491 3425 1978 
L 3425 0 
L 2847 0 
L 2847 2094 
Q 2847 2600 2669 2842 
Q 2491 3084 2119 3084 
Q 1678 3084 1418 2786 
Q 1159 2488 1159 1978 
L 1159 0 
L 581 0 
L 581 3500 
L 1159 3500 
L 1159 2956 
Q 1356 3278 1631 3431 
Q 1906 3584 2284 3584 
Q 2666 3584 2933 3390 
Q 3200 3197 3328 2828 
z
" transform="scale(0.015625)"/>
       <path id="DejaVuSans-65" d="M 3597 1894 
L 3597 1613 
L 953 1613 
Q 991 1019 1311 708 
Q 1631 397 2203 397 
Q 2534 397 2845 478 
Q 3156 559 3463 722 
L 3463 178 
Q 3153 47 2828 -22 
Q 2503 -91 2169 -91 
Q 1331 -91 842 396 
Q 353 884 353 1716 
Q 353 2575 817 3079 
Q 1281 3584 2069 3584 
Q 2775 3584 3186 3129 
Q 3597 2675 3597 1894 
z
M 3022 2063 
Q 3016 2534 2758 2815 
Q 2500 3097 2075 3097 
Q 1594 3097 1305 2825 
Q 1016 2553 972 2059 
L 3022 2063 
z
" transform="scale(0.015625)"/>
       <path id="DejaVuSans-20" transform="scale(0.015625)"/>
       <path id="DejaVuSans-5b" d="M 550 4863 
L 1875 4863 
L 1875 4416 
L 1125 4416 
L 1125 -397 
L 1875 -397 
L 1875 -844 
L 550 -844 
L 550 4863 
z
" transform="scale(0.015625)"/>
       <path id="DejaVuSans-73" d="M 2834 3397 
L 2834 2853 
Q 2591 2978 2328 3040 
Q 2066 3103 1784 3103 
Q 1356 3103 1142 2972 
Q 928 2841 928 2578 
Q 928 2378 1081 2264 
Q 1234 2150 1697 2047 
L 1894 2003 
Q 2506 1872 2764 1633 
Q 3022 1394 3022 966 
Q 3022 478 2636 193 
Q 2250 -91 1575 -91 
Q 1294 -91 989 -36 
Q 684 19 347 128 
L 347 722 
Q 666 556 975 473 
Q 1284 391 1588 391 
Q 1994 391 2212 530 
Q 2431 669 2431 922 
Q 2431 1156 2273 1281 
Q 2116 1406 1581 1522 
L 1381 1569 
Q 847 1681 609 1914 
Q 372 2147 372 2553 
Q 372 3047 722 3315 
Q 1072 3584 1716 3584 
Q 2034 3584 2315 3537 
Q 2597 3491 2834 3397 
z
" transform="scale(0.015625)"/>
       <path id="DejaVuSans-5d" d="M 1947 4863 
L 1947 -844 
L 622 -844 
L 622 -397 
L 1369 -397 
L 1369 4416 
L 622 4416 
L 622 4863 
L 1947 4863 
z
" transform="scale(0.015625)"/>
      </defs>
      <use xlink:href="#DejaVuSans-54"/>
      <use xlink:href="#DejaVuSans-69" x="57.958984"/>
      <use xlink:href="#DejaVuSans-6d" x="85.742188"/>
      <use xlink:href="#DejaVuSans-65" x="183.154297"/>
      <use xlink:href="#DejaVuSans-20" x="244.677734"/>
      <use xlink:href="#DejaVuSans-5b" x="276.464844"/>
      <use xlink:href="#DejaVuSans-73" x="315.478516"/>
      <use xlink:href="#DejaVuSans-5d" x="367.578125"/>
     </g>
    </g>
   </g>
   <g id="matplotlib.axis_2">
    <g id="ytick_1">
     <g id="line2d_6">
      <defs>
       <path id="m861048b787" d="M 0 0 
L -3.5 0 
" style="stroke: #000000; stroke-width: 0.8"/>
      </defs>
      <g>
       <use xlink:href="#m861048b787" x="71" y="252" style="stroke: #000000; stroke-width: 0.8"/>
      </g>
     </g>
     <g id="text_7">
      <!-- 0.0 -->
      <g transform="translate(48.096875 255.799219) scale(0.1 -0.1)">
       <use xlink:href="#DejaVuSans-30"/>
       <use xlink:href="#DejaVuSans-2e" x="63.623047"/>
       <use xlink:href="#DejaVuSans-30" x="95.410156"/>
      </g>
     </g>
    </g>
    <g id="ytick_2">
     <g id="line2d_7">
      <g>
       <use xlink:href="#m861048b787" x="71" y="217.2096" style="stroke: #000000; stroke-width: 0.8"/>
      </g>
     </g>
     <g id="text_8">
      <!-- 0.2 -->
      <g transform="translate(48.096875 221.008819) scale(0.1 -0.1)">
       <use xlink:href="#DejaVuSans-30"/>
       <use xlink:href="#DejaVuSans-2e" x="63.623047"/>
       <use xlink:href="#DejaVuSans-32" x="95.410156"/>
      </g>
     </g>
    </g>
    <g id="ytick_3">
     <g id="line2d_8">
      <g>
       <use xlink:href="#m861048b787" x="71" y="182.4192" style="stroke: #000000; stroke-width: 0.8"/>
      </g>
     </g>
     <g id="text_9">
      <!-- 0.4 -->
      <g transform="translate(48.096875 186.218419) scale(0.1 -0.1)">
       <use xlink:href="#DejaVuSans-30"/>
       <use xlink:href="#DejaVuSans-2e" x="63.623047"/>
       <use xlink:href="#DejaVuSans-34" x="95.410156"/>
      </g>
     </g>
    </g>
    <g id="ytick_4">
     <g id="line2d_9">
      <g>
       <use xlink:href="#m861048b787" x="71" y="147.6288" style="stroke: #000000; stroke-width: 0.8"/>
      </g>
     </g>
     <g id="text_10">
      <!-- 0.6 -->
      <g transform="translate(48.096875 151.428019) scale(0.1 -0.1)">
       <defs>
        <path id="DejaVuSans-36" d="M 2113 2584 
Q 1688 2584 1439 2293 
Q 1191 2003 1191 1497 
Q 1191 994 1439 701 
Q 1688 409 2113 409 
Q 2538 409 2786 701 
Q 3034 994 3034 1497 
Q 3034 2003 2786 2293 
Q 2538 2584 2113 2584 
z
M 3366 4563 
L 3366 3988 
Q 3128 4100 2886 4159 
Q 2644 4219 2406 4219 
Q 1781 4219 1451 3797 
Q 1122 3375 1075 2522 
Q 1259 2794 1537 2939 
Q 1816 3084 2150 3084 
Q 2853 3084 3261 2657 
Q 3669 2231 3669 1497 
Q 3669 778 3244 343 
Q 2819 -91 2113 -91 
Q 1303 -91 875 529 
Q 447 1150 447 2328 
Q 447 3434 972 4092 
Q 1497 4750 2381 4750 
Q 2619 4750 2861 4703 
Q 3103 4656 3366 4563 
z
" transform="scale(0.015625)"/>
       </defs>
       <use xlink:href="#DejaVuSans-30"/>
       <use xlink:href="#DejaVuSans-2e" x="63.623047"/>
       <use xlink:href="#DejaVuSans-36" x="95.410156"/>
      </g>
     </g>
    </g>
    <g id="ytick_5">
     <g id="line2d_10">
      <g>
       <use xlink:href="#m861048b787" x="71" y="112.8384" style="stroke: #000000; stroke-width: 0.8"/>
      </g>
     </g>
     <g id="text_11">
      <!-- 0.8 -->
      <g transform="translate(48.096875 116.637619) scale(0.1 -0.1)">
       <defs>
        <path id="DejaVuSans-38" d="M 2034 2216 
Q 1584 2216 1326 1975 
Q 1069 1734 1069 1313 
Q 1069 891 1326 650 
Q 1584 409 2034 409 
Q 2484 409 2743 651 
Q 3003 894 3003 1313 
Q 3003 1734 2745 1975 
Q 2488 2216 2034 2216 
z
M 1403 2484 
Q 997 2584 770 2862 
Q 544 3141 544 3541 
Q 544 4100 942 4425 
Q 1341 4750 2034 4750 
Q 2731 4750 3128 4425 
Q 3525 4100 3525 3541 
Q 3525 3141 3298 2862 
Q 3072 2584 2669 2484 
Q 3125 2378 3379 2068 
Q 3634 1759 3634 1313 
Q 3634 634 3220 271 
Q 2806 -91 2034 -91 
Q 1263 -91 848 271 
Q 434 634 434 1313 
Q 434 1759 690 2068 
Q 947 2378 1403 2484 
z
M 1172 3481 
Q 1172 3119 1398 2916 
Q 1625 2713 2034 2713 
Q 2441 2713 2670 2916 
Q 2900 3119 2900 3481 
Q 2900 3844 2670 4047 
Q 2441 4250 2034 4250 
Q 1625 4250 1398 4047 
Q 1172 3844 1172 3481 
z
" transform="scale(0.015625)"/>
       </defs>
       <use xlink:href="#DejaVuSans-30"/>
       <use xlink:href="#DejaVuSans-2e" x="63.623047"/>
       <use xlink:href="#DejaVuSans-38" x="95.410156"/>
      </g>
     </g>
    </g>
    <g id="ytick_6">
     <g id="line2d_11">
      <g>
       <use xlink:href="#m861048b787" x="71" y="78.048" style="stroke: #000000; stroke-width: 0.8"/>
      </g>
     </g>
     <g id="text_12">
      <!-- 1.0 -->
      <g transform="translate(48.096875 81.847219) scale(0.1 -0.1)">
       <defs>
        <path id="DejaVuSans-31" d="M 794 531 
L 1825 531 
L 1825 4091 
L 703 3866 
L 703 4441 
L 1819 4666 
L 2450 4666 
L 2450 531 
L 3481 531 
L 3481 0 
L 794 0 
L 794 531 
z
" transform="scale(0.015625)"/>
       </defs>
       <use xlink:href="#DejaVuSans-31"/>
       <use xlink:href="#DejaVuSans-2e" x="63.623047"/>
       <use xlink:href="#DejaVuSans-30" x="95.410156"/>
      </g>
     </g>
    </g>
    <g id="ytick_7">
     <g id="line2d_12">
      <g>
       <use xlink:href="#m861048b787" x="71" y="43.2576" style="stroke: #000000; stroke-width: 0.8"/>
      </g>
     </g>
     <g id="text_13">
      <!-- 1.2 -->
      <g transform="translate(48.096875 47.056819) scale(0.1 -0.1)">
       <use xlink:href="#DejaVuSans-31"/>
       <use xlink:href="#DejaVuSans-2e" x="63.623047"/>
       <use xlink:href="#DejaVuSans-32" x="95.410156"/>
      </g>
     </g>
    </g>
    <g id="text_14">
     <!-- Density -->
     <g transform="translate(42.017187 162.288594) rotate(-90) scale(0.1 -0.1)">
      <defs>
       <path id="DejaVuSans-44" d="M 1259 4147 
L 1259 519 
L 2022 519 
Q 2988 519 3436 956 
Q 3884 1394 3884 2338 
Q 3884 3275 3436 3711 
Q 2988 4147 2022 4147 
L 1259 4147 
z
M 628 4666 
L 1925 4666 
Q 3281 4666 3915 4102 
Q 4550 3538 4550 2338 
Q 4550 1131 3912 565 
Q 3275 0 1925 0 
L 628 0 
L 628 4666 
z
" transform="scale(0.015625)"/>
       <path id="DejaVuSans-6e" d="M 3513 2113 
L 3513 0 
L 2938 0 
L 2938 2094 
Q 2938 2591 2744 2837 
Q 2550 3084 2163 3084 
Q 1697 3084 1428 2787 
Q 1159 2491 1159 1978 
L 1159 0 
L 581 0 
L 581 3500 
L 1159 3500 
L 1159 2956 
Q 1366 3272 1645 3428 
Q 1925 3584 2291 3584 
Q 2894 3584 3203 3211 
Q 3513 2838 3513 2113 
z
" transform="scale(0.015625)"/>
       <path id="DejaVuSans-74" d="M 1172 4494 
L 1172 3500 
L 2356 3500 
L 2356 3053 
L 1172 3053 
L 1172 1153 
Q 1172 725 1289 603 
Q 1406 481 1766 481 
L 2356 481 
L 2356 0 
L 1766 0 
Q 1100 0 847 248 
Q 594 497 594 1153 
L 594 3053 
L 172 3053 
L 172 3500 
L 594 3500 
L 594 4494 
L 1172 4494 
z
" transform="scale(0.015625)"/>
       <path id="DejaVuSans-79" d="M 2059 -325 
Q 1816 -950 1584 -1140 
Q 1353 -1331 966 -1331 
L 506 -1331 
L 506 -850 
L 844 -850 
Q 1081 -850 1212 -737 
Q 1344 -625 1503 -206 
L 1606 56 
L 191 3500 
L 800 3500 
L 1894 763 
L 2988 3500 
L 3597 3500 
L 2059 -325 
z
" transform="scale(0.015625)"/>
      </defs>
      <use xlink:href="#DejaVuSans-44"/>
      <use xlink:href="#DejaVuSans-65" x="77.001953"/>
      <use xlink:href="#DejaVuSans-6e" x="138.525391"/>
      <use xlink:href="#DejaVuSans-73" x="201.904297"/>
      <use xlink:href="#DejaVuSans-69" x="254.003906"/>
      <use xlink:href="#DejaVuSans-74" x="281.787109"/>
      <use xlink:href="#DejaVuSans-79" x="320.996094"/>
     </g>
    </g>
   </g>
   <g id="line2d_13">
    <path d="M 12.945803 251.924638 
L 15.782696 251.556543 
L 18.61959 250.093752 
L 21.456484 245.946201 
L 24.293378 237.562449 
L 29.967166 213.368431 
L 32.804059 205.043304 
L 35.640953 201.649827 
L 38.477847 201.334927 
L 41.314741 201.423423 
L 44.151635 200.140306 
L 46.988529 197.324384 
L 49.825422 194.14802 
L 52.662316 191.764634 
L 55.49921 190.234303 
L 58.336104 189.035535 
L 61.172998 188.057309 
L 64.009892 187.580723 
L 66.846786 187.795136 
L 69.683679 188.683453 
L 72.520573 189.954709 
L 75.357467 190.988206 
L 78.194361 191.186545 
L 81.031255 190.443056 
L 83.868149 189.353862 
L 86.705042 189.041484 
L 89.541936 190.314934 
L 95.215724 195.218265 
L 98.052618 196.654549 
L 100.889512 197.151937 
L 103.726406 197.336361 
L 106.563299 197.695041 
L 109.400193 198.231784 
L 112.237087 198.588163 
L 115.073981 198.472997 
L 117.910875 197.929621 
L 120.747769 197.132224 
L 126.421556 195.067391 
L 129.25845 194.032048 
L 132.095344 193.233786 
L 134.932238 192.773545 
L 137.769132 192.632905 
L 143.442919 192.752622 
L 146.279813 192.515301 
L 149.116707 191.730507 
L 151.953601 190.584861 
L 154.790495 189.790624 
L 157.627389 190.024542 
L 160.464282 191.363251 
L 166.13807 195.179523 
L 168.974964 196.414234 
L 171.811858 196.686511 
L 174.648752 195.899955 
L 177.485645 194.183857 
L 180.322539 191.993535 
L 183.159433 190.104674 
L 185.996327 189.165003 
L 188.833221 189.205375 
L 191.670115 189.847585 
L 197.343902 191.523452 
L 203.01769 192.383027 
L 205.854584 193.186112 
L 211.528372 195.784327 
L 214.365265 196.774711 
L 217.202159 197.054225 
L 220.039053 196.473246 
L 222.875947 195.256822 
L 225.712841 193.914569 
L 228.549735 192.903895 
L 231.386629 192.375657 
L 234.223522 192.207206 
L 237.060416 192.232892 
L 242.734204 192.472705 
L 245.571098 192.179855 
L 248.407992 191.471325 
L 251.244885 191.046641 
L 254.081779 191.569391 
L 256.918673 192.642352 
L 259.755567 193.156005 
L 262.592461 192.652798 
L 265.429355 191.86237 
L 268.266248 191.812445 
L 271.103142 192.841605 
L 276.77693 196.268291 
L 279.613824 197.404852 
L 282.450718 197.457486 
L 285.287612 195.591582 
L 288.124505 190.016188 
L 290.961399 178.795845 
L 293.798293 163.074127 
L 296.635187 148.864478 
L 299.472081 142.816798 
L 302.308975 146.151926 
L 307.982762 163.231241 
L 310.819656 169.405393 
L 313.65655 172.8579 
L 316.493444 174.592386 
L 319.330338 175.920348 
L 322.167232 177.753678 
L 325.004125 180.35842 
L 327.841019 183.318192 
L 330.677913 185.708986 
L 333.514807 186.711641 
L 336.351701 186.147355 
L 339.188595 184.373541 
L 344.862382 179.601894 
L 347.699276 177.952332 
L 350.53617 177.273402 
L 353.373064 177.556039 
L 356.209958 178.843546 
L 359.046851 181.050748 
L 361.883745 183.579878 
L 364.720639 185.662864 
L 367.557533 187.156821 
L 370.394427 188.453324 
L 373.231321 189.520349 
L 376.068215 189.629687 
L 378.905108 188.204457 
L 381.742002 185.417485 
L 384.578896 181.298439 
L 387.41579 174.472096 
L 390.252684 163.666481 
L 393.089578 151.715695 
L 395.926471 145.916028 
L 398.763365 152.188927 
L 401.600259 170.11366 
L 407.274047 217.328135 
L 410.110941 234.454672 
L 412.947835 243.428278 
L 415.784728 245.273767 
L 418.621622 242.287753 
L 421.458516 236.510684 
L 427.132304 222.496465 
L 429.969198 216.575641 
L 432.806091 212.184802 
L 435.642985 209.052536 
L 438.479879 206.485874 
L 441.316773 204.078535 
L 444.153667 202.034472 
L 446.990561 200.559098 
L 449.827455 199.269229 
L 452.664348 197.633539 
L 455.501242 195.574753 
L 464.011924 188.752556 
L 466.848818 187.242834 
L 469.685711 187.003449 
L 472.522605 188.408237 
L 475.359499 191.201061 
L 478.196393 194.419972 
L 481.033287 197.046927 
L 483.870181 198.755943 
L 489.543968 201.23499 
L 492.380862 202.854965 
L 495.217756 204.325761 
L 498.05465 204.871356 
L 500.891544 204.313302 
L 503.728438 203.205449 
L 506.565331 201.862959 
L 509.402225 199.866511 
L 515.076013 194.164854 
L 517.912907 192.338145 
L 520.749801 191.708219 
L 526.423588 191.540023 
L 529.260482 191.128794 
L 532.097376 190.564737 
L 534.93427 190.225335 
L 537.771164 190.357076 
L 540.608058 190.775795 
L 543.444951 191.013906 
L 546.281845 190.728709 
L 549.118739 190.104881 
L 551.955633 190.111643 
L 554.792527 192.365234 
L 557.629421 198.573238 
L 560.466314 209.484978 
L 563.303208 223.463075 
L 566.140102 236.603373 
L 568.976996 245.570735 
L 571.81389 249.976859 
L 574.650784 251.528781 
L 577 251.852527 
L 577 251.852527 
" clip-path="url(#p96258cdff1)" style="fill: none; stroke: #1c4981; stroke-width: 2; stroke-linecap: square"/>
   </g>
   <g id="line2d_14">
    <path d="M 13.757615 251.888351 
L 16.586182 251.279717 
L 19.414748 248.728864 
L 22.243315 241.392944 
L 25.071882 226.914982 
L 27.900448 207.339329 
L 30.729015 189.346618 
L 33.557582 178.445668 
L 36.386148 174.630593 
L 39.214715 174.348751 
L 42.043282 174.237954 
L 44.871848 172.741125 
L 47.700415 170.197308 
L 50.528982 167.989085 
L 53.357549 166.826236 
L 56.186115 166.057202 
L 59.014682 165.048161 
L 61.843249 164.164233 
L 64.671815 163.978327 
L 67.500382 164.580051 
L 73.157515 167.01469 
L 75.986082 167.729723 
L 78.814649 167.375274 
L 81.643215 166.094829 
L 84.471782 164.974976 
L 87.300349 165.36999 
L 90.128915 167.487477 
L 92.957482 170.097389 
L 95.786049 171.867411 
L 98.614615 172.476285 
L 104.271749 172.384413 
L 107.100316 172.553405 
L 112.757449 173.209233 
L 115.586016 173.315255 
L 118.414582 173.132035 
L 121.243149 172.665005 
L 126.900282 171.380736 
L 129.728849 170.993209 
L 132.557416 170.983924 
L 138.214549 171.704066 
L 141.043116 171.790715 
L 143.871682 171.337105 
L 146.700249 170.178642 
L 149.528816 168.236627 
L 152.357382 166.045684 
L 155.185949 164.646427 
L 158.014516 164.636182 
L 160.843083 165.824934 
L 166.500216 169.311547 
L 169.328783 170.492859 
L 172.157349 170.904421 
L 174.985916 170.43927 
L 177.814483 169.073457 
L 183.471616 165.111468 
L 186.300183 164.106144 
L 189.128749 164.059546 
L 200.443016 165.690475 
L 203.271583 166.308306 
L 206.100149 167.536872 
L 208.928716 169.215414 
L 211.757283 171.038461 
L 214.58585 172.665734 
L 217.414416 173.594095 
L 220.242983 173.410106 
L 223.07155 172.220024 
L 225.900116 170.676265 
L 228.728683 169.45654 
L 231.55725 168.724873 
L 237.214383 167.82332 
L 242.871516 167.336877 
L 245.700083 166.73103 
L 248.52865 165.827519 
L 251.357216 165.534863 
L 254.185783 166.472649 
L 257.01435 167.950554 
L 259.842916 168.626736 
L 262.671483 168.075015 
L 265.50005 167.266121 
L 268.328617 167.341165 
L 271.157183 168.407024 
L 273.98575 169.744563 
L 276.814317 170.685264 
L 279.642883 171.040273 
L 282.47145 170.892038 
L 285.300017 169.856248 
L 288.128583 166.096388 
L 290.95715 156.818652 
L 296.614283 127.483452 
L 299.44285 120.729891 
L 302.271417 123.482421 
L 307.92855 139.202873 
L 310.757117 144.678556 
L 313.585683 147.69328 
L 316.41425 149.155696 
L 319.242817 150.096528 
L 322.071383 151.396678 
L 324.89995 153.621712 
L 327.728517 156.557627 
L 330.557084 159.158692 
L 333.38565 160.473979 
L 336.214217 160.410401 
L 339.042784 159.342184 
L 341.87135 157.512896 
L 344.699917 155.281481 
L 347.528484 153.36469 
L 350.35705 152.322196 
L 353.185617 152.245467 
L 356.014184 153.146406 
L 358.84275 155.047186 
L 361.671317 157.500482 
L 364.499884 159.773592 
L 372.985584 165.606962 
L 375.81415 166.532294 
L 378.642717 165.80973 
L 381.471284 163.605097 
L 384.299851 160.198962 
L 387.128417 154.266718 
L 389.956984 143.635619 
L 392.785551 129.967586 
L 395.614117 120.889528 
L 398.442684 124.260673 
L 401.271251 141.753969 
L 404.099817 169.108478 
L 406.928384 198.892132 
L 409.756951 222.516085 
L 412.585517 234.045073 
L 415.414084 233.452005 
L 418.242651 225.063767 
L 423.899784 202.134413 
L 426.728351 192.136926 
L 429.556917 184.446729 
L 432.385484 179.269692 
L 435.214051 175.988267 
L 438.042618 173.551489 
L 440.871184 171.417488 
L 443.699751 169.923577 
L 446.528318 169.373085 
L 449.356884 169.210144 
L 452.185451 168.62055 
L 455.014018 167.379526 
L 463.499718 162.41812 
L 466.328284 161.347332 
L 469.156851 161.218718 
L 471.985418 162.52984 
L 474.813984 165.458222 
L 480.471118 173.314442 
L 483.299684 176.584037 
L 486.128251 179.22296 
L 488.956818 181.510047 
L 491.785385 183.55827 
L 494.613951 184.925433 
L 497.442518 184.8831 
L 500.271085 183.337588 
L 503.099651 181.040396 
L 505.928218 178.548106 
L 508.756785 175.559327 
L 511.585351 171.903568 
L 514.413918 168.444572 
L 517.242485 166.192852 
L 520.071051 165.271338 
L 522.899618 165.152599 
L 525.728185 165.215427 
L 528.556751 164.985723 
L 534.213885 163.814157 
L 537.042451 163.953682 
L 542.699585 165.451565 
L 545.528152 165.589112 
L 548.356718 165.36168 
L 551.185285 165.599032 
L 554.013852 167.661391 
L 556.842418 173.81952 
L 559.670985 186.651848 
L 562.499552 205.889162 
L 565.328118 226.211982 
L 568.156685 241.118042 
L 570.985252 248.651312 
L 573.813818 251.265103 
L 576.642385 251.88663 
L 576.642385 251.88663 
" clip-path="url(#p96258cdff1)" style="fill: none; stroke: #8a1218; stroke-width: 2; stroke-linecap: square"/>
   </g>
   <g id="line2d_15">
    <path d="M 12.963866 251.897294 
L 15.800466 251.40191 
L 18.637066 249.462129 
L 21.473667 244.06062 
L 24.310267 233.369056 
L 29.983467 203.510554 
L 32.820067 193.407855 
L 35.656667 189.04328 
L 38.493267 188.129165 
L 41.329868 187.7604 
L 44.166468 186.291825 
L 49.839668 181.227031 
L 52.676268 179.455533 
L 61.186069 175.806138 
L 64.022669 175.11367 
L 66.859269 175.311715 
L 69.695869 176.272375 
L 72.532469 177.563488 
L 75.369069 178.5913 
L 78.205669 178.797991 
L 81.04227 178.068991 
L 83.87887 177.127303 
L 86.71547 177.183079 
L 89.55207 178.77596 
L 92.38867 181.22377 
L 95.22527 183.402664 
L 98.06187 184.724875 
L 100.89847 185.294516 
L 103.735071 185.55528 
L 106.571671 185.958063 
L 112.244871 187.257111 
L 115.081471 187.44049 
L 117.918071 187.132886 
L 120.754671 186.455827 
L 123.591272 185.406949 
L 129.264472 182.55751 
L 132.101072 181.349848 
L 134.937672 180.426073 
L 137.774272 179.677899 
L 140.610872 179.081804 
L 143.447473 178.611593 
L 146.284073 178.000711 
L 149.120673 176.908659 
L 151.957273 175.575072 
L 154.793873 174.900202 
L 157.630473 175.547607 
L 160.467073 177.337808 
L 163.303674 179.516001 
L 166.140274 181.284557 
L 168.976874 182.261231 
L 171.813474 182.589414 
L 174.650074 182.49005 
L 177.486674 181.856771 
L 180.323274 180.595333 
L 183.159875 179.178762 
L 185.996475 178.281287 
L 188.833075 177.957823 
L 194.506275 177.74195 
L 197.342875 177.795725 
L 200.179475 178.084321 
L 203.016075 178.787303 
L 205.852676 179.960269 
L 211.525876 182.608233 
L 214.362476 183.470171 
L 217.199076 183.600394 
L 220.035676 182.813806 
L 225.708877 179.84187 
L 228.545477 178.836176 
L 231.382077 178.473328 
L 234.218677 178.499084 
L 237.055277 178.709337 
L 242.728477 179.356191 
L 245.565078 179.210281 
L 248.401678 178.695047 
L 251.238278 178.604857 
L 254.074878 179.540473 
L 256.911478 180.909876 
L 259.748078 181.462195 
L 262.584678 180.768188 
L 265.421279 179.69395 
L 268.257879 179.367389 
L 271.094479 180.07102 
L 276.767679 182.447942 
L 279.604279 183.288225 
L 282.440879 183.6026 
L 285.27748 182.750098 
L 288.11408 179.390517 
L 290.95068 172.246597 
L 293.78728 162.189748 
L 296.62388 153.244523 
L 299.46048 149.72889 
L 302.29708 152.278746 
L 305.13368 157.86594 
L 307.970281 163.059481 
L 310.806881 166.255247 
L 313.643481 167.583957 
L 319.316681 168.320622 
L 322.153281 169.608749 
L 324.989881 172.263064 
L 327.826482 175.809559 
L 330.663082 178.872141 
L 333.499682 180.183643 
L 336.336282 179.512241 
L 339.172882 177.46732 
L 344.846082 172.2972 
L 347.682683 170.569917 
L 350.519283 169.851835 
L 353.355883 169.987168 
L 356.192483 170.926025 
L 359.029083 172.678491 
L 361.865683 174.835198 
L 364.702283 176.714043 
L 367.538884 178.100991 
L 373.212084 180.473449 
L 376.048684 180.79364 
L 378.885284 179.662759 
L 381.721884 177.174274 
L 384.558484 173.109287 
L 387.395085 165.608671 
L 390.231685 153.04645 
L 393.068285 138.565335 
L 395.904885 130.477456 
L 398.741485 135.677016 
L 401.578085 154.033471 
L 407.251285 205.657522 
L 410.087886 224.941268 
L 412.924486 234.050829 
L 415.761086 233.695639 
L 418.597686 227.309001 
L 424.270886 209.035811 
L 427.107486 200.924983 
L 429.944087 194.928207 
L 432.780687 191.187443 
L 435.617287 188.953741 
L 438.453887 187.279476 
L 441.290487 185.841005 
L 444.127087 184.899219 
L 449.800288 184.114401 
L 452.636888 183.100933 
L 461.146688 178.272023 
L 463.983288 176.933757 
L 466.819888 176.003999 
L 469.656489 175.94933 
L 472.493089 177.161218 
L 475.329689 179.421048 
L 478.166289 181.823522 
L 481.002889 183.551317 
L 486.676089 185.644536 
L 489.51269 187.173576 
L 492.34929 189.127575 
L 495.18589 190.75253 
L 498.02249 191.257736 
L 500.85909 190.671782 
L 503.69569 189.700147 
L 506.53229 188.591793 
L 509.36889 186.774872 
L 512.205491 183.986503 
L 515.042091 181.033055 
L 517.878691 178.928574 
L 520.715291 177.854732 
L 526.388491 176.867181 
L 529.225091 176.470724 
L 532.061692 176.256719 
L 534.898292 176.446413 
L 537.734892 177.16356 
L 540.571492 178.094671 
L 543.408092 178.643503 
L 546.244692 178.50424 
L 549.081292 177.966294 
L 551.917893 177.935494 
L 554.754493 180.005879 
L 557.591093 186.415027 
L 560.427693 198.809249 
L 566.100893 232.232603 
L 568.937493 243.70865 
L 571.774094 249.391951 
L 574.610694 251.395237 
L 577 251.818541 
L 577 251.818541 
" clip-path="url(#p96258cdff1)" style="fill: none; stroke-dasharray: 2,3.3; stroke-dashoffset: 0; stroke: #1c4981; stroke-width: 2"/>
   </g>
   <g id="line2d_16">
    <path d="M 12.915834 251.905586 
L 15.752861 251.44168 
L 18.589888 249.588298 
L 21.426915 244.306554 
L 24.263942 233.577192 
L 29.937995 202.193932 
L 32.775022 190.837665 
L 35.612049 185.353265 
L 38.449075 183.611102 
L 41.286102 182.813857 
L 44.123129 181.462133 
L 46.960156 179.559482 
L 49.797183 177.821363 
L 52.634209 176.686626 
L 61.14529 174.392091 
L 63.982317 173.86277 
L 66.819343 173.796382 
L 69.65637 174.230362 
L 75.330424 175.653567 
L 78.167451 175.948697 
L 81.004477 175.72175 
L 83.841504 175.259541 
L 86.678531 175.25999 
L 89.515558 176.247455 
L 95.189611 179.755325 
L 98.026638 180.994316 
L 100.863665 181.692036 
L 109.374745 182.890464 
L 112.211772 183.206415 
L 115.048799 183.272856 
L 117.885826 183.026784 
L 120.722852 182.453872 
L 123.559879 181.402486 
L 129.233933 178.291693 
L 132.07096 177.312087 
L 134.907986 176.978263 
L 137.745013 177.006115 
L 146.256093 177.520505 
L 149.09312 177.467619 
L 154.767174 176.963667 
L 157.604201 176.961455 
L 160.441227 177.387623 
L 166.115281 178.972304 
L 168.952308 179.540391 
L 171.789335 179.765881 
L 174.626361 179.577153 
L 177.463388 178.879358 
L 183.137442 176.567548 
L 185.974469 175.670511 
L 188.811495 175.085832 
L 191.648522 174.705422 
L 197.322576 174.400249 
L 200.159603 174.374743 
L 202.996629 174.652104 
L 205.833656 175.369842 
L 214.344736 178.410967 
L 217.181763 179.181755 
L 220.01879 179.495079 
L 222.855817 179.262834 
L 228.52987 178.284115 
L 231.366897 178.034682 
L 239.877978 177.689285 
L 242.715004 177.396676 
L 248.389058 176.279838 
L 251.226085 176.343858 
L 254.063112 177.263991 
L 256.900138 178.503611 
L 259.737165 179.181152 
L 262.574192 178.953377 
L 265.411219 178.388116 
L 268.248245 178.283324 
L 271.085272 178.769774 
L 273.922299 179.37603 
L 276.759326 179.684605 
L 279.596353 179.568658 
L 282.433379 179.0488 
L 285.270406 178.012179 
L 288.107433 175.791158 
L 290.94446 171.476925 
L 293.781487 165.490338 
L 296.618513 160.340288 
L 299.45554 158.620614 
L 302.292567 160.543404 
L 305.129594 164.223152 
L 307.966621 167.690334 
L 310.803647 169.942641 
L 313.640674 170.809526 
L 316.477701 170.708704 
L 319.314728 170.446692 
L 322.151755 170.838439 
L 324.988781 172.300156 
L 327.825808 174.527232 
L 330.662835 176.580971 
L 333.499862 177.652518 
L 336.336888 177.708241 
L 339.173915 177.158142 
L 342.010942 176.251928 
L 344.847969 175.166119 
L 347.684996 174.210697 
L 350.522022 173.604408 
L 353.359049 173.395015 
L 356.196076 173.655278 
L 359.033103 174.40693 
L 361.87013 175.366858 
L 370.38121 177.746568 
L 373.218237 178.698298 
L 376.055264 178.958145 
L 378.89229 178.045853 
L 381.729317 176.20945 
L 384.566344 173.503459 
L 387.403371 168.744442 
L 390.240397 160.866788 
L 393.077424 152.252019 
L 395.914451 149.047958 
L 398.751478 156.2287 
L 401.588505 173.140745 
L 404.425531 194.468916 
L 407.262558 213.841789 
L 410.099585 226.428061 
L 412.936612 230.457364 
L 415.773639 227.434448 
L 418.610665 220.468769 
L 424.284719 204.208434 
L 427.121746 197.237412 
L 429.958773 191.780196 
L 432.795799 187.926856 
L 435.632826 185.30916 
L 438.469853 183.349313 
L 441.30688 181.727246 
L 444.143907 180.527188 
L 446.980933 179.7922 
L 449.81796 179.181757 
L 452.654987 178.333644 
L 458.32904 176.073651 
L 464.003094 173.627186 
L 466.840121 172.866619 
L 469.677148 173.041908 
L 472.514174 174.489349 
L 475.351201 177.141847 
L 478.188228 180.498758 
L 483.862282 187.826479 
L 489.536335 195.853975 
L 492.373362 199.091117 
L 495.210389 200.831142 
L 498.047416 200.89599 
L 500.884442 199.644216 
L 503.721469 197.485846 
L 506.558496 194.472718 
L 509.395523 190.547043 
L 512.232549 186.196446 
L 515.069576 182.38789 
L 517.906603 179.66876 
L 520.74363 177.785925 
L 523.580657 176.313395 
L 526.417683 175.188091 
L 529.25471 174.502838 
L 532.091737 174.195289 
L 534.928764 174.142003 
L 537.765791 174.298759 
L 540.602817 174.568493 
L 543.439844 174.716365 
L 546.276871 174.576845 
L 549.113898 174.322812 
L 551.950925 174.708002 
L 554.787951 177.344145 
L 557.624978 184.550614 
L 560.462005 197.826416 
L 563.299032 215.39858 
L 566.136058 232.190112 
L 568.973085 243.724934 
L 571.810112 249.400481 
L 574.647139 251.396495 
L 577 251.812124 
L 577 251.812124 
" clip-path="url(#p96258cdff1)" style="fill: none; stroke-dasharray: 2,3.3; stroke-dashoffset: 0; stroke: #8a1218; stroke-width: 2"/>
   </g>
   <g id="patch_3">
    <path d="M 71 252 
L 71 43.2576 
" style="fill: none; stroke: #000000; stroke-width: 0.8; stroke-linejoin: miter; stroke-linecap: square"/>
   </g>
   <g id="patch_4">
    <path d="M 116.64 253 
L 473.76 253 
" style="fill: none; stroke: #000000; stroke-width: 0.8; stroke-linejoin: miter; stroke-linecap: square"/>
   </g>
   <g id="text_15">
    <!-- Closed Loop Simple Spikes CS+US -->
    <g transform="translate(191.954062 28.56) scale(0.12 -0.12)">
     <defs>
      <path id="DejaVuSans-43" d="M 4122 4306 
L 4122 3641 
Q 3803 3938 3442 4084 
Q 3081 4231 2675 4231 
Q 1875 4231 1450 3742 
Q 1025 3253 1025 2328 
Q 1025 1406 1450 917 
Q 1875 428 2675 428 
Q 3081 428 3442 575 
Q 3803 722 4122 1019 
L 4122 359 
Q 3791 134 3420 21 
Q 3050 -91 2638 -91 
Q 1578 -91 968 557 
Q 359 1206 359 2328 
Q 359 3453 968 4101 
Q 1578 4750 2638 4750 
Q 3056 4750 3426 4639 
Q 3797 4528 4122 4306 
z
" transform="scale(0.015625)"/>
      <path id="DejaVuSans-6c" d="M 603 4863 
L 1178 4863 
L 1178 0 
L 603 0 
L 603 4863 
z
" transform="scale(0.015625)"/>
      <path id="DejaVuSans-6f" d="M 1959 3097 
Q 1497 3097 1228 2736 
Q 959 2375 959 1747 
Q 959 1119 1226 758 
Q 1494 397 1959 397 
Q 2419 397 2687 759 
Q 2956 1122 2956 1747 
Q 2956 2369 2687 2733 
Q 2419 3097 1959 3097 
z
M 1959 3584 
Q 2709 3584 3137 3096 
Q 3566 2609 3566 1747 
Q 3566 888 3137 398 
Q 2709 -91 1959 -91 
Q 1206 -91 779 398 
Q 353 888 353 1747 
Q 353 2609 779 3096 
Q 1206 3584 1959 3584 
z
" transform="scale(0.015625)"/>
      <path id="DejaVuSans-64" d="M 2906 2969 
L 2906 4863 
L 3481 4863 
L 3481 0 
L 2906 0 
L 2906 525 
Q 2725 213 2448 61 
Q 2172 -91 1784 -91 
Q 1150 -91 751 415 
Q 353 922 353 1747 
Q 353 2572 751 3078 
Q 1150 3584 1784 3584 
Q 2172 3584 2448 3432 
Q 2725 3281 2906 2969 
z
M 947 1747 
Q 947 1113 1208 752 
Q 1469 391 1925 391 
Q 2381 391 2643 752 
Q 2906 1113 2906 1747 
Q 2906 2381 2643 2742 
Q 2381 3103 1925 3103 
Q 1469 3103 1208 2742 
Q 947 2381 947 1747 
z
" transform="scale(0.015625)"/>
      <path id="DejaVuSans-4c" d="M 628 4666 
L 1259 4666 
L 1259 531 
L 3531 531 
L 3531 0 
L 628 0 
L 628 4666 
z
" transform="scale(0.015625)"/>
      <path id="DejaVuSans-70" d="M 1159 525 
L 1159 -1331 
L 581 -1331 
L 581 3500 
L 1159 3500 
L 1159 2969 
Q 1341 3281 1617 3432 
Q 1894 3584 2278 3584 
Q 2916 3584 3314 3078 
Q 3713 2572 3713 1747 
Q 3713 922 3314 415 
Q 2916 -91 2278 -91 
Q 1894 -91 1617 61 
Q 1341 213 1159 525 
z
M 3116 1747 
Q 3116 2381 2855 2742 
Q 2594 3103 2138 3103 
Q 1681 3103 1420 2742 
Q 1159 2381 1159 1747 
Q 1159 1113 1420 752 
Q 1681 391 2138 391 
Q 2594 391 2855 752 
Q 3116 1113 3116 1747 
z
" transform="scale(0.015625)"/>
      <path id="DejaVuSans-53" d="M 3425 4513 
L 3425 3897 
Q 3066 4069 2747 4153 
Q 2428 4238 2131 4238 
Q 1616 4238 1336 4038 
Q 1056 3838 1056 3469 
Q 1056 3159 1242 3001 
Q 1428 2844 1947 2747 
L 2328 2669 
Q 3034 2534 3370 2195 
Q 3706 1856 3706 1288 
Q 3706 609 3251 259 
Q 2797 -91 1919 -91 
Q 1588 -91 1214 -16 
Q 841 59 441 206 
L 441 856 
Q 825 641 1194 531 
Q 1563 422 1919 422 
Q 2459 422 2753 634 
Q 3047 847 3047 1241 
Q 3047 1584 2836 1778 
Q 2625 1972 2144 2069 
L 1759 2144 
Q 1053 2284 737 2584 
Q 422 2884 422 3419 
Q 422 4038 858 4394 
Q 1294 4750 2059 4750 
Q 2388 4750 2728 4690 
Q 3069 4631 3425 4513 
z
" transform="scale(0.015625)"/>
      <path id="DejaVuSans-6b" d="M 581 4863 
L 1159 4863 
L 1159 1991 
L 2875 3500 
L 3609 3500 
L 1753 1863 
L 3688 0 
L 2938 0 
L 1159 1709 
L 1159 0 
L 581 0 
L 581 4863 
z
" transform="scale(0.015625)"/>
      <path id="DejaVuSans-2b" d="M 2944 4013 
L 2944 2272 
L 4684 2272 
L 4684 1741 
L 2944 1741 
L 2944 0 
L 2419 0 
L 2419 1741 
L 678 1741 
L 678 2272 
L 2419 2272 
L 2419 4013 
L 2944 4013 
z
" transform="scale(0.015625)"/>
      <path id="DejaVuSans-55" d="M 556 4666 
L 1191 4666 
L 1191 1831 
Q 1191 1081 1462 751 
Q 1734 422 2344 422 
Q 2950 422 3222 751 
Q 3494 1081 3494 1831 
L 3494 4666 
L 4128 4666 
L 4128 1753 
Q 4128 841 3676 375 
Q 3225 -91 2344 -91 
Q 1459 -91 1007 375 
Q 556 841 556 1753 
L 556 4666 
z
" transform="scale(0.015625)"/>
     </defs>
     <use xlink:href="#DejaVuSans-43"/>
     <use xlink:href="#DejaVuSans-6c" x="69.824219"/>
     <use xlink:href="#DejaVuSans-6f" x="97.607422"/>
     <use xlink:href="#DejaVuSans-73" x="158.789062"/>
     <use xlink:href="#DejaVuSans-65" x="210.888672"/>
     <use xlink:href="#DejaVuSans-64" x="272.412109"/>
     <use xlink:href="#DejaVuSans-20" x="335.888672"/>
     <use xlink:href="#DejaVuSans-4c" x="367.675781"/>
     <use xlink:href="#DejaVuSans-6f" x="421.638672"/>
     <use xlink:href="#DejaVuSans-6f" x="482.820312"/>
     <use xlink:href="#DejaVuSans-70" x="544.001953"/>
     <use xlink:href="#DejaVuSans-20" x="607.478516"/>
     <use xlink:href="#DejaVuSans-53" x="639.265625"/>
     <use xlink:href="#DejaVuSans-69" x="702.742188"/>
     <use xlink:href="#DejaVuSans-6d" x="730.525391"/>
     <use xlink:href="#DejaVuSans-70" x="827.9375"/>
     <use xlink:href="#DejaVuSans-6c" x="891.414062"/>
     <use xlink:href="#DejaVuSans-65" x="919.197266"/>
     <use xlink:href="#DejaVuSans-20" x="980.720703"/>
     <use xlink:href="#DejaVuSans-53" x="1012.507812"/>
     <use xlink:href="#DejaVuSans-70" x="1075.984375"/>
     <use xlink:href="#DejaVuSans-69" x="1139.460938"/>
     <use xlink:href="#DejaVuSans-6b" x="1167.244141"/>
     <use xlink:href="#DejaVuSans-65" x="1221.529297"/>
     <use xlink:href="#DejaVuSans-73" x="1283.052734"/>
     <use xlink:href="#DejaVuSans-20" x="1335.152344"/>
     <use xlink:href="#DejaVuSans-43" x="1366.939453"/>
     <use xlink:href="#DejaVuSans-53" x="1436.763672"/>
     <use xlink:href="#DejaVuSans-2b" x="1500.240234"/>
     <use xlink:href="#DejaVuSans-55" x="1584.029297"/>
     <use xlink:href="#DejaVuSans-53" x="1657.222656"/>
    </g>
   </g>
   <g id="legend_1">
    <g id="patch_5">
     <path d="M 79 101.2725 
L 292.442187 101.2725 
Q 294.442187 101.2725 294.442187 99.2725 
L 294.442187 41.56 
Q 294.442187 39.56 292.442187 39.56 
L 79 39.56 
Q 77 39.56 77 41.56 
L 77 99.2725 
Q 77 101.2725 79 101.2725 
z
" style="fill: #ffffff; opacity: 0.8; stroke: #cccccc; stroke-linejoin: miter"/>
    </g>
    <g id="patch_6">
     <path d="M 81 51.158437 
L 101 51.158437 
L 101 44.158437 
L 81 44.158437 
z
" style="fill: #00ffff; opacity: 0.2"/>
    </g>
    <g id="text_16">
     <!-- CS -->
     <g transform="translate(109 51.158437) scale(0.1 -0.1)">
      <use xlink:href="#DejaVuSans-43"/>
      <use xlink:href="#DejaVuSans-53" x="69.824219"/>
     </g>
    </g>
    <g id="patch_7">
     <path d="M 81 65.836562 
L 101 65.836562 
L 101 58.836562 
L 81 58.836562 
z
" style="fill: #808080; opacity: 0.5"/>
    </g>
    <g id="text_17">
     <!-- US -->
     <g transform="translate(109 65.836562) scale(0.1 -0.1)">
      <use xlink:href="#DejaVuSans-55"/>
      <use xlink:href="#DejaVuSans-53" x="73.193359"/>
     </g>
    </g>
    <g id="patch_8">
     <path d="M 81 80.514687 
L 101 80.514687 
L 101 73.514687 
L 81 73.514687 
z
" style="fill: #1c4981"/>
    </g>
    <g id="text_18">
     <!-- Upbound -->
     <g transform="translate(109 80.514687) scale(0.1 -0.1)">
      <defs>
       <path id="DejaVuSans-62" d="M 3116 1747 
Q 3116 2381 2855 2742 
Q 2594 3103 2138 3103 
Q 1681 3103 1420 2742 
Q 1159 2381 1159 1747 
Q 1159 1113 1420 752 
Q 1681 391 2138 391 
Q 2594 391 2855 752 
Q 3116 1113 3116 1747 
z
M 1159 2969 
Q 1341 3281 1617 3432 
Q 1894 3584 2278 3584 
Q 2916 3584 3314 3078 
Q 3713 2572 3713 1747 
Q 3713 922 3314 415 
Q 2916 -91 2278 -91 
Q 1894 -91 1617 61 
Q 1341 213 1159 525 
L 1159 0 
L 581 0 
L 581 4863 
L 1159 4863 
L 1159 2969 
z
" transform="scale(0.015625)"/>
       <path id="DejaVuSans-75" d="M 544 1381 
L 544 3500 
L 1119 3500 
L 1119 1403 
Q 1119 906 1312 657 
Q 1506 409 1894 409 
Q 2359 409 2629 706 
Q 2900 1003 2900 1516 
L 2900 3500 
L 3475 3500 
L 3475 0 
L 2900 0 
L 2900 538 
Q 2691 219 2414 64 
Q 2138 -91 1772 -91 
Q 1169 -91 856 284 
Q 544 659 544 1381 
z
M 1991 3584 
L 1991 3584 
z
" transform="scale(0.015625)"/>
      </defs>
      <use xlink:href="#DejaVuSans-55"/>
      <use xlink:href="#DejaVuSans-70" x="73.193359"/>
      <use xlink:href="#DejaVuSans-62" x="136.669922"/>
      <use xlink:href="#DejaVuSans-6f" x="200.146484"/>
      <use xlink:href="#DejaVuSans-75" x="261.328125"/>
      <use xlink:href="#DejaVuSans-6e" x="324.707031"/>
      <use xlink:href="#DejaVuSans-64" x="388.085938"/>
     </g>
    </g>
    <g id="patch_9">
     <path d="M 81 95.192813 
L 101 95.192813 
L 101 88.192813 
L 81 88.192813 
z
" style="fill: #8a1218"/>
    </g>
    <g id="text_19">
     <!-- Downbound -->
     <g transform="translate(109 95.192813) scale(0.1 -0.1)">
      <defs>
       <path id="DejaVuSans-77" d="M 269 3500 
L 844 3500 
L 1563 769 
L 2278 3500 
L 2956 3500 
L 3675 769 
L 4391 3500 
L 4966 3500 
L 4050 0 
L 3372 0 
L 2619 2869 
L 1863 0 
L 1184 0 
L 269 3500 
z
" transform="scale(0.015625)"/>
      </defs>
      <use xlink:href="#DejaVuSans-44"/>
      <use xlink:href="#DejaVuSans-6f" x="77.001953"/>
      <use xlink:href="#DejaVuSans-77" x="138.183594"/>
      <use xlink:href="#DejaVuSans-6e" x="219.970703"/>
      <use xlink:href="#DejaVuSans-62" x="283.349609"/>
      <use xlink:href="#DejaVuSans-6f" x="346.826172"/>
      <use xlink:href="#DejaVuSans-75" x="408.007812"/>
      <use xlink:href="#DejaVuSans-6e" x="471.386719"/>
      <use xlink:href="#DejaVuSans-64" x="534.765625"/>
     </g>
    </g>
    <g id="line2d_17">
     <path d="M 188.825 47.658437 
L 198.825 47.658437 
L 208.825 47.658437 
" style="fill: none; stroke: #000000; stroke-linecap: square"/>
    </g>
    <g id="text_20">
     <!-- no_Plasticity -->
     <g transform="translate(216.825 51.158437) scale(0.1 -0.1)">
      <defs>
       <path id="DejaVuSans-5f" d="M 3263 -1063 
L 3263 -1509 
L -63 -1509 
L -63 -1063 
L 3263 -1063 
z
" transform="scale(0.015625)"/>
       <path id="DejaVuSans-50" d="M 1259 4147 
L 1259 2394 
L 2053 2394 
Q 2494 2394 2734 2622 
Q 2975 2850 2975 3272 
Q 2975 3691 2734 3919 
Q 2494 4147 2053 4147 
L 1259 4147 
z
M 628 4666 
L 2053 4666 
Q 2838 4666 3239 4311 
Q 3641 3956 3641 3272 
Q 3641 2581 3239 2228 
Q 2838 1875 2053 1875 
L 1259 1875 
L 1259 0 
L 628 0 
L 628 4666 
z
" transform="scale(0.015625)"/>
       <path id="DejaVuSans-61" d="M 2194 1759 
Q 1497 1759 1228 1600 
Q 959 1441 959 1056 
Q 959 750 1161 570 
Q 1363 391 1709 391 
Q 2188 391 2477 730 
Q 2766 1069 2766 1631 
L 2766 1759 
L 2194 1759 
z
M 3341 1997 
L 3341 0 
L 2766 0 
L 2766 531 
Q 2569 213 2275 61 
Q 1981 -91 1556 -91 
Q 1019 -91 701 211 
Q 384 513 384 1019 
Q 384 1609 779 1909 
Q 1175 2209 1959 2209 
L 2766 2209 
L 2766 2266 
Q 2766 2663 2505 2880 
Q 2244 3097 1772 3097 
Q 1472 3097 1187 3025 
Q 903 2953 641 2809 
L 641 3341 
Q 956 3463 1253 3523 
Q 1550 3584 1831 3584 
Q 2591 3584 2966 3190 
Q 3341 2797 3341 1997 
z
" transform="scale(0.015625)"/>
       <path id="DejaVuSans-63" d="M 3122 3366 
L 3122 2828 
Q 2878 2963 2633 3030 
Q 2388 3097 2138 3097 
Q 1578 3097 1268 2742 
Q 959 2388 959 1747 
Q 959 1106 1268 751 
Q 1578 397 2138 397 
Q 2388 397 2633 464 
Q 2878 531 3122 666 
L 3122 134 
Q 2881 22 2623 -34 
Q 2366 -91 2075 -91 
Q 1284 -91 818 406 
Q 353 903 353 1747 
Q 353 2603 823 3093 
Q 1294 3584 2113 3584 
Q 2378 3584 2631 3529 
Q 2884 3475 3122 3366 
z
" transform="scale(0.015625)"/>
      </defs>
      <use xlink:href="#DejaVuSans-6e"/>
      <use xlink:href="#DejaVuSans-6f" x="63.378906"/>
      <use xlink:href="#DejaVuSans-5f" x="124.560547"/>
      <use xlink:href="#DejaVuSans-50" x="174.560547"/>
      <use xlink:href="#DejaVuSans-6c" x="234.863281"/>
      <use xlink:href="#DejaVuSans-61" x="262.646484"/>
      <use xlink:href="#DejaVuSans-73" x="323.925781"/>
      <use xlink:href="#DejaVuSans-74" x="376.025391"/>
      <use xlink:href="#DejaVuSans-69" x="415.234375"/>
      <use xlink:href="#DejaVuSans-63" x="443.017578"/>
      <use xlink:href="#DejaVuSans-69" x="497.998047"/>
      <use xlink:href="#DejaVuSans-74" x="525.78125"/>
      <use xlink:href="#DejaVuSans-79" x="564.990234"/>
     </g>
    </g>
    <g id="line2d_18">
     <path d="M 188.825 62.614688 
L 198.825 62.614688 
L 208.825 62.614688 
" style="fill: none; stroke-dasharray: 3.7,1.6; stroke-dashoffset: 0; stroke: #000000"/>
    </g>
    <g id="text_21">
     <!-- Plasticity -->
     <g transform="translate(216.825 66.114688) scale(0.1 -0.1)">
      <use xlink:href="#DejaVuSans-50"/>
      <use xlink:href="#DejaVuSans-6c" x="60.302734"/>
      <use xlink:href="#DejaVuSans-61" x="88.085938"/>
      <use xlink:href="#DejaVuSans-73" x="149.365234"/>
      <use xlink:href="#DejaVuSans-74" x="201.464844"/>
      <use xlink:href="#DejaVuSans-69" x="240.673828"/>
      <use xlink:href="#DejaVuSans-63" x="268.457031"/>
      <use xlink:href="#DejaVuSans-69" x="323.4375"/>
      <use xlink:href="#DejaVuSans-74" x="351.220703"/>
      <use xlink:href="#DejaVuSans-79" x="390.429688"/>
     </g>
    </g>
    <g id="line2d_19">
     <path d="M 188.825 77.292812 
L 198.825 77.292812 
L 208.825 77.292812 
" style="fill: none; stroke-dasharray: 1,1.65; stroke-dashoffset: 0; stroke: #000000"/>
    </g>
    <g id="text_22">
     <!-- after_Plasticity -->
     <g transform="translate(216.825 80.792812) scale(0.1 -0.1)">
      <defs>
       <path id="DejaVuSans-66" d="M 2375 4863 
L 2375 4384 
L 1825 4384 
Q 1516 4384 1395 4259 
Q 1275 4134 1275 3809 
L 1275 3500 
L 2222 3500 
L 2222 3053 
L 1275 3053 
L 1275 0 
L 697 0 
L 697 3053 
L 147 3053 
L 147 3500 
L 697 3500 
L 697 3744 
Q 697 4328 969 4595 
Q 1241 4863 1831 4863 
L 2375 4863 
z
" transform="scale(0.015625)"/>
       <path id="DejaVuSans-72" d="M 2631 2963 
Q 2534 3019 2420 3045 
Q 2306 3072 2169 3072 
Q 1681 3072 1420 2755 
Q 1159 2438 1159 1844 
L 1159 0 
L 581 0 
L 581 3500 
L 1159 3500 
L 1159 2956 
Q 1341 3275 1631 3429 
Q 1922 3584 2338 3584 
Q 2397 3584 2469 3576 
Q 2541 3569 2628 3553 
L 2631 2963 
z
" transform="scale(0.015625)"/>
      </defs>
      <use xlink:href="#DejaVuSans-61"/>
      <use xlink:href="#DejaVuSans-66" x="61.279297"/>
      <use xlink:href="#DejaVuSans-74" x="94.734375"/>
      <use xlink:href="#DejaVuSans-65" x="133.943359"/>
      <use xlink:href="#DejaVuSans-72" x="195.466797"/>
      <use xlink:href="#DejaVuSans-5f" x="236.580078"/>
      <use xlink:href="#DejaVuSans-50" x="286.580078"/>
      <use xlink:href="#DejaVuSans-6c" x="346.882812"/>
      <use xlink:href="#DejaVuSans-61" x="374.666016"/>
      <use xlink:href="#DejaVuSans-73" x="435.945312"/>
      <use xlink:href="#DejaVuSans-74" x="488.044922"/>
      <use xlink:href="#DejaVuSans-69" x="527.253906"/>
      <use xlink:href="#DejaVuSans-63" x="555.037109"/>
      <use xlink:href="#DejaVuSans-69" x="610.017578"/>
      <use xlink:href="#DejaVuSans-74" x="637.800781"/>
      <use xlink:href="#DejaVuSans-79" x="677.009766"/>
     </g>
    </g>
   </g>
  </g>
 </g>
 <defs>
  <clipPath id="p96258cdff1">
   <rect x="72" y="34.56" width="446.4" height="217.44"/>
  </clipPath>
 </defs>
</svg>
