<?xml version="1.0" encoding="utf-8" standalone="no"?>
<!DOCTYPE svg PUBLIC "-//W3C//DTD SVG 1.1//EN"
  "http://www.w3.org/Graphics/SVG/1.1/DTD/svg11.dtd">
<svg xmlns:xlink="http://www.w3.org/1999/xlink" width="576pt" height="288pt" viewBox="0 0 576 288" xmlns="http://www.w3.org/2000/svg" version="1.1">
 <metadata>
  <rdf:RDF xmlns:dc="http://purl.org/dc/elements/1.1/" xmlns:cc="http://creativecommons.org/ns#" xmlns:rdf="http://www.w3.org/1999/02/22-rdf-syntax-ns#">
   <cc:Work>
    <dc:type rdf:resource="http://purl.org/dc/dcmitype/StillImage"/>
    <dc:date>2025-02-28T01:20:17.033725</dc:date>
    <dc:format>image/svg+xml</dc:format>
    <dc:creator>
     <cc:Agent>
      <dc:title>Matplotlib v3.7.2, https://matplotlib.org/</dc:title>
     </cc:Agent>
    </dc:creator>
   </cc:Work>
  </rdf:RDF>
 </metadata>
 <defs>
  <style type="text/css">*{stroke-linejoin: round; stroke-linecap: butt}</style>
 </defs>
 <g id="figure_1">
  <g id="patch_1">
   <path d="M 0 288 
L 576 288 
L 576 0 
L 0 0 
L 0 288 
z
" style="fill: none"/>
  </g>
  <g id="axes_1">
   <g id="patch_2">
    <path d="M 72 252 
L 518.4 252 
L 518.4 34.56 
L 72 34.56 
z
" style="fill: #ffffff"/>
   </g>
   <g id="PolyCollection_1">
    <path d="M 295.2 -95.904 
L 295.2 252 
L 406.8 252 
L 406.8 -95.904 
L 406.8 -95.904 
L 295.2 -95.904 
z
" clip-path="url(#p6b7c5c1482)" style="fill: #00ffff; fill-opacity: 0.2; stroke: #00ffff; stroke-opacity: 0.2"/>
   </g>
   <g id="PolyCollection_2">
    <path d="M 393.408 -95.904 
L 393.408 252 
L 406.8 252 
L 406.8 -95.904 
L 406.8 -95.904 
L 393.408 -95.904 
z
" clip-path="url(#p6b7c5c1482)" style="fill: #808080; fill-opacity: 0.5; stroke: #808080; stroke-opacity: 0.5"/>
   </g>
   <g id="matplotlib.axis_1">
    <g id="xtick_1">
     <g id="line2d_1">
      <defs>
       <path id="m449679e49e" d="M 0 0 
L 0 3.5 
" style="stroke: #000000; stroke-width: 0.8"/>
      </defs>
      <g>
       <use xlink:href="#m449679e49e" x="116.64" y="253" style="stroke: #000000; stroke-width: 0.8"/>
      </g>
     </g>
     <g id="text_1">
      <!-- −0.4 -->
      <g transform="translate(104.498594 267.598437) scale(0.1 -0.1)">
       <defs>
        <path id="DejaVuSans-2212" d="M 678 2272 
L 4684 2272 
L 4684 1741 
L 678 1741 
L 678 2272 
z
" transform="scale(0.015625)"/>
        <path id="DejaVuSans-30" d="M 2034 4250 
Q 1547 4250 1301 3770 
Q 1056 3291 1056 2328 
Q 1056 1369 1301 889 
Q 1547 409 2034 409 
Q 2525 409 2770 889 
Q 3016 1369 3016 2328 
Q 3016 3291 2770 3770 
Q 2525 4250 2034 4250 
z
M 2034 4750 
Q 2819 4750 3233 4129 
Q 3647 3509 3647 2328 
Q 3647 1150 3233 529 
Q 2819 -91 2034 -91 
Q 1250 -91 836 529 
Q 422 1150 422 2328 
Q 422 3509 836 4129 
Q 1250 4750 2034 4750 
z
" transform="scale(0.015625)"/>
        <path id="DejaVuSans-2e" d="M 684 794 
L 1344 794 
L 1344 0 
L 684 0 
L 684 794 
z
" transform="scale(0.015625)"/>
        <path id="DejaVuSans-34" d="M 2419 4116 
L 825 1625 
L 2419 1625 
L 2419 4116 
z
M 2253 4666 
L 3047 4666 
L 3047 1625 
L 3713 1625 
L 3713 1100 
L 3047 1100 
L 3047 0 
L 2419 0 
L 2419 1100 
L 313 1100 
L 313 1709 
L 2253 4666 
z
" transform="scale(0.015625)"/>
       </defs>
       <use xlink:href="#DejaVuSans-2212"/>
       <use xlink:href="#DejaVuSans-30" x="83.789062"/>
       <use xlink:href="#DejaVuSans-2e" x="147.412109"/>
       <use xlink:href="#DejaVuSans-34" x="179.199219"/>
      </g>
     </g>
    </g>
    <g id="xtick_2">
     <g id="line2d_2">
      <g>
       <use xlink:href="#m449679e49e" x="205.92" y="253" style="stroke: #000000; stroke-width: 0.8"/>
      </g>
     </g>
     <g id="text_2">
      <!-- −0.2 -->
      <g transform="translate(193.778594 267.598437) scale(0.1 -0.1)">
       <defs>
        <path id="DejaVuSans-32" d="M 1228 531 
L 3431 531 
L 3431 0 
L 469 0 
L 469 531 
Q 828 903 1448 1529 
Q 2069 2156 2228 2338 
Q 2531 2678 2651 2914 
Q 2772 3150 2772 3378 
Q 2772 3750 2511 3984 
Q 2250 4219 1831 4219 
Q 1534 4219 1204 4116 
Q 875 4013 500 3803 
L 500 4441 
Q 881 4594 1212 4672 
Q 1544 4750 1819 4750 
Q 2544 4750 2975 4387 
Q 3406 4025 3406 3419 
Q 3406 3131 3298 2873 
Q 3191 2616 2906 2266 
Q 2828 2175 2409 1742 
Q 1991 1309 1228 531 
z
" transform="scale(0.015625)"/>
       </defs>
       <use xlink:href="#DejaVuSans-2212"/>
       <use xlink:href="#DejaVuSans-30" x="83.789062"/>
       <use xlink:href="#DejaVuSans-2e" x="147.412109"/>
       <use xlink:href="#DejaVuSans-32" x="179.199219"/>
      </g>
     </g>
    </g>
    <g id="xtick_3">
     <g id="line2d_3">
      <g>
       <use xlink:href="#m449679e49e" x="295.2" y="253" style="stroke: #000000; stroke-width: 0.8"/>
      </g>
     </g>
     <g id="text_3">
      <!-- 0.0 -->
      <g transform="translate(287.248437 267.598437) scale(0.1 -0.1)">
       <use xlink:href="#DejaVuSans-30"/>
       <use xlink:href="#DejaVuSans-2e" x="63.623047"/>
       <use xlink:href="#DejaVuSans-30" x="95.410156"/>
      </g>
     </g>
    </g>
    <g id="xtick_4">
     <g id="line2d_4">
      <g>
       <use xlink:href="#m449679e49e" x="384.48" y="253" style="stroke: #000000; stroke-width: 0.8"/>
      </g>
     </g>
     <g id="text_4">
      <!-- 0.2 -->
      <g transform="translate(376.528437 267.598437) scale(0.1 -0.1)">
       <use xlink:href="#DejaVuSans-30"/>
       <use xlink:href="#DejaVuSans-2e" x="63.623047"/>
       <use xlink:href="#DejaVuSans-32" x="95.410156"/>
      </g>
     </g>
    </g>
    <g id="xtick_5">
     <g id="line2d_5">
      <g>
       <use xlink:href="#m449679e49e" x="473.76" y="253" style="stroke: #000000; stroke-width: 0.8"/>
      </g>
     </g>
     <g id="text_5">
      <!-- 0.4 -->
      <g transform="translate(465.808437 267.598437) scale(0.1 -0.1)">
       <use xlink:href="#DejaVuSans-30"/>
       <use xlink:href="#DejaVuSans-2e" x="63.623047"/>
       <use xlink:href="#DejaVuSans-34" x="95.410156"/>
      </g>
     </g>
    </g>
    <g id="text_6">
     <!-- Time [s] -->
     <g transform="translate(274.871094 281.276563) scale(0.1 -0.1)">
      <defs>
       <path id="DejaVuSans-54" d="M -19 4666 
L 3928 4666 
L 3928 4134 
L 2272 4134 
L 2272 0 
L 1638 0 
L 1638 4134 
L -19 4134 
L -19 4666 
z
" transform="scale(0.015625)"/>
       <path id="DejaVuSans-69" d="M 603 3500 
L 1178 3500 
L 1178 0 
L 603 0 
L 603 3500 
z
M 603 4863 
L 1178 4863 
L 1178 4134 
L 603 4134 
L 603 4863 
z
" transform="scale(0.015625)"/>
       <path id="DejaVuSans-6d" d="M 3328 2828 
Q 3544 3216 3844 3400 
Q 4144 3584 4550 3584 
Q 5097 3584 5394 3201 
Q 5691 2819 5691 2113 
L 5691 0 
L 5113 0 
L 5113 2094 
Q 5113 2597 4934 2840 
Q 4756 3084 4391 3084 
Q 3944 3084 3684 2787 
Q 3425 2491 3425 1978 
L 3425 0 
L 2847 0 
L 2847 2094 
Q 2847 2600 2669 2842 
Q 2491 3084 2119 3084 
Q 1678 3084 1418 2786 
Q 1159 2488 1159 1978 
L 1159 0 
L 581 0 
L 581 3500 
L 1159 3500 
L 1159 2956 
Q 1356 3278 1631 3431 
Q 1906 3584 2284 3584 
Q 2666 3584 2933 3390 
Q 3200 3197 3328 2828 
z
" transform="scale(0.015625)"/>
       <path id="DejaVuSans-65" d="M 3597 1894 
L 3597 1613 
L 953 1613 
Q 991 1019 1311 708 
Q 1631 397 2203 397 
Q 2534 397 2845 478 
Q 3156 559 3463 722 
L 3463 178 
Q 3153 47 2828 -22 
Q 2503 -91 2169 -91 
Q 1331 -91 842 396 
Q 353 884 353 1716 
Q 353 2575 817 3079 
Q 1281 3584 2069 3584 
Q 2775 3584 3186 3129 
Q 3597 2675 3597 1894 
z
M 3022 2063 
Q 3016 2534 2758 2815 
Q 2500 3097 2075 3097 
Q 1594 3097 1305 2825 
Q 1016 2553 972 2059 
L 3022 2063 
z
" transform="scale(0.015625)"/>
       <path id="DejaVuSans-20" transform="scale(0.015625)"/>
       <path id="DejaVuSans-5b" d="M 550 4863 
L 1875 4863 
L 1875 4416 
L 1125 4416 
L 1125 -397 
L 1875 -397 
L 1875 -844 
L 550 -844 
L 550 4863 
z
" transform="scale(0.015625)"/>
       <path id="DejaVuSans-73" d="M 2834 3397 
L 2834 2853 
Q 2591 2978 2328 3040 
Q 2066 3103 1784 3103 
Q 1356 3103 1142 2972 
Q 928 2841 928 2578 
Q 928 2378 1081 2264 
Q 1234 2150 1697 2047 
L 1894 2003 
Q 2506 1872 2764 1633 
Q 3022 1394 3022 966 
Q 3022 478 2636 193 
Q 2250 -91 1575 -91 
Q 1294 -91 989 -36 
Q 684 19 347 128 
L 347 722 
Q 666 556 975 473 
Q 1284 391 1588 391 
Q 1994 391 2212 530 
Q 2431 669 2431 922 
Q 2431 1156 2273 1281 
Q 2116 1406 1581 1522 
L 1381 1569 
Q 847 1681 609 1914 
Q 372 2147 372 2553 
Q 372 3047 722 3315 
Q 1072 3584 1716 3584 
Q 2034 3584 2315 3537 
Q 2597 3491 2834 3397 
z
" transform="scale(0.015625)"/>
       <path id="DejaVuSans-5d" d="M 1947 4863 
L 1947 -844 
L 622 -844 
L 622 -397 
L 1369 -397 
L 1369 4416 
L 622 4416 
L 622 4863 
L 1947 4863 
z
" transform="scale(0.015625)"/>
      </defs>
      <use xlink:href="#DejaVuSans-54"/>
      <use xlink:href="#DejaVuSans-69" x="57.958984"/>
      <use xlink:href="#DejaVuSans-6d" x="85.742188"/>
      <use xlink:href="#DejaVuSans-65" x="183.154297"/>
      <use xlink:href="#DejaVuSans-20" x="244.677734"/>
      <use xlink:href="#DejaVuSans-5b" x="276.464844"/>
      <use xlink:href="#DejaVuSans-73" x="315.478516"/>
      <use xlink:href="#DejaVuSans-5d" x="367.578125"/>
     </g>
    </g>
   </g>
   <g id="matplotlib.axis_2">
    <g id="ytick_1">
     <g id="line2d_6">
      <defs>
       <path id="ma46ac96863" d="M 0 0 
L -3.5 0 
" style="stroke: #000000; stroke-width: 0.8"/>
      </defs>
      <g>
       <use xlink:href="#ma46ac96863" x="71" y="252" style="stroke: #000000; stroke-width: 0.8"/>
      </g>
     </g>
     <g id="text_7">
      <!-- 0.0 -->
      <g transform="translate(48.096875 255.799219) scale(0.1 -0.1)">
       <use xlink:href="#DejaVuSans-30"/>
       <use xlink:href="#DejaVuSans-2e" x="63.623047"/>
       <use xlink:href="#DejaVuSans-30" x="95.410156"/>
      </g>
     </g>
    </g>
    <g id="ytick_2">
     <g id="line2d_7">
      <g>
       <use xlink:href="#ma46ac96863" x="71" y="217.2096" style="stroke: #000000; stroke-width: 0.8"/>
      </g>
     </g>
     <g id="text_8">
      <!-- 0.2 -->
      <g transform="translate(48.096875 221.008819) scale(0.1 -0.1)">
       <use xlink:href="#DejaVuSans-30"/>
       <use xlink:href="#DejaVuSans-2e" x="63.623047"/>
       <use xlink:href="#DejaVuSans-32" x="95.410156"/>
      </g>
     </g>
    </g>
    <g id="ytick_3">
     <g id="line2d_8">
      <g>
       <use xlink:href="#ma46ac96863" x="71" y="182.4192" style="stroke: #000000; stroke-width: 0.8"/>
      </g>
     </g>
     <g id="text_9">
      <!-- 0.4 -->
      <g transform="translate(48.096875 186.218419) scale(0.1 -0.1)">
       <use xlink:href="#DejaVuSans-30"/>
       <use xlink:href="#DejaVuSans-2e" x="63.623047"/>
       <use xlink:href="#DejaVuSans-34" x="95.410156"/>
      </g>
     </g>
    </g>
    <g id="ytick_4">
     <g id="line2d_9">
      <g>
       <use xlink:href="#ma46ac96863" x="71" y="147.6288" style="stroke: #000000; stroke-width: 0.8"/>
      </g>
     </g>
     <g id="text_10">
      <!-- 0.6 -->
      <g transform="translate(48.096875 151.428019) scale(0.1 -0.1)">
       <defs>
        <path id="DejaVuSans-36" d="M 2113 2584 
Q 1688 2584 1439 2293 
Q 1191 2003 1191 1497 
Q 1191 994 1439 701 
Q 1688 409 2113 409 
Q 2538 409 2786 701 
Q 3034 994 3034 1497 
Q 3034 2003 2786 2293 
Q 2538 2584 2113 2584 
z
M 3366 4563 
L 3366 3988 
Q 3128 4100 2886 4159 
Q 2644 4219 2406 4219 
Q 1781 4219 1451 3797 
Q 1122 3375 1075 2522 
Q 1259 2794 1537 2939 
Q 1816 3084 2150 3084 
Q 2853 3084 3261 2657 
Q 3669 2231 3669 1497 
Q 3669 778 3244 343 
Q 2819 -91 2113 -91 
Q 1303 -91 875 529 
Q 447 1150 447 2328 
Q 447 3434 972 4092 
Q 1497 4750 2381 4750 
Q 2619 4750 2861 4703 
Q 3103 4656 3366 4563 
z
" transform="scale(0.015625)"/>
       </defs>
       <use xlink:href="#DejaVuSans-30"/>
       <use xlink:href="#DejaVuSans-2e" x="63.623047"/>
       <use xlink:href="#DejaVuSans-36" x="95.410156"/>
      </g>
     </g>
    </g>
    <g id="ytick_5">
     <g id="line2d_10">
      <g>
       <use xlink:href="#ma46ac96863" x="71" y="112.8384" style="stroke: #000000; stroke-width: 0.8"/>
      </g>
     </g>
     <g id="text_11">
      <!-- 0.8 -->
      <g transform="translate(48.096875 116.637619) scale(0.1 -0.1)">
       <defs>
        <path id="DejaVuSans-38" d="M 2034 2216 
Q 1584 2216 1326 1975 
Q 1069 1734 1069 1313 
Q 1069 891 1326 650 
Q 1584 409 2034 409 
Q 2484 409 2743 651 
Q 3003 894 3003 1313 
Q 3003 1734 2745 1975 
Q 2488 2216 2034 2216 
z
M 1403 2484 
Q 997 2584 770 2862 
Q 544 3141 544 3541 
Q 544 4100 942 4425 
Q 1341 4750 2034 4750 
Q 2731 4750 3128 4425 
Q 3525 4100 3525 3541 
Q 3525 3141 3298 2862 
Q 3072 2584 2669 2484 
Q 3125 2378 3379 2068 
Q 3634 1759 3634 1313 
Q 3634 634 3220 271 
Q 2806 -91 2034 -91 
Q 1263 -91 848 271 
Q 434 634 434 1313 
Q 434 1759 690 2068 
Q 947 2378 1403 2484 
z
M 1172 3481 
Q 1172 3119 1398 2916 
Q 1625 2713 2034 2713 
Q 2441 2713 2670 2916 
Q 2900 3119 2900 3481 
Q 2900 3844 2670 4047 
Q 2441 4250 2034 4250 
Q 1625 4250 1398 4047 
Q 1172 3844 1172 3481 
z
" transform="scale(0.015625)"/>
       </defs>
       <use xlink:href="#DejaVuSans-30"/>
       <use xlink:href="#DejaVuSans-2e" x="63.623047"/>
       <use xlink:href="#DejaVuSans-38" x="95.410156"/>
      </g>
     </g>
    </g>
    <g id="ytick_6">
     <g id="line2d_11">
      <g>
       <use xlink:href="#ma46ac96863" x="71" y="78.048" style="stroke: #000000; stroke-width: 0.8"/>
      </g>
     </g>
     <g id="text_12">
      <!-- 1.0 -->
      <g transform="translate(48.096875 81.847219) scale(0.1 -0.1)">
       <defs>
        <path id="DejaVuSans-31" d="M 794 531 
L 1825 531 
L 1825 4091 
L 703 3866 
L 703 4441 
L 1819 4666 
L 2450 4666 
L 2450 531 
L 3481 531 
L 3481 0 
L 794 0 
L 794 531 
z
" transform="scale(0.015625)"/>
       </defs>
       <use xlink:href="#DejaVuSans-31"/>
       <use xlink:href="#DejaVuSans-2e" x="63.623047"/>
       <use xlink:href="#DejaVuSans-30" x="95.410156"/>
      </g>
     </g>
    </g>
    <g id="ytick_7">
     <g id="line2d_12">
      <g>
       <use xlink:href="#ma46ac96863" x="71" y="43.2576" style="stroke: #000000; stroke-width: 0.8"/>
      </g>
     </g>
     <g id="text_13">
      <!-- 1.2 -->
      <g transform="translate(48.096875 47.056819) scale(0.1 -0.1)">
       <use xlink:href="#DejaVuSans-31"/>
       <use xlink:href="#DejaVuSans-2e" x="63.623047"/>
       <use xlink:href="#DejaVuSans-32" x="95.410156"/>
      </g>
     </g>
    </g>
    <g id="text_14">
     <!-- Density -->
     <g transform="translate(42.017187 162.288594) rotate(-90) scale(0.1 -0.1)">
      <defs>
       <path id="DejaVuSans-44" d="M 1259 4147 
L 1259 519 
L 2022 519 
Q 2988 519 3436 956 
Q 3884 1394 3884 2338 
Q 3884 3275 3436 3711 
Q 2988 4147 2022 4147 
L 1259 4147 
z
M 628 4666 
L 1925 4666 
Q 3281 4666 3915 4102 
Q 4550 3538 4550 2338 
Q 4550 1131 3912 565 
Q 3275 0 1925 0 
L 628 0 
L 628 4666 
z
" transform="scale(0.015625)"/>
       <path id="DejaVuSans-6e" d="M 3513 2113 
L 3513 0 
L 2938 0 
L 2938 2094 
Q 2938 2591 2744 2837 
Q 2550 3084 2163 3084 
Q 1697 3084 1428 2787 
Q 1159 2491 1159 1978 
L 1159 0 
L 581 0 
L 581 3500 
L 1159 3500 
L 1159 2956 
Q 1366 3272 1645 3428 
Q 1925 3584 2291 3584 
Q 2894 3584 3203 3211 
Q 3513 2838 3513 2113 
z
" transform="scale(0.015625)"/>
       <path id="DejaVuSans-74" d="M 1172 4494 
L 1172 3500 
L 2356 3500 
L 2356 3053 
L 1172 3053 
L 1172 1153 
Q 1172 725 1289 603 
Q 1406 481 1766 481 
L 2356 481 
L 2356 0 
L 1766 0 
Q 1100 0 847 248 
Q 594 497 594 1153 
L 594 3053 
L 172 3053 
L 172 3500 
L 594 3500 
L 594 4494 
L 1172 4494 
z
" transform="scale(0.015625)"/>
       <path id="DejaVuSans-79" d="M 2059 -325 
Q 1816 -950 1584 -1140 
Q 1353 -1331 966 -1331 
L 506 -1331 
L 506 -850 
L 844 -850 
Q 1081 -850 1212 -737 
Q 1344 -625 1503 -206 
L 1606 56 
L 191 3500 
L 800 3500 
L 1894 763 
L 2988 3500 
L 3597 3500 
L 2059 -325 
z
" transform="scale(0.015625)"/>
      </defs>
      <use xlink:href="#DejaVuSans-44"/>
      <use xlink:href="#DejaVuSans-65" x="77.001953"/>
      <use xlink:href="#DejaVuSans-6e" x="138.525391"/>
      <use xlink:href="#DejaVuSans-73" x="201.904297"/>
      <use xlink:href="#DejaVuSans-69" x="254.003906"/>
      <use xlink:href="#DejaVuSans-74" x="281.787109"/>
      <use xlink:href="#DejaVuSans-79" x="320.996094"/>
     </g>
    </g>
   </g>
   <g id="line2d_13">
    <path d="M 13.137214 251.913981 
L 15.97196 251.483107 
L 18.806706 249.750255 
L 21.641452 244.814203 
L 24.476197 234.832495 
L 30.145689 205.825278 
L 32.980435 195.485677 
L 35.815181 191.106693 
L 38.649926 191.131301 
L 41.484672 192.768741 
L 44.319418 193.796481 
L 47.154164 193.498233 
L 49.98891 192.538585 
L 52.823655 191.857893 
L 55.658401 191.684697 
L 58.493147 191.644846 
L 61.327893 191.415484 
L 66.997384 190.427163 
L 69.83213 190.154472 
L 72.666876 190.272116 
L 75.501622 190.680824 
L 78.336367 191.3917 
L 81.171113 192.566656 
L 84.005859 194.092742 
L 86.840605 195.475653 
L 89.675351 196.177633 
L 92.510096 195.862661 
L 95.344842 194.577172 
L 98.179588 192.856766 
L 101.014334 191.321248 
L 103.849079 190.197095 
L 106.683825 189.604737 
L 109.518571 189.873373 
L 115.188063 191.899776 
L 118.022808 191.979995 
L 123.6923 190.620662 
L 126.527046 190.276005 
L 129.361792 190.312442 
L 135.031283 190.873152 
L 137.866029 190.789152 
L 140.700775 190.184581 
L 143.53552 189.297259 
L 146.370266 188.586939 
L 149.205012 188.425379 
L 152.039758 188.967861 
L 154.874504 189.912327 
L 157.709249 190.375236 
L 160.543995 189.751432 
L 163.378741 188.631572 
L 166.213487 188.055945 
L 171.882978 188.14532 
L 174.717724 187.547561 
L 177.55247 186.524223 
L 180.387216 185.737801 
L 183.221961 185.972358 
L 186.056707 187.546169 
L 188.891453 189.791889 
L 191.726199 191.580685 
L 194.560945 192.433498 
L 197.39569 192.61605 
L 200.230436 192.477803 
L 203.065182 192.198979 
L 205.899928 191.774888 
L 208.734674 191.197381 
L 211.569419 190.871099 
L 214.404165 191.343184 
L 217.238911 192.399358 
L 220.073657 192.936003 
L 222.908402 192.084639 
L 228.577894 188.162529 
L 231.41264 186.81621 
L 234.247386 186.46188 
L 237.082131 187.285383 
L 242.751623 190.881488 
L 245.586369 191.557159 
L 248.421115 190.900622 
L 251.25586 189.8988 
L 254.090606 189.591992 
L 259.760098 190.498948 
L 262.594843 190.270248 
L 265.429589 189.223575 
L 271.099081 186.263815 
L 273.933827 185.249798 
L 276.768572 184.620956 
L 279.603318 184.255748 
L 282.438064 184.386 
L 285.27281 184.764847 
L 288.107556 183.195588 
L 290.942301 176.505228 
L 293.777047 164.875162 
L 296.611793 154.050912 
L 299.446539 150.38248 
L 302.281284 154.46362 
L 305.11603 161.872566 
L 307.950776 168.499602 
L 310.785522 172.98085 
L 313.620268 175.355494 
L 316.455013 175.826049 
L 322.124505 174.274721 
L 324.959251 174.425909 
L 327.793997 175.62292 
L 330.628742 177.370358 
L 333.463488 178.842869 
L 336.298234 179.165994 
L 339.13298 178.05836 
L 341.967725 176.201937 
L 344.802471 174.70782 
L 347.637217 174.307185 
L 350.471963 175.067744 
L 353.306709 176.62051 
L 356.141454 178.42357 
L 358.9762 179.739363 
L 361.810946 179.840077 
L 364.645692 178.859292 
L 367.480438 178.046186 
L 370.315183 178.548711 
L 375.984675 181.739184 
L 378.819421 182.14278 
L 381.654166 181.051905 
L 384.488912 178.024992 
L 387.323658 171.656781 
L 390.158404 160.875812 
L 392.99315 148.41369 
L 395.827895 141.595582 
L 398.662641 147.052223 
L 401.497387 165.104701 
L 407.166879 214.804636 
L 410.001624 233.068269 
L 412.83637 242.671343 
L 415.671116 244.841504 
L 418.505862 242.10729 
L 421.340607 236.465302 
L 427.010099 222.146775 
L 429.844845 216.252279 
L 432.679591 212.220809 
L 435.514336 209.535694 
L 444.018574 202.83205 
L 446.85332 200.445855 
L 449.688065 197.716671 
L 452.522811 194.831956 
L 455.357557 192.601049 
L 458.192303 191.672478 
L 461.027048 191.618913 
L 463.861794 191.38293 
L 466.69654 190.479601 
L 469.531286 189.294279 
L 472.366032 188.622792 
L 475.200777 189.225331 
L 478.035523 191.319465 
L 483.705015 197.378256 
L 486.539761 199.770907 
L 489.374506 201.211043 
L 492.209252 201.381816 
L 495.043998 199.924139 
L 500.713489 194.471453 
L 503.548235 192.667819 
L 506.382981 191.344295 
L 509.217727 189.656424 
L 512.052473 187.737974 
L 514.887218 186.665112 
L 517.721964 187.279434 
L 523.391456 191.108298 
L 526.226202 191.905354 
L 529.060947 191.670199 
L 531.895693 191.199178 
L 534.730439 191.033821 
L 537.565185 191.229896 
L 540.39993 191.733271 
L 543.234676 192.495164 
L 551.738914 195.170576 
L 554.573659 197.231086 
L 557.408405 202.379216 
L 560.243151 212.079776 
L 563.077897 225.090599 
L 565.912643 237.522663 
L 568.747388 246.006199 
L 571.582134 250.139633 
L 574.41688 251.575032 
L 577 251.89802 
L 577 251.89802 
" clip-path="url(#p6b7c5c1482)" style="fill: none; stroke: #1c4981; stroke-width: 2; stroke-linecap: square"/>
   </g>
   <g id="line2d_14">
    <path d="M 13.745855 251.886346 
L 16.574484 251.268111 
L 19.403113 248.679741 
L 22.231741 241.229439 
L 25.06037 226.458457 
L 27.888999 206.263828 
L 30.717628 187.290161 
L 33.546257 175.364139 
L 36.374885 171.115358 
L 39.203514 171.506211 
L 42.032143 173.12919 
L 44.860772 173.883019 
L 47.689401 173.457795 
L 50.518029 172.803212 
L 53.346658 172.733435 
L 56.175287 173.040993 
L 59.003916 173.078314 
L 61.832545 172.594279 
L 67.489802 170.675988 
L 70.318431 170.123634 
L 73.14706 170.278787 
L 75.975688 170.87682 
L 78.804317 171.667823 
L 81.632946 172.771584 
L 87.290204 175.756791 
L 90.118832 176.578491 
L 92.947461 176.303772 
L 95.77609 175.128415 
L 101.433348 172.265242 
L 104.261976 171.169818 
L 107.090605 170.627831 
L 109.919234 170.965673 
L 112.747863 171.943501 
L 115.576492 172.684476 
L 118.40512 172.614329 
L 121.233749 172.054814 
L 124.062378 171.621903 
L 126.891007 171.546896 
L 132.548264 171.941318 
L 135.376893 171.96577 
L 138.205522 171.634548 
L 141.034151 170.932812 
L 143.86278 170.063375 
L 146.691408 169.413957 
L 149.520037 169.34108 
L 152.348666 169.930122 
L 155.177295 170.687392 
L 158.005923 170.638675 
L 163.663181 168.33787 
L 166.49181 168.080567 
L 169.320439 168.49719 
L 172.149067 168.685526 
L 174.977696 168.137672 
L 177.806325 167.070702 
L 180.634954 166.153954 
L 183.463583 166.207898 
L 186.292211 167.6008 
L 189.12084 169.697742 
L 191.949469 171.464788 
L 194.778098 172.415845 
L 197.606727 172.640096 
L 200.435355 172.438079 
L 208.921242 171.577798 
L 211.749871 171.592946 
L 214.578499 172.151771 
L 217.407128 173.016515 
L 220.235757 173.169793 
L 223.064386 171.82934 
L 225.893015 169.594548 
L 228.721643 167.676406 
L 231.550272 166.569208 
L 234.378901 166.309607 
L 237.20753 167.089039 
L 242.864787 170.490797 
L 245.693416 171.137495 
L 251.350674 170.198859 
L 254.179302 170.333319 
L 257.007931 170.931897 
L 259.83656 171.279855 
L 262.665189 170.831242 
L 265.493818 169.620245 
L 271.151075 166.539607 
L 273.979704 165.335424 
L 276.808333 164.567826 
L 279.636962 164.29529 
L 282.46559 164.724024 
L 285.294219 165.440008 
L 288.122848 164.07453 
L 290.951477 157.331573 
L 293.780106 145.399402 
L 296.608734 134.305254 
L 299.437363 130.701548 
L 302.265992 135.034832 
L 305.094621 142.50878 
L 307.92325 148.90442 
L 310.751878 153.002685 
L 313.580507 155.057788 
L 316.409136 155.466668 
L 322.066394 154.451535 
L 324.895022 154.893023 
L 327.723651 156.408812 
L 330.55228 158.595056 
L 333.380909 160.575943 
L 336.209538 161.294563 
L 339.038166 160.348534 
L 341.866795 158.442143 
L 344.695424 156.709444 
L 347.524053 155.875656 
L 350.352681 156.137407 
L 353.18131 157.386833 
L 356.009939 159.186536 
L 358.838568 160.641636 
L 361.667197 160.817858 
L 367.324454 158.768049 
L 370.153083 159.205418 
L 375.810341 162.543517 
L 378.638969 163.051767 
L 381.467598 162.220567 
L 384.296227 159.636725 
L 387.124856 153.756678 
L 389.953485 143.108682 
L 392.782113 130.090468 
L 395.610742 122.572974 
L 398.439371 128.24553 
L 401.268 147.88392 
L 406.925257 204.252254 
L 409.753886 225.70158 
L 412.582515 236.075988 
L 415.411144 236.178998 
L 418.239773 229.648308 
L 421.068401 219.896161 
L 423.89703 209.300251 
L 426.725659 199.671722 
L 429.554288 192.306917 
L 432.382917 187.55386 
L 435.211545 184.695262 
L 438.040174 182.674513 
L 446.52606 177.455941 
L 449.354689 175.01166 
L 452.183318 172.320317 
L 455.011947 170.40521 
L 457.840576 169.840424 
L 460.669204 170.046713 
L 463.497833 169.950865 
L 466.326462 169.047964 
L 469.155091 167.676663 
L 471.98372 166.625166 
L 474.812348 166.717267 
L 477.640977 168.355439 
L 480.469606 171.264606 
L 483.298235 174.925778 
L 488.955492 183.127254 
L 491.784121 186.193212 
L 494.61275 187.003135 
L 497.441379 185.349703 
L 503.098636 179.453943 
L 505.927265 176.731083 
L 508.755894 173.736233 
L 511.584523 170.543684 
L 514.413152 168.12654 
L 517.24178 167.531261 
L 520.070409 168.706111 
L 522.899038 170.342921 
L 525.727667 171.169301 
L 528.556295 171.056319 
L 531.384924 170.697086 
L 534.213553 170.628305 
L 537.042182 170.863911 
L 542.699439 171.625524 
L 545.528068 171.855883 
L 551.185326 171.42232 
L 554.013955 172.544571 
L 556.842583 177.847153 
L 559.671212 190.033837 
L 562.499841 208.524777 
L 565.32847 227.878086 
L 568.157099 241.898442 
L 570.985727 248.910153 
L 573.814356 251.324644 
L 576.642985 251.896039 
L 576.642985 251.896039 
" clip-path="url(#p6b7c5c1482)" style="fill: none; stroke: #8a1218; stroke-width: 2; stroke-linecap: square"/>
   </g>
   <g id="line2d_15">
    <path d="M 13.144534 251.903498 
L 15.979319 251.416472 
L 18.814103 249.44116 
L 21.648887 243.7591 
L 24.483672 232.148131 
L 30.15324 197.861321 
L 32.988025 185.261001 
L 35.822809 179.315423 
L 38.657594 178.359331 
L 44.327162 180.932618 
L 47.161947 181.098167 
L 49.996731 180.564802 
L 52.831515 180.270352 
L 55.6663 180.356463 
L 58.501084 180.23606 
L 61.335869 179.612385 
L 64.170653 178.743428 
L 67.005437 178.065046 
L 69.840222 178.019692 
L 72.675006 178.776002 
L 75.509791 180.014558 
L 84.014144 184.18574 
L 86.848928 185.049444 
L 89.683712 184.974864 
L 92.518497 183.921016 
L 101.02285 178.919774 
L 103.857634 177.823868 
L 106.692419 177.320941 
L 109.527203 177.621539 
L 115.196772 179.508418 
L 118.031556 179.872113 
L 120.866341 179.625083 
L 126.535909 178.29177 
L 129.370694 177.949974 
L 132.205478 178.175966 
L 135.040263 178.684715 
L 137.875047 179.008842 
L 140.709831 178.867284 
L 143.544616 178.249254 
L 146.3794 177.478211 
L 149.214184 177.120214 
L 152.048969 177.48735 
L 154.883753 178.1555 
L 157.718538 178.206317 
L 160.553322 177.272558 
L 163.388106 176.099008 
L 166.222891 175.602196 
L 169.057675 175.735046 
L 171.892459 175.70629 
L 174.727244 174.955271 
L 177.562028 173.630317 
L 180.396813 172.509996 
L 183.231597 172.664649 
L 186.066381 174.580857 
L 188.901166 177.362356 
L 191.73595 179.447874 
L 194.570735 180.164537 
L 197.405519 180.013494 
L 200.240303 179.723401 
L 205.909872 179.37624 
L 208.744656 179.051405 
L 211.579441 179.018514 
L 214.414225 179.916241 
L 217.24901 181.590555 
L 220.083794 182.79527 
L 222.918578 182.41123 
L 225.753363 180.655823 
L 228.588147 178.549016 
L 231.422931 176.815705 
L 234.257716 175.860547 
L 237.0925 176.056754 
L 242.762069 178.706782 
L 245.596853 179.012295 
L 251.266422 177.368487 
L 254.101206 177.660828 
L 256.935991 178.885931 
L 259.770775 179.891586 
L 262.60556 179.622562 
L 265.440344 177.988827 
L 268.275128 175.792959 
L 271.109913 173.941656 
L 273.944697 172.803428 
L 276.779482 172.330244 
L 279.614266 172.594291 
L 282.44905 173.761042 
L 285.283835 175.248407 
L 288.118619 175.156553 
L 290.953403 171.53064 
L 293.788188 165.096724 
L 296.622972 159.881044 
L 299.457757 159.565525 
L 302.292541 163.727013 
L 305.127325 168.857889 
L 307.96211 172.211261 
L 310.796894 173.382624 
L 313.631678 172.962822 
L 316.466463 171.399122 
L 319.301247 169.341492 
L 322.136032 167.877945 
L 324.970816 167.885798 
L 327.8056 169.424131 
L 330.640385 171.72491 
L 333.475169 173.589798 
L 336.309954 173.990798 
L 339.144738 172.691677 
L 341.979522 170.488131 
L 344.814307 168.687881 
L 347.649091 168.192284 
L 350.483875 169.104127 
L 353.31866 171.031724 
L 356.153444 173.298712 
L 358.988229 174.878117 
L 361.823013 174.858448 
L 367.492582 172.129994 
L 370.327366 172.327543 
L 373.16215 173.999677 
L 375.996935 175.8453 
L 378.831719 176.600987 
L 381.666504 175.578972 
L 384.501288 171.82521 
L 387.336072 163.335322 
L 390.170857 148.732047 
L 393.005641 131.357393 
L 395.840425 120.009645 
L 398.67521 122.658156 
L 401.509994 140.391079 
L 404.344779 168.050962 
L 407.179563 197.473413 
L 410.014347 220.232964 
L 412.849132 231.408405 
L 415.683916 231.790052 
L 418.518701 225.524544 
L 424.188269 207.018326 
L 427.023054 199.043414 
L 429.857838 193.87588 
L 432.692622 191.630239 
L 438.362191 190.421066 
L 441.196976 189.417667 
L 444.03176 188.228566 
L 446.866544 186.785785 
L 449.701329 184.668434 
L 452.536113 182.07488 
L 455.370897 180.078632 
L 458.205682 179.510592 
L 461.040466 179.937856 
L 463.875251 180.12682 
L 466.710035 179.355391 
L 469.544819 178.014772 
L 472.379604 177.093834 
L 475.214388 177.305361 
L 478.049173 178.590438 
L 483.718741 181.982287 
L 486.553526 183.325317 
L 489.38831 184.282548 
L 492.223094 184.480263 
L 495.057879 183.380567 
L 497.892663 181.219851 
L 500.727448 179.221592 
L 503.562232 178.18633 
L 506.397016 177.564056 
L 509.231801 176.440603 
L 512.066585 174.771409 
L 514.901369 173.458235 
L 517.736154 173.537841 
L 520.570938 175.129964 
L 523.405723 177.208013 
L 526.240507 178.657827 
L 529.075291 179.348974 
L 531.910076 179.893166 
L 537.579645 181.227753 
L 546.083998 182.342626 
L 548.918782 182.618808 
L 551.753566 183.115334 
L 554.588351 185.356645 
L 557.423135 191.71149 
L 560.25792 203.652778 
L 563.092704 219.482364 
L 565.927488 234.520633 
L 568.762273 244.765187 
L 571.597057 249.755198 
L 574.431841 251.487574 
L 577 251.874851 
L 577 251.874851 
" clip-path="url(#p6b7c5c1482)" style="fill: none; stroke-dasharray: 2,3.3; stroke-dashoffset: 0; stroke: #1c4981; stroke-width: 2"/>
   </g>
   <g id="line2d_16">
    <path d="M 12.949344 251.905736 
L 15.786034 251.441197 
L 18.622724 249.578734 
L 21.459414 244.244642 
L 24.296104 233.330312 
L 27.132794 217.382704 
L 29.969484 200.777273 
L 32.806174 188.562509 
L 35.642864 182.481804 
L 38.479554 180.940418 
L 41.316244 181.469551 
L 44.152934 182.225454 
L 46.989624 182.366698 
L 49.826314 182.065553 
L 52.663004 181.886287 
L 58.336384 181.957655 
L 64.009764 181.537465 
L 66.846454 181.287653 
L 69.683144 181.367581 
L 72.519834 181.987682 
L 78.193214 183.687744 
L 81.029904 184.327849 
L 83.866594 184.781621 
L 86.703284 184.875497 
L 89.539974 184.472669 
L 92.376664 183.645864 
L 98.050044 181.612917 
L 103.723424 179.990726 
L 106.560114 179.416338 
L 109.396804 179.374133 
L 115.070184 180.448443 
L 117.906874 180.669504 
L 120.743564 180.513681 
L 129.253634 179.385035 
L 132.090324 179.272717 
L 140.600394 179.65186 
L 143.437084 179.38526 
L 146.273774 178.94356 
L 149.110464 178.872032 
L 151.947154 179.447148 
L 154.783844 180.205152 
L 157.620534 180.410506 
L 160.457224 179.934509 
L 163.293914 179.3424 
L 166.130604 179.116017 
L 168.967294 179.120592 
L 171.803985 178.892315 
L 174.640675 178.202148 
L 177.477365 177.249639 
L 180.314055 176.567436 
L 183.150745 176.797413 
L 185.987435 178.112368 
L 188.824125 179.78885 
L 191.660815 180.818168 
L 194.497505 180.874497 
L 203.007575 179.205113 
L 205.844265 178.871456 
L 208.680955 178.696307 
L 211.517645 178.889331 
L 214.354335 179.741991 
L 217.191025 181.062663 
L 220.027715 182.020056 
L 222.864405 181.923908 
L 228.537785 180.118884 
L 231.374475 179.713389 
L 234.211165 179.857807 
L 237.047855 180.50101 
L 239.884545 181.410849 
L 242.721235 182.031379 
L 245.557925 181.848744 
L 251.231305 180.177706 
L 254.067995 180.185688 
L 256.904685 180.811944 
L 259.741375 181.112406 
L 262.578065 180.363684 
L 268.251445 177.07884 
L 271.088135 175.866985 
L 273.924825 175.14785 
L 276.761515 174.734603 
L 279.598205 174.62072 
L 282.434895 174.988264 
L 285.271585 175.649771 
L 288.108275 175.566216 
L 290.944965 173.606689 
L 293.781655 170.216984 
L 296.618345 167.667759 
L 299.455035 167.930573 
L 302.291725 170.730429 
L 305.128415 174.137279 
L 307.965105 176.552621 
L 310.801795 177.630217 
L 313.638485 177.635967 
L 316.475175 176.784631 
L 319.311865 175.443701 
L 322.148555 174.332516 
L 324.985245 174.121778 
L 327.821935 174.966303 
L 330.658625 176.404757 
L 333.495315 177.610161 
L 336.332005 177.879437 
L 339.168695 177.085591 
L 342.005385 175.723423 
L 344.842075 174.506271 
L 347.678765 173.894811 
L 350.515455 173.989483 
L 353.352145 174.786433 
L 359.025525 177.543509 
L 361.862215 178.01575 
L 364.698905 177.470725 
L 367.535595 176.792184 
L 370.372285 176.833287 
L 376.045665 178.249977 
L 378.882355 178.464945 
L 381.719045 177.759298 
L 384.555735 175.307552 
L 387.392425 169.912688 
L 390.229115 161.235914 
L 393.065805 152.001989 
L 395.902495 148.133396 
L 398.739185 154.495638 
L 401.575875 170.669021 
L 404.412565 191.663278 
L 407.249255 211.287494 
L 410.085945 224.615432 
L 412.922635 229.580538 
L 415.759325 227.381922 
L 418.596015 220.900078 
L 424.269396 204.629417 
L 427.106086 197.877622 
L 429.942776 193.29507 
L 432.779466 190.861927 
L 435.616156 189.722599 
L 438.452846 188.865136 
L 441.289536 187.771607 
L 444.126226 186.376366 
L 446.962916 184.685664 
L 452.636296 180.795663 
L 455.472986 179.435394 
L 458.309676 179.022741 
L 461.146366 179.222366 
L 463.983056 179.182433 
L 466.819746 178.427919 
L 469.656436 177.320126 
L 472.493126 176.658377 
L 475.329816 177.180129 
L 478.166506 179.288147 
L 481.003196 182.849719 
L 486.676576 191.795749 
L 489.513266 195.549898 
L 492.349956 197.523382 
L 495.186646 197.101442 
L 498.023336 194.702617 
L 500.860026 191.539849 
L 503.696716 188.580993 
L 506.533406 185.865529 
L 512.206786 180.104951 
L 515.043476 177.996583 
L 517.880166 177.305056 
L 520.716856 177.81612 
L 523.553546 178.682184 
L 526.390236 179.202703 
L 546.247066 179.98232 
L 549.083756 179.660383 
L 551.920446 179.519656 
L 554.757136 181.390428 
L 557.593826 187.989281 
L 560.430516 200.826806 
L 563.267206 217.785637 
L 566.103896 233.709136 
L 568.940586 244.44632 
L 571.777276 249.649385 
L 574.613966 251.458319 
L 577 251.837125 
L 577 251.837125 
" clip-path="url(#p6b7c5c1482)" style="fill: none; stroke-dasharray: 2,3.3; stroke-dashoffset: 0; stroke: #8a1218; stroke-width: 2"/>
   </g>
   <g id="patch_3">
    <path d="M 71 252 
L 71 43.2576 
" style="fill: none; stroke: #000000; stroke-width: 0.8; stroke-linejoin: miter; stroke-linecap: square"/>
   </g>
   <g id="patch_4">
    <path d="M 116.64 253 
L 473.76 253 
" style="fill: none; stroke: #000000; stroke-width: 0.8; stroke-linejoin: miter; stroke-linecap: square"/>
   </g>
   <g id="text_15">
    <!-- Closed Loop Simple Spikes CS+US -->
    <g transform="translate(191.954062 28.56) scale(0.12 -0.12)">
     <defs>
      <path id="DejaVuSans-43" d="M 4122 4306 
L 4122 3641 
Q 3803 3938 3442 4084 
Q 3081 4231 2675 4231 
Q 1875 4231 1450 3742 
Q 1025 3253 1025 2328 
Q 1025 1406 1450 917 
Q 1875 428 2675 428 
Q 3081 428 3442 575 
Q 3803 722 4122 1019 
L 4122 359 
Q 3791 134 3420 21 
Q 3050 -91 2638 -91 
Q 1578 -91 968 557 
Q 359 1206 359 2328 
Q 359 3453 968 4101 
Q 1578 4750 2638 4750 
Q 3056 4750 3426 4639 
Q 3797 4528 4122 4306 
z
" transform="scale(0.015625)"/>
      <path id="DejaVuSans-6c" d="M 603 4863 
L 1178 4863 
L 1178 0 
L 603 0 
L 603 4863 
z
" transform="scale(0.015625)"/>
      <path id="DejaVuSans-6f" d="M 1959 3097 
Q 1497 3097 1228 2736 
Q 959 2375 959 1747 
Q 959 1119 1226 758 
Q 1494 397 1959 397 
Q 2419 397 2687 759 
Q 2956 1122 2956 1747 
Q 2956 2369 2687 2733 
Q 2419 3097 1959 3097 
z
M 1959 3584 
Q 2709 3584 3137 3096 
Q 3566 2609 3566 1747 
Q 3566 888 3137 398 
Q 2709 -91 1959 -91 
Q 1206 -91 779 398 
Q 353 888 353 1747 
Q 353 2609 779 3096 
Q 1206 3584 1959 3584 
z
" transform="scale(0.015625)"/>
      <path id="DejaVuSans-64" d="M 2906 2969 
L 2906 4863 
L 3481 4863 
L 3481 0 
L 2906 0 
L 2906 525 
Q 2725 213 2448 61 
Q 2172 -91 1784 -91 
Q 1150 -91 751 415 
Q 353 922 353 1747 
Q 353 2572 751 3078 
Q 1150 3584 1784 3584 
Q 2172 3584 2448 3432 
Q 2725 3281 2906 2969 
z
M 947 1747 
Q 947 1113 1208 752 
Q 1469 391 1925 391 
Q 2381 391 2643 752 
Q 2906 1113 2906 1747 
Q 2906 2381 2643 2742 
Q 2381 3103 1925 3103 
Q 1469 3103 1208 2742 
Q 947 2381 947 1747 
z
" transform="scale(0.015625)"/>
      <path id="DejaVuSans-4c" d="M 628 4666 
L 1259 4666 
L 1259 531 
L 3531 531 
L 3531 0 
L 628 0 
L 628 4666 
z
" transform="scale(0.015625)"/>
      <path id="DejaVuSans-70" d="M 1159 525 
L 1159 -1331 
L 581 -1331 
L 581 3500 
L 1159 3500 
L 1159 2969 
Q 1341 3281 1617 3432 
Q 1894 3584 2278 3584 
Q 2916 3584 3314 3078 
Q 3713 2572 3713 1747 
Q 3713 922 3314 415 
Q 2916 -91 2278 -91 
Q 1894 -91 1617 61 
Q 1341 213 1159 525 
z
M 3116 1747 
Q 3116 2381 2855 2742 
Q 2594 3103 2138 3103 
Q 1681 3103 1420 2742 
Q 1159 2381 1159 1747 
Q 1159 1113 1420 752 
Q 1681 391 2138 391 
Q 2594 391 2855 752 
Q 3116 1113 3116 1747 
z
" transform="scale(0.015625)"/>
      <path id="DejaVuSans-53" d="M 3425 4513 
L 3425 3897 
Q 3066 4069 2747 4153 
Q 2428 4238 2131 4238 
Q 1616 4238 1336 4038 
Q 1056 3838 1056 3469 
Q 1056 3159 1242 3001 
Q 1428 2844 1947 2747 
L 2328 2669 
Q 3034 2534 3370 2195 
Q 3706 1856 3706 1288 
Q 3706 609 3251 259 
Q 2797 -91 1919 -91 
Q 1588 -91 1214 -16 
Q 841 59 441 206 
L 441 856 
Q 825 641 1194 531 
Q 1563 422 1919 422 
Q 2459 422 2753 634 
Q 3047 847 3047 1241 
Q 3047 1584 2836 1778 
Q 2625 1972 2144 2069 
L 1759 2144 
Q 1053 2284 737 2584 
Q 422 2884 422 3419 
Q 422 4038 858 4394 
Q 1294 4750 2059 4750 
Q 2388 4750 2728 4690 
Q 3069 4631 3425 4513 
z
" transform="scale(0.015625)"/>
      <path id="DejaVuSans-6b" d="M 581 4863 
L 1159 4863 
L 1159 1991 
L 2875 3500 
L 3609 3500 
L 1753 1863 
L 3688 0 
L 2938 0 
L 1159 1709 
L 1159 0 
L 581 0 
L 581 4863 
z
" transform="scale(0.015625)"/>
      <path id="DejaVuSans-2b" d="M 2944 4013 
L 2944 2272 
L 4684 2272 
L 4684 1741 
L 2944 1741 
L 2944 0 
L 2419 0 
L 2419 1741 
L 678 1741 
L 678 2272 
L 2419 2272 
L 2419 4013 
L 2944 4013 
z
" transform="scale(0.015625)"/>
      <path id="DejaVuSans-55" d="M 556 4666 
L 1191 4666 
L 1191 1831 
Q 1191 1081 1462 751 
Q 1734 422 2344 422 
Q 2950 422 3222 751 
Q 3494 1081 3494 1831 
L 3494 4666 
L 4128 4666 
L 4128 1753 
Q 4128 841 3676 375 
Q 3225 -91 2344 -91 
Q 1459 -91 1007 375 
Q 556 841 556 1753 
L 556 4666 
z
" transform="scale(0.015625)"/>
     </defs>
     <use xlink:href="#DejaVuSans-43"/>
     <use xlink:href="#DejaVuSans-6c" x="69.824219"/>
     <use xlink:href="#DejaVuSans-6f" x="97.607422"/>
     <use xlink:href="#DejaVuSans-73" x="158.789062"/>
     <use xlink:href="#DejaVuSans-65" x="210.888672"/>
     <use xlink:href="#DejaVuSans-64" x="272.412109"/>
     <use xlink:href="#DejaVuSans-20" x="335.888672"/>
     <use xlink:href="#DejaVuSans-4c" x="367.675781"/>
     <use xlink:href="#DejaVuSans-6f" x="421.638672"/>
     <use xlink:href="#DejaVuSans-6f" x="482.820312"/>
     <use xlink:href="#DejaVuSans-70" x="544.001953"/>
     <use xlink:href="#DejaVuSans-20" x="607.478516"/>
     <use xlink:href="#DejaVuSans-53" x="639.265625"/>
     <use xlink:href="#DejaVuSans-69" x="702.742188"/>
     <use xlink:href="#DejaVuSans-6d" x="730.525391"/>
     <use xlink:href="#DejaVuSans-70" x="827.9375"/>
     <use xlink:href="#DejaVuSans-6c" x="891.414062"/>
     <use xlink:href="#DejaVuSans-65" x="919.197266"/>
     <use xlink:href="#DejaVuSans-20" x="980.720703"/>
     <use xlink:href="#DejaVuSans-53" x="1012.507812"/>
     <use xlink:href="#DejaVuSans-70" x="1075.984375"/>
     <use xlink:href="#DejaVuSans-69" x="1139.460938"/>
     <use xlink:href="#DejaVuSans-6b" x="1167.244141"/>
     <use xlink:href="#DejaVuSans-65" x="1221.529297"/>
     <use xlink:href="#DejaVuSans-73" x="1283.052734"/>
     <use xlink:href="#DejaVuSans-20" x="1335.152344"/>
     <use xlink:href="#DejaVuSans-43" x="1366.939453"/>
     <use xlink:href="#DejaVuSans-53" x="1436.763672"/>
     <use xlink:href="#DejaVuSans-2b" x="1500.240234"/>
     <use xlink:href="#DejaVuSans-55" x="1584.029297"/>
     <use xlink:href="#DejaVuSans-53" x="1657.222656"/>
    </g>
   </g>
   <g id="legend_1">
    <g id="patch_5">
     <path d="M 79 101.2725 
L 292.442187 101.2725 
Q 294.442187 101.2725 294.442187 99.2725 
L 294.442187 41.56 
Q 294.442187 39.56 292.442187 39.56 
L 79 39.56 
Q 77 39.56 77 41.56 
L 77 99.2725 
Q 77 101.2725 79 101.2725 
z
" style="fill: #ffffff; opacity: 0.8; stroke: #cccccc; stroke-linejoin: miter"/>
    </g>
    <g id="patch_6">
     <path d="M 81 51.158437 
L 101 51.158437 
L 101 44.158437 
L 81 44.158437 
z
" style="fill: #00ffff; opacity: 0.2"/>
    </g>
    <g id="text_16">
     <!-- CS -->
     <g transform="translate(109 51.158437) scale(0.1 -0.1)">
      <use xlink:href="#DejaVuSans-43"/>
      <use xlink:href="#DejaVuSans-53" x="69.824219"/>
     </g>
    </g>
    <g id="patch_7">
     <path d="M 81 65.836562 
L 101 65.836562 
L 101 58.836562 
L 81 58.836562 
z
" style="fill: #808080; opacity: 0.5"/>
    </g>
    <g id="text_17">
     <!-- US -->
     <g transform="translate(109 65.836562) scale(0.1 -0.1)">
      <use xlink:href="#DejaVuSans-55"/>
      <use xlink:href="#DejaVuSans-53" x="73.193359"/>
     </g>
    </g>
    <g id="patch_8">
     <path d="M 81 80.514687 
L 101 80.514687 
L 101 73.514687 
L 81 73.514687 
z
" style="fill: #1c4981"/>
    </g>
    <g id="text_18">
     <!-- Upbound -->
     <g transform="translate(109 80.514687) scale(0.1 -0.1)">
      <defs>
       <path id="DejaVuSans-62" d="M 3116 1747 
Q 3116 2381 2855 2742 
Q 2594 3103 2138 3103 
Q 1681 3103 1420 2742 
Q 1159 2381 1159 1747 
Q 1159 1113 1420 752 
Q 1681 391 2138 391 
Q 2594 391 2855 752 
Q 3116 1113 3116 1747 
z
M 1159 2969 
Q 1341 3281 1617 3432 
Q 1894 3584 2278 3584 
Q 2916 3584 3314 3078 
Q 3713 2572 3713 1747 
Q 3713 922 3314 415 
Q 2916 -91 2278 -91 
Q 1894 -91 1617 61 
Q 1341 213 1159 525 
L 1159 0 
L 581 0 
L 581 4863 
L 1159 4863 
L 1159 2969 
z
" transform="scale(0.015625)"/>
       <path id="DejaVuSans-75" d="M 544 1381 
L 544 3500 
L 1119 3500 
L 1119 1403 
Q 1119 906 1312 657 
Q 1506 409 1894 409 
Q 2359 409 2629 706 
Q 2900 1003 2900 1516 
L 2900 3500 
L 3475 3500 
L 3475 0 
L 2900 0 
L 2900 538 
Q 2691 219 2414 64 
Q 2138 -91 1772 -91 
Q 1169 -91 856 284 
Q 544 659 544 1381 
z
M 1991 3584 
L 1991 3584 
z
" transform="scale(0.015625)"/>
      </defs>
      <use xlink:href="#DejaVuSans-55"/>
      <use xlink:href="#DejaVuSans-70" x="73.193359"/>
      <use xlink:href="#DejaVuSans-62" x="136.669922"/>
      <use xlink:href="#DejaVuSans-6f" x="200.146484"/>
      <use xlink:href="#DejaVuSans-75" x="261.328125"/>
      <use xlink:href="#DejaVuSans-6e" x="324.707031"/>
      <use xlink:href="#DejaVuSans-64" x="388.085938"/>
     </g>
    </g>
    <g id="patch_9">
     <path d="M 81 95.192813 
L 101 95.192813 
L 101 88.192813 
L 81 88.192813 
z
" style="fill: #8a1218"/>
    </g>
    <g id="text_19">
     <!-- Downbound -->
     <g transform="translate(109 95.192813) scale(0.1 -0.1)">
      <defs>
       <path id="DejaVuSans-77" d="M 269 3500 
L 844 3500 
L 1563 769 
L 2278 3500 
L 2956 3500 
L 3675 769 
L 4391 3500 
L 4966 3500 
L 4050 0 
L 3372 0 
L 2619 2869 
L 1863 0 
L 1184 0 
L 269 3500 
z
" transform="scale(0.015625)"/>
      </defs>
      <use xlink:href="#DejaVuSans-44"/>
      <use xlink:href="#DejaVuSans-6f" x="77.001953"/>
      <use xlink:href="#DejaVuSans-77" x="138.183594"/>
      <use xlink:href="#DejaVuSans-6e" x="219.970703"/>
      <use xlink:href="#DejaVuSans-62" x="283.349609"/>
      <use xlink:href="#DejaVuSans-6f" x="346.826172"/>
      <use xlink:href="#DejaVuSans-75" x="408.007812"/>
      <use xlink:href="#DejaVuSans-6e" x="471.386719"/>
      <use xlink:href="#DejaVuSans-64" x="534.765625"/>
     </g>
    </g>
    <g id="line2d_17">
     <path d="M 188.825 47.658437 
L 198.825 47.658437 
L 208.825 47.658437 
" style="fill: none; stroke: #000000; stroke-linecap: square"/>
    </g>
    <g id="text_20">
     <!-- no_Plasticity -->
     <g transform="translate(216.825 51.158437) scale(0.1 -0.1)">
      <defs>
       <path id="DejaVuSans-5f" d="M 3263 -1063 
L 3263 -1509 
L -63 -1509 
L -63 -1063 
L 3263 -1063 
z
" transform="scale(0.015625)"/>
       <path id="DejaVuSans-50" d="M 1259 4147 
L 1259 2394 
L 2053 2394 
Q 2494 2394 2734 2622 
Q 2975 2850 2975 3272 
Q 2975 3691 2734 3919 
Q 2494 4147 2053 4147 
L 1259 4147 
z
M 628 4666 
L 2053 4666 
Q 2838 4666 3239 4311 
Q 3641 3956 3641 3272 
Q 3641 2581 3239 2228 
Q 2838 1875 2053 1875 
L 1259 1875 
L 1259 0 
L 628 0 
L 628 4666 
z
" transform="scale(0.015625)"/>
       <path id="DejaVuSans-61" d="M 2194 1759 
Q 1497 1759 1228 1600 
Q 959 1441 959 1056 
Q 959 750 1161 570 
Q 1363 391 1709 391 
Q 2188 391 2477 730 
Q 2766 1069 2766 1631 
L 2766 1759 
L 2194 1759 
z
M 3341 1997 
L 3341 0 
L 2766 0 
L 2766 531 
Q 2569 213 2275 61 
Q 1981 -91 1556 -91 
Q 1019 -91 701 211 
Q 384 513 384 1019 
Q 384 1609 779 1909 
Q 1175 2209 1959 2209 
L 2766 2209 
L 2766 2266 
Q 2766 2663 2505 2880 
Q 2244 3097 1772 3097 
Q 1472 3097 1187 3025 
Q 903 2953 641 2809 
L 641 3341 
Q 956 3463 1253 3523 
Q 1550 3584 1831 3584 
Q 2591 3584 2966 3190 
Q 3341 2797 3341 1997 
z
" transform="scale(0.015625)"/>
       <path id="DejaVuSans-63" d="M 3122 3366 
L 3122 2828 
Q 2878 2963 2633 3030 
Q 2388 3097 2138 3097 
Q 1578 3097 1268 2742 
Q 959 2388 959 1747 
Q 959 1106 1268 751 
Q 1578 397 2138 397 
Q 2388 397 2633 464 
Q 2878 531 3122 666 
L 3122 134 
Q 2881 22 2623 -34 
Q 2366 -91 2075 -91 
Q 1284 -91 818 406 
Q 353 903 353 1747 
Q 353 2603 823 3093 
Q 1294 3584 2113 3584 
Q 2378 3584 2631 3529 
Q 2884 3475 3122 3366 
z
" transform="scale(0.015625)"/>
      </defs>
      <use xlink:href="#DejaVuSans-6e"/>
      <use xlink:href="#DejaVuSans-6f" x="63.378906"/>
      <use xlink:href="#DejaVuSans-5f" x="124.560547"/>
      <use xlink:href="#DejaVuSans-50" x="174.560547"/>
      <use xlink:href="#DejaVuSans-6c" x="234.863281"/>
      <use xlink:href="#DejaVuSans-61" x="262.646484"/>
      <use xlink:href="#DejaVuSans-73" x="323.925781"/>
      <use xlink:href="#DejaVuSans-74" x="376.025391"/>
      <use xlink:href="#DejaVuSans-69" x="415.234375"/>
      <use xlink:href="#DejaVuSans-63" x="443.017578"/>
      <use xlink:href="#DejaVuSans-69" x="497.998047"/>
      <use xlink:href="#DejaVuSans-74" x="525.78125"/>
      <use xlink:href="#DejaVuSans-79" x="564.990234"/>
     </g>
    </g>
    <g id="line2d_18">
     <path d="M 188.825 62.614688 
L 198.825 62.614688 
L 208.825 62.614688 
" style="fill: none; stroke-dasharray: 3.7,1.6; stroke-dashoffset: 0; stroke: #000000"/>
    </g>
    <g id="text_21">
     <!-- Plasticity -->
     <g transform="translate(216.825 66.114688) scale(0.1 -0.1)">
      <use xlink:href="#DejaVuSans-50"/>
      <use xlink:href="#DejaVuSans-6c" x="60.302734"/>
      <use xlink:href="#DejaVuSans-61" x="88.085938"/>
      <use xlink:href="#DejaVuSans-73" x="149.365234"/>
      <use xlink:href="#DejaVuSans-74" x="201.464844"/>
      <use xlink:href="#DejaVuSans-69" x="240.673828"/>
      <use xlink:href="#DejaVuSans-63" x="268.457031"/>
      <use xlink:href="#DejaVuSans-69" x="323.4375"/>
      <use xlink:href="#DejaVuSans-74" x="351.220703"/>
      <use xlink:href="#DejaVuSans-79" x="390.429688"/>
     </g>
    </g>
    <g id="line2d_19">
     <path d="M 188.825 77.292812 
L 198.825 77.292812 
L 208.825 77.292812 
" style="fill: none; stroke-dasharray: 1,1.65; stroke-dashoffset: 0; stroke: #000000"/>
    </g>
    <g id="text_22">
     <!-- after_Plasticity -->
     <g transform="translate(216.825 80.792812) scale(0.1 -0.1)">
      <defs>
       <path id="DejaVuSans-66" d="M 2375 4863 
L 2375 4384 
L 1825 4384 
Q 1516 4384 1395 4259 
Q 1275 4134 1275 3809 
L 1275 3500 
L 2222 3500 
L 2222 3053 
L 1275 3053 
L 1275 0 
L 697 0 
L 697 3053 
L 147 3053 
L 147 3500 
L 697 3500 
L 697 3744 
Q 697 4328 969 4595 
Q 1241 4863 1831 4863 
L 2375 4863 
z
" transform="scale(0.015625)"/>
       <path id="DejaVuSans-72" d="M 2631 2963 
Q 2534 3019 2420 3045 
Q 2306 3072 2169 3072 
Q 1681 3072 1420 2755 
Q 1159 2438 1159 1844 
L 1159 0 
L 581 0 
L 581 3500 
L 1159 3500 
L 1159 2956 
Q 1341 3275 1631 3429 
Q 1922 3584 2338 3584 
Q 2397 3584 2469 3576 
Q 2541 3569 2628 3553 
L 2631 2963 
z
" transform="scale(0.015625)"/>
      </defs>
      <use xlink:href="#DejaVuSans-61"/>
      <use xlink:href="#DejaVuSans-66" x="61.279297"/>
      <use xlink:href="#DejaVuSans-74" x="94.734375"/>
      <use xlink:href="#DejaVuSans-65" x="133.943359"/>
      <use xlink:href="#DejaVuSans-72" x="195.466797"/>
      <use xlink:href="#DejaVuSans-5f" x="236.580078"/>
      <use xlink:href="#DejaVuSans-50" x="286.580078"/>
      <use xlink:href="#DejaVuSans-6c" x="346.882812"/>
      <use xlink:href="#DejaVuSans-61" x="374.666016"/>
      <use xlink:href="#DejaVuSans-73" x="435.945312"/>
      <use xlink:href="#DejaVuSans-74" x="488.044922"/>
      <use xlink:href="#DejaVuSans-69" x="527.253906"/>
      <use xlink:href="#DejaVuSans-63" x="555.037109"/>
      <use xlink:href="#DejaVuSans-69" x="610.017578"/>
      <use xlink:href="#DejaVuSans-74" x="637.800781"/>
      <use xlink:href="#DejaVuSans-79" x="677.009766"/>
     </g>
    </g>
   </g>
  </g>
 </g>
 <defs>
  <clipPath id="p6b7c5c1482">
   <rect x="72" y="34.56" width="446.4" height="217.44"/>
  </clipPath>
 </defs>
</svg>
