<?xml version="1.0" encoding="utf-8" standalone="no"?>
<!DOCTYPE svg PUBLIC "-//W3C//DTD SVG 1.1//EN"
  "http://www.w3.org/Graphics/SVG/1.1/DTD/svg11.dtd">
<svg xmlns:xlink="http://www.w3.org/1999/xlink" width="576pt" height="360pt" viewBox="0 0 576 360" xmlns="http://www.w3.org/2000/svg" version="1.1">
 <metadata>
  <rdf:RDF xmlns:dc="http://purl.org/dc/elements/1.1/" xmlns:cc="http://creativecommons.org/ns#" xmlns:rdf="http://www.w3.org/1999/02/22-rdf-syntax-ns#">
   <cc:Work>
    <dc:type rdf:resource="http://purl.org/dc/dcmitype/StillImage"/>
    <dc:date>2025-02-26T22:11:42.821995</dc:date>
    <dc:format>image/svg+xml</dc:format>
    <dc:creator>
     <cc:Agent>
      <dc:title>Matplotlib v3.7.2, https://matplotlib.org/</dc:title>
     </cc:Agent>
    </dc:creator>
   </cc:Work>
  </rdf:RDF>
 </metadata>
 <defs>
  <style type="text/css">*{stroke-linejoin: round; stroke-linecap: butt}</style>
 </defs>
 <g id="figure_1">
  <g id="patch_1">
   <path d="M 0 360 
L 576 360 
L 576 0 
L 0 0 
L 0 360 
z
" style="fill: none"/>
  </g>
  <g id="axes_1">
   <g id="patch_2">
    <path d="M 72 315 
L 518.4 315 
L 518.4 43.2 
L 72 43.2 
z
" style="fill: #ffffff"/>
   </g>
   <g id="PolyCollection_1">
    <defs>
     <path id="m9ef7a00348" d="M 295.2 -243.036757 
L 295.2 -45 
L 406.8 -45 
L 406.8 -243.036757 
L 406.8 -243.036757 
L 295.2 -243.036757 
z
" style="stroke: #00ffff; stroke-opacity: 0.2"/>
    </defs>
    <g clip-path="url(#p4d9dfd6c3b)">
     <use xlink:href="#m9ef7a00348" x="0" y="360" style="fill: #00ffff; fill-opacity: 0.2; stroke: #00ffff; stroke-opacity: 0.2"/>
    </g>
   </g>
   <g id="PolyCollection_2">
    <defs>
     <path id="maa37ce64ab" d="M 393.408 -243.036757 
L 393.408 -45 
L 406.8 -45 
L 406.8 -243.036757 
L 406.8 -243.036757 
L 393.408 -243.036757 
z
" style="stroke: #808080; stroke-opacity: 0.5"/>
    </defs>
    <g clip-path="url(#p4d9dfd6c3b)">
     <use xlink:href="#maa37ce64ab" x="0" y="360" style="fill: #808080; fill-opacity: 0.5; stroke: #808080; stroke-opacity: 0.5"/>
    </g>
   </g>
   <g id="matplotlib.axis_1">
    <g id="xtick_1">
     <g id="line2d_1">
      <defs>
       <path id="m79f1ae67a2" d="M 0 0 
L 0 3.5 
" style="stroke: #000000; stroke-width: 0.8"/>
      </defs>
      <g>
       <use xlink:href="#m79f1ae67a2" x="116.64" y="316" style="stroke: #000000; stroke-width: 0.8"/>
      </g>
     </g>
     <g id="text_1">
      <!-- −0.4 -->
      <g transform="translate(104.498594 330.598437) scale(0.1 -0.1)">
       <defs>
        <path id="DejaVuSans-2212" d="M 678 2272 
L 4684 2272 
L 4684 1741 
L 678 1741 
L 678 2272 
z
" transform="scale(0.015625)"/>
        <path id="DejaVuSans-30" d="M 2034 4250 
Q 1547 4250 1301 3770 
Q 1056 3291 1056 2328 
Q 1056 1369 1301 889 
Q 1547 409 2034 409 
Q 2525 409 2770 889 
Q 3016 1369 3016 2328 
Q 3016 3291 2770 3770 
Q 2525 4250 2034 4250 
z
M 2034 4750 
Q 2819 4750 3233 4129 
Q 3647 3509 3647 2328 
Q 3647 1150 3233 529 
Q 2819 -91 2034 -91 
Q 1250 -91 836 529 
Q 422 1150 422 2328 
Q 422 3509 836 4129 
Q 1250 4750 2034 4750 
z
" transform="scale(0.015625)"/>
        <path id="DejaVuSans-2e" d="M 684 794 
L 1344 794 
L 1344 0 
L 684 0 
L 684 794 
z
" transform="scale(0.015625)"/>
        <path id="DejaVuSans-34" d="M 2419 4116 
L 825 1625 
L 2419 1625 
L 2419 4116 
z
M 2253 4666 
L 3047 4666 
L 3047 1625 
L 3713 1625 
L 3713 1100 
L 3047 1100 
L 3047 0 
L 2419 0 
L 2419 1100 
L 313 1100 
L 313 1709 
L 2253 4666 
z
" transform="scale(0.015625)"/>
       </defs>
       <use xlink:href="#DejaVuSans-2212"/>
       <use xlink:href="#DejaVuSans-30" x="83.789062"/>
       <use xlink:href="#DejaVuSans-2e" x="147.412109"/>
       <use xlink:href="#DejaVuSans-34" x="179.199219"/>
      </g>
     </g>
    </g>
    <g id="xtick_2">
     <g id="line2d_2">
      <g>
       <use xlink:href="#m79f1ae67a2" x="205.92" y="316" style="stroke: #000000; stroke-width: 0.8"/>
      </g>
     </g>
     <g id="text_2">
      <!-- −0.2 -->
      <g transform="translate(193.778594 330.598437) scale(0.1 -0.1)">
       <defs>
        <path id="DejaVuSans-32" d="M 1228 531 
L 3431 531 
L 3431 0 
L 469 0 
L 469 531 
Q 828 903 1448 1529 
Q 2069 2156 2228 2338 
Q 2531 2678 2651 2914 
Q 2772 3150 2772 3378 
Q 2772 3750 2511 3984 
Q 2250 4219 1831 4219 
Q 1534 4219 1204 4116 
Q 875 4013 500 3803 
L 500 4441 
Q 881 4594 1212 4672 
Q 1544 4750 1819 4750 
Q 2544 4750 2975 4387 
Q 3406 4025 3406 3419 
Q 3406 3131 3298 2873 
Q 3191 2616 2906 2266 
Q 2828 2175 2409 1742 
Q 1991 1309 1228 531 
z
" transform="scale(0.015625)"/>
       </defs>
       <use xlink:href="#DejaVuSans-2212"/>
       <use xlink:href="#DejaVuSans-30" x="83.789062"/>
       <use xlink:href="#DejaVuSans-2e" x="147.412109"/>
       <use xlink:href="#DejaVuSans-32" x="179.199219"/>
      </g>
     </g>
    </g>
    <g id="xtick_3">
     <g id="line2d_3">
      <g>
       <use xlink:href="#m79f1ae67a2" x="295.2" y="316" style="stroke: #000000; stroke-width: 0.8"/>
      </g>
     </g>
     <g id="text_3">
      <!-- 0.0 -->
      <g transform="translate(287.248437 330.598437) scale(0.1 -0.1)">
       <use xlink:href="#DejaVuSans-30"/>
       <use xlink:href="#DejaVuSans-2e" x="63.623047"/>
       <use xlink:href="#DejaVuSans-30" x="95.410156"/>
      </g>
     </g>
    </g>
    <g id="xtick_4">
     <g id="line2d_4">
      <g>
       <use xlink:href="#m79f1ae67a2" x="384.48" y="316" style="stroke: #000000; stroke-width: 0.8"/>
      </g>
     </g>
     <g id="text_4">
      <!-- 0.2 -->
      <g transform="translate(376.528437 330.598437) scale(0.1 -0.1)">
       <use xlink:href="#DejaVuSans-30"/>
       <use xlink:href="#DejaVuSans-2e" x="63.623047"/>
       <use xlink:href="#DejaVuSans-32" x="95.410156"/>
      </g>
     </g>
    </g>
    <g id="xtick_5">
     <g id="line2d_5">
      <g>
       <use xlink:href="#m79f1ae67a2" x="473.76" y="316" style="stroke: #000000; stroke-width: 0.8"/>
      </g>
     </g>
     <g id="text_5">
      <!-- 0.4 -->
      <g transform="translate(465.808437 330.598437) scale(0.1 -0.1)">
       <use xlink:href="#DejaVuSans-30"/>
       <use xlink:href="#DejaVuSans-2e" x="63.623047"/>
       <use xlink:href="#DejaVuSans-34" x="95.410156"/>
      </g>
     </g>
    </g>
    <g id="text_6">
     <!-- Time [s] -->
     <g transform="translate(274.871094 344.276563) scale(0.1 -0.1)">
      <defs>
       <path id="DejaVuSans-54" d="M -19 4666 
L 3928 4666 
L 3928 4134 
L 2272 4134 
L 2272 0 
L 1638 0 
L 1638 4134 
L -19 4134 
L -19 4666 
z
" transform="scale(0.015625)"/>
       <path id="DejaVuSans-69" d="M 603 3500 
L 1178 3500 
L 1178 0 
L 603 0 
L 603 3500 
z
M 603 4863 
L 1178 4863 
L 1178 4134 
L 603 4134 
L 603 4863 
z
" transform="scale(0.015625)"/>
       <path id="DejaVuSans-6d" d="M 3328 2828 
Q 3544 3216 3844 3400 
Q 4144 3584 4550 3584 
Q 5097 3584 5394 3201 
Q 5691 2819 5691 2113 
L 5691 0 
L 5113 0 
L 5113 2094 
Q 5113 2597 4934 2840 
Q 4756 3084 4391 3084 
Q 3944 3084 3684 2787 
Q 3425 2491 3425 1978 
L 3425 0 
L 2847 0 
L 2847 2094 
Q 2847 2600 2669 2842 
Q 2491 3084 2119 3084 
Q 1678 3084 1418 2786 
Q 1159 2488 1159 1978 
L 1159 0 
L 581 0 
L 581 3500 
L 1159 3500 
L 1159 2956 
Q 1356 3278 1631 3431 
Q 1906 3584 2284 3584 
Q 2666 3584 2933 3390 
Q 3200 3197 3328 2828 
z
" transform="scale(0.015625)"/>
       <path id="DejaVuSans-65" d="M 3597 1894 
L 3597 1613 
L 953 1613 
Q 991 1019 1311 708 
Q 1631 397 2203 397 
Q 2534 397 2845 478 
Q 3156 559 3463 722 
L 3463 178 
Q 3153 47 2828 -22 
Q 2503 -91 2169 -91 
Q 1331 -91 842 396 
Q 353 884 353 1716 
Q 353 2575 817 3079 
Q 1281 3584 2069 3584 
Q 2775 3584 3186 3129 
Q 3597 2675 3597 1894 
z
M 3022 2063 
Q 3016 2534 2758 2815 
Q 2500 3097 2075 3097 
Q 1594 3097 1305 2825 
Q 1016 2553 972 2059 
L 3022 2063 
z
" transform="scale(0.015625)"/>
       <path id="DejaVuSans-20" transform="scale(0.015625)"/>
       <path id="DejaVuSans-5b" d="M 550 4863 
L 1875 4863 
L 1875 4416 
L 1125 4416 
L 1125 -397 
L 1875 -397 
L 1875 -844 
L 550 -844 
L 550 4863 
z
" transform="scale(0.015625)"/>
       <path id="DejaVuSans-73" d="M 2834 3397 
L 2834 2853 
Q 2591 2978 2328 3040 
Q 2066 3103 1784 3103 
Q 1356 3103 1142 2972 
Q 928 2841 928 2578 
Q 928 2378 1081 2264 
Q 1234 2150 1697 2047 
L 1894 2003 
Q 2506 1872 2764 1633 
Q 3022 1394 3022 966 
Q 3022 478 2636 193 
Q 2250 -91 1575 -91 
Q 1294 -91 989 -36 
Q 684 19 347 128 
L 347 722 
Q 666 556 975 473 
Q 1284 391 1588 391 
Q 1994 391 2212 530 
Q 2431 669 2431 922 
Q 2431 1156 2273 1281 
Q 2116 1406 1581 1522 
L 1381 1569 
Q 847 1681 609 1914 
Q 372 2147 372 2553 
Q 372 3047 722 3315 
Q 1072 3584 1716 3584 
Q 2034 3584 2315 3537 
Q 2597 3491 2834 3397 
z
" transform="scale(0.015625)"/>
       <path id="DejaVuSans-5d" d="M 1947 4863 
L 1947 -844 
L 622 -844 
L 622 -397 
L 1369 -397 
L 1369 4416 
L 622 4416 
L 622 4863 
L 1947 4863 
z
" transform="scale(0.015625)"/>
      </defs>
      <use xlink:href="#DejaVuSans-54"/>
      <use xlink:href="#DejaVuSans-69" x="57.958984"/>
      <use xlink:href="#DejaVuSans-6d" x="85.742188"/>
      <use xlink:href="#DejaVuSans-65" x="183.154297"/>
      <use xlink:href="#DejaVuSans-20" x="244.677734"/>
      <use xlink:href="#DejaVuSans-5b" x="276.464844"/>
      <use xlink:href="#DejaVuSans-73" x="315.478516"/>
      <use xlink:href="#DejaVuSans-5d" x="367.578125"/>
     </g>
    </g>
   </g>
   <g id="matplotlib.axis_2">
    <g id="ytick_1">
     <g id="line2d_6">
      <defs>
       <path id="m57065d0983" d="M 0 0 
L -3.5 0 
" style="stroke: #000000; stroke-width: 0.8"/>
      </defs>
      <g>
       <use xlink:href="#m57065d0983" x="71" y="315" style="stroke: #000000; stroke-width: 0.8"/>
      </g>
     </g>
     <g id="text_7">
      <!-- 0.0 -->
      <g transform="translate(48.096875 318.799219) scale(0.1 -0.1)">
       <use xlink:href="#DejaVuSans-30"/>
       <use xlink:href="#DejaVuSans-2e" x="63.623047"/>
       <use xlink:href="#DejaVuSans-30" x="95.410156"/>
      </g>
     </g>
    </g>
    <g id="ytick_2">
     <g id="line2d_7">
      <g>
       <use xlink:href="#m57065d0983" x="71" y="265.490811" style="stroke: #000000; stroke-width: 0.8"/>
      </g>
     </g>
     <g id="text_8">
      <!-- 0.5 -->
      <g transform="translate(48.096875 269.29003) scale(0.1 -0.1)">
       <defs>
        <path id="DejaVuSans-35" d="M 691 4666 
L 3169 4666 
L 3169 4134 
L 1269 4134 
L 1269 2991 
Q 1406 3038 1543 3061 
Q 1681 3084 1819 3084 
Q 2600 3084 3056 2656 
Q 3513 2228 3513 1497 
Q 3513 744 3044 326 
Q 2575 -91 1722 -91 
Q 1428 -91 1123 -41 
Q 819 9 494 109 
L 494 744 
Q 775 591 1075 516 
Q 1375 441 1709 441 
Q 2250 441 2565 725 
Q 2881 1009 2881 1497 
Q 2881 1984 2565 2268 
Q 2250 2553 1709 2553 
Q 1456 2553 1204 2497 
Q 953 2441 691 2322 
L 691 4666 
z
" transform="scale(0.015625)"/>
       </defs>
       <use xlink:href="#DejaVuSans-30"/>
       <use xlink:href="#DejaVuSans-2e" x="63.623047"/>
       <use xlink:href="#DejaVuSans-35" x="95.410156"/>
      </g>
     </g>
    </g>
    <g id="ytick_3">
     <g id="line2d_8">
      <g>
       <use xlink:href="#m57065d0983" x="71" y="215.981622" style="stroke: #000000; stroke-width: 0.8"/>
      </g>
     </g>
     <g id="text_9">
      <!-- 1.0 -->
      <g transform="translate(48.096875 219.78084) scale(0.1 -0.1)">
       <defs>
        <path id="DejaVuSans-31" d="M 794 531 
L 1825 531 
L 1825 4091 
L 703 3866 
L 703 4441 
L 1819 4666 
L 2450 4666 
L 2450 531 
L 3481 531 
L 3481 0 
L 794 0 
L 794 531 
z
" transform="scale(0.015625)"/>
       </defs>
       <use xlink:href="#DejaVuSans-31"/>
       <use xlink:href="#DejaVuSans-2e" x="63.623047"/>
       <use xlink:href="#DejaVuSans-30" x="95.410156"/>
      </g>
     </g>
    </g>
    <g id="ytick_4">
     <g id="line2d_9">
      <g>
       <use xlink:href="#m57065d0983" x="71" y="166.472432" style="stroke: #000000; stroke-width: 0.8"/>
      </g>
     </g>
     <g id="text_10">
      <!-- 1.5 -->
      <g transform="translate(48.096875 170.271651) scale(0.1 -0.1)">
       <use xlink:href="#DejaVuSans-31"/>
       <use xlink:href="#DejaVuSans-2e" x="63.623047"/>
       <use xlink:href="#DejaVuSans-35" x="95.410156"/>
      </g>
     </g>
    </g>
    <g id="ytick_5">
     <g id="line2d_10">
      <g>
       <use xlink:href="#m57065d0983" x="71" y="116.963243" style="stroke: #000000; stroke-width: 0.8"/>
      </g>
     </g>
     <g id="text_11">
      <!-- 2.0 -->
      <g transform="translate(48.096875 120.762462) scale(0.1 -0.1)">
       <use xlink:href="#DejaVuSans-32"/>
       <use xlink:href="#DejaVuSans-2e" x="63.623047"/>
       <use xlink:href="#DejaVuSans-30" x="95.410156"/>
      </g>
     </g>
    </g>
    <g id="ytick_6">
     <g id="line2d_11">
      <g>
       <use xlink:href="#m57065d0983" x="71" y="67.454054" style="stroke: #000000; stroke-width: 0.8"/>
      </g>
     </g>
     <g id="text_12">
      <!-- 2.5 -->
      <g transform="translate(48.096875 71.253273) scale(0.1 -0.1)">
       <use xlink:href="#DejaVuSans-32"/>
       <use xlink:href="#DejaVuSans-2e" x="63.623047"/>
       <use xlink:href="#DejaVuSans-35" x="95.410156"/>
      </g>
     </g>
    </g>
    <g id="text_13">
     <!-- Density -->
     <g transform="translate(42.017187 198.108594) rotate(-90) scale(0.1 -0.1)">
      <defs>
       <path id="DejaVuSans-44" d="M 1259 4147 
L 1259 519 
L 2022 519 
Q 2988 519 3436 956 
Q 3884 1394 3884 2338 
Q 3884 3275 3436 3711 
Q 2988 4147 2022 4147 
L 1259 4147 
z
M 628 4666 
L 1925 4666 
Q 3281 4666 3915 4102 
Q 4550 3538 4550 2338 
Q 4550 1131 3912 565 
Q 3275 0 1925 0 
L 628 0 
L 628 4666 
z
" transform="scale(0.015625)"/>
       <path id="DejaVuSans-6e" d="M 3513 2113 
L 3513 0 
L 2938 0 
L 2938 2094 
Q 2938 2591 2744 2837 
Q 2550 3084 2163 3084 
Q 1697 3084 1428 2787 
Q 1159 2491 1159 1978 
L 1159 0 
L 581 0 
L 581 3500 
L 1159 3500 
L 1159 2956 
Q 1366 3272 1645 3428 
Q 1925 3584 2291 3584 
Q 2894 3584 3203 3211 
Q 3513 2838 3513 2113 
z
" transform="scale(0.015625)"/>
       <path id="DejaVuSans-74" d="M 1172 4494 
L 1172 3500 
L 2356 3500 
L 2356 3053 
L 1172 3053 
L 1172 1153 
Q 1172 725 1289 603 
Q 1406 481 1766 481 
L 2356 481 
L 2356 0 
L 1766 0 
Q 1100 0 847 248 
Q 594 497 594 1153 
L 594 3053 
L 172 3053 
L 172 3500 
L 594 3500 
L 594 4494 
L 1172 4494 
z
" transform="scale(0.015625)"/>
       <path id="DejaVuSans-79" d="M 2059 -325 
Q 1816 -950 1584 -1140 
Q 1353 -1331 966 -1331 
L 506 -1331 
L 506 -850 
L 844 -850 
Q 1081 -850 1212 -737 
Q 1344 -625 1503 -206 
L 1606 56 
L 191 3500 
L 800 3500 
L 1894 763 
L 2988 3500 
L 3597 3500 
L 2059 -325 
z
" transform="scale(0.015625)"/>
      </defs>
      <use xlink:href="#DejaVuSans-44"/>
      <use xlink:href="#DejaVuSans-65" x="77.001953"/>
      <use xlink:href="#DejaVuSans-6e" x="138.525391"/>
      <use xlink:href="#DejaVuSans-73" x="201.904297"/>
      <use xlink:href="#DejaVuSans-69" x="254.003906"/>
      <use xlink:href="#DejaVuSans-74" x="281.787109"/>
      <use xlink:href="#DejaVuSans-79" x="320.996094"/>
     </g>
    </g>
   </g>
   <g id="line2d_12">
    <path d="M -1 314.209797 
L 3.858753 313.645326 
L 7.081631 313.108958 
L 10.304509 312.430096 
L 13.527387 311.598623 
L 16.750266 310.613519 
L 19.973144 309.485104 
L 26.4189 306.901462 
L 36.087534 302.855465 
L 39.310412 301.661806 
L 42.53329 300.619084 
L 45.756168 299.756461 
L 48.979046 299.090404 
L 52.201924 298.625133 
L 55.424803 298.354601 
L 58.647681 298.265424 
L 61.870559 298.340041 
L 65.093437 298.559441 
L 71.539193 299.359139 
L 77.984949 300.526339 
L 97.322218 304.583844 
L 100.545096 305.041949 
L 103.767974 305.350371 
L 106.990852 305.481678 
L 110.21373 305.416462 
L 113.436608 305.146345 
L 116.659486 304.67643 
L 119.882364 304.026697 
L 126.32812 302.339595 
L 132.773877 300.493063 
L 135.996755 299.657419 
L 139.219633 298.948936 
L 142.442511 298.402699 
L 145.665389 298.03546 
L 148.888267 297.843685 
L 152.111145 297.803949 
L 158.556901 298.005338 
L 165.002658 298.199515 
L 168.225536 298.151265 
L 171.448414 297.948803 
L 174.671292 297.57065 
L 177.89417 297.016814 
L 184.339926 295.493498 
L 190.785682 293.786925 
L 194.00856 293.043272 
L 197.231438 292.466757 
L 200.454316 292.112696 
L 203.677195 292.016133 
L 206.900073 292.188115 
L 210.122951 292.615273 
L 213.345829 293.262707 
L 219.791585 295.005896 
L 229.460219 297.852641 
L 232.683097 298.663432 
L 235.905975 299.349445 
L 239.128853 299.89107 
L 242.351732 300.275792 
L 245.57461 300.497091 
L 248.797488 300.554345 
L 252.020366 300.453728 
L 255.243244 300.209613 
L 261.689 299.395145 
L 271.357634 297.949945 
L 277.803391 297.322048 
L 281.026269 297.185524 
L 287.472025 297.242525 
L 300.363537 297.733437 
L 303.586415 297.695881 
L 306.809293 297.532022 
L 310.032171 297.228692 
L 313.255049 296.784149 
L 319.700806 295.518342 
L 335.815196 291.626813 
L 342.260952 290.560233 
L 348.706708 289.665817 
L 351.929587 288.954319 
L 355.152465 287.733529 
L 358.375343 285.65227 
L 361.598221 282.298967 
L 364.821099 277.241073 
L 368.043977 270.084536 
L 371.266855 260.549488 
L 374.489733 248.552936 
L 377.712611 234.284039 
L 380.935489 218.254183 
L 387.381245 184.557918 
L 390.604124 169.314993 
L 393.827002 156.900952 
L 397.04988 148.489762 
L 400.272758 144.935053 
L 403.495636 146.64164 
L 406.718514 153.504025 
L 409.941392 164.924636 
L 413.16427 179.907343 
L 416.387148 197.2058 
L 422.832904 233.537258 
L 426.055782 250.301044 
L 429.278661 265.039246 
L 432.501539 277.300984 
L 435.724417 286.89984 
L 438.947295 293.85078 
L 442.170173 298.29595 
L 445.393051 300.436876 
L 448.615929 300.485468 
L 451.838807 298.639777 
L 455.061685 295.084153 
L 458.284563 290.008403 
L 461.507441 283.637188 
L 464.73032 276.259441 
L 474.398954 252.227907 
L 477.621832 245.29995 
L 480.84471 239.805807 
L 484.067588 236.185995 
L 487.290466 234.738676 
L 490.513344 235.580351 
L 493.736222 238.630203 
L 496.9591 243.621179 
L 500.181978 250.135571 
L 503.404857 257.658205 
L 509.850613 273.544099 
L 513.073491 280.918705 
L 516.296369 287.403722 
L 519.519247 292.757705 
L 522.742125 296.854664 
L 525.965003 299.672704 
L 529.187881 301.277021 
L 532.410759 301.801546 
L 535.633637 301.431817 
L 538.856516 300.389734 
L 542.079394 298.919427 
L 548.52515 295.693594 
L 551.748028 294.400345 
L 554.970906 293.569004 
L 558.193784 293.318318 
L 561.416662 293.700412 
L 564.63954 294.698981 
L 567.862418 296.235988 
L 571.085296 298.186058 
L 577 302.326011 
L 577 302.326011 
" clip-path="url(#p4d9dfd6c3b)" style="fill: none; stroke: #1c4981; stroke-width: 2; stroke-linecap: square"/>
   </g>
   <g id="line2d_13">
    <path d="M -1 314.429957 
L 3.493223 313.984661 
L 6.697844 313.491558 
L 9.902466 312.814013 
L 13.107087 311.909255 
L 16.311708 310.735399 
L 19.516329 309.256126 
L 22.72095 307.446208 
L 25.925571 305.297281 
L 29.130192 302.822995 
L 32.334814 300.062592 
L 38.744056 293.971547 
L 45.153298 287.809527 
L 48.357919 284.997324 
L 51.562541 282.511945 
L 54.767162 280.438897 
L 57.971783 278.833449 
L 61.176404 277.716407 
L 64.381025 277.074117 
L 67.585646 276.862451 
L 70.790267 277.013761 
L 73.994889 277.445291 
L 80.404131 278.79065 
L 86.813373 280.20669 
L 90.017994 280.751095 
L 93.222616 281.101149 
L 96.427237 281.204864 
L 99.631858 281.02308 
L 102.836479 280.534018 
L 106.0411 279.738665 
L 109.245721 278.66559 
L 112.450342 277.373518 
L 122.064206 273.16804 
L 125.268827 272.058803 
L 128.473448 271.29016 
L 131.678069 270.946072 
L 134.882691 271.073731 
L 138.087312 271.678872 
L 141.291933 272.726756 
L 144.496554 274.148358 
L 147.701175 275.850361 
L 160.51966 283.379173 
L 163.724281 284.987556 
L 166.928902 286.352897 
L 170.133523 287.43048 
L 173.338144 288.183554 
L 176.542766 288.581464 
L 179.747387 288.600158 
L 182.952008 288.225288 
L 186.156629 287.457309 
L 189.36125 286.317214 
L 192.565871 284.851175 
L 195.770492 283.132401 
L 205.384356 277.522169 
L 208.588977 275.903285 
L 211.793598 274.593403 
L 214.998219 273.667018 
L 218.202841 273.163524 
L 221.407462 273.08523 
L 224.612083 273.400445 
L 227.816704 274.050742 
L 231.021325 274.960727 
L 237.430567 277.233425 
L 243.83981 279.619712 
L 247.044431 280.709405 
L 250.249052 281.67155 
L 253.453673 282.470741 
L 256.658294 283.076844 
L 259.862916 283.465982 
L 263.067537 283.623736 
L 266.272158 283.549834 
L 269.476779 283.262911 
L 275.886021 282.234789 
L 282.295264 281.101168 
L 285.499885 280.71681 
L 288.704506 280.560384 
L 291.909127 280.683719 
L 295.113748 281.105774 
L 298.318369 281.808849 
L 301.522991 282.739974 
L 311.136854 285.99981 
L 314.341475 286.895581 
L 317.546096 287.5412 
L 320.750718 287.874676 
L 323.955339 287.861431 
L 327.15996 287.49373 
L 330.364581 286.786213 
L 333.569202 285.768212 
L 336.773823 284.473757 
L 339.978444 282.93016 
L 343.183066 281.146093 
L 346.387687 279.100036 
L 349.592308 276.730237 
L 352.796929 273.927731 
L 356.00155 270.534542 
L 359.206171 266.349703 
L 362.410793 261.14568 
L 365.615414 254.696979 
L 368.820035 246.820737 
L 372.024656 237.426144 
L 375.229277 226.566062 
L 378.433898 214.481106 
L 384.843141 188.659677 
L 388.047762 176.416906 
L 391.252383 165.820819 
L 394.457004 157.784798 
L 397.661625 153.094594 
L 400.866246 152.298682 
L 404.070868 155.626059 
L 407.275489 162.947457 
L 410.48011 173.787692 
L 413.684731 187.386568 
L 416.889352 202.796167 
L 423.298594 235.003682 
L 426.503216 249.967727 
L 429.707837 263.222943 
L 432.912458 274.312638 
L 436.117079 282.977059 
L 439.3217 289.119446 
L 442.526321 292.761911 
L 445.730943 294.00318 
L 448.935564 292.987354 
L 452.140185 289.888544 
L 455.344806 284.911552 
L 458.549427 278.304684 
L 461.754048 270.377886 
L 464.958669 261.518162 
L 471.367912 242.94842 
L 474.572533 234.363429 
L 477.777154 227.02301 
L 480.981775 221.45511 
L 484.186396 218.076269 
L 487.391018 217.143469 
L 490.595639 218.722649 
L 493.80026 222.679844 
L 497.004881 228.696825 
L 500.209502 236.308691 
L 503.414123 244.957084 
L 509.823366 263.022038 
L 513.027987 271.378863 
L 516.232608 278.735346 
L 519.437229 284.831292 
L 522.64185 289.534552 
L 525.846471 292.831819 
L 529.051093 294.811496 
L 532.255714 295.642388 
L 535.460335 295.551033 
L 538.664956 294.799311 
L 548.278819 291.290752 
L 551.483441 290.503138 
L 554.688062 290.198428 
L 557.892683 290.463375 
L 561.097304 291.319776 
L 564.301925 292.728612 
L 567.506546 294.600324 
L 570.711168 296.809847 
L 577 301.577786 
L 577 301.577786 
" clip-path="url(#p4d9dfd6c3b)" style="fill: none; stroke: #8a1218; stroke-width: 2; stroke-linecap: square"/>
   </g>
   <g id="line2d_14">
    <path d="M -1 314.181282 
L 3.939774 313.698555 
L 10.450502 312.745504 
L 16.961231 311.384557 
L 23.471959 309.580595 
L 29.982687 307.342529 
L 36.493415 304.74245 
L 49.514871 299.213568 
L 52.770236 297.981362 
L 56.0256 296.89723 
L 59.280964 296.001611 
L 62.536328 295.327103 
L 65.791692 294.895338 
L 69.047056 294.71483 
L 72.30242 294.780032 
L 75.557784 295.071674 
L 78.813148 295.558272 
L 85.323876 296.945118 
L 95.089969 299.327919 
L 101.600697 300.629678 
L 108.111425 301.513333 
L 114.622153 302.02932 
L 127.64361 302.612698 
L 140.665066 303.06771 
L 147.175794 303.063341 
L 153.686522 302.803875 
L 160.19725 302.321629 
L 192.750891 299.466809 
L 202.516984 299.036737 
L 218.793804 298.530047 
L 241.581353 297.465355 
L 244.836717 297.543684 
L 248.092081 297.735191 
L 254.602809 298.455884 
L 261.113537 299.540509 
L 277.390358 302.552032 
L 283.901086 303.324038 
L 287.15645 303.535598 
L 290.411814 303.616139 
L 293.667178 303.56111 
L 296.922542 303.37137 
L 300.177906 303.053179 
L 306.688634 302.08312 
L 313.199362 300.806977 
L 322.965455 298.851488 
L 326.220819 298.332828 
L 329.476183 297.934195 
L 332.731547 297.67173 
L 339.242275 297.505634 
L 345.753003 297.382597 
L 349.008367 297.00063 
L 352.263732 296.121485 
L 355.519096 294.472747 
L 358.77446 291.750976 
L 362.029824 287.648096 
L 365.285188 281.888976 
L 368.540552 274.278356 
L 371.795916 264.752409 
L 375.05128 253.427241 
L 378.306644 240.634388 
L 384.817372 213.088334 
L 388.072736 200.017886 
L 391.328101 188.69928 
L 394.583465 180.059337 
L 397.838829 174.85611 
L 401.094193 173.576072 
L 404.349557 176.365406 
L 407.604921 183.008789 
L 410.860285 192.959852 
L 414.115649 205.417111 
L 417.371013 219.430342 
L 423.881741 248.270056 
L 427.137106 261.435551 
L 430.39247 272.960031 
L 433.647834 282.498005 
L 436.903198 289.891247 
L 440.158562 295.128994 
L 443.413926 298.301581 
L 446.66929 299.558373 
L 449.924654 299.077439 
L 453.180018 297.050198 
L 456.435382 293.680108 
L 459.690746 289.1913 
L 462.94611 283.841122 
L 469.456839 271.804231 
L 472.712203 265.844899 
L 475.967567 260.447907 
L 479.222931 255.991719 
L 482.478295 252.800987 
L 485.733659 251.111221 
L 488.989023 251.041179 
L 492.244387 252.578293 
L 495.499751 255.580103 
L 498.755115 259.791748 
L 502.01048 264.876634 
L 511.776572 281.602219 
L 515.031936 286.541084 
L 518.2873 290.76117 
L 521.542664 294.149053 
L 524.798028 296.675708 
L 528.053392 298.385378 
L 531.308756 299.379778 
L 534.56412 299.800322 
L 537.819484 299.810455 
L 550.840941 298.945251 
L 554.096305 299.125681 
L 557.351669 299.603194 
L 560.607033 300.384006 
L 563.862397 301.441607 
L 567.117761 302.723212 
L 573.628489 305.668161 
L 577 307.226515 
L 577 307.226515 
" clip-path="url(#p4d9dfd6c3b)" style="fill: none; stroke-dasharray: 2,3.3; stroke-dashoffset: 0; stroke: #1c4981; stroke-width: 2"/>
   </g>
   <g id="line2d_15">
    <path d="M -1 314.585597 
L 2.2149 314.367116 
L 8.563225 313.661967 
L 11.737388 313.133954 
L 14.911551 312.46355 
L 18.085714 311.633704 
L 21.259876 310.629736 
L 24.434039 309.439759 
L 27.608202 308.055227 
L 30.782365 306.47198 
L 33.956528 304.692077 
L 37.130691 302.726324 
L 43.479016 298.340046 
L 53.001505 291.354641 
L 56.175667 289.176517 
L 59.34983 287.181593 
L 62.523993 285.419232 
L 65.698156 283.922584 
L 68.872319 282.708383 
L 72.046481 281.779663 
L 75.220644 281.130246 
L 78.394807 280.749411 
L 81.56897 280.625231 
L 84.743133 280.745624 
L 87.917296 281.096955 
L 91.091458 281.660786 
L 94.265621 282.409931 
L 100.613947 284.293655 
L 106.962272 286.280928 
L 110.136435 287.129552 
L 113.310598 287.785132 
L 116.484761 288.190151 
L 119.658924 288.30774 
L 122.833087 288.126872 
L 126.007249 287.664728 
L 129.181412 286.96583 
L 135.529738 285.146116 
L 141.878063 283.362883 
L 145.052226 282.709512 
L 148.226389 282.312476 
L 151.400552 282.220358 
L 154.574715 282.457846 
L 157.748878 283.024429 
L 160.92304 283.894749 
L 164.097203 285.020417 
L 170.445529 287.749299 
L 176.793854 290.516792 
L 179.968017 291.683038 
L 183.14218 292.599022 
L 186.316343 293.211156 
L 189.490506 293.493195 
L 192.664668 293.448668 
L 195.838831 293.109532 
L 199.012994 292.530953 
L 205.36132 290.939443 
L 214.883808 288.433625 
L 221.232134 287.041212 
L 240.277111 283.323646 
L 243.451274 282.869269 
L 246.625436 282.588393 
L 249.799599 282.537764 
L 252.973762 282.758163 
L 256.147925 283.26536 
L 259.322088 284.044548 
L 262.49625 285.049169 
L 275.192902 289.584156 
L 278.367065 290.354163 
L 281.541227 290.824668 
L 284.71539 290.96741 
L 287.889553 290.788408 
L 291.063716 290.324209 
L 294.237879 289.633217 
L 300.586204 287.840473 
L 313.282855 283.819543 
L 319.631181 281.656529 
L 329.15367 278.341538 
L 332.327832 277.449832 
L 335.501995 276.808733 
L 338.676158 276.486878 
L 341.850321 276.505706 
L 345.024484 276.813269 
L 348.198646 277.261222 
L 351.372809 277.5872 
L 354.546972 277.404552 
L 357.721135 276.202108 
L 360.895298 273.358401 
L 364.069461 268.176786 
L 367.243623 259.948626 
L 370.417786 248.049416 
L 373.591949 232.065912 
L 376.766112 211.941215 
L 379.940275 188.111676 
L 383.114437 161.598976 
L 386.2886 134.01835 
L 389.462763 107.473851 
L 392.636926 84.334468 
L 395.811089 66.916251 
L 398.985252 57.126209 
L 402.159414 56.142857 
L 405.333577 64.207496 
L 408.50774 80.577522 
L 411.681903 103.654188 
L 414.856066 131.254047 
L 421.204391 190.469242 
L 424.378554 217.878239 
L 427.552717 241.841002 
L 430.72688 261.607544 
L 433.901042 276.95044 
L 437.075205 288.022 
L 440.249368 295.186545 
L 443.423531 298.867274 
L 446.597694 299.434799 
L 449.771857 297.150163 
L 452.946019 292.162714 
L 456.120182 284.554043 
L 459.294345 274.413235 
L 462.468508 261.925083 
L 465.642671 247.451266 
L 471.990996 215.163158 
L 475.165159 199.22641 
L 478.339322 184.928479 
L 481.513485 173.40619 
L 484.687648 165.632679 
L 487.86181 162.281672 
L 491.035973 163.630292 
L 494.210136 169.52051 
L 497.384299 179.386918 
L 500.558462 192.344197 
L 503.732624 207.315383 
L 510.08095 238.880329 
L 513.255113 253.571282 
L 516.429276 266.626091 
L 519.603439 277.674266 
L 522.777601 286.573988 
L 525.951764 293.367535 
L 529.125927 298.228658 
L 532.30009 301.413225 
L 535.474253 303.219782 
L 538.648415 303.96179 
L 541.822578 303.949487 
L 544.996741 303.47744 
L 551.345067 302.190092 
L 554.519229 301.788329 
L 557.693392 301.732676 
L 560.867555 302.083133 
L 564.041718 302.836823 
L 567.215881 303.936748 
L 570.390044 305.287129 
L 577 308.395019 
L 577 308.395019 
" clip-path="url(#p4d9dfd6c3b)" style="fill: none; stroke-dasharray: 2,3.3; stroke-dashoffset: 0; stroke: #8a1218; stroke-width: 2"/>
   </g>
   <g id="patch_3">
    <path d="M 71 315 
L 71 67.454054 
" style="fill: none; stroke: #000000; stroke-width: 0.8; stroke-linejoin: miter; stroke-linecap: square"/>
   </g>
   <g id="patch_4">
    <path d="M 116.64 316 
L 473.76 316 
" style="fill: none; stroke: #000000; stroke-width: 0.8; stroke-linejoin: miter; stroke-linecap: square"/>
   </g>
   <g id="text_14">
    <!-- closed_open_loops_diff_tau IO Spikes CS+US -->
    <g transform="translate(160.685625 37.2) scale(0.12 -0.12)">
     <defs>
      <path id="DejaVuSans-63" d="M 3122 3366 
L 3122 2828 
Q 2878 2963 2633 3030 
Q 2388 3097 2138 3097 
Q 1578 3097 1268 2742 
Q 959 2388 959 1747 
Q 959 1106 1268 751 
Q 1578 397 2138 397 
Q 2388 397 2633 464 
Q 2878 531 3122 666 
L 3122 134 
Q 2881 22 2623 -34 
Q 2366 -91 2075 -91 
Q 1284 -91 818 406 
Q 353 903 353 1747 
Q 353 2603 823 3093 
Q 1294 3584 2113 3584 
Q 2378 3584 2631 3529 
Q 2884 3475 3122 3366 
z
" transform="scale(0.015625)"/>
      <path id="DejaVuSans-6c" d="M 603 4863 
L 1178 4863 
L 1178 0 
L 603 0 
L 603 4863 
z
" transform="scale(0.015625)"/>
      <path id="DejaVuSans-6f" d="M 1959 3097 
Q 1497 3097 1228 2736 
Q 959 2375 959 1747 
Q 959 1119 1226 758 
Q 1494 397 1959 397 
Q 2419 397 2687 759 
Q 2956 1122 2956 1747 
Q 2956 2369 2687 2733 
Q 2419 3097 1959 3097 
z
M 1959 3584 
Q 2709 3584 3137 3096 
Q 3566 2609 3566 1747 
Q 3566 888 3137 398 
Q 2709 -91 1959 -91 
Q 1206 -91 779 398 
Q 353 888 353 1747 
Q 353 2609 779 3096 
Q 1206 3584 1959 3584 
z
" transform="scale(0.015625)"/>
      <path id="DejaVuSans-64" d="M 2906 2969 
L 2906 4863 
L 3481 4863 
L 3481 0 
L 2906 0 
L 2906 525 
Q 2725 213 2448 61 
Q 2172 -91 1784 -91 
Q 1150 -91 751 415 
Q 353 922 353 1747 
Q 353 2572 751 3078 
Q 1150 3584 1784 3584 
Q 2172 3584 2448 3432 
Q 2725 3281 2906 2969 
z
M 947 1747 
Q 947 1113 1208 752 
Q 1469 391 1925 391 
Q 2381 391 2643 752 
Q 2906 1113 2906 1747 
Q 2906 2381 2643 2742 
Q 2381 3103 1925 3103 
Q 1469 3103 1208 2742 
Q 947 2381 947 1747 
z
" transform="scale(0.015625)"/>
      <path id="DejaVuSans-5f" d="M 3263 -1063 
L 3263 -1509 
L -63 -1509 
L -63 -1063 
L 3263 -1063 
z
" transform="scale(0.015625)"/>
      <path id="DejaVuSans-70" d="M 1159 525 
L 1159 -1331 
L 581 -1331 
L 581 3500 
L 1159 3500 
L 1159 2969 
Q 1341 3281 1617 3432 
Q 1894 3584 2278 3584 
Q 2916 3584 3314 3078 
Q 3713 2572 3713 1747 
Q 3713 922 3314 415 
Q 2916 -91 2278 -91 
Q 1894 -91 1617 61 
Q 1341 213 1159 525 
z
M 3116 1747 
Q 3116 2381 2855 2742 
Q 2594 3103 2138 3103 
Q 1681 3103 1420 2742 
Q 1159 2381 1159 1747 
Q 1159 1113 1420 752 
Q 1681 391 2138 391 
Q 2594 391 2855 752 
Q 3116 1113 3116 1747 
z
" transform="scale(0.015625)"/>
      <path id="DejaVuSans-66" d="M 2375 4863 
L 2375 4384 
L 1825 4384 
Q 1516 4384 1395 4259 
Q 1275 4134 1275 3809 
L 1275 3500 
L 2222 3500 
L 2222 3053 
L 1275 3053 
L 1275 0 
L 697 0 
L 697 3053 
L 147 3053 
L 147 3500 
L 697 3500 
L 697 3744 
Q 697 4328 969 4595 
Q 1241 4863 1831 4863 
L 2375 4863 
z
" transform="scale(0.015625)"/>
      <path id="DejaVuSans-61" d="M 2194 1759 
Q 1497 1759 1228 1600 
Q 959 1441 959 1056 
Q 959 750 1161 570 
Q 1363 391 1709 391 
Q 2188 391 2477 730 
Q 2766 1069 2766 1631 
L 2766 1759 
L 2194 1759 
z
M 3341 1997 
L 3341 0 
L 2766 0 
L 2766 531 
Q 2569 213 2275 61 
Q 1981 -91 1556 -91 
Q 1019 -91 701 211 
Q 384 513 384 1019 
Q 384 1609 779 1909 
Q 1175 2209 1959 2209 
L 2766 2209 
L 2766 2266 
Q 2766 2663 2505 2880 
Q 2244 3097 1772 3097 
Q 1472 3097 1187 3025 
Q 903 2953 641 2809 
L 641 3341 
Q 956 3463 1253 3523 
Q 1550 3584 1831 3584 
Q 2591 3584 2966 3190 
Q 3341 2797 3341 1997 
z
" transform="scale(0.015625)"/>
      <path id="DejaVuSans-75" d="M 544 1381 
L 544 3500 
L 1119 3500 
L 1119 1403 
Q 1119 906 1312 657 
Q 1506 409 1894 409 
Q 2359 409 2629 706 
Q 2900 1003 2900 1516 
L 2900 3500 
L 3475 3500 
L 3475 0 
L 2900 0 
L 2900 538 
Q 2691 219 2414 64 
Q 2138 -91 1772 -91 
Q 1169 -91 856 284 
Q 544 659 544 1381 
z
M 1991 3584 
L 1991 3584 
z
" transform="scale(0.015625)"/>
      <path id="DejaVuSans-49" d="M 628 4666 
L 1259 4666 
L 1259 0 
L 628 0 
L 628 4666 
z
" transform="scale(0.015625)"/>
      <path id="DejaVuSans-4f" d="M 2522 4238 
Q 1834 4238 1429 3725 
Q 1025 3213 1025 2328 
Q 1025 1447 1429 934 
Q 1834 422 2522 422 
Q 3209 422 3611 934 
Q 4013 1447 4013 2328 
Q 4013 3213 3611 3725 
Q 3209 4238 2522 4238 
z
M 2522 4750 
Q 3503 4750 4090 4092 
Q 4678 3434 4678 2328 
Q 4678 1225 4090 567 
Q 3503 -91 2522 -91 
Q 1538 -91 948 565 
Q 359 1222 359 2328 
Q 359 3434 948 4092 
Q 1538 4750 2522 4750 
z
" transform="scale(0.015625)"/>
      <path id="DejaVuSans-53" d="M 3425 4513 
L 3425 3897 
Q 3066 4069 2747 4153 
Q 2428 4238 2131 4238 
Q 1616 4238 1336 4038 
Q 1056 3838 1056 3469 
Q 1056 3159 1242 3001 
Q 1428 2844 1947 2747 
L 2328 2669 
Q 3034 2534 3370 2195 
Q 3706 1856 3706 1288 
Q 3706 609 3251 259 
Q 2797 -91 1919 -91 
Q 1588 -91 1214 -16 
Q 841 59 441 206 
L 441 856 
Q 825 641 1194 531 
Q 1563 422 1919 422 
Q 2459 422 2753 634 
Q 3047 847 3047 1241 
Q 3047 1584 2836 1778 
Q 2625 1972 2144 2069 
L 1759 2144 
Q 1053 2284 737 2584 
Q 422 2884 422 3419 
Q 422 4038 858 4394 
Q 1294 4750 2059 4750 
Q 2388 4750 2728 4690 
Q 3069 4631 3425 4513 
z
" transform="scale(0.015625)"/>
      <path id="DejaVuSans-6b" d="M 581 4863 
L 1159 4863 
L 1159 1991 
L 2875 3500 
L 3609 3500 
L 1753 1863 
L 3688 0 
L 2938 0 
L 1159 1709 
L 1159 0 
L 581 0 
L 581 4863 
z
" transform="scale(0.015625)"/>
      <path id="DejaVuSans-43" d="M 4122 4306 
L 4122 3641 
Q 3803 3938 3442 4084 
Q 3081 4231 2675 4231 
Q 1875 4231 1450 3742 
Q 1025 3253 1025 2328 
Q 1025 1406 1450 917 
Q 1875 428 2675 428 
Q 3081 428 3442 575 
Q 3803 722 4122 1019 
L 4122 359 
Q 3791 134 3420 21 
Q 3050 -91 2638 -91 
Q 1578 -91 968 557 
Q 359 1206 359 2328 
Q 359 3453 968 4101 
Q 1578 4750 2638 4750 
Q 3056 4750 3426 4639 
Q 3797 4528 4122 4306 
z
" transform="scale(0.015625)"/>
      <path id="DejaVuSans-2b" d="M 2944 4013 
L 2944 2272 
L 4684 2272 
L 4684 1741 
L 2944 1741 
L 2944 0 
L 2419 0 
L 2419 1741 
L 678 1741 
L 678 2272 
L 2419 2272 
L 2419 4013 
L 2944 4013 
z
" transform="scale(0.015625)"/>
      <path id="DejaVuSans-55" d="M 556 4666 
L 1191 4666 
L 1191 1831 
Q 1191 1081 1462 751 
Q 1734 422 2344 422 
Q 2950 422 3222 751 
Q 3494 1081 3494 1831 
L 3494 4666 
L 4128 4666 
L 4128 1753 
Q 4128 841 3676 375 
Q 3225 -91 2344 -91 
Q 1459 -91 1007 375 
Q 556 841 556 1753 
L 556 4666 
z
" transform="scale(0.015625)"/>
     </defs>
     <use xlink:href="#DejaVuSans-63"/>
     <use xlink:href="#DejaVuSans-6c" x="54.980469"/>
     <use xlink:href="#DejaVuSans-6f" x="82.763672"/>
     <use xlink:href="#DejaVuSans-73" x="143.945312"/>
     <use xlink:href="#DejaVuSans-65" x="196.044922"/>
     <use xlink:href="#DejaVuSans-64" x="257.568359"/>
     <use xlink:href="#DejaVuSans-5f" x="321.044922"/>
     <use xlink:href="#DejaVuSans-6f" x="371.044922"/>
     <use xlink:href="#DejaVuSans-70" x="432.226562"/>
     <use xlink:href="#DejaVuSans-65" x="495.703125"/>
     <use xlink:href="#DejaVuSans-6e" x="557.226562"/>
     <use xlink:href="#DejaVuSans-5f" x="620.605469"/>
     <use xlink:href="#DejaVuSans-6c" x="670.605469"/>
     <use xlink:href="#DejaVuSans-6f" x="698.388672"/>
     <use xlink:href="#DejaVuSans-6f" x="759.570312"/>
     <use xlink:href="#DejaVuSans-70" x="820.751953"/>
     <use xlink:href="#DejaVuSans-73" x="884.228516"/>
     <use xlink:href="#DejaVuSans-5f" x="936.328125"/>
     <use xlink:href="#DejaVuSans-64" x="986.328125"/>
     <use xlink:href="#DejaVuSans-69" x="1049.804688"/>
     <use xlink:href="#DejaVuSans-66" x="1077.587891"/>
     <use xlink:href="#DejaVuSans-66" x="1112.792969"/>
     <use xlink:href="#DejaVuSans-5f" x="1147.998047"/>
     <use xlink:href="#DejaVuSans-74" x="1197.998047"/>
     <use xlink:href="#DejaVuSans-61" x="1237.207031"/>
     <use xlink:href="#DejaVuSans-75" x="1298.486328"/>
     <use xlink:href="#DejaVuSans-20" x="1361.865234"/>
     <use xlink:href="#DejaVuSans-49" x="1393.652344"/>
     <use xlink:href="#DejaVuSans-4f" x="1423.144531"/>
     <use xlink:href="#DejaVuSans-20" x="1501.855469"/>
     <use xlink:href="#DejaVuSans-53" x="1533.642578"/>
     <use xlink:href="#DejaVuSans-70" x="1597.119141"/>
     <use xlink:href="#DejaVuSans-69" x="1660.595703"/>
     <use xlink:href="#DejaVuSans-6b" x="1688.378906"/>
     <use xlink:href="#DejaVuSans-65" x="1742.664062"/>
     <use xlink:href="#DejaVuSans-73" x="1804.1875"/>
     <use xlink:href="#DejaVuSans-20" x="1856.287109"/>
     <use xlink:href="#DejaVuSans-43" x="1888.074219"/>
     <use xlink:href="#DejaVuSans-53" x="1957.898438"/>
     <use xlink:href="#DejaVuSans-2b" x="2021.375"/>
     <use xlink:href="#DejaVuSans-55" x="2105.164062"/>
     <use xlink:href="#DejaVuSans-53" x="2178.357422"/>
    </g>
   </g>
   <g id="legend_1">
    <g id="patch_5">
     <path d="M 79 109.9125 
L 292.442187 109.9125 
Q 294.442187 109.9125 294.442187 107.9125 
L 294.442187 50.2 
Q 294.442187 48.2 292.442187 48.2 
L 79 48.2 
Q 77 48.2 77 50.2 
L 77 107.9125 
Q 77 109.9125 79 109.9125 
z
" style="fill: #ffffff; opacity: 0.8; stroke: #cccccc; stroke-linejoin: miter"/>
    </g>
    <g id="patch_6">
     <path d="M 81 59.798437 
L 101 59.798437 
L 101 52.798437 
L 81 52.798437 
z
" style="fill: #00ffff; opacity: 0.2"/>
    </g>
    <g id="text_15">
     <!-- CS -->
     <g transform="translate(109 59.798437) scale(0.1 -0.1)">
      <use xlink:href="#DejaVuSans-43"/>
      <use xlink:href="#DejaVuSans-53" x="69.824219"/>
     </g>
    </g>
    <g id="patch_7">
     <path d="M 81 74.476562 
L 101 74.476562 
L 101 67.476562 
L 81 67.476562 
z
" style="fill: #808080; opacity: 0.5"/>
    </g>
    <g id="text_16">
     <!-- US -->
     <g transform="translate(109 74.476562) scale(0.1 -0.1)">
      <use xlink:href="#DejaVuSans-55"/>
      <use xlink:href="#DejaVuSans-53" x="73.193359"/>
     </g>
    </g>
    <g id="patch_8">
     <path d="M 81 89.154687 
L 101 89.154687 
L 101 82.154687 
L 81 82.154687 
z
" style="fill: #1c4981"/>
    </g>
    <g id="text_17">
     <!-- Upbound -->
     <g transform="translate(109 89.154687) scale(0.1 -0.1)">
      <defs>
       <path id="DejaVuSans-62" d="M 3116 1747 
Q 3116 2381 2855 2742 
Q 2594 3103 2138 3103 
Q 1681 3103 1420 2742 
Q 1159 2381 1159 1747 
Q 1159 1113 1420 752 
Q 1681 391 2138 391 
Q 2594 391 2855 752 
Q 3116 1113 3116 1747 
z
M 1159 2969 
Q 1341 3281 1617 3432 
Q 1894 3584 2278 3584 
Q 2916 3584 3314 3078 
Q 3713 2572 3713 1747 
Q 3713 922 3314 415 
Q 2916 -91 2278 -91 
Q 1894 -91 1617 61 
Q 1341 213 1159 525 
L 1159 0 
L 581 0 
L 581 4863 
L 1159 4863 
L 1159 2969 
z
" transform="scale(0.015625)"/>
      </defs>
      <use xlink:href="#DejaVuSans-55"/>
      <use xlink:href="#DejaVuSans-70" x="73.193359"/>
      <use xlink:href="#DejaVuSans-62" x="136.669922"/>
      <use xlink:href="#DejaVuSans-6f" x="200.146484"/>
      <use xlink:href="#DejaVuSans-75" x="261.328125"/>
      <use xlink:href="#DejaVuSans-6e" x="324.707031"/>
      <use xlink:href="#DejaVuSans-64" x="388.085938"/>
     </g>
    </g>
    <g id="patch_9">
     <path d="M 81 103.832812 
L 101 103.832812 
L 101 96.832812 
L 81 96.832812 
z
" style="fill: #8a1218"/>
    </g>
    <g id="text_18">
     <!-- Downbound -->
     <g transform="translate(109 103.832812) scale(0.1 -0.1)">
      <defs>
       <path id="DejaVuSans-77" d="M 269 3500 
L 844 3500 
L 1563 769 
L 2278 3500 
L 2956 3500 
L 3675 769 
L 4391 3500 
L 4966 3500 
L 4050 0 
L 3372 0 
L 2619 2869 
L 1863 0 
L 1184 0 
L 269 3500 
z
" transform="scale(0.015625)"/>
      </defs>
      <use xlink:href="#DejaVuSans-44"/>
      <use xlink:href="#DejaVuSans-6f" x="77.001953"/>
      <use xlink:href="#DejaVuSans-77" x="138.183594"/>
      <use xlink:href="#DejaVuSans-6e" x="219.970703"/>
      <use xlink:href="#DejaVuSans-62" x="283.349609"/>
      <use xlink:href="#DejaVuSans-6f" x="346.826172"/>
      <use xlink:href="#DejaVuSans-75" x="408.007812"/>
      <use xlink:href="#DejaVuSans-6e" x="471.386719"/>
      <use xlink:href="#DejaVuSans-64" x="534.765625"/>
     </g>
    </g>
    <g id="line2d_16">
     <path d="M 188.825 56.298437 
L 198.825 56.298437 
L 208.825 56.298437 
" style="fill: none; stroke: #000000; stroke-linecap: square"/>
    </g>
    <g id="text_19">
     <!-- no_Plasticity -->
     <g transform="translate(216.825 59.798437) scale(0.1 -0.1)">
      <defs>
       <path id="DejaVuSans-50" d="M 1259 4147 
L 1259 2394 
L 2053 2394 
Q 2494 2394 2734 2622 
Q 2975 2850 2975 3272 
Q 2975 3691 2734 3919 
Q 2494 4147 2053 4147 
L 1259 4147 
z
M 628 4666 
L 2053 4666 
Q 2838 4666 3239 4311 
Q 3641 3956 3641 3272 
Q 3641 2581 3239 2228 
Q 2838 1875 2053 1875 
L 1259 1875 
L 1259 0 
L 628 0 
L 628 4666 
z
" transform="scale(0.015625)"/>
      </defs>
      <use xlink:href="#DejaVuSans-6e"/>
      <use xlink:href="#DejaVuSans-6f" x="63.378906"/>
      <use xlink:href="#DejaVuSans-5f" x="124.560547"/>
      <use xlink:href="#DejaVuSans-50" x="174.560547"/>
      <use xlink:href="#DejaVuSans-6c" x="234.863281"/>
      <use xlink:href="#DejaVuSans-61" x="262.646484"/>
      <use xlink:href="#DejaVuSans-73" x="323.925781"/>
      <use xlink:href="#DejaVuSans-74" x="376.025391"/>
      <use xlink:href="#DejaVuSans-69" x="415.234375"/>
      <use xlink:href="#DejaVuSans-63" x="443.017578"/>
      <use xlink:href="#DejaVuSans-69" x="497.998047"/>
      <use xlink:href="#DejaVuSans-74" x="525.78125"/>
      <use xlink:href="#DejaVuSans-79" x="564.990234"/>
     </g>
    </g>
    <g id="line2d_17">
     <path d="M 188.825 71.254687 
L 198.825 71.254687 
L 208.825 71.254687 
" style="fill: none; stroke-dasharray: 3.7,1.6; stroke-dashoffset: 0; stroke: #000000"/>
    </g>
    <g id="text_20">
     <!-- Plasticity -->
     <g transform="translate(216.825 74.754687) scale(0.1 -0.1)">
      <use xlink:href="#DejaVuSans-50"/>
      <use xlink:href="#DejaVuSans-6c" x="60.302734"/>
      <use xlink:href="#DejaVuSans-61" x="88.085938"/>
      <use xlink:href="#DejaVuSans-73" x="149.365234"/>
      <use xlink:href="#DejaVuSans-74" x="201.464844"/>
      <use xlink:href="#DejaVuSans-69" x="240.673828"/>
      <use xlink:href="#DejaVuSans-63" x="268.457031"/>
      <use xlink:href="#DejaVuSans-69" x="323.4375"/>
      <use xlink:href="#DejaVuSans-74" x="351.220703"/>
      <use xlink:href="#DejaVuSans-79" x="390.429688"/>
     </g>
    </g>
    <g id="line2d_18">
     <path d="M 188.825 85.932812 
L 198.825 85.932812 
L 208.825 85.932812 
" style="fill: none; stroke-dasharray: 1,1.65; stroke-dashoffset: 0; stroke: #000000"/>
    </g>
    <g id="text_21">
     <!-- after_Plasticity -->
     <g transform="translate(216.825 89.432812) scale(0.1 -0.1)">
      <defs>
       <path id="DejaVuSans-72" d="M 2631 2963 
Q 2534 3019 2420 3045 
Q 2306 3072 2169 3072 
Q 1681 3072 1420 2755 
Q 1159 2438 1159 1844 
L 1159 0 
L 581 0 
L 581 3500 
L 1159 3500 
L 1159 2956 
Q 1341 3275 1631 3429 
Q 1922 3584 2338 3584 
Q 2397 3584 2469 3576 
Q 2541 3569 2628 3553 
L 2631 2963 
z
" transform="scale(0.015625)"/>
      </defs>
      <use xlink:href="#DejaVuSans-61"/>
      <use xlink:href="#DejaVuSans-66" x="61.279297"/>
      <use xlink:href="#DejaVuSans-74" x="94.734375"/>
      <use xlink:href="#DejaVuSans-65" x="133.943359"/>
      <use xlink:href="#DejaVuSans-72" x="195.466797"/>
      <use xlink:href="#DejaVuSans-5f" x="236.580078"/>
      <use xlink:href="#DejaVuSans-50" x="286.580078"/>
      <use xlink:href="#DejaVuSans-6c" x="346.882812"/>
      <use xlink:href="#DejaVuSans-61" x="374.666016"/>
      <use xlink:href="#DejaVuSans-73" x="435.945312"/>
      <use xlink:href="#DejaVuSans-74" x="488.044922"/>
      <use xlink:href="#DejaVuSans-69" x="527.253906"/>
      <use xlink:href="#DejaVuSans-63" x="555.037109"/>
      <use xlink:href="#DejaVuSans-69" x="610.017578"/>
      <use xlink:href="#DejaVuSans-74" x="637.800781"/>
      <use xlink:href="#DejaVuSans-79" x="677.009766"/>
     </g>
    </g>
   </g>
  </g>
 </g>
 <defs>
  <clipPath id="p4d9dfd6c3b">
   <rect x="72" y="43.2" width="446.4" height="271.8"/>
  </clipPath>
 </defs>
</svg>
