<?xml version="1.0" encoding="utf-8" standalone="no"?>
<!DOCTYPE svg PUBLIC "-//W3C//DTD SVG 1.1//EN"
  "http://www.w3.org/Graphics/SVG/1.1/DTD/svg11.dtd">
<svg xmlns:xlink="http://www.w3.org/1999/xlink" width="576pt" height="288pt" viewBox="0 0 576 288" xmlns="http://www.w3.org/2000/svg" version="1.1">
 <metadata>
  <rdf:RDF xmlns:dc="http://purl.org/dc/elements/1.1/" xmlns:cc="http://creativecommons.org/ns#" xmlns:rdf="http://www.w3.org/1999/02/22-rdf-syntax-ns#">
   <cc:Work>
    <dc:type rdf:resource="http://purl.org/dc/dcmitype/StillImage"/>
    <dc:date>2025-02-27T11:31:36.206585</dc:date>
    <dc:format>image/svg+xml</dc:format>
    <dc:creator>
     <cc:Agent>
      <dc:title>Matplotlib v3.7.2, https://matplotlib.org/</dc:title>
     </cc:Agent>
    </dc:creator>
   </cc:Work>
  </rdf:RDF>
 </metadata>
 <defs>
  <style type="text/css">*{stroke-linejoin: round; stroke-linecap: butt}</style>
 </defs>
 <g id="figure_1">
  <g id="patch_1">
   <path d="M 0 288 
L 576 288 
L 576 0 
L 0 0 
L 0 288 
z
" style="fill: none"/>
  </g>
  <g id="axes_1">
   <g id="patch_2">
    <path d="M 72 252 
L 518.4 252 
L 518.4 34.56 
L 72 34.56 
z
" style="fill: #ffffff"/>
   </g>
   <g id="PolyCollection_1">
    <path d="M 295.2 -95.904 
L 295.2 252 
L 406.8 252 
L 406.8 -95.904 
L 406.8 -95.904 
L 295.2 -95.904 
z
" clip-path="url(#p0cddf849f3)" style="fill: #00ffff; fill-opacity: 0.2; stroke: #00ffff; stroke-opacity: 0.2"/>
   </g>
   <g id="PolyCollection_2">
    <path d="M 393.408 -95.904 
L 393.408 252 
L 406.8 252 
L 406.8 -95.904 
L 406.8 -95.904 
L 393.408 -95.904 
z
" clip-path="url(#p0cddf849f3)" style="fill: #808080; fill-opacity: 0.5; stroke: #808080; stroke-opacity: 0.5"/>
   </g>
   <g id="matplotlib.axis_1">
    <g id="xtick_1">
     <g id="line2d_1">
      <defs>
       <path id="m2fb279ed2c" d="M 0 0 
L 0 3.5 
" style="stroke: #000000; stroke-width: 0.8"/>
      </defs>
      <g>
       <use xlink:href="#m2fb279ed2c" x="116.64" y="253" style="stroke: #000000; stroke-width: 0.8"/>
      </g>
     </g>
     <g id="text_1">
      <!-- −0.4 -->
      <g transform="translate(104.498594 267.598437) scale(0.1 -0.1)">
       <defs>
        <path id="DejaVuSans-2212" d="M 678 2272 
L 4684 2272 
L 4684 1741 
L 678 1741 
L 678 2272 
z
" transform="scale(0.015625)"/>
        <path id="DejaVuSans-30" d="M 2034 4250 
Q 1547 4250 1301 3770 
Q 1056 3291 1056 2328 
Q 1056 1369 1301 889 
Q 1547 409 2034 409 
Q 2525 409 2770 889 
Q 3016 1369 3016 2328 
Q 3016 3291 2770 3770 
Q 2525 4250 2034 4250 
z
M 2034 4750 
Q 2819 4750 3233 4129 
Q 3647 3509 3647 2328 
Q 3647 1150 3233 529 
Q 2819 -91 2034 -91 
Q 1250 -91 836 529 
Q 422 1150 422 2328 
Q 422 3509 836 4129 
Q 1250 4750 2034 4750 
z
" transform="scale(0.015625)"/>
        <path id="DejaVuSans-2e" d="M 684 794 
L 1344 794 
L 1344 0 
L 684 0 
L 684 794 
z
" transform="scale(0.015625)"/>
        <path id="DejaVuSans-34" d="M 2419 4116 
L 825 1625 
L 2419 1625 
L 2419 4116 
z
M 2253 4666 
L 3047 4666 
L 3047 1625 
L 3713 1625 
L 3713 1100 
L 3047 1100 
L 3047 0 
L 2419 0 
L 2419 1100 
L 313 1100 
L 313 1709 
L 2253 4666 
z
" transform="scale(0.015625)"/>
       </defs>
       <use xlink:href="#DejaVuSans-2212"/>
       <use xlink:href="#DejaVuSans-30" x="83.789062"/>
       <use xlink:href="#DejaVuSans-2e" x="147.412109"/>
       <use xlink:href="#DejaVuSans-34" x="179.199219"/>
      </g>
     </g>
    </g>
    <g id="xtick_2">
     <g id="line2d_2">
      <g>
       <use xlink:href="#m2fb279ed2c" x="205.92" y="253" style="stroke: #000000; stroke-width: 0.8"/>
      </g>
     </g>
     <g id="text_2">
      <!-- −0.2 -->
      <g transform="translate(193.778594 267.598437) scale(0.1 -0.1)">
       <defs>
        <path id="DejaVuSans-32" d="M 1228 531 
L 3431 531 
L 3431 0 
L 469 0 
L 469 531 
Q 828 903 1448 1529 
Q 2069 2156 2228 2338 
Q 2531 2678 2651 2914 
Q 2772 3150 2772 3378 
Q 2772 3750 2511 3984 
Q 2250 4219 1831 4219 
Q 1534 4219 1204 4116 
Q 875 4013 500 3803 
L 500 4441 
Q 881 4594 1212 4672 
Q 1544 4750 1819 4750 
Q 2544 4750 2975 4387 
Q 3406 4025 3406 3419 
Q 3406 3131 3298 2873 
Q 3191 2616 2906 2266 
Q 2828 2175 2409 1742 
Q 1991 1309 1228 531 
z
" transform="scale(0.015625)"/>
       </defs>
       <use xlink:href="#DejaVuSans-2212"/>
       <use xlink:href="#DejaVuSans-30" x="83.789062"/>
       <use xlink:href="#DejaVuSans-2e" x="147.412109"/>
       <use xlink:href="#DejaVuSans-32" x="179.199219"/>
      </g>
     </g>
    </g>
    <g id="xtick_3">
     <g id="line2d_3">
      <g>
       <use xlink:href="#m2fb279ed2c" x="295.2" y="253" style="stroke: #000000; stroke-width: 0.8"/>
      </g>
     </g>
     <g id="text_3">
      <!-- 0.0 -->
      <g transform="translate(287.248437 267.598437) scale(0.1 -0.1)">
       <use xlink:href="#DejaVuSans-30"/>
       <use xlink:href="#DejaVuSans-2e" x="63.623047"/>
       <use xlink:href="#DejaVuSans-30" x="95.410156"/>
      </g>
     </g>
    </g>
    <g id="xtick_4">
     <g id="line2d_4">
      <g>
       <use xlink:href="#m2fb279ed2c" x="384.48" y="253" style="stroke: #000000; stroke-width: 0.8"/>
      </g>
     </g>
     <g id="text_4">
      <!-- 0.2 -->
      <g transform="translate(376.528437 267.598437) scale(0.1 -0.1)">
       <use xlink:href="#DejaVuSans-30"/>
       <use xlink:href="#DejaVuSans-2e" x="63.623047"/>
       <use xlink:href="#DejaVuSans-32" x="95.410156"/>
      </g>
     </g>
    </g>
    <g id="xtick_5">
     <g id="line2d_5">
      <g>
       <use xlink:href="#m2fb279ed2c" x="473.76" y="253" style="stroke: #000000; stroke-width: 0.8"/>
      </g>
     </g>
     <g id="text_5">
      <!-- 0.4 -->
      <g transform="translate(465.808437 267.598437) scale(0.1 -0.1)">
       <use xlink:href="#DejaVuSans-30"/>
       <use xlink:href="#DejaVuSans-2e" x="63.623047"/>
       <use xlink:href="#DejaVuSans-34" x="95.410156"/>
      </g>
     </g>
    </g>
    <g id="text_6">
     <!-- Time [s] -->
     <g transform="translate(274.871094 281.276563) scale(0.1 -0.1)">
      <defs>
       <path id="DejaVuSans-54" d="M -19 4666 
L 3928 4666 
L 3928 4134 
L 2272 4134 
L 2272 0 
L 1638 0 
L 1638 4134 
L -19 4134 
L -19 4666 
z
" transform="scale(0.015625)"/>
       <path id="DejaVuSans-69" d="M 603 3500 
L 1178 3500 
L 1178 0 
L 603 0 
L 603 3500 
z
M 603 4863 
L 1178 4863 
L 1178 4134 
L 603 4134 
L 603 4863 
z
" transform="scale(0.015625)"/>
       <path id="DejaVuSans-6d" d="M 3328 2828 
Q 3544 3216 3844 3400 
Q 4144 3584 4550 3584 
Q 5097 3584 5394 3201 
Q 5691 2819 5691 2113 
L 5691 0 
L 5113 0 
L 5113 2094 
Q 5113 2597 4934 2840 
Q 4756 3084 4391 3084 
Q 3944 3084 3684 2787 
Q 3425 2491 3425 1978 
L 3425 0 
L 2847 0 
L 2847 2094 
Q 2847 2600 2669 2842 
Q 2491 3084 2119 3084 
Q 1678 3084 1418 2786 
Q 1159 2488 1159 1978 
L 1159 0 
L 581 0 
L 581 3500 
L 1159 3500 
L 1159 2956 
Q 1356 3278 1631 3431 
Q 1906 3584 2284 3584 
Q 2666 3584 2933 3390 
Q 3200 3197 3328 2828 
z
" transform="scale(0.015625)"/>
       <path id="DejaVuSans-65" d="M 3597 1894 
L 3597 1613 
L 953 1613 
Q 991 1019 1311 708 
Q 1631 397 2203 397 
Q 2534 397 2845 478 
Q 3156 559 3463 722 
L 3463 178 
Q 3153 47 2828 -22 
Q 2503 -91 2169 -91 
Q 1331 -91 842 396 
Q 353 884 353 1716 
Q 353 2575 817 3079 
Q 1281 3584 2069 3584 
Q 2775 3584 3186 3129 
Q 3597 2675 3597 1894 
z
M 3022 2063 
Q 3016 2534 2758 2815 
Q 2500 3097 2075 3097 
Q 1594 3097 1305 2825 
Q 1016 2553 972 2059 
L 3022 2063 
z
" transform="scale(0.015625)"/>
       <path id="DejaVuSans-20" transform="scale(0.015625)"/>
       <path id="DejaVuSans-5b" d="M 550 4863 
L 1875 4863 
L 1875 4416 
L 1125 4416 
L 1125 -397 
L 1875 -397 
L 1875 -844 
L 550 -844 
L 550 4863 
z
" transform="scale(0.015625)"/>
       <path id="DejaVuSans-73" d="M 2834 3397 
L 2834 2853 
Q 2591 2978 2328 3040 
Q 2066 3103 1784 3103 
Q 1356 3103 1142 2972 
Q 928 2841 928 2578 
Q 928 2378 1081 2264 
Q 1234 2150 1697 2047 
L 1894 2003 
Q 2506 1872 2764 1633 
Q 3022 1394 3022 966 
Q 3022 478 2636 193 
Q 2250 -91 1575 -91 
Q 1294 -91 989 -36 
Q 684 19 347 128 
L 347 722 
Q 666 556 975 473 
Q 1284 391 1588 391 
Q 1994 391 2212 530 
Q 2431 669 2431 922 
Q 2431 1156 2273 1281 
Q 2116 1406 1581 1522 
L 1381 1569 
Q 847 1681 609 1914 
Q 372 2147 372 2553 
Q 372 3047 722 3315 
Q 1072 3584 1716 3584 
Q 2034 3584 2315 3537 
Q 2597 3491 2834 3397 
z
" transform="scale(0.015625)"/>
       <path id="DejaVuSans-5d" d="M 1947 4863 
L 1947 -844 
L 622 -844 
L 622 -397 
L 1369 -397 
L 1369 4416 
L 622 4416 
L 622 4863 
L 1947 4863 
z
" transform="scale(0.015625)"/>
      </defs>
      <use xlink:href="#DejaVuSans-54"/>
      <use xlink:href="#DejaVuSans-69" x="57.958984"/>
      <use xlink:href="#DejaVuSans-6d" x="85.742188"/>
      <use xlink:href="#DejaVuSans-65" x="183.154297"/>
      <use xlink:href="#DejaVuSans-20" x="244.677734"/>
      <use xlink:href="#DejaVuSans-5b" x="276.464844"/>
      <use xlink:href="#DejaVuSans-73" x="315.478516"/>
      <use xlink:href="#DejaVuSans-5d" x="367.578125"/>
     </g>
    </g>
   </g>
   <g id="matplotlib.axis_2">
    <g id="ytick_1">
     <g id="line2d_6">
      <defs>
       <path id="m85ead81e54" d="M 0 0 
L -3.5 0 
" style="stroke: #000000; stroke-width: 0.8"/>
      </defs>
      <g>
       <use xlink:href="#m85ead81e54" x="71" y="252" style="stroke: #000000; stroke-width: 0.8"/>
      </g>
     </g>
     <g id="text_7">
      <!-- 0.0 -->
      <g transform="translate(48.096875 255.799219) scale(0.1 -0.1)">
       <use xlink:href="#DejaVuSans-30"/>
       <use xlink:href="#DejaVuSans-2e" x="63.623047"/>
       <use xlink:href="#DejaVuSans-30" x="95.410156"/>
      </g>
     </g>
    </g>
    <g id="ytick_2">
     <g id="line2d_7">
      <g>
       <use xlink:href="#m85ead81e54" x="71" y="217.2096" style="stroke: #000000; stroke-width: 0.8"/>
      </g>
     </g>
     <g id="text_8">
      <!-- 0.2 -->
      <g transform="translate(48.096875 221.008819) scale(0.1 -0.1)">
       <use xlink:href="#DejaVuSans-30"/>
       <use xlink:href="#DejaVuSans-2e" x="63.623047"/>
       <use xlink:href="#DejaVuSans-32" x="95.410156"/>
      </g>
     </g>
    </g>
    <g id="ytick_3">
     <g id="line2d_8">
      <g>
       <use xlink:href="#m85ead81e54" x="71" y="182.4192" style="stroke: #000000; stroke-width: 0.8"/>
      </g>
     </g>
     <g id="text_9">
      <!-- 0.4 -->
      <g transform="translate(48.096875 186.218419) scale(0.1 -0.1)">
       <use xlink:href="#DejaVuSans-30"/>
       <use xlink:href="#DejaVuSans-2e" x="63.623047"/>
       <use xlink:href="#DejaVuSans-34" x="95.410156"/>
      </g>
     </g>
    </g>
    <g id="ytick_4">
     <g id="line2d_9">
      <g>
       <use xlink:href="#m85ead81e54" x="71" y="147.6288" style="stroke: #000000; stroke-width: 0.8"/>
      </g>
     </g>
     <g id="text_10">
      <!-- 0.6 -->
      <g transform="translate(48.096875 151.428019) scale(0.1 -0.1)">
       <defs>
        <path id="DejaVuSans-36" d="M 2113 2584 
Q 1688 2584 1439 2293 
Q 1191 2003 1191 1497 
Q 1191 994 1439 701 
Q 1688 409 2113 409 
Q 2538 409 2786 701 
Q 3034 994 3034 1497 
Q 3034 2003 2786 2293 
Q 2538 2584 2113 2584 
z
M 3366 4563 
L 3366 3988 
Q 3128 4100 2886 4159 
Q 2644 4219 2406 4219 
Q 1781 4219 1451 3797 
Q 1122 3375 1075 2522 
Q 1259 2794 1537 2939 
Q 1816 3084 2150 3084 
Q 2853 3084 3261 2657 
Q 3669 2231 3669 1497 
Q 3669 778 3244 343 
Q 2819 -91 2113 -91 
Q 1303 -91 875 529 
Q 447 1150 447 2328 
Q 447 3434 972 4092 
Q 1497 4750 2381 4750 
Q 2619 4750 2861 4703 
Q 3103 4656 3366 4563 
z
" transform="scale(0.015625)"/>
       </defs>
       <use xlink:href="#DejaVuSans-30"/>
       <use xlink:href="#DejaVuSans-2e" x="63.623047"/>
       <use xlink:href="#DejaVuSans-36" x="95.410156"/>
      </g>
     </g>
    </g>
    <g id="ytick_5">
     <g id="line2d_10">
      <g>
       <use xlink:href="#m85ead81e54" x="71" y="112.8384" style="stroke: #000000; stroke-width: 0.8"/>
      </g>
     </g>
     <g id="text_11">
      <!-- 0.8 -->
      <g transform="translate(48.096875 116.637619) scale(0.1 -0.1)">
       <defs>
        <path id="DejaVuSans-38" d="M 2034 2216 
Q 1584 2216 1326 1975 
Q 1069 1734 1069 1313 
Q 1069 891 1326 650 
Q 1584 409 2034 409 
Q 2484 409 2743 651 
Q 3003 894 3003 1313 
Q 3003 1734 2745 1975 
Q 2488 2216 2034 2216 
z
M 1403 2484 
Q 997 2584 770 2862 
Q 544 3141 544 3541 
Q 544 4100 942 4425 
Q 1341 4750 2034 4750 
Q 2731 4750 3128 4425 
Q 3525 4100 3525 3541 
Q 3525 3141 3298 2862 
Q 3072 2584 2669 2484 
Q 3125 2378 3379 2068 
Q 3634 1759 3634 1313 
Q 3634 634 3220 271 
Q 2806 -91 2034 -91 
Q 1263 -91 848 271 
Q 434 634 434 1313 
Q 434 1759 690 2068 
Q 947 2378 1403 2484 
z
M 1172 3481 
Q 1172 3119 1398 2916 
Q 1625 2713 2034 2713 
Q 2441 2713 2670 2916 
Q 2900 3119 2900 3481 
Q 2900 3844 2670 4047 
Q 2441 4250 2034 4250 
Q 1625 4250 1398 4047 
Q 1172 3844 1172 3481 
z
" transform="scale(0.015625)"/>
       </defs>
       <use xlink:href="#DejaVuSans-30"/>
       <use xlink:href="#DejaVuSans-2e" x="63.623047"/>
       <use xlink:href="#DejaVuSans-38" x="95.410156"/>
      </g>
     </g>
    </g>
    <g id="ytick_6">
     <g id="line2d_11">
      <g>
       <use xlink:href="#m85ead81e54" x="71" y="78.048" style="stroke: #000000; stroke-width: 0.8"/>
      </g>
     </g>
     <g id="text_12">
      <!-- 1.0 -->
      <g transform="translate(48.096875 81.847219) scale(0.1 -0.1)">
       <defs>
        <path id="DejaVuSans-31" d="M 794 531 
L 1825 531 
L 1825 4091 
L 703 3866 
L 703 4441 
L 1819 4666 
L 2450 4666 
L 2450 531 
L 3481 531 
L 3481 0 
L 794 0 
L 794 531 
z
" transform="scale(0.015625)"/>
       </defs>
       <use xlink:href="#DejaVuSans-31"/>
       <use xlink:href="#DejaVuSans-2e" x="63.623047"/>
       <use xlink:href="#DejaVuSans-30" x="95.410156"/>
      </g>
     </g>
    </g>
    <g id="ytick_7">
     <g id="line2d_12">
      <g>
       <use xlink:href="#m85ead81e54" x="71" y="43.2576" style="stroke: #000000; stroke-width: 0.8"/>
      </g>
     </g>
     <g id="text_13">
      <!-- 1.2 -->
      <g transform="translate(48.096875 47.056819) scale(0.1 -0.1)">
       <use xlink:href="#DejaVuSans-31"/>
       <use xlink:href="#DejaVuSans-2e" x="63.623047"/>
       <use xlink:href="#DejaVuSans-32" x="95.410156"/>
      </g>
     </g>
    </g>
    <g id="text_14">
     <!-- Density -->
     <g transform="translate(42.017187 162.288594) rotate(-90) scale(0.1 -0.1)">
      <defs>
       <path id="DejaVuSans-44" d="M 1259 4147 
L 1259 519 
L 2022 519 
Q 2988 519 3436 956 
Q 3884 1394 3884 2338 
Q 3884 3275 3436 3711 
Q 2988 4147 2022 4147 
L 1259 4147 
z
M 628 4666 
L 1925 4666 
Q 3281 4666 3915 4102 
Q 4550 3538 4550 2338 
Q 4550 1131 3912 565 
Q 3275 0 1925 0 
L 628 0 
L 628 4666 
z
" transform="scale(0.015625)"/>
       <path id="DejaVuSans-6e" d="M 3513 2113 
L 3513 0 
L 2938 0 
L 2938 2094 
Q 2938 2591 2744 2837 
Q 2550 3084 2163 3084 
Q 1697 3084 1428 2787 
Q 1159 2491 1159 1978 
L 1159 0 
L 581 0 
L 581 3500 
L 1159 3500 
L 1159 2956 
Q 1366 3272 1645 3428 
Q 1925 3584 2291 3584 
Q 2894 3584 3203 3211 
Q 3513 2838 3513 2113 
z
" transform="scale(0.015625)"/>
       <path id="DejaVuSans-74" d="M 1172 4494 
L 1172 3500 
L 2356 3500 
L 2356 3053 
L 1172 3053 
L 1172 1153 
Q 1172 725 1289 603 
Q 1406 481 1766 481 
L 2356 481 
L 2356 0 
L 1766 0 
Q 1100 0 847 248 
Q 594 497 594 1153 
L 594 3053 
L 172 3053 
L 172 3500 
L 594 3500 
L 594 4494 
L 1172 4494 
z
" transform="scale(0.015625)"/>
       <path id="DejaVuSans-79" d="M 2059 -325 
Q 1816 -950 1584 -1140 
Q 1353 -1331 966 -1331 
L 506 -1331 
L 506 -850 
L 844 -850 
Q 1081 -850 1212 -737 
Q 1344 -625 1503 -206 
L 1606 56 
L 191 3500 
L 800 3500 
L 1894 763 
L 2988 3500 
L 3597 3500 
L 2059 -325 
z
" transform="scale(0.015625)"/>
      </defs>
      <use xlink:href="#DejaVuSans-44"/>
      <use xlink:href="#DejaVuSans-65" x="77.001953"/>
      <use xlink:href="#DejaVuSans-6e" x="138.525391"/>
      <use xlink:href="#DejaVuSans-73" x="201.904297"/>
      <use xlink:href="#DejaVuSans-69" x="254.003906"/>
      <use xlink:href="#DejaVuSans-74" x="281.787109"/>
      <use xlink:href="#DejaVuSans-79" x="320.996094"/>
     </g>
    </g>
   </g>
   <g id="line2d_13">
    <path d="M 12.333204 251.910049 
L 15.176086 251.505158 
L 18.018968 249.968509 
L 20.861851 245.713241 
L 23.704733 237.115406 
L 26.547615 224.442137 
L 29.390498 210.819143 
L 32.23338 200.144889 
L 35.076263 194.037238 
L 37.919145 191.396507 
L 40.762027 190.247119 
L 46.447792 188.204316 
L 49.290674 187.557799 
L 52.133557 187.832761 
L 54.976439 188.790858 
L 57.819322 189.574308 
L 60.662204 189.565628 
L 63.505086 188.888837 
L 66.347969 188.044767 
L 69.190851 187.384607 
L 72.033733 186.99365 
L 80.562381 186.357219 
L 83.405263 186.475369 
L 86.248145 187.189593 
L 89.091028 188.479523 
L 91.93391 189.973207 
L 94.776792 191.291511 
L 97.619675 192.206889 
L 100.462557 192.452387 
L 103.30544 191.729112 
L 106.148322 190.010189 
L 108.991204 187.739417 
L 111.834087 185.783291 
L 114.676969 185.0416 
L 117.519851 185.743247 
L 120.362734 187.190429 
L 123.205616 188.48529 
L 126.048499 189.335646 
L 128.891381 189.891655 
L 131.734263 190.112025 
L 134.577146 189.764228 
L 137.420028 188.976347 
L 140.26291 188.372602 
L 143.105793 188.504847 
L 145.948675 189.32675 
L 148.791558 190.335283 
L 151.63444 191.079353 
L 154.477322 191.423788 
L 157.320205 191.421345 
L 160.163087 191.102776 
L 168.691734 189.335045 
L 171.534617 189.324871 
L 174.377499 189.663224 
L 177.220381 189.886188 
L 180.063264 189.630751 
L 182.906146 189.099973 
L 185.749029 188.800896 
L 188.591911 188.94697 
L 194.277676 189.798598 
L 197.120558 189.934269 
L 199.96344 189.628844 
L 205.649205 188.419643 
L 208.492088 188.077344 
L 211.33497 188.214437 
L 214.177852 189.111225 
L 219.863617 192.242268 
L 222.706499 193.074859 
L 225.549382 193.108098 
L 228.392264 192.631137 
L 231.235147 191.825311 
L 236.920911 189.651325 
L 239.763794 188.566565 
L 242.606676 187.719221 
L 245.449558 187.437421 
L 248.292441 187.849085 
L 251.135323 188.454001 
L 253.978206 188.476411 
L 259.66397 187.111462 
L 262.506853 187.146332 
L 265.349735 187.912235 
L 268.192617 188.958668 
L 271.0355 189.88296 
L 273.878382 190.444433 
L 276.721265 190.458602 
L 279.564147 189.89705 
L 285.249912 188.020918 
L 288.092794 187.281634 
L 290.935676 186.988425 
L 293.778559 187.351793 
L 296.621441 188.462821 
L 299.464324 190.001229 
L 302.307206 191.226263 
L 305.150088 191.569115 
L 307.992971 191.089718 
L 313.678735 189.542892 
L 316.521618 189.206714 
L 319.3645 189.34182 
L 325.050265 190.125426 
L 327.893147 189.921281 
L 330.73603 189.03745 
L 336.421794 186.460842 
L 339.264677 185.679908 
L 342.107559 185.475032 
L 344.950442 185.74617 
L 353.479089 187.545817 
L 359.164853 188.188638 
L 362.007736 188.825701 
L 364.850618 189.64485 
L 367.693501 190.226719 
L 370.536383 190.283525 
L 373.379265 189.890133 
L 379.06503 188.844405 
L 381.907912 188.577523 
L 384.750795 188.481946 
L 387.593677 188.105885 
L 390.43656 186.770765 
L 393.279442 184.507193 
L 396.122324 182.619973 
L 398.965207 182.822875 
L 401.808089 185.805718 
L 407.493854 195.444542 
L 410.336736 198.559136 
L 413.179619 199.453655 
L 416.022501 198.642707 
L 418.865383 197.187785 
L 421.708266 196.055543 
L 424.551148 195.611948 
L 427.394031 195.672016 
L 430.236913 195.848119 
L 433.079795 195.722479 
L 435.922678 194.98585 
L 438.76556 193.613112 
L 447.294207 188.31445 
L 450.13709 186.979569 
L 452.979972 186.348218 
L 455.822854 186.772313 
L 458.665737 188.220054 
L 461.508619 190.116771 
L 464.351501 191.608885 
L 467.194384 192.057208 
L 470.037266 191.525346 
L 472.880149 190.823352 
L 475.723031 190.840069 
L 478.565913 191.800552 
L 481.408796 193.189291 
L 484.251678 194.251832 
L 487.09456 194.534225 
L 489.937443 194.026054 
L 492.780325 192.929768 
L 495.623208 191.439418 
L 501.308972 188.1842 
L 504.151855 187.199515 
L 506.994737 187.035978 
L 509.837619 187.391271 
L 512.680502 187.616905 
L 515.523384 187.382024 
L 518.366267 186.93817 
L 521.209149 186.64285 
L 529.737796 186.238964 
L 532.580678 186.276237 
L 538.266443 187.113185 
L 541.109326 187.234968 
L 543.952208 187.096931 
L 546.79509 187.320861 
L 549.637973 188.509675 
L 552.480855 190.980092 
L 555.323737 195.288955 
L 558.16662 202.6232 
L 561.009502 213.686685 
L 563.852385 226.888116 
L 566.695267 238.704265 
L 569.538149 246.493959 
L 572.381032 250.255054 
L 575.223914 251.58291 
L 577 251.796966 
L 577 251.796966 
" clip-path="url(#p0cddf849f3)" style="fill: none; stroke: #1c4981; stroke-width: 2; stroke-linecap: square"/>
   </g>
   <g id="line2d_14">
    <path d="M 13.166076 251.87988 
L 16.000587 251.281313 
L 18.835099 248.894035 
L 21.669611 242.182477 
L 24.504123 228.874839 
L 30.173146 191.87653 
L 33.007658 179.123502 
L 35.84217 173.023672 
L 38.676682 171.141279 
L 41.511194 170.709194 
L 44.345705 170.155379 
L 50.014729 168.248585 
L 52.849241 168.127705 
L 58.518264 169.1112 
L 61.352776 169.07245 
L 67.0218 168.302339 
L 72.690823 167.511886 
L 75.525335 167.131797 
L 81.194359 166.109501 
L 84.028871 165.962557 
L 86.863382 166.468692 
L 89.697894 167.629961 
L 95.366918 170.584614 
L 98.20143 171.48231 
L 101.035941 171.531799 
L 103.870453 170.648 
L 106.704965 169.000274 
L 109.539477 167.060136 
L 112.373989 165.651955 
L 115.2085 165.602623 
L 118.043012 166.923366 
L 120.877524 168.579695 
L 123.712036 169.53524 
L 126.546548 169.744085 
L 129.38106 169.69078 
L 132.215571 169.449531 
L 135.050083 168.824729 
L 137.884595 167.99013 
L 140.719107 167.431423 
L 143.553619 167.506648 
L 146.38813 168.247773 
L 152.057154 170.377948 
L 154.891666 170.941862 
L 157.726178 170.875534 
L 160.560689 170.185969 
L 163.395201 169.154426 
L 166.229713 168.28919 
L 169.064225 168.039193 
L 171.898737 168.494346 
L 174.733248 169.214346 
L 177.56776 169.457792 
L 180.402272 168.926379 
L 183.236784 168.164255 
L 186.071296 167.900719 
L 188.905807 168.282159 
L 194.574831 169.554446 
L 197.409343 169.835531 
L 200.243855 169.9206 
L 203.078366 170.156847 
L 208.74739 171.365669 
L 211.581902 171.999163 
L 214.416414 172.836984 
L 217.250925 173.838919 
L 220.085437 174.381609 
L 222.919949 174.064473 
L 225.754461 173.162231 
L 228.588973 172.020645 
L 234.257996 169.440203 
L 237.092508 168.380167 
L 239.92702 167.560214 
L 242.761532 166.973661 
L 245.596043 166.901193 
L 248.430555 167.529212 
L 251.265067 168.286857 
L 254.099579 168.258145 
L 259.768602 166.524458 
L 262.603114 166.416027 
L 265.437626 166.991705 
L 268.272138 167.725583 
L 271.10665 168.177859 
L 273.941161 168.289944 
L 290.948232 168.196152 
L 293.782744 168.763978 
L 296.617256 170.095493 
L 299.451768 171.959734 
L 302.28628 173.442982 
L 305.120791 173.726732 
L 307.955303 172.757582 
L 310.789815 171.183676 
L 313.624327 169.7728 
L 316.458839 168.897419 
L 319.29335 168.596683 
L 322.127862 168.770402 
L 324.962374 169.108581 
L 327.796886 169.13721 
L 330.631398 168.483031 
L 333.465909 167.172167 
L 336.300421 165.67077 
L 339.134933 164.499452 
L 341.969445 163.885676 
L 344.803957 163.79458 
L 347.638468 164.064533 
L 353.307492 164.906853 
L 356.142004 165.43706 
L 358.976516 166.381797 
L 361.811027 167.965013 
L 364.645539 169.89264 
L 367.480051 171.394874 
L 370.314563 171.89231 
L 373.149075 171.504055 
L 375.983586 170.798721 
L 378.818098 170.215228 
L 384.487122 169.580691 
L 387.321634 168.998198 
L 390.156145 167.542607 
L 392.990657 165.441489 
L 395.825169 164.22954 
L 398.659681 165.454251 
L 401.494193 169.139278 
L 404.328704 173.934033 
L 407.163216 178.189542 
L 409.997728 180.704321 
L 412.83224 181.056487 
L 415.666752 179.653385 
L 418.501263 177.470023 
L 421.335775 175.498217 
L 424.170287 174.217071 
L 427.004799 173.55586 
L 438.342846 172.176962 
L 441.177358 171.452358 
L 444.01187 170.44858 
L 449.680893 167.972781 
L 452.515405 167.291643 
L 455.349917 167.711463 
L 458.184429 169.21251 
L 461.01894 171.080093 
L 463.853452 172.355022 
L 466.687964 172.436028 
L 469.522476 171.433802 
L 472.356988 170.171075 
L 475.1915 169.689146 
L 478.026011 170.434703 
L 480.860523 171.926908 
L 483.695035 173.246925 
L 486.529547 173.761296 
L 489.364059 173.404751 
L 492.19857 172.43413 
L 495.033082 171.086948 
L 500.702106 168.07323 
L 503.536618 167.149848 
L 506.371129 166.989001 
L 509.205641 167.233677 
L 512.040153 167.225136 
L 517.709177 166.22929 
L 520.543688 166.161244 
L 523.3782 166.433931 
L 526.212712 166.588995 
L 529.047224 166.467158 
L 531.881736 166.476397 
L 534.716247 167.114982 
L 537.550759 168.358069 
L 540.385271 169.750195 
L 543.219783 170.951069 
L 548.888806 172.91722 
L 551.723318 174.159215 
L 554.55783 176.851377 
L 557.392342 183.503432 
L 560.226854 196.401918 
L 565.895877 231.675386 
L 568.730389 243.640602 
L 571.564901 249.440531 
L 574.399413 251.426409 
L 577 251.867314 
L 577 251.867314 
" clip-path="url(#p0cddf849f3)" style="fill: none; stroke: #8a1218; stroke-width: 2; stroke-linecap: square"/>
   </g>
   <g id="line2d_15">
    <path d="M 12.6055 251.900992 
L 15.445533 251.438305 
L 18.285567 249.643784 
L 21.1256 244.612634 
L 23.965634 234.414803 
L 26.805667 219.475262 
L 29.645701 203.675088 
L 32.485735 191.648207 
L 35.325768 185.122561 
L 38.165802 182.667649 
L 43.845869 181.348328 
L 49.525936 179.363014 
L 52.36597 179.120532 
L 55.206003 179.423431 
L 58.046037 179.468073 
L 60.88607 178.77315 
L 66.566137 176.396094 
L 69.406171 175.595294 
L 72.246205 175.215859 
L 77.926272 174.890509 
L 80.766305 174.63367 
L 83.606339 174.559713 
L 86.446372 175.112172 
L 89.286406 176.435736 
L 92.12644 178.137244 
L 94.966473 179.618526 
L 97.806507 180.4616 
L 100.64654 180.51227 
L 103.486574 179.824253 
L 106.326607 178.536516 
L 109.166641 176.873647 
L 112.006675 175.425016 
L 114.846708 175.064561 
L 117.686742 176.101463 
L 120.526775 177.815526 
L 123.366809 179.24039 
L 126.206842 180.011969 
L 129.046876 180.184432 
L 131.88691 179.734014 
L 134.726943 178.665544 
L 137.566977 177.38878 
L 140.40701 176.582824 
L 143.247044 176.613495 
L 146.087077 177.274119 
L 151.767145 178.86261 
L 154.607178 179.429774 
L 157.447212 179.714317 
L 160.287245 179.560323 
L 168.807346 177.920954 
L 171.64738 177.954444 
L 177.327447 178.730011 
L 183.007514 179.004946 
L 185.847547 179.56941 
L 191.527615 181.706203 
L 194.367648 182.422462 
L 197.207682 182.419992 
L 200.047715 181.67491 
L 208.567816 178.389938 
L 211.40785 177.618783 
L 214.247883 177.599227 
L 217.087917 178.436123 
L 219.92795 179.471102 
L 222.767984 180.005767 
L 225.608017 179.985296 
L 228.448051 179.668929 
L 231.288085 179.123258 
L 239.808185 176.777525 
L 242.648219 176.318612 
L 245.488252 176.358524 
L 248.328286 177.008838 
L 251.16832 177.813495 
L 254.008353 178.017579 
L 259.68842 176.947207 
L 262.528454 177.131217 
L 265.368487 178.104059 
L 268.208521 179.324304 
L 271.048555 180.214602 
L 273.888588 180.637825 
L 276.728622 180.808721 
L 279.568655 180.820028 
L 282.408689 180.506069 
L 285.248722 179.7794 
L 288.088756 178.83627 
L 290.92879 178.045384 
L 293.768823 177.839522 
L 296.608857 178.466068 
L 299.44889 179.566864 
L 302.288924 180.320294 
L 305.128958 180.184036 
L 307.968991 179.269233 
L 310.809025 178.05613 
L 313.649058 177.005256 
L 316.489092 176.399129 
L 319.329125 176.3423 
L 322.169159 176.759508 
L 325.009193 177.364544 
L 327.849226 177.708137 
L 330.68926 177.411343 
L 336.369327 175.516168 
L 339.20936 174.949514 
L 342.049394 174.927415 
L 344.889428 175.267262 
L 353.409528 176.904619 
L 359.089595 177.621061 
L 361.929629 178.295195 
L 364.769663 179.278252 
L 367.609696 180.117469 
L 370.44973 180.389714 
L 373.289763 180.098722 
L 376.129797 179.492922 
L 381.809864 177.916025 
L 384.649898 177.061803 
L 387.489931 175.984431 
L 390.329965 174.239559 
L 393.169998 171.992532 
L 396.010032 170.70938 
L 398.850065 172.158873 
L 401.690099 176.650332 
L 404.530133 182.613779 
L 407.370166 187.838992 
L 410.2102 190.938856 
L 413.050233 191.778026 
L 415.890267 191.017072 
L 421.570334 188.210324 
L 424.410368 187.223184 
L 432.930468 185.003358 
L 435.770502 183.897213 
L 438.610535 182.433377 
L 444.290603 179.135465 
L 447.130636 177.592391 
L 449.97067 176.27059 
L 452.810703 175.538118 
L 455.650737 175.743229 
L 458.49077 176.776342 
L 461.330804 178.018776 
L 464.170838 178.763136 
L 467.010871 178.663273 
L 469.850905 177.951804 
L 472.690938 177.438419 
L 475.530972 178.03158 
L 478.371005 179.925255 
L 481.211039 182.350048 
L 484.051073 184.199427 
L 486.891106 184.782823 
L 489.73114 184.078437 
L 492.571173 182.53567 
L 498.25124 178.884537 
L 501.091274 177.378857 
L 503.931308 176.480523 
L 506.771341 176.303408 
L 509.611375 176.440622 
L 512.451408 176.237732 
L 515.291442 175.475055 
L 518.131475 174.5687 
L 520.971509 174.05185 
L 523.811543 174.032079 
L 535.171677 174.82061 
L 538.01171 175.103542 
L 540.851744 175.086257 
L 543.691778 174.878006 
L 546.531811 175.043804 
L 549.371845 176.185275 
L 552.211878 178.729761 
L 555.051912 183.416593 
L 557.891945 191.741755 
L 560.731979 204.751899 
L 563.572013 220.733443 
L 566.412046 235.348292 
L 569.25208 245.10638 
L 572.092113 249.833169 
L 574.932147 251.490884 
L 577 251.797144 
L 577 251.797144 
" clip-path="url(#p0cddf849f3)" style="fill: none; stroke-dasharray: 2,3.3; stroke-dashoffset: 0; stroke: #1c4981; stroke-width: 2"/>
   </g>
   <g id="line2d_16">
    <path d="M 12.55211 251.897384 
L 15.392793 251.420339 
L 18.233475 249.57786 
L 21.074157 244.435452 
L 23.91484 234.06647 
L 26.755522 218.963011 
L 29.596204 203.060042 
L 32.436887 190.93407 
L 35.277569 184.24563 
L 38.118251 181.656145 
L 40.958934 181.051986 
L 46.640298 180.839776 
L 49.48098 180.905417 
L 52.321663 181.504281 
L 55.162345 182.422087 
L 58.003027 182.997376 
L 60.84371 182.810834 
L 63.684392 181.990362 
L 66.525074 180.953088 
L 69.365757 180.095533 
L 72.206439 179.612616 
L 80.728486 179.037661 
L 83.569168 179.105174 
L 86.40985 179.727876 
L 92.091215 181.999467 
L 94.931897 182.708843 
L 97.77258 182.784989 
L 100.613262 182.32183 
L 103.453944 181.384191 
L 106.294627 179.957939 
L 109.135309 178.224412 
L 111.975991 176.689074 
L 114.816674 175.923204 
L 117.657356 176.114065 
L 131.860767 179.951908 
L 134.70145 180.460609 
L 137.542132 180.548961 
L 140.382814 180.480466 
L 143.223497 180.670142 
L 146.064179 181.326564 
L 148.904861 182.21346 
L 151.745544 182.811655 
L 154.586226 182.791091 
L 157.426908 182.218633 
L 160.26759 181.399189 
L 163.108273 180.69803 
L 165.948955 180.388122 
L 168.789637 180.507259 
L 174.471002 181.078995 
L 177.311684 180.945044 
L 182.993049 179.907997 
L 185.833731 179.683628 
L 188.674413 179.844532 
L 191.515096 180.160301 
L 194.355778 180.354163 
L 197.19646 180.229648 
L 202.877825 179.309508 
L 205.718507 179.093936 
L 211.399872 179.055056 
L 214.240554 179.404709 
L 217.081237 180.312874 
L 219.921919 181.500498 
L 222.762601 182.530797 
L 225.603283 183.201069 
L 228.443966 183.454667 
L 231.284648 183.242574 
L 234.12533 182.587055 
L 236.966013 181.612792 
L 239.806695 180.507432 
L 242.647377 179.56201 
L 245.48806 179.119633 
L 248.328742 179.241069 
L 251.169424 179.494679 
L 254.010107 179.335555 
L 259.691471 177.997331 
L 262.532153 177.713858 
L 265.372836 177.99155 
L 271.0542 179.243209 
L 273.894883 179.386967 
L 276.735565 179.025373 
L 279.576247 178.499839 
L 282.41693 178.206928 
L 285.257612 178.277519 
L 288.098294 178.617933 
L 290.938977 179.149466 
L 293.779659 179.98169 
L 296.620341 181.335049 
L 299.461023 183.083785 
L 302.301706 184.529786 
L 305.142388 184.997617 
L 307.98307 184.505704 
L 310.823753 183.636981 
L 313.664435 182.922769 
L 316.505117 182.506023 
L 327.867847 181.606339 
L 330.708529 180.951613 
L 333.549211 179.875301 
L 336.389893 178.609597 
L 339.230576 177.524895 
L 342.071258 176.831362 
L 344.91194 176.524401 
L 350.593305 176.536401 
L 356.27467 176.805242 
L 359.115352 177.355456 
L 361.956034 178.505177 
L 367.637399 181.87151 
L 370.478081 183.081562 
L 373.318763 183.580712 
L 376.159446 183.588084 
L 381.84081 183.176527 
L 384.681493 182.643404 
L 387.522175 181.538703 
L 390.362857 179.635431 
L 393.20354 177.173071 
L 396.044222 175.100227 
L 398.884904 174.562104 
L 401.725587 176.144204 
L 404.566269 179.509297 
L 407.406951 183.408279 
L 410.247633 186.245379 
L 413.088316 187.124233 
L 415.928998 186.365973 
L 418.76968 184.97084 
L 421.610363 183.779681 
L 424.451045 183.121954 
L 427.291727 182.918421 
L 430.13241 182.862766 
L 432.973092 182.579184 
L 435.813774 181.823585 
L 441.495139 179.39541 
L 444.335821 178.491899 
L 447.176503 178.129617 
L 450.017186 178.208647 
L 452.857868 178.5763 
L 455.69855 179.20108 
L 464.220597 181.713026 
L 467.06128 181.833977 
L 472.742644 181.0058 
L 475.583326 181.031907 
L 478.424009 181.676079 
L 481.264691 182.592783 
L 484.105373 183.206952 
L 486.946056 183.148509 
L 489.786738 182.446028 
L 492.62742 181.371706 
L 498.308785 178.989783 
L 501.149467 177.968935 
L 503.99015 177.326939 
L 506.830832 177.127394 
L 509.671514 177.087728 
L 512.512196 176.790194 
L 518.193561 175.519156 
L 521.034243 175.256379 
L 523.874926 175.361748 
L 526.715608 175.640662 
L 529.55629 176.042884 
L 532.396973 176.692485 
L 538.078337 178.476003 
L 540.91902 179.049888 
L 543.759702 179.43445 
L 546.600384 179.997933 
L 549.441066 181.043332 
L 552.281749 182.968735 
L 555.122431 186.86826 
L 557.963113 194.580036 
L 560.803796 207.114729 
L 563.644478 222.528961 
L 566.48516 236.463225 
L 569.325843 245.635833 
L 572.166525 250.019262 
L 575.007207 251.53853 
L 577 251.806363 
L 577 251.806363 
" clip-path="url(#p0cddf849f3)" style="fill: none; stroke-dasharray: 2,3.3; stroke-dashoffset: 0; stroke: #8a1218; stroke-width: 2"/>
   </g>
   <g id="patch_3">
    <path d="M 71 252 
L 71 43.2576 
" style="fill: none; stroke: #000000; stroke-width: 0.8; stroke-linejoin: miter; stroke-linecap: square"/>
   </g>
   <g id="patch_4">
    <path d="M 116.64 253 
L 473.76 253 
" style="fill: none; stroke: #000000; stroke-width: 0.8; stroke-linejoin: miter; stroke-linecap: square"/>
   </g>
   <g id="text_15">
    <!-- Open Loop Simple Spikes CS+US _open -->
    <g transform="translate(176.200312 28.56) scale(0.12 -0.12)">
     <defs>
      <path id="DejaVuSans-4f" d="M 2522 4238 
Q 1834 4238 1429 3725 
Q 1025 3213 1025 2328 
Q 1025 1447 1429 934 
Q 1834 422 2522 422 
Q 3209 422 3611 934 
Q 4013 1447 4013 2328 
Q 4013 3213 3611 3725 
Q 3209 4238 2522 4238 
z
M 2522 4750 
Q 3503 4750 4090 4092 
Q 4678 3434 4678 2328 
Q 4678 1225 4090 567 
Q 3503 -91 2522 -91 
Q 1538 -91 948 565 
Q 359 1222 359 2328 
Q 359 3434 948 4092 
Q 1538 4750 2522 4750 
z
" transform="scale(0.015625)"/>
      <path id="DejaVuSans-70" d="M 1159 525 
L 1159 -1331 
L 581 -1331 
L 581 3500 
L 1159 3500 
L 1159 2969 
Q 1341 3281 1617 3432 
Q 1894 3584 2278 3584 
Q 2916 3584 3314 3078 
Q 3713 2572 3713 1747 
Q 3713 922 3314 415 
Q 2916 -91 2278 -91 
Q 1894 -91 1617 61 
Q 1341 213 1159 525 
z
M 3116 1747 
Q 3116 2381 2855 2742 
Q 2594 3103 2138 3103 
Q 1681 3103 1420 2742 
Q 1159 2381 1159 1747 
Q 1159 1113 1420 752 
Q 1681 391 2138 391 
Q 2594 391 2855 752 
Q 3116 1113 3116 1747 
z
" transform="scale(0.015625)"/>
      <path id="DejaVuSans-4c" d="M 628 4666 
L 1259 4666 
L 1259 531 
L 3531 531 
L 3531 0 
L 628 0 
L 628 4666 
z
" transform="scale(0.015625)"/>
      <path id="DejaVuSans-6f" d="M 1959 3097 
Q 1497 3097 1228 2736 
Q 959 2375 959 1747 
Q 959 1119 1226 758 
Q 1494 397 1959 397 
Q 2419 397 2687 759 
Q 2956 1122 2956 1747 
Q 2956 2369 2687 2733 
Q 2419 3097 1959 3097 
z
M 1959 3584 
Q 2709 3584 3137 3096 
Q 3566 2609 3566 1747 
Q 3566 888 3137 398 
Q 2709 -91 1959 -91 
Q 1206 -91 779 398 
Q 353 888 353 1747 
Q 353 2609 779 3096 
Q 1206 3584 1959 3584 
z
" transform="scale(0.015625)"/>
      <path id="DejaVuSans-53" d="M 3425 4513 
L 3425 3897 
Q 3066 4069 2747 4153 
Q 2428 4238 2131 4238 
Q 1616 4238 1336 4038 
Q 1056 3838 1056 3469 
Q 1056 3159 1242 3001 
Q 1428 2844 1947 2747 
L 2328 2669 
Q 3034 2534 3370 2195 
Q 3706 1856 3706 1288 
Q 3706 609 3251 259 
Q 2797 -91 1919 -91 
Q 1588 -91 1214 -16 
Q 841 59 441 206 
L 441 856 
Q 825 641 1194 531 
Q 1563 422 1919 422 
Q 2459 422 2753 634 
Q 3047 847 3047 1241 
Q 3047 1584 2836 1778 
Q 2625 1972 2144 2069 
L 1759 2144 
Q 1053 2284 737 2584 
Q 422 2884 422 3419 
Q 422 4038 858 4394 
Q 1294 4750 2059 4750 
Q 2388 4750 2728 4690 
Q 3069 4631 3425 4513 
z
" transform="scale(0.015625)"/>
      <path id="DejaVuSans-6c" d="M 603 4863 
L 1178 4863 
L 1178 0 
L 603 0 
L 603 4863 
z
" transform="scale(0.015625)"/>
      <path id="DejaVuSans-6b" d="M 581 4863 
L 1159 4863 
L 1159 1991 
L 2875 3500 
L 3609 3500 
L 1753 1863 
L 3688 0 
L 2938 0 
L 1159 1709 
L 1159 0 
L 581 0 
L 581 4863 
z
" transform="scale(0.015625)"/>
      <path id="DejaVuSans-43" d="M 4122 4306 
L 4122 3641 
Q 3803 3938 3442 4084 
Q 3081 4231 2675 4231 
Q 1875 4231 1450 3742 
Q 1025 3253 1025 2328 
Q 1025 1406 1450 917 
Q 1875 428 2675 428 
Q 3081 428 3442 575 
Q 3803 722 4122 1019 
L 4122 359 
Q 3791 134 3420 21 
Q 3050 -91 2638 -91 
Q 1578 -91 968 557 
Q 359 1206 359 2328 
Q 359 3453 968 4101 
Q 1578 4750 2638 4750 
Q 3056 4750 3426 4639 
Q 3797 4528 4122 4306 
z
" transform="scale(0.015625)"/>
      <path id="DejaVuSans-2b" d="M 2944 4013 
L 2944 2272 
L 4684 2272 
L 4684 1741 
L 2944 1741 
L 2944 0 
L 2419 0 
L 2419 1741 
L 678 1741 
L 678 2272 
L 2419 2272 
L 2419 4013 
L 2944 4013 
z
" transform="scale(0.015625)"/>
      <path id="DejaVuSans-55" d="M 556 4666 
L 1191 4666 
L 1191 1831 
Q 1191 1081 1462 751 
Q 1734 422 2344 422 
Q 2950 422 3222 751 
Q 3494 1081 3494 1831 
L 3494 4666 
L 4128 4666 
L 4128 1753 
Q 4128 841 3676 375 
Q 3225 -91 2344 -91 
Q 1459 -91 1007 375 
Q 556 841 556 1753 
L 556 4666 
z
" transform="scale(0.015625)"/>
      <path id="DejaVuSans-5f" d="M 3263 -1063 
L 3263 -1509 
L -63 -1509 
L -63 -1063 
L 3263 -1063 
z
" transform="scale(0.015625)"/>
     </defs>
     <use xlink:href="#DejaVuSans-4f"/>
     <use xlink:href="#DejaVuSans-70" x="78.710938"/>
     <use xlink:href="#DejaVuSans-65" x="142.1875"/>
     <use xlink:href="#DejaVuSans-6e" x="203.710938"/>
     <use xlink:href="#DejaVuSans-20" x="267.089844"/>
     <use xlink:href="#DejaVuSans-4c" x="298.876953"/>
     <use xlink:href="#DejaVuSans-6f" x="352.839844"/>
     <use xlink:href="#DejaVuSans-6f" x="414.021484"/>
     <use xlink:href="#DejaVuSans-70" x="475.203125"/>
     <use xlink:href="#DejaVuSans-20" x="538.679688"/>
     <use xlink:href="#DejaVuSans-53" x="570.466797"/>
     <use xlink:href="#DejaVuSans-69" x="633.943359"/>
     <use xlink:href="#DejaVuSans-6d" x="661.726562"/>
     <use xlink:href="#DejaVuSans-70" x="759.138672"/>
     <use xlink:href="#DejaVuSans-6c" x="822.615234"/>
     <use xlink:href="#DejaVuSans-65" x="850.398438"/>
     <use xlink:href="#DejaVuSans-20" x="911.921875"/>
     <use xlink:href="#DejaVuSans-53" x="943.708984"/>
     <use xlink:href="#DejaVuSans-70" x="1007.185547"/>
     <use xlink:href="#DejaVuSans-69" x="1070.662109"/>
     <use xlink:href="#DejaVuSans-6b" x="1098.445312"/>
     <use xlink:href="#DejaVuSans-65" x="1152.730469"/>
     <use xlink:href="#DejaVuSans-73" x="1214.253906"/>
     <use xlink:href="#DejaVuSans-20" x="1266.353516"/>
     <use xlink:href="#DejaVuSans-43" x="1298.140625"/>
     <use xlink:href="#DejaVuSans-53" x="1367.964844"/>
     <use xlink:href="#DejaVuSans-2b" x="1431.441406"/>
     <use xlink:href="#DejaVuSans-55" x="1515.230469"/>
     <use xlink:href="#DejaVuSans-53" x="1588.423828"/>
     <use xlink:href="#DejaVuSans-20" x="1651.900391"/>
     <use xlink:href="#DejaVuSans-5f" x="1683.6875"/>
     <use xlink:href="#DejaVuSans-6f" x="1733.6875"/>
     <use xlink:href="#DejaVuSans-70" x="1794.869141"/>
     <use xlink:href="#DejaVuSans-65" x="1858.345703"/>
     <use xlink:href="#DejaVuSans-6e" x="1919.869141"/>
    </g>
   </g>
   <g id="legend_1">
    <g id="patch_5">
     <path d="M 79 101.2725 
L 292.442187 101.2725 
Q 294.442187 101.2725 294.442187 99.2725 
L 294.442187 41.56 
Q 294.442187 39.56 292.442187 39.56 
L 79 39.56 
Q 77 39.56 77 41.56 
L 77 99.2725 
Q 77 101.2725 79 101.2725 
z
" style="fill: #ffffff; opacity: 0.8; stroke: #cccccc; stroke-linejoin: miter"/>
    </g>
    <g id="patch_6">
     <path d="M 81 51.158437 
L 101 51.158437 
L 101 44.158437 
L 81 44.158437 
z
" style="fill: #00ffff; opacity: 0.2"/>
    </g>
    <g id="text_16">
     <!-- CS -->
     <g transform="translate(109 51.158437) scale(0.1 -0.1)">
      <use xlink:href="#DejaVuSans-43"/>
      <use xlink:href="#DejaVuSans-53" x="69.824219"/>
     </g>
    </g>
    <g id="patch_7">
     <path d="M 81 65.836562 
L 101 65.836562 
L 101 58.836562 
L 81 58.836562 
z
" style="fill: #808080; opacity: 0.5"/>
    </g>
    <g id="text_17">
     <!-- US -->
     <g transform="translate(109 65.836562) scale(0.1 -0.1)">
      <use xlink:href="#DejaVuSans-55"/>
      <use xlink:href="#DejaVuSans-53" x="73.193359"/>
     </g>
    </g>
    <g id="patch_8">
     <path d="M 81 80.514687 
L 101 80.514687 
L 101 73.514687 
L 81 73.514687 
z
" style="fill: #1c4981"/>
    </g>
    <g id="text_18">
     <!-- Upbound -->
     <g transform="translate(109 80.514687) scale(0.1 -0.1)">
      <defs>
       <path id="DejaVuSans-62" d="M 3116 1747 
Q 3116 2381 2855 2742 
Q 2594 3103 2138 3103 
Q 1681 3103 1420 2742 
Q 1159 2381 1159 1747 
Q 1159 1113 1420 752 
Q 1681 391 2138 391 
Q 2594 391 2855 752 
Q 3116 1113 3116 1747 
z
M 1159 2969 
Q 1341 3281 1617 3432 
Q 1894 3584 2278 3584 
Q 2916 3584 3314 3078 
Q 3713 2572 3713 1747 
Q 3713 922 3314 415 
Q 2916 -91 2278 -91 
Q 1894 -91 1617 61 
Q 1341 213 1159 525 
L 1159 0 
L 581 0 
L 581 4863 
L 1159 4863 
L 1159 2969 
z
" transform="scale(0.015625)"/>
       <path id="DejaVuSans-75" d="M 544 1381 
L 544 3500 
L 1119 3500 
L 1119 1403 
Q 1119 906 1312 657 
Q 1506 409 1894 409 
Q 2359 409 2629 706 
Q 2900 1003 2900 1516 
L 2900 3500 
L 3475 3500 
L 3475 0 
L 2900 0 
L 2900 538 
Q 2691 219 2414 64 
Q 2138 -91 1772 -91 
Q 1169 -91 856 284 
Q 544 659 544 1381 
z
M 1991 3584 
L 1991 3584 
z
" transform="scale(0.015625)"/>
       <path id="DejaVuSans-64" d="M 2906 2969 
L 2906 4863 
L 3481 4863 
L 3481 0 
L 2906 0 
L 2906 525 
Q 2725 213 2448 61 
Q 2172 -91 1784 -91 
Q 1150 -91 751 415 
Q 353 922 353 1747 
Q 353 2572 751 3078 
Q 1150 3584 1784 3584 
Q 2172 3584 2448 3432 
Q 2725 3281 2906 2969 
z
M 947 1747 
Q 947 1113 1208 752 
Q 1469 391 1925 391 
Q 2381 391 2643 752 
Q 2906 1113 2906 1747 
Q 2906 2381 2643 2742 
Q 2381 3103 1925 3103 
Q 1469 3103 1208 2742 
Q 947 2381 947 1747 
z
" transform="scale(0.015625)"/>
      </defs>
      <use xlink:href="#DejaVuSans-55"/>
      <use xlink:href="#DejaVuSans-70" x="73.193359"/>
      <use xlink:href="#DejaVuSans-62" x="136.669922"/>
      <use xlink:href="#DejaVuSans-6f" x="200.146484"/>
      <use xlink:href="#DejaVuSans-75" x="261.328125"/>
      <use xlink:href="#DejaVuSans-6e" x="324.707031"/>
      <use xlink:href="#DejaVuSans-64" x="388.085938"/>
     </g>
    </g>
    <g id="patch_9">
     <path d="M 81 95.192813 
L 101 95.192813 
L 101 88.192813 
L 81 88.192813 
z
" style="fill: #8a1218"/>
    </g>
    <g id="text_19">
     <!-- Downbound -->
     <g transform="translate(109 95.192813) scale(0.1 -0.1)">
      <defs>
       <path id="DejaVuSans-77" d="M 269 3500 
L 844 3500 
L 1563 769 
L 2278 3500 
L 2956 3500 
L 3675 769 
L 4391 3500 
L 4966 3500 
L 4050 0 
L 3372 0 
L 2619 2869 
L 1863 0 
L 1184 0 
L 269 3500 
z
" transform="scale(0.015625)"/>
      </defs>
      <use xlink:href="#DejaVuSans-44"/>
      <use xlink:href="#DejaVuSans-6f" x="77.001953"/>
      <use xlink:href="#DejaVuSans-77" x="138.183594"/>
      <use xlink:href="#DejaVuSans-6e" x="219.970703"/>
      <use xlink:href="#DejaVuSans-62" x="283.349609"/>
      <use xlink:href="#DejaVuSans-6f" x="346.826172"/>
      <use xlink:href="#DejaVuSans-75" x="408.007812"/>
      <use xlink:href="#DejaVuSans-6e" x="471.386719"/>
      <use xlink:href="#DejaVuSans-64" x="534.765625"/>
     </g>
    </g>
    <g id="line2d_17">
     <path d="M 188.825 47.658437 
L 198.825 47.658437 
L 208.825 47.658437 
" style="fill: none; stroke: #000000; stroke-linecap: square"/>
    </g>
    <g id="text_20">
     <!-- no_Plasticity -->
     <g transform="translate(216.825 51.158437) scale(0.1 -0.1)">
      <defs>
       <path id="DejaVuSans-50" d="M 1259 4147 
L 1259 2394 
L 2053 2394 
Q 2494 2394 2734 2622 
Q 2975 2850 2975 3272 
Q 2975 3691 2734 3919 
Q 2494 4147 2053 4147 
L 1259 4147 
z
M 628 4666 
L 2053 4666 
Q 2838 4666 3239 4311 
Q 3641 3956 3641 3272 
Q 3641 2581 3239 2228 
Q 2838 1875 2053 1875 
L 1259 1875 
L 1259 0 
L 628 0 
L 628 4666 
z
" transform="scale(0.015625)"/>
       <path id="DejaVuSans-61" d="M 2194 1759 
Q 1497 1759 1228 1600 
Q 959 1441 959 1056 
Q 959 750 1161 570 
Q 1363 391 1709 391 
Q 2188 391 2477 730 
Q 2766 1069 2766 1631 
L 2766 1759 
L 2194 1759 
z
M 3341 1997 
L 3341 0 
L 2766 0 
L 2766 531 
Q 2569 213 2275 61 
Q 1981 -91 1556 -91 
Q 1019 -91 701 211 
Q 384 513 384 1019 
Q 384 1609 779 1909 
Q 1175 2209 1959 2209 
L 2766 2209 
L 2766 2266 
Q 2766 2663 2505 2880 
Q 2244 3097 1772 3097 
Q 1472 3097 1187 3025 
Q 903 2953 641 2809 
L 641 3341 
Q 956 3463 1253 3523 
Q 1550 3584 1831 3584 
Q 2591 3584 2966 3190 
Q 3341 2797 3341 1997 
z
" transform="scale(0.015625)"/>
       <path id="DejaVuSans-63" d="M 3122 3366 
L 3122 2828 
Q 2878 2963 2633 3030 
Q 2388 3097 2138 3097 
Q 1578 3097 1268 2742 
Q 959 2388 959 1747 
Q 959 1106 1268 751 
Q 1578 397 2138 397 
Q 2388 397 2633 464 
Q 2878 531 3122 666 
L 3122 134 
Q 2881 22 2623 -34 
Q 2366 -91 2075 -91 
Q 1284 -91 818 406 
Q 353 903 353 1747 
Q 353 2603 823 3093 
Q 1294 3584 2113 3584 
Q 2378 3584 2631 3529 
Q 2884 3475 3122 3366 
z
" transform="scale(0.015625)"/>
      </defs>
      <use xlink:href="#DejaVuSans-6e"/>
      <use xlink:href="#DejaVuSans-6f" x="63.378906"/>
      <use xlink:href="#DejaVuSans-5f" x="124.560547"/>
      <use xlink:href="#DejaVuSans-50" x="174.560547"/>
      <use xlink:href="#DejaVuSans-6c" x="234.863281"/>
      <use xlink:href="#DejaVuSans-61" x="262.646484"/>
      <use xlink:href="#DejaVuSans-73" x="323.925781"/>
      <use xlink:href="#DejaVuSans-74" x="376.025391"/>
      <use xlink:href="#DejaVuSans-69" x="415.234375"/>
      <use xlink:href="#DejaVuSans-63" x="443.017578"/>
      <use xlink:href="#DejaVuSans-69" x="497.998047"/>
      <use xlink:href="#DejaVuSans-74" x="525.78125"/>
      <use xlink:href="#DejaVuSans-79" x="564.990234"/>
     </g>
    </g>
    <g id="line2d_18">
     <path d="M 188.825 62.614688 
L 198.825 62.614688 
L 208.825 62.614688 
" style="fill: none; stroke-dasharray: 3.7,1.6; stroke-dashoffset: 0; stroke: #000000"/>
    </g>
    <g id="text_21">
     <!-- Plasticity -->
     <g transform="translate(216.825 66.114688) scale(0.1 -0.1)">
      <use xlink:href="#DejaVuSans-50"/>
      <use xlink:href="#DejaVuSans-6c" x="60.302734"/>
      <use xlink:href="#DejaVuSans-61" x="88.085938"/>
      <use xlink:href="#DejaVuSans-73" x="149.365234"/>
      <use xlink:href="#DejaVuSans-74" x="201.464844"/>
      <use xlink:href="#DejaVuSans-69" x="240.673828"/>
      <use xlink:href="#DejaVuSans-63" x="268.457031"/>
      <use xlink:href="#DejaVuSans-69" x="323.4375"/>
      <use xlink:href="#DejaVuSans-74" x="351.220703"/>
      <use xlink:href="#DejaVuSans-79" x="390.429688"/>
     </g>
    </g>
    <g id="line2d_19">
     <path d="M 188.825 77.292812 
L 198.825 77.292812 
L 208.825 77.292812 
" style="fill: none; stroke-dasharray: 1,1.65; stroke-dashoffset: 0; stroke: #000000"/>
    </g>
    <g id="text_22">
     <!-- after_Plasticity -->
     <g transform="translate(216.825 80.792812) scale(0.1 -0.1)">
      <defs>
       <path id="DejaVuSans-66" d="M 2375 4863 
L 2375 4384 
L 1825 4384 
Q 1516 4384 1395 4259 
Q 1275 4134 1275 3809 
L 1275 3500 
L 2222 3500 
L 2222 3053 
L 1275 3053 
L 1275 0 
L 697 0 
L 697 3053 
L 147 3053 
L 147 3500 
L 697 3500 
L 697 3744 
Q 697 4328 969 4595 
Q 1241 4863 1831 4863 
L 2375 4863 
z
" transform="scale(0.015625)"/>
       <path id="DejaVuSans-72" d="M 2631 2963 
Q 2534 3019 2420 3045 
Q 2306 3072 2169 3072 
Q 1681 3072 1420 2755 
Q 1159 2438 1159 1844 
L 1159 0 
L 581 0 
L 581 3500 
L 1159 3500 
L 1159 2956 
Q 1341 3275 1631 3429 
Q 1922 3584 2338 3584 
Q 2397 3584 2469 3576 
Q 2541 3569 2628 3553 
L 2631 2963 
z
" transform="scale(0.015625)"/>
      </defs>
      <use xlink:href="#DejaVuSans-61"/>
      <use xlink:href="#DejaVuSans-66" x="61.279297"/>
      <use xlink:href="#DejaVuSans-74" x="94.734375"/>
      <use xlink:href="#DejaVuSans-65" x="133.943359"/>
      <use xlink:href="#DejaVuSans-72" x="195.466797"/>
      <use xlink:href="#DejaVuSans-5f" x="236.580078"/>
      <use xlink:href="#DejaVuSans-50" x="286.580078"/>
      <use xlink:href="#DejaVuSans-6c" x="346.882812"/>
      <use xlink:href="#DejaVuSans-61" x="374.666016"/>
      <use xlink:href="#DejaVuSans-73" x="435.945312"/>
      <use xlink:href="#DejaVuSans-74" x="488.044922"/>
      <use xlink:href="#DejaVuSans-69" x="527.253906"/>
      <use xlink:href="#DejaVuSans-63" x="555.037109"/>
      <use xlink:href="#DejaVuSans-69" x="610.017578"/>
      <use xlink:href="#DejaVuSans-74" x="637.800781"/>
      <use xlink:href="#DejaVuSans-79" x="677.009766"/>
     </g>
    </g>
   </g>
  </g>
 </g>
 <defs>
  <clipPath id="p0cddf849f3">
   <rect x="72" y="34.56" width="446.4" height="217.44"/>
  </clipPath>
 </defs>
</svg>
